<svg width="39" height="31" viewBox="0 0 39 31" fill="none" xmlns="http://www.w3.org/2000/svg">
<path d="M1.11145 14.5303H34.8228L21.7563 1.6527C21.3723 1.27425 21.3723 0.661217 21.7563 0.28286C22.1403 -0.0955887 22.7623 -0.0955887 23.1462 0.28286L37.8907 14.8141C38.2747 15.1926 38.2747 15.8056 37.8907 16.184L23.1462 30.7152C22.9543 30.9044 22.7027 30.999 22.4512 30.999C22.1997 30.999 21.9482 30.9044 21.7562 30.7152C21.3722 30.3368 21.3722 29.7237 21.7562 29.3454L34.8228 16.4679H1.11135C0.56802 16.4679 0.128361 16.0346 0.128361 15.4991C0.128361 14.9636 0.568115 14.5303 1.11145 14.5303Z" fill="#676767"/>
</svg>
