<svg width="119" height="125" viewBox="0 0 119 125" fill="none" xmlns="http://www.w3.org/2000/svg">
<path fill-rule="evenodd" clip-rule="evenodd" d="M72.0984 2.85714H45.9016C45.286 2.85714 44.7869 3.36882 44.7869 4C44.7869 4.43029 45.0188 4.80504 45.3615 5H72.6385C72.9812 4.80504 73.2131 4.43029 73.2131 4C73.2131 3.36882 72.714 2.85714 72.0984 2.85714ZM42 4C42 4.3453 42.0427 4.68038 42.1229 5H39.0633C36.2669 5 34 7.037 34 9.54976V50.5195C33.5516 50.3442 33.0636 50.248 32.5531 50.248H10.4044C8.20888 50.248 6.42903 52.0278 6.42903 54.2234V120.669C6.42903 120.738 6.43077 120.806 6.43421 120.874V122.149H1.07237C0.480115 122.149 0 122.771 0 123.538C0 124.306 0.480115 124.928 1.07237 124.928H34V125H84V124.928H117.103C117.695 124.928 118.175 124.306 118.175 123.538C118.175 122.771 117.695 122.149 117.103 122.149H111.312V121.368C111.428 120.965 111.491 120.54 111.491 120.101V38.8891C111.491 36.3799 109.457 34.3458 106.947 34.3458H85.9347C85.2428 34.3458 84.587 34.5005 84 34.7771V9.54976C84 7.037 81.7331 5 78.9367 5H75.8771C75.9573 4.68038 76 4.3453 76 4C76 1.79086 74.2532 0 72.0984 0H45.9016C43.7468 0 42 1.79086 42 4ZM39.0633 7.8436H44.8177C45.1618 7.94543 45.5255 8 45.9016 8H72.0984C72.4745 8 72.8382 7.94543 73.1823 7.8436H78.9367C79.9854 7.8436 80.8354 8.60748 80.8354 9.54976V122.149H37.1646V9.54976C37.1646 8.60748 38.0146 7.8436 39.0633 7.8436ZM85.9347 37.1854H106.947C107.888 37.1854 108.651 37.9482 108.651 38.8891V120.101C108.651 121.042 107.888 121.804 106.947 121.804H101.508C101.721 121.278 101.838 120.703 101.838 120.101V105.903C101.838 103.394 99.8038 101.36 97.2946 101.36H95.5908C93.0816 101.36 91.0475 103.394 91.0475 105.903V120.101C91.0475 120.703 91.1648 121.278 91.3778 121.804H84.2309V38.8891C84.2309 37.9482 84.9937 37.1854 85.9347 37.1854ZM97.3082 121.804H95.5772C94.6425 121.797 93.8871 121.037 93.8871 120.101V105.903C93.8871 104.962 94.6499 104.199 95.5908 104.199H97.2946C98.2355 104.199 98.9983 104.962 98.9983 105.903V120.101C98.9983 121.037 98.2429 121.797 97.3082 121.804ZM32.5531 53.0875H10.4044C9.77713 53.0875 9.2686 53.5961 9.2686 54.2234V120.669C9.2686 121.297 9.77713 121.805 10.4044 121.805H33.6889V54.2234C33.6889 53.5961 33.1804 53.0875 32.5531 53.0875ZM16.6511 110.732V62.4589C16.6511 61.6748 16.0154 61.0391 15.2313 61.0391C14.4472 61.0391 13.8115 61.6748 13.8115 62.4589V110.732C13.8115 111.516 14.4472 112.151 15.2313 112.151C16.0154 112.151 16.6511 111.516 16.6511 110.732ZM23.4662 62.4589V110.732C23.4662 111.516 22.8306 112.151 22.0465 112.151C21.2623 112.151 20.6267 111.516 20.6267 110.732V62.4589C20.6267 61.6748 21.2623 61.0391 22.0465 61.0391C22.8306 61.0391 23.4662 61.6748 23.4662 62.4589ZM30.2814 110.732V62.4589C30.2814 61.6748 29.6457 61.0391 28.8616 61.0391C28.0775 61.0391 27.4418 61.6748 27.4418 62.4589V110.732C27.4418 111.516 28.0775 112.151 28.8616 112.151C29.6457 112.151 30.2814 111.516 30.2814 110.732ZM88.4925 41.729L88.4909 41.729C87.7068 41.729 87.0712 42.3646 87.0712 43.1488C87.0712 43.9329 87.7068 44.5685 88.4909 44.5685H105.528C106.312 44.5685 106.948 43.9329 106.948 43.1488C106.948 42.3646 106.312 41.729 105.528 41.729L88.4925 41.729ZM88.4909 48.5438L88.4925 48.5438L105.528 48.5438C106.312 48.5438 106.948 49.1794 106.948 49.9635C106.948 50.7477 106.312 51.3833 105.528 51.3833H88.4909C87.7068 51.3833 87.0712 50.7477 87.0712 49.9635C87.0712 49.1794 87.7068 48.5438 88.4909 48.5438ZM88.4925 55.36L88.4909 55.36C87.7068 55.36 87.0712 55.9957 87.0712 56.7798C87.0712 57.5639 87.7068 58.1996 88.4909 58.1996H105.528C106.312 58.1996 106.948 57.5639 106.948 56.7798C106.948 55.9957 106.312 55.36 105.528 55.36L88.4925 55.36ZM88.4909 62.1737L88.4925 62.1737L105.528 62.1737C106.312 62.1737 106.948 62.8094 106.948 63.5935C106.948 64.3776 106.312 65.0133 105.528 65.0133H88.4909C87.7068 65.0133 87.0712 64.3776 87.0712 63.5935C87.0712 62.8094 87.7068 62.1737 88.4909 62.1737ZM88.4925 68.99H88.4909C87.7068 68.99 87.0712 69.6256 87.0712 70.4098C87.0712 71.1939 87.7068 71.8296 88.4909 71.8296H105.528C106.312 71.8296 106.948 71.1939 106.948 70.4098C106.948 69.6256 106.312 68.99 105.528 68.99H88.4925ZM88.4909 75.8037H88.4925H105.528C106.312 75.8037 106.948 76.4393 106.948 77.2234C106.948 78.0076 106.312 78.6432 105.528 78.6432H88.4909C87.7068 78.6432 87.0712 78.0076 87.0712 77.2234C87.0712 76.4393 87.7068 75.8037 88.4909 75.8037ZM88.4925 82.6199H88.4909C87.7068 82.6199 87.0712 83.2556 87.0712 84.0397C87.0712 84.8239 87.7068 85.4595 88.4909 85.4595H105.528C106.312 85.4595 106.948 84.8239 106.948 84.0397C106.948 83.2556 106.312 82.6199 105.528 82.6199H88.4925ZM44.7625 13.9022C43.6648 13.9022 42.7748 14.7921 42.7748 15.8899C42.7748 16.9876 43.6648 17.8776 44.7625 17.8776H48.241C49.3388 17.8776 50.2287 16.9876 50.2287 15.8899C50.2287 14.7921 49.3388 13.9022 48.241 13.9022H44.7625ZM55.1979 13.9022C54.1002 13.9022 53.2102 14.7921 53.2102 15.8899C53.2102 16.9876 54.1002 17.8776 55.1979 17.8776H62.1549C63.2526 17.8776 64.1426 16.9876 64.1426 15.8899C64.1426 14.7921 63.2526 13.9022 62.1549 13.9022H55.1979ZM69.1118 13.9022C68.014 13.9022 67.1241 14.7921 67.1241 15.8899C67.1241 16.9876 68.014 17.8776 69.1118 17.8776H72.5903C73.6881 17.8776 74.578 16.9876 74.578 15.8899C74.578 14.7921 73.6881 13.9022 72.5903 13.9022H69.1118ZM42.7748 26.6788C42.7748 25.581 43.6648 24.6911 44.7625 24.6911H48.241C49.3388 24.6911 50.2287 25.581 50.2287 26.6788C50.2287 27.7766 49.3388 28.6665 48.241 28.6665H44.7625C43.6648 28.6665 42.7748 27.7766 42.7748 26.6788ZM53.2102 26.6788C53.2102 25.581 54.1002 24.6911 55.1979 24.6911H62.1549C63.2526 24.6911 64.1426 25.581 64.1426 26.6788C64.1426 27.7766 63.2526 28.6665 62.1549 28.6665H55.1979C54.1002 28.6665 53.2102 27.7766 53.2102 26.6788ZM67.1241 26.6788C67.1241 25.581 68.014 24.6911 69.1118 24.6911H72.5903C73.6881 24.6911 74.578 25.581 74.578 26.6788C74.578 27.7766 73.6881 28.6665 72.5903 28.6665H69.1118C68.014 28.6665 67.1241 27.7766 67.1241 26.6788ZM44.7625 35.4812C43.6648 35.4812 42.7748 36.3711 42.7748 37.4689C42.7748 38.5666 43.6648 39.4566 44.7625 39.4566H48.241C49.3388 39.4566 50.2287 38.5666 50.2287 37.4689C50.2287 36.3711 49.3388 35.4812 48.241 35.4812H44.7625ZM55.1979 35.4812C54.1002 35.4812 53.2102 36.3711 53.2102 37.4689C53.2102 38.5666 54.1002 39.4566 55.1979 39.4566H62.1549C63.2526 39.4566 64.1426 38.5666 64.1426 37.4689C64.1426 36.3711 63.2526 35.4812 62.1549 35.4812H55.1979ZM69.1118 35.4812C68.014 35.4812 67.1241 36.3711 67.1241 37.4689C67.1241 38.5666 68.014 39.4566 69.1118 39.4566H72.5903C73.6881 39.4566 74.578 38.5666 74.578 37.4689C74.578 36.3711 73.6881 35.4812 72.5903 35.4812H69.1118ZM42.7748 48.2604C42.7748 47.1626 43.6648 46.2727 44.7625 46.2727H48.241C49.3388 46.2727 50.2287 47.1626 50.2287 48.2604C50.2287 49.3582 49.3388 50.2481 48.241 50.2481H44.7625C43.6648 50.2481 42.7748 49.3582 42.7748 48.2604ZM53.2102 48.2604C53.2102 47.1626 54.1002 46.2727 55.1979 46.2727H62.1549C63.2526 46.2727 64.1426 47.1626 64.1426 48.2604C64.1426 49.3582 63.2526 50.2481 62.1549 50.2481H55.1979C54.1002 50.2481 53.2102 49.3582 53.2102 48.2604ZM67.1241 48.2604C67.1241 47.1626 68.014 46.2727 69.1118 46.2727H72.5903C73.6881 46.2727 74.578 47.1626 74.578 48.2604C74.578 49.3582 73.6881 50.2481 72.5903 50.2481H69.1118C68.014 50.2481 67.1241 49.3582 67.1241 48.2604ZM44.7625 57.0631C43.6648 57.0631 42.7748 57.953 42.7748 59.0508C42.7748 60.1486 43.6648 61.0385 44.7625 61.0385H48.241C49.3388 61.0385 50.2287 60.1486 50.2287 59.0508C50.2287 57.953 49.3388 57.0631 48.241 57.0631H44.7625ZM55.1979 57.0631C54.1002 57.0631 53.2102 57.953 53.2102 59.0508C53.2102 60.1486 54.1002 61.0385 55.1979 61.0385H62.1549C63.2526 61.0385 64.1426 60.1486 64.1426 59.0508C64.1426 57.953 63.2526 57.0631 62.1549 57.0631H55.1979ZM69.1118 57.0631C68.014 57.0631 67.1241 57.953 67.1241 59.0508C67.1241 60.1486 68.014 61.0385 69.1118 61.0385H72.5903C73.6881 61.0385 74.578 60.1486 74.578 59.0508C74.578 57.953 73.6881 57.0631 72.5903 57.0631H69.1118ZM42.7748 69.842C42.7748 68.7442 43.6648 67.8543 44.7625 67.8543H48.241C49.3388 67.8543 50.2287 68.7442 50.2287 69.842C50.2287 70.9398 49.3388 71.8297 48.241 71.8297H44.7625C43.6648 71.8297 42.7748 70.9398 42.7748 69.842ZM53.2102 69.842C53.2102 68.7442 54.1002 67.8543 55.1979 67.8543H62.1549C63.2526 67.8543 64.1426 68.7442 64.1426 69.842C64.1426 70.9398 63.2526 71.8297 62.1549 71.8297H55.1979C54.1002 71.8297 53.2102 70.9398 53.2102 69.842ZM67.1241 69.842C67.1241 68.7442 68.014 67.8543 69.1118 67.8543H72.5903C73.6881 67.8543 74.578 68.7442 74.578 69.842C74.578 70.9398 73.6881 71.8297 72.5903 71.8297H69.1118C68.014 71.8297 67.1241 70.9398 67.1241 69.842ZM44.7625 78.6432C43.6648 78.6432 42.7748 79.5332 42.7748 80.6309C42.7748 81.7287 43.6648 82.6186 44.7625 82.6186H48.241C49.3388 82.6186 50.2287 81.7287 50.2287 80.6309C50.2287 79.5332 49.3388 78.6432 48.241 78.6432H44.7625ZM55.1979 78.6432C54.1002 78.6432 53.2102 79.5332 53.2102 80.6309C53.2102 81.7287 54.1002 82.6186 55.1979 82.6186H62.1549C63.2526 82.6186 64.1426 81.7287 64.1426 80.6309C64.1426 79.5332 63.2526 78.6432 62.1549 78.6432H55.1979ZM69.1118 78.6432C68.014 78.6432 67.1241 79.5332 67.1241 80.6309C67.1241 81.7287 68.014 82.6186 69.1118 82.6186H72.5903C73.6881 82.6186 74.578 81.7287 74.578 80.6309C74.578 79.5332 73.6881 78.6432 72.5903 78.6432H69.1118ZM42.7748 91.4213C42.7748 90.3236 43.6648 89.4337 44.7625 89.4337H48.241C49.3388 89.4337 50.2287 90.3236 50.2287 91.4213C50.2287 92.5191 49.3388 93.409 48.241 93.409H44.7625C43.6648 93.409 42.7748 92.5191 42.7748 91.4213ZM53.2102 91.4213C53.2102 90.3236 54.1002 89.4337 55.1979 89.4337H62.1549C63.2526 89.4337 64.1426 90.3236 64.1426 91.4213C64.1426 92.5191 63.2526 93.409 62.1549 93.409H55.1979C54.1002 93.409 53.2102 92.5191 53.2102 91.4213ZM67.1241 91.4213C67.1241 90.3236 68.014 89.4337 69.1118 89.4337H72.5903C73.6881 89.4337 74.578 90.3236 74.578 91.4213C74.578 92.5191 73.6881 93.409 72.5903 93.409H69.1118C68.014 93.409 67.1241 92.5191 67.1241 91.4213ZM44.7625 100.225C43.6648 100.225 42.7748 101.115 42.7748 102.213C42.7748 103.31 43.6648 104.2 44.7625 104.2H48.241C49.3388 104.2 50.2287 103.31 50.2287 102.213C50.2287 101.115 49.3388 100.225 48.241 100.225H44.7625ZM55.1979 100.225C54.1002 100.225 53.2102 101.115 53.2102 102.213C53.2102 103.31 54.1002 104.2 55.1979 104.2H62.1549C63.2526 104.2 64.1426 103.31 64.1426 102.213C64.1426 101.115 63.2526 100.225 62.1549 100.225H55.1979ZM69.1118 100.225C68.014 100.225 67.1241 101.115 67.1241 102.213C67.1241 103.31 68.014 104.2 69.1118 104.2H72.5903C73.6881 104.2 74.578 103.31 74.578 102.213C74.578 101.115 73.6881 100.225 72.5903 100.225H69.1118Z" fill="#0FB8C3"/>
</svg>
