<svg width="135" height="135" viewBox="0 0 135 135" fill="none" xmlns="http://www.w3.org/2000/svg">
<path d="M134.023 87.3539V124.776C134.023 127.015 133.7 127.344 131.455 127.327C129.703 127.307 127.948 127.54 126.199 127.208C125.286 127.035 124.869 126.539 124.944 125.623C125.018 124.708 125.577 124.41 126.37 124.385C127.163 124.359 128.034 124.356 128.864 124.385C130.604 124.43 131.241 123.818 131.238 122.077C131.224 110.646 131.209 99.2164 131.192 87.7876C131.192 76.9806 131.192 66.1746 131.192 55.3695C131.192 54.3716 131.232 53.385 131.232 52.3786C131.232 50.9271 130.596 50.3034 129.146 50.3034H74.884C73.1721 50.3034 72.6728 50.8108 72.6728 52.4892V105.847C72.6728 107.369 73.2149 107.908 74.7584 107.908C79.0953 107.908 83.4322 107.908 87.7662 107.885C88.8476 107.885 89.267 108.341 89.3213 109.382C89.5467 113.6 89.8919 117.813 89.8377 122.043C89.8034 124.118 90.0488 124.365 92.1459 124.356C92.3628 124.356 92.5796 124.356 92.7965 124.356C92.9837 124.344 93.1715 124.368 93.3491 124.428C93.5268 124.488 93.6908 124.582 93.8318 124.705C93.9728 124.828 94.088 124.978 94.1708 125.145C94.2536 125.312 94.3024 125.494 94.3144 125.68C94.4057 126.437 93.9149 126.927 93.1731 127.137C89.9347 128.07 87.247 127.03 84.9986 124.733C80.3051 119.934 75.389 115.378 70.5129 110.754C70.2607 110.523 70.0612 110.241 69.9279 109.927C69.7945 109.613 69.7303 109.274 69.7397 108.934C69.7397 89.0341 69.7397 69.1334 69.7397 49.2318C69.7397 47.9135 70.2646 47.3408 71.5172 47.3408C91.6381 47.3408 111.758 47.3408 131.877 47.3408C133.657 47.3408 133.997 47.681 133.997 49.4557C133.997 62.0847 133.997 74.7164 133.997 87.351L134.023 87.3539ZM81.7174 110.918C80.4963 110.918 79.2751 110.896 78.0568 110.918C77.5175 110.932 76.9155 110.964 76.6473 111.553C76.3791 112.143 76.7329 112.662 77.1095 113.028C79.5975 115.454 82.0941 117.878 84.6477 120.237C85.6891 121.198 86.7277 120.804 86.7962 119.415C86.916 117.008 86.8789 114.595 86.8247 112.183C86.8076 111.332 86.2027 110.907 85.341 110.901C84.1341 110.913 82.9243 110.918 81.7174 110.918Z" fill="#0FB8C3"/>
<path d="M117.657 127.642C117.657 129.479 117.657 131.328 117.657 133.153C117.657 134.905 116.658 135.47 115.135 134.594C113.708 133.766 112.253 132.935 110.821 132.09C110.461 131.856 110.039 131.732 109.609 131.735C109.179 131.737 108.758 131.866 108.401 132.105C106.975 132.955 105.531 133.783 104.087 134.611C102.601 135.461 101.462 134.823 101.465 133.108C101.465 130.798 101.465 128.484 101.542 126.174C101.683 122.982 100.586 119.859 98.4778 117.448C93.9469 112.192 94.9769 104.407 99.4878 99.7743C103.736 95.4169 108.941 94.4445 114.556 96.4205C120.082 98.3653 122.964 102.578 123.543 108.327C124.014 112.994 122.242 116.79 118.741 119.843C118.391 120.135 118.111 120.502 117.923 120.916C117.735 121.331 117.643 121.782 117.654 122.236C117.654 124.039 117.654 125.842 117.654 127.645L117.657 127.642ZM109.503 120.348C115.691 120.348 120.761 115.483 120.767 109.544C120.821 107.348 120.216 105.186 119.03 103.333C117.844 101.479 116.129 100.018 114.105 99.1355C112.081 98.2527 109.839 97.9878 107.663 98.3746C105.487 98.7614 103.476 99.7825 101.886 101.308C100.295 102.833 99.1973 104.794 98.7314 106.941C98.2655 109.088 98.4527 111.324 99.2693 113.365C100.086 115.406 101.495 117.16 103.317 118.403C105.139 119.647 107.292 120.324 109.503 120.348ZM104.367 126.049C104.367 126.446 104.367 126.843 104.367 127.237C104.367 127.631 104.327 128.05 104.31 128.456C104.25 129.8 105.263 130.46 106.484 129.873C106.821 129.709 107.146 129.516 107.465 129.321C109.597 128.031 109.768 128.036 111.765 129.476C111.975 129.634 112.197 129.775 112.43 129.896C113.76 130.551 114.975 129.811 114.961 128.342C114.947 126.95 114.912 125.561 114.872 124.169C114.844 123.254 114.093 122.602 113.212 122.831C110.868 123.461 108.397 123.461 106.053 122.831C105.151 122.587 104.407 123.242 104.378 124.181C104.361 124.802 104.375 125.425 104.375 126.049H104.367Z" fill="#0FB8C3"/>
<path d="M101.888 86.8381C95.3823 86.8381 88.878 86.8381 82.3746 86.8381C81.4273 86.8381 80.4743 86.7332 80.4372 85.449C80.4058 84.3689 80.9908 83.8784 82.3118 83.8784H95.8674C104.381 83.8784 112.895 83.8784 121.409 83.8784C122.339 83.8784 123.324 83.972 123.407 85.2307C123.481 86.3647 122.879 86.8353 121.441 86.8353L101.888 86.8381Z" fill="#0FB8C3"/>
<path d="M101.941 60.8068H121.451C122.775 60.8068 123.406 61.2831 123.414 62.2753C123.414 63.33 122.844 63.7552 121.394 63.7552H88.7735C86.6165 63.7552 84.4595 63.7779 82.3053 63.7552C81.3609 63.741 80.4136 63.6191 80.4279 62.315C80.4279 61.3143 81.0413 60.8238 82.3281 60.821C85.3868 60.821 88.4426 60.821 91.5012 60.821L101.941 60.8068Z" fill="#0FB8C3"/>
<path d="M98.7832 72.4413H115.42C116.801 72.4413 117.369 73.0083 117.164 74.165C116.958 75.3216 116.051 75.3188 115.206 75.3245C110.299 75.3443 105.391 75.3245 100.487 75.3245C94.4378 75.3245 88.389 75.3245 82.3401 75.3245C81.5783 75.3245 80.8422 75.2054 80.5141 74.3577C80.3947 74.0841 80.3698 73.779 80.443 73.4898C80.5163 73.2006 80.6837 72.9436 80.9193 72.7588C81.2531 72.4555 81.6639 72.4441 82.0605 72.4441H98.7832V72.4413Z" fill="#0FB8C3"/>
<path d="M86.0328 98.3369C84.568 98.4849 83.091 98.4668 81.6303 98.2831C80.8 98.1895 80.4034 97.7869 80.4262 96.9535C80.449 96.12 80.8086 95.536 81.6902 95.536C84.7003 95.5048 87.7105 95.4963 90.7206 95.536C91.645 95.536 92.0759 96.1852 92.0359 97.0697C91.996 97.9542 91.4653 98.3341 90.6464 98.3426C89.1085 98.3483 87.5707 98.3369 86.0328 98.3369Z" fill="#0FB8C3"/>
<path d="M0.0183301 42.2017C-0.0160404 37.218 0.259443 32.237 0.843186 27.2875C0.950418 26.4626 1.18963 25.7037 2.08873 25.4067C2.48279 25.309 2.89747 25.3358 3.27564 25.4836C3.65382 25.6313 3.97688 25.8927 4.20036 26.2316C7.21933 29.3498 11.0797 30.8923 15.1379 32.0554C20.2191 33.5155 25.4404 34.4146 30.5875 35.586C41.3106 38.0607 49.8396 43.6783 55.6384 53.0409C61.1237 61.9086 61.4124 71.131 56.5128 80.4111C56.0921 81.236 56.1828 81.566 57.0242 81.9372C60.0514 83.257 62.9796 84.8161 66.18 85.74C66.6176 85.8493 66.9938 86.1281 67.2258 86.5149C67.4578 86.9016 67.5267 87.3647 67.4173 87.8022C67.3079 88.2398 67.0292 88.616 66.6425 88.848C66.2558 89.0801 65.7927 89.1489 65.3552 89.0396C63.1851 88.5299 61.0854 87.757 59.1028 86.7381C57.6263 86.1029 56.1828 85.377 54.7311 84.6924C54.2856 84.4779 53.9062 84.3376 53.4938 84.8161C49.5592 89.5922 44.2389 91.4153 38.2917 91.8772C30.4363 92.6146 22.5933 90.3479 16.3422 85.5337C10.0816 80.807 6.12228 74.4141 3.57347 67.1055C1.35966 60.4914 0.160994 53.58 0.0183301 46.6067C-0.0229127 45.1136 0.0183301 43.6535 0.0183301 42.2017ZM56.4632 68.3428C56.5396 66.0672 56.2613 63.7935 55.6384 61.6034C52.7596 52.2408 46.4907 45.8148 37.8297 41.649C32.8064 39.2403 27.2798 38.3494 21.8688 37.1698C15.8803 35.883 9.85062 34.6951 4.64577 31.1398C4.13436 30.7934 3.92816 30.9913 3.87866 31.5357C3.76318 33.0453 3.61471 34.5549 3.54047 36.0644C3.07855 44.9816 3.49098 53.8246 5.82533 62.4613C7.68125 69.3987 10.7085 75.7174 16.0288 80.6916C22.5452 86.7876 30.34 89.2376 39.1248 88.2642C43.1253 87.8188 46.8702 86.6144 49.8479 83.6117C50.5325 82.9106 50.6727 82.5723 49.6582 82.0362C44.6085 79.3927 39.8481 76.2299 35.4541 72.5993C30.3235 68.2933 25.6879 63.4676 21.0192 58.6832C17.0165 54.6723 13.2489 50.4336 9.73514 45.988C8.91028 44.9487 9.00926 43.967 9.89186 43.2988C10.0841 43.1597 10.3032 43.062 10.5351 43.0118C10.7671 42.9617 11.007 42.9602 11.2395 43.0075C11.4721 43.0548 11.6923 43.1498 11.8863 43.2866C12.0803 43.4233 12.2438 43.5988 12.3664 43.802C17.3981 50.1868 23.1473 55.9115 28.8058 61.7188C35.6191 68.714 43.0841 74.7936 51.7946 79.2893C52.6194 79.71 52.9824 79.5862 53.3783 78.8191C55.1908 75.6074 56.2459 72.0242 56.4632 68.3428Z" fill="#0FB8C3"/>
<path d="M92.6416 22.6846C92.2704 31.0079 88.641 37.4586 81.4318 41.7893C77.8204 43.9587 75.6274 41.1227 77.5549 39.9085C85.6138 36.3615 90.101 28.5744 88.9875 20.1109C88.403 15.9687 86.446 12.1423 83.4297 9.244C80.4134 6.34568 76.5121 4.54301 72.3501 4.12437C69.5983 3.8307 66.8158 4.16427 64.2115 5.10006C61.6071 6.03586 59.2486 7.54955 57.3129 9.52746L56.851 9.98115C55.6715 11.1195 54.4507 10.8885 53.7331 9.40371C51.8112 5.46068 47.7859 3.06024 43.8348 3.49744C39.0259 4.03362 35.6687 6.88777 34.6129 11.4742C34.2996 12.8051 34.2721 14.1874 34.5323 15.5297C34.7925 16.872 35.3345 18.1439 36.1224 19.2613C37.4339 21.2245 36.8483 22.3052 34.4727 22.5609C32.3898 22.8021 30.3774 23.463 28.5571 24.5036C26.7367 25.5443 25.1462 26.9431 23.8815 28.6156C23.7413 28.7889 23.6176 28.9621 23.4856 29.1353C23.3646 29.3502 23.1991 29.5367 23.0002 29.6825C22.8013 29.8283 22.5736 29.9299 22.3322 29.9806C22.0909 30.0312 21.8415 30.0297 21.6008 29.9763C21.3601 29.9228 21.1336 29.8186 20.9364 29.6705C20.7392 29.5225 20.5758 29.3341 20.4573 29.1178C20.3388 28.9016 20.2678 28.6624 20.2491 28.4166C20.2304 28.1707 20.2644 27.9236 20.3489 27.6919C20.4333 27.4603 20.5663 27.2492 20.7388 27.0731C22.3099 24.8731 24.3246 23.0269 26.653 21.6535C28.1077 20.7681 29.6831 20.0984 31.33 19.6655C31.9651 19.5005 32.0971 19.2531 31.8661 18.6096C28.8224 10.4266 33.4499 1.91361 41.9624 0.280304C47.2332 -0.734325 51.6627 1.03095 55.0858 5.1637C55.6797 5.88137 56.0179 5.98865 56.7356 5.36172C59.757 2.95172 63.3572 1.37563 67.1774 0.79058C70.9977 0.205526 74.9045 0.631896 78.5087 2.02723C82.1128 3.42256 85.2884 5.73813 87.7189 8.74314C90.1494 11.7482 91.75 15.3377 92.3611 19.154C92.5665 20.3193 92.6604 21.5015 92.6416 22.6846Z" fill="#0FB8C3"/>
<path d="M65.7434 28.5247C65.7766 29.2152 65.6648 29.905 65.4151 30.5497C65.1655 31.1943 64.7835 31.7794 64.2939 32.2675C63.8043 32.7555 63.218 33.1356 62.5725 33.3832C61.9271 33.6308 61.237 33.7405 60.5466 33.7051C59.5204 33.7035 58.5177 33.3976 57.6653 32.8261C56.813 32.2546 56.1492 31.4432 55.758 30.4945C55.3668 29.5458 55.2657 28.5023 55.4675 27.4962C55.6693 26.49 56.165 25.5663 56.8918 24.8418C57.6186 24.1173 58.5439 23.6246 59.5507 23.426C60.5575 23.2274 61.6006 23.3318 62.5481 23.726C63.4955 24.1202 64.3048 24.7865 64.8736 25.6407C65.4424 26.4949 65.7451 27.4985 65.7434 28.5247ZM63.574 28.5247C63.609 28.107 63.5554 27.6867 63.4168 27.2911C63.2781 26.8955 63.0575 26.5337 62.7694 26.2293C62.4813 25.9248 62.1322 25.6846 61.7449 25.5244C61.3576 25.3641 60.9408 25.2875 60.5218 25.2994C59.6708 25.2994 58.8546 25.6374 58.2528 26.2392C57.6511 26.841 57.313 27.6572 57.313 28.5083C57.313 29.3593 57.6511 30.1755 58.2528 30.7772C58.8546 31.379 59.6708 31.7171 60.5218 31.7171C60.9387 31.7328 61.3542 31.6611 61.7416 31.5065C62.129 31.3519 62.4797 31.1179 62.7711 30.8194C63.0626 30.521 63.2882 30.1648 63.4336 29.7738C63.579 29.3829 63.6409 28.9658 63.6152 28.5495L63.574 28.5247Z" fill="#0FB8C3"/>
<path d="M43.9595 27.8878C44.0097 27.0102 44.3984 26.0693 44.9215 25.3629C45.4447 24.6566 46.1628 24.1185 46.9876 23.8146C47.9234 23.3641 48.972 23.202 50.0001 23.3489C51.0283 23.4958 51.9896 23.945 52.7619 24.6395C53.0753 24.9117 53.8012 25.2994 53.2568 25.7943C52.7124 26.2893 52.2339 27.0399 51.3183 26.1573C50.7645 25.6484 50.0423 25.3619 49.2902 25.3528C48.5382 25.3436 47.8093 25.6125 47.2433 26.1078C46.6797 26.6475 46.3163 27.3628 46.2129 28.1363C46.1094 28.9098 46.2721 29.6955 46.6741 30.3643C47.0687 30.9827 47.6707 31.4403 48.3721 31.6549C49.0736 31.8696 49.8286 31.8273 50.5016 31.5357C50.7386 31.4613 50.9557 31.3344 51.1368 31.1644C51.7307 30.3395 52.2587 30.6612 52.9103 31.1644C53.562 31.6676 53.3228 32.0718 52.8691 32.4678C52.0986 33.1633 51.1423 33.6195 50.117 33.7807C49.0916 33.9418 48.0414 33.8009 47.0948 33.3752C45.1233 32.5503 43.9512 30.8657 43.9595 27.8878Z" fill="#0FB8C3"/>
<path d="M69.3898 38.2753C68.9031 38.1104 68.0534 38.6631 67.74 37.9289C67.4265 37.1947 68.2844 36.7905 68.6804 36.2791C69.0763 35.7677 69.4557 35.4542 69.8187 35.0583C69.9933 34.8999 70.1033 34.6827 70.1277 34.4483C70.152 34.2139 70.089 33.9787 69.9507 33.7879C69.8839 33.6893 69.7965 33.6064 69.6945 33.5448C69.5926 33.4832 69.4785 33.4443 69.3602 33.431C69.2418 33.4177 69.122 33.4302 69.0089 33.4676C68.8958 33.505 68.7922 33.5664 68.7051 33.6477C68.2844 33.9034 67.8802 34.0849 67.6245 33.5404C67.3687 32.996 67.8885 32.7898 68.2349 32.6C68.6742 32.3708 69.174 32.2842 69.6649 32.3522C70.1557 32.4202 70.6131 32.6395 70.9736 32.9795C71.2555 33.3895 71.3873 33.8843 71.3467 34.3802C71.3061 34.8762 71.0957 35.3429 70.7508 35.7017C70.6354 35.8501 70.4869 35.9656 70.3797 36.1141C70.2724 36.2626 69.7445 36.5678 69.8929 36.939C70.0414 37.3102 70.4456 37.1453 70.7178 37.17C70.9901 37.1948 71.485 37.2442 71.4438 37.7804C71.4025 38.3166 71.0395 38.2588 70.6931 38.2671C70.3466 38.2753 69.9012 38.2753 69.3898 38.2753Z" fill="#0FB8C3"/>
</svg>
