<svg width="438" height="163" viewBox="0 0 438 163" fill="none" xmlns="http://www.w3.org/2000/svg">
<path d="M133.535 93.3008V154.702C133.535 158.697 130.296 161.935 126.302 161.935H8.23241C4.23806 161.935 1 158.697 1 154.702V8.23243C1 4.23807 4.23806 1 8.23242 1H126.302C130.296 1 133.535 4.23806 133.535 8.23242V71.409" stroke="#676767" stroke-width="1.38621"/>
<path d="M303.936 93.3008V154.702C303.936 158.697 307.174 161.935 311.168 161.935H429.238C433.232 161.935 436.47 158.697 436.47 154.702V8.23243C436.47 4.23807 433.232 1 429.238 1H311.168C307.174 1 303.936 4.23806 303.936 8.23242V71.409" stroke="#676767" stroke-width="1.38621"/>
<path d="M284.095 61.9422L288.097 55.0112H280.093L284.095 61.9422ZM154.243 102.768L150.242 109.699H158.245L154.243 102.768ZM161.476 1.69311H276.863V0.306893H161.476V1.69311ZM276.863 161.242H161.476V162.628H276.863V161.242ZM283.402 8.23242V55.7043H284.788V8.23242H283.402ZM283.402 82.0591V154.702H284.788V82.0591H283.402ZM300.386 80.6264H284.835V82.0126H300.386V80.6264ZM154.936 154.702V109.006H153.55V154.702H154.936ZM154.936 80.5799V8.23242H153.55V80.5799H154.936ZM136.789 82.0126H153.504V80.6264H136.789V82.0126ZM161.476 161.242C157.864 161.242 154.936 158.314 154.936 154.702H153.55C153.55 159.08 157.099 162.628 161.476 162.628V161.242ZM284.835 80.6264C284.043 80.6264 283.402 81.2678 283.402 82.0591H284.788C284.788 82.0334 284.809 82.0126 284.835 82.0126V80.6264ZM276.863 162.628C281.24 162.628 284.788 159.08 284.788 154.702H283.402C283.402 158.314 280.474 161.242 276.863 161.242V162.628ZM276.863 1.69311C280.474 1.69311 283.402 4.62086 283.402 8.23242H284.788C284.788 3.85527 281.24 0.306893 276.863 0.306893V1.69311ZM153.504 82.0126C154.295 82.0126 154.936 81.3711 154.936 80.5799H153.55C153.55 80.6056 153.529 80.6264 153.504 80.6264V82.0126ZM161.476 0.306893C157.099 0.306893 153.55 3.85527 153.55 8.23242H154.936C154.936 4.62086 157.864 1.69311 161.476 1.69311V0.306893Z" fill="#676767"/>
<path d="M343.26 127.749H351.306" stroke="#0FB8C3" stroke-width="1.06717" stroke-linecap="round" stroke-linejoin="round"/>
<path d="M342.987 81.6218H347.89" stroke="#0FB8C3" stroke-width="1.06717" stroke-linecap="round" stroke-linejoin="round"/>
<path d="M342.987 85.1838H347.89" stroke="#0FB8C3" stroke-width="1.06717" stroke-linecap="round" stroke-linejoin="round"/>
<path d="M342.987 53.9435H347.89" stroke="#0FB8C3" stroke-width="1.06717" stroke-linecap="round" stroke-linejoin="round"/>
<path d="M342.987 58.5529H347.89" stroke="#0FB8C3" stroke-width="1.06717" stroke-linecap="round" stroke-linejoin="round"/>
<path d="M345.46 49.9516L360.526 38.8676H370.321" stroke="#0FB8C3" stroke-width="1.06717" stroke-linecap="round" stroke-linejoin="round"/>
<path d="M345.46 87.9078V76.8552H369.525" stroke="#0FB8C3" stroke-width="1.06717" stroke-linecap="round" stroke-linejoin="round"/>
<path d="M345.46 76.8558L360.264 65.7717H370.059L361.374 56.783L369.525 50.2247" stroke="#0FB8C3" stroke-width="1.06717" stroke-linecap="round" stroke-linejoin="round"/>
<path d="M370.058 66.1063L360.388 76.8551L369.785 83.4762L356.878 93.0098L369.523 101.726L352.08 113.491" stroke="#0FB8C3" stroke-width="1.06717" stroke-linecap="round" stroke-linejoin="round"/>
<path d="M348.226 127.278L360.662 76.5617L360.526 38.8676L369.787 49.9516H345.46V61.0042" stroke="#0FB8C3" stroke-width="1.06717" stroke-linecap="round" stroke-linejoin="round"/>
<path d="M370.059 93.1453L356.879 93.0092" stroke="#0FB8C3" stroke-width="1.06717" stroke-linecap="round" stroke-linejoin="round"/>
<path d="M396.102 127.749H388.056" stroke="#0FB8C3" stroke-width="1.06717" stroke-linecap="round" stroke-linejoin="round"/>
<path d="M396.375 81.6218H391.472" stroke="#0FB8C3" stroke-width="1.06717" stroke-linecap="round" stroke-linejoin="round"/>
<path d="M396.375 85.1838H391.472" stroke="#0FB8C3" stroke-width="1.06717" stroke-linecap="round" stroke-linejoin="round"/>
<path d="M396.375 53.9435H391.472" stroke="#0FB8C3" stroke-width="1.06717" stroke-linecap="round" stroke-linejoin="round"/>
<path d="M396.375 58.5529H391.472" stroke="#0FB8C3" stroke-width="1.06717" stroke-linecap="round" stroke-linejoin="round"/>
<path d="M393.902 49.9516L378.836 38.8676H369.041" stroke="#0FB8C3" stroke-width="1.06717" stroke-linecap="round" stroke-linejoin="round"/>
<path d="M393.902 87.9078V76.8552H369.849" stroke="#0FB8C3" stroke-width="1.06717" stroke-linecap="round" stroke-linejoin="round"/>
<path d="M393.903 76.8558L379.099 65.7717H369.314L377.989 56.783L369.849 50.2247" stroke="#0FB8C3" stroke-width="1.06717" stroke-linecap="round" stroke-linejoin="round"/>
<path d="M369.314 66.1063L378.974 76.8551L369.576 83.4762L382.483 93.0098L369.849 101.726L387.282 113.491" stroke="#0FB8C3" stroke-width="1.06717" stroke-linecap="round" stroke-linejoin="round"/>
<path d="M391.137 127.278L378.701 76.5617L378.837 38.8676L369.576 49.9516H393.902V61.0042" stroke="#0FB8C3" stroke-width="1.06717" stroke-linecap="round" stroke-linejoin="round"/>
<path d="M369.305 93.1453L382.484 93.0092" stroke="#0FB8C3" stroke-width="1.06717" stroke-linecap="round" stroke-linejoin="round"/>
<path d="M262.383 94.1311V117.553C262.383 118.954 262.181 119.16 260.776 119.15C259.679 119.137 258.581 119.283 257.487 119.075C256.915 118.967 256.654 118.656 256.701 118.083C256.747 117.51 257.097 117.324 257.594 117.308C258.09 117.292 258.635 117.29 259.154 117.308C260.244 117.336 260.642 116.953 260.64 115.863C260.632 108.709 260.622 101.556 260.612 94.4026C260.612 87.6388 260.612 80.8755 260.612 74.1129C260.612 73.4883 260.637 72.8708 260.637 72.2409C260.637 71.3324 260.238 70.9421 259.331 70.9421H225.37C224.298 70.9421 223.986 71.2597 223.986 72.3101V105.705C223.986 106.658 224.325 106.995 225.291 106.995C228.005 106.995 230.72 106.995 233.432 106.981C234.109 106.981 234.372 107.267 234.406 107.918C234.547 110.558 234.763 113.195 234.729 115.842C234.707 117.141 234.861 117.295 236.174 117.29C236.309 117.29 236.445 117.29 236.581 117.29C236.698 117.282 236.815 117.298 236.927 117.335C237.038 117.373 237.14 117.432 237.229 117.508C237.317 117.585 237.389 117.679 237.441 117.784C237.493 117.888 237.523 118.002 237.531 118.119C237.588 118.592 237.281 118.899 236.816 119.031C234.79 119.614 233.107 118.963 231.7 117.526C228.763 114.522 225.686 111.671 222.634 108.777C222.476 108.632 222.351 108.456 222.268 108.259C222.184 108.063 222.144 107.851 222.15 107.638C222.15 95.1827 222.15 82.7273 222.15 70.2714C222.15 69.4463 222.479 69.0879 223.262 69.0879C235.856 69.0879 248.448 69.0879 261.04 69.0879C262.155 69.0879 262.367 69.3008 262.367 70.4116C262.367 78.3157 262.367 86.2216 262.367 94.1294L262.383 94.1311ZM229.647 108.88C228.882 108.88 228.118 108.865 227.355 108.88C227.018 108.888 226.641 108.908 226.473 109.277C226.305 109.646 226.527 109.971 226.763 110.2C228.32 111.719 229.882 113.236 231.481 114.712C232.132 115.313 232.782 115.067 232.825 114.197C232.9 112.691 232.877 111.181 232.843 109.671C232.832 109.139 232.454 108.872 231.914 108.869C231.159 108.876 230.402 108.88 229.647 108.88Z" fill="#0FB8C3"/>
<path d="M252.14 119.347C252.14 120.497 252.14 121.654 252.14 122.796C252.14 123.893 251.515 124.246 250.562 123.698C249.669 123.179 248.758 122.66 247.862 122.131C247.636 121.984 247.373 121.907 247.103 121.908C246.834 121.91 246.571 121.99 246.347 122.14C245.455 122.672 244.551 123.19 243.647 123.708C242.717 124.241 242.004 123.841 242.006 122.768C242.006 121.322 242.006 119.874 242.054 118.428C242.143 116.43 241.456 114.476 240.137 112.966C237.301 109.677 237.945 104.804 240.769 101.905C243.428 99.1778 246.685 98.5692 250.199 99.8059C253.658 101.023 255.462 103.66 255.824 107.258C256.119 110.179 255.01 112.555 252.819 114.466C252.6 114.649 252.425 114.878 252.307 115.137C252.189 115.397 252.132 115.679 252.139 115.963C252.139 117.092 252.139 118.22 252.139 119.349L252.14 119.347ZM247.037 114.781C250.91 114.781 254.083 111.737 254.087 108.019C254.12 106.645 253.742 105.292 253 104.132C252.257 102.972 251.184 102.058 249.918 101.505C248.651 100.953 247.247 100.787 245.885 101.029C244.523 101.271 243.265 101.91 242.269 102.865C241.274 103.82 240.587 105.047 240.295 106.391C240.004 107.734 240.121 109.134 240.632 110.411C241.143 111.689 242.025 112.786 243.165 113.565C244.306 114.343 245.653 114.766 247.037 114.781ZM243.822 118.35C243.822 118.598 243.822 118.847 243.822 119.093C243.822 119.34 243.797 119.602 243.787 119.856C243.749 120.697 244.383 121.111 245.147 120.743C245.358 120.64 245.562 120.52 245.762 120.397C247.096 119.59 247.203 119.594 248.453 120.495C248.584 120.594 248.723 120.682 248.869 120.758C249.701 121.167 250.462 120.704 250.453 119.785C250.444 118.914 250.423 118.045 250.398 117.173C250.38 116.6 249.91 116.192 249.358 116.336C247.891 116.73 246.345 116.73 244.878 116.336C244.313 116.183 243.847 116.593 243.83 117.18C243.819 117.569 243.828 117.959 243.828 118.35H243.822Z" fill="#0FB8C3"/>
<path d="M242.272 93.8085C238.2 93.8085 234.129 93.8085 230.059 93.8085C229.466 93.8085 228.87 93.7428 228.846 92.939C228.827 92.263 229.193 91.9561 230.02 91.9561H238.504C243.833 91.9561 249.161 91.9561 254.49 91.9561C255.072 91.9561 255.688 92.0146 255.74 92.8024C255.786 93.5122 255.41 93.8067 254.51 93.8067L242.272 93.8085Z" fill="#0FB8C3"/>
<path d="M242.304 77.5162H254.515C255.343 77.5162 255.738 77.8143 255.743 78.4353C255.743 79.0954 255.386 79.3616 254.479 79.3616H234.062C232.712 79.3616 231.362 79.3758 230.014 79.3616C229.423 79.3527 228.83 79.2764 228.839 78.4602C228.839 77.8338 229.223 77.5269 230.028 77.5251C231.943 77.5251 233.855 77.5251 235.77 77.5251L242.304 77.5162Z" fill="#0FB8C3"/>
<path d="M240.328 84.7975H250.74C251.605 84.7975 251.96 85.1524 251.832 85.8763C251.703 86.6002 251.135 86.5985 250.607 86.602C247.535 86.6144 244.464 86.602 241.394 86.602C237.608 86.602 233.822 86.602 230.036 86.602C229.56 86.602 229.099 86.5275 228.893 85.9969C228.819 85.8257 228.803 85.6347 228.849 85.4537C228.895 85.2727 229 85.1119 229.147 84.9962C229.356 84.8064 229.613 84.7993 229.861 84.7993H240.328V84.7975Z" fill="#0FB8C3"/>
<path d="M232.347 101.005C231.431 101.098 230.506 101.086 229.592 100.971C229.072 100.913 228.824 100.661 228.838 100.139C228.853 99.6176 229.078 99.252 229.63 99.252C231.514 99.2325 233.398 99.2272 235.281 99.252C235.86 99.252 236.13 99.6584 236.105 100.212C236.08 100.766 235.748 101.003 235.235 101.009C234.273 101.012 233.31 101.005 232.347 101.005Z" fill="#0FB8C3"/>
<path d="M178.512 65.8717C178.491 62.7525 178.663 59.635 179.029 56.5372C179.096 56.0209 179.246 55.546 179.808 55.3601C180.055 55.2989 180.314 55.3157 180.551 55.4082C180.788 55.5007 180.99 55.6642 181.13 55.8764C183.019 57.828 185.435 58.7934 187.975 59.5214C191.156 60.4352 194.424 60.9979 197.645 61.7311C204.356 63.2799 209.694 66.7959 213.324 72.6557C216.757 78.2058 216.938 83.9779 213.871 89.7861C213.608 90.3024 213.664 90.5089 214.191 90.7412C216.086 91.5673 217.918 92.543 219.922 93.1213C220.195 93.1897 220.431 93.3642 220.576 93.6063C220.721 93.8483 220.764 94.1381 220.696 94.412C220.627 94.6858 220.453 94.9213 220.211 95.0665C219.969 95.2118 219.679 95.2549 219.405 95.1864C218.047 94.8674 216.733 94.3837 215.492 93.746C214.568 93.3484 213.664 92.8941 212.756 92.4656C212.477 92.3314 212.24 92.2436 211.981 92.543C209.519 95.5323 206.189 96.6733 202.467 96.9624C197.55 97.424 192.642 96.0053 188.729 92.9922C184.811 90.0339 182.333 86.0327 180.738 81.4584C179.352 77.3188 178.602 72.9931 178.512 68.6287C178.487 67.6942 178.512 66.7804 178.512 65.8717ZM213.84 82.2328C213.888 80.8085 213.714 79.3855 213.324 78.0148C211.522 72.1549 207.598 68.133 202.178 65.5258C199.034 64.0182 195.575 63.4607 192.188 62.7224C188.44 61.917 184.666 61.1735 181.409 58.9483C181.089 58.7315 180.96 58.8554 180.929 59.1961C180.856 60.1409 180.763 61.0857 180.717 62.0305C180.428 67.6116 180.686 73.1462 182.147 78.5517C183.308 82.8937 185.203 86.8484 188.533 89.9616C192.611 93.777 197.49 95.3104 202.988 94.7011C205.492 94.4223 207.836 93.6686 209.7 91.7893C210.128 91.3504 210.216 91.1387 209.581 90.8032C206.42 89.1487 203.441 87.1692 200.691 84.8968C197.48 82.2018 194.578 79.1815 191.656 76.1871C189.151 73.6768 186.793 71.0238 184.594 68.2415C184.078 67.5909 184.14 66.9766 184.692 66.5584C184.812 66.4713 184.949 66.4101 185.095 66.3787C185.24 66.3473 185.39 66.3464 185.536 66.376C185.681 66.4056 185.819 66.4651 185.94 66.5507C186.062 66.6363 186.164 66.7461 186.241 66.8733C189.39 70.8693 192.988 74.4524 196.53 78.087C200.794 82.4651 205.466 86.2702 210.918 89.0839C211.434 89.3472 211.661 89.2698 211.909 88.7897C213.044 86.7796 213.704 84.5369 213.84 82.2328Z" fill="#0FB8C3" stroke="#0FB8C3" stroke-width="0.115936" stroke-linecap="round" stroke-linejoin="round"/>
<path d="M236.484 53.6564C236.251 58.8657 233.98 62.9031 229.468 65.6136C227.208 66.9714 225.835 65.1964 227.041 64.4364C232.085 62.2164 234.894 57.3427 234.197 52.0456C233.831 49.4531 232.606 47.0582 230.718 45.2442C228.83 43.4302 226.389 42.302 223.784 42.04C222.062 41.8562 220.32 42.0649 218.69 42.6506C217.06 43.2363 215.584 44.1837 214.372 45.4216L214.083 45.7056C213.345 46.4181 212.581 46.2735 212.132 45.3442C210.929 42.8763 208.41 41.374 205.937 41.6476C202.927 41.9832 200.826 43.7695 200.165 46.6401C199.969 47.4731 199.952 48.3382 200.115 49.1783C200.277 50.0184 200.617 50.8144 201.11 51.5138C201.931 52.7426 201.564 53.4189 200.077 53.579C198.774 53.7299 197.514 54.1435 196.375 54.7949C195.235 55.4462 194.24 56.3217 193.448 57.3685C193.361 57.4769 193.283 57.5853 193.201 57.6937C193.125 57.8282 193.021 57.945 192.897 58.0362C192.772 58.1274 192.63 58.191 192.479 58.2228C192.328 58.2545 192.172 58.2535 192.021 58.2201C191.87 58.1866 191.729 58.1214 191.605 58.0287C191.482 57.936 191.379 57.8181 191.305 57.6828C191.231 57.5474 191.187 57.3978 191.175 57.2439C191.163 57.09 191.185 56.9354 191.237 56.7904C191.29 56.6454 191.373 56.5133 191.481 56.403C192.465 55.0261 193.726 53.8706 195.183 53.0111C196.093 52.4569 197.079 52.0378 198.11 51.7668C198.508 51.6635 198.59 51.5087 198.446 51.106C196.541 45.9844 199.437 40.6563 204.765 39.6341C208.064 38.999 210.836 40.1039 212.978 42.6905C213.35 43.1396 213.562 43.2068 214.011 42.8144C215.902 41.306 218.155 40.3196 220.546 39.9534C222.937 39.5873 225.383 39.8541 227.638 40.7274C229.894 41.6007 231.882 43.05 233.403 44.9307C234.924 46.8115 235.926 49.0581 236.308 51.4467C236.437 52.176 236.496 52.9159 236.484 53.6564Z" fill="#0FB8C3"/>
<path d="M219.648 57.3115C219.669 57.7437 219.599 58.1754 219.443 58.5789C219.286 58.9824 219.047 59.3486 218.741 59.654C218.435 59.9595 218.068 60.1974 217.664 60.3523C217.26 60.5073 216.828 60.576 216.396 60.5538C215.753 60.5528 215.126 60.3614 214.592 60.0037C214.059 59.646 213.643 59.1381 213.399 58.5444C213.154 57.9506 213.09 57.2975 213.217 56.6678C213.343 56.038 213.653 55.4599 214.108 55.0065C214.563 54.553 215.142 54.2447 215.772 54.1204C216.402 53.9961 217.055 54.0614 217.648 54.3081C218.241 54.5549 218.748 54.9719 219.104 55.5065C219.46 56.0411 219.649 56.6693 219.648 57.3115ZM218.29 57.3115C218.312 57.0501 218.279 56.787 218.192 56.5394C218.105 56.2919 217.967 56.0654 217.787 55.8749C217.607 55.6843 217.388 55.534 217.146 55.4337C216.903 55.3334 216.642 55.2854 216.38 55.2929C215.847 55.2929 215.337 55.5045 214.96 55.8811C214.583 56.2577 214.372 56.7686 214.372 57.3012C214.372 57.8339 214.583 58.3447 214.96 58.7213C215.337 59.098 215.847 59.3096 216.38 59.3096C216.641 59.3194 216.901 59.2745 217.144 59.1778C217.386 59.081 217.605 58.9345 217.788 58.7477C217.97 58.561 218.112 58.338 218.203 58.0933C218.294 57.8486 218.332 57.5876 218.316 57.327L218.29 57.3115Z" fill="#0FB8C3"/>
<path d="M206.014 56.9125C206.045 56.3633 206.288 55.7744 206.616 55.3323C206.943 54.8902 207.393 54.5534 207.909 54.3632C208.495 54.0813 209.151 53.9798 209.794 54.0718C210.438 54.1637 211.04 54.4449 211.523 54.8795C211.719 55.0499 212.173 55.2925 211.833 55.6023C211.492 55.9121 211.192 56.3819 210.619 55.8295C210.273 55.511 209.821 55.3316 209.35 55.3259C208.879 55.3202 208.423 55.4885 208.069 55.7985C207.716 56.1363 207.489 56.584 207.424 57.0681C207.359 57.5522 207.461 58.0439 207.713 58.4625C207.96 58.8496 208.336 59.136 208.775 59.2703C209.214 59.4047 209.687 59.3782 210.108 59.1957C210.257 59.1491 210.392 59.0697 210.506 58.9633C210.878 58.447 211.208 58.6484 211.616 58.9633C212.024 59.2783 211.874 59.5312 211.59 59.7791C211.108 60.2144 210.509 60.4999 209.867 60.6008C209.226 60.7016 208.568 60.6134 207.976 60.347C206.742 59.8307 206.009 58.7763 206.014 56.9125Z" fill="#0FB8C3"/>
<path d="M221.93 63.414C221.625 63.3108 221.093 63.6567 220.897 63.1972C220.701 62.7377 221.238 62.4847 221.486 62.1646C221.734 61.8445 221.971 61.6483 222.198 61.4005C222.308 61.3014 222.376 61.1655 222.392 61.0188C222.407 60.872 222.367 60.7249 222.281 60.6054C222.239 60.5437 222.184 60.4918 222.121 60.4533C222.057 60.4147 221.985 60.3904 221.911 60.3821C221.837 60.3737 221.762 60.3815 221.691 60.4049C221.621 60.4284 221.556 60.4668 221.501 60.5177C221.238 60.6777 220.985 60.7913 220.825 60.4505C220.665 60.1098 220.99 59.9807 221.207 59.862C221.482 59.7185 221.795 59.6643 222.102 59.7069C222.409 59.7494 222.696 59.8867 222.921 60.0995C223.098 60.3561 223.18 60.6658 223.155 60.9762C223.129 61.2866 222.998 61.5787 222.782 61.8032C222.709 61.8961 222.617 61.9684 222.549 62.0614C222.482 62.1543 222.152 62.3453 222.245 62.5776C222.338 62.81 222.591 62.7067 222.761 62.7222C222.931 62.7377 223.241 62.7687 223.215 63.1043C223.19 63.4398 222.962 63.4037 222.746 63.4089C222.529 63.414 222.25 63.414 221.93 63.414Z" fill="#0FB8C3"/>
<path d="M304.652 77.9434C305.404 78.0311 306.112 78.3397 306.688 78.8302C307.264 79.3206 307.681 79.9709 307.887 80.6986C308.093 81.4264 308.079 82.1989 307.846 82.9185C307.613 83.6381 307.172 84.2724 306.578 84.7412C305.985 85.21 305.265 85.4921 304.511 85.5519C303.757 85.6118 303.002 85.4466 302.342 85.0773C301.682 84.708 301.146 84.1512 300.803 83.4773C300.459 82.8035 300.323 82.0429 300.412 81.2917C300.471 80.7934 300.627 80.3115 300.872 79.8736C301.116 79.4356 301.445 79.0502 301.839 78.7393C302.233 78.4284 302.684 78.198 303.166 78.0615C303.649 77.9249 304.154 77.8848 304.652 77.9434Z" fill="#C4C4C4"/>
<path d="M304.652 77.9434C305.404 78.0311 306.112 78.3397 306.688 78.8302C307.264 79.3206 307.681 79.9709 307.887 80.6986C308.093 81.4264 308.079 82.1989 307.846 82.9185C307.613 83.6381 307.172 84.2724 306.578 84.7412C305.985 85.21 305.265 85.4921 304.511 85.5519C303.757 85.6118 303.002 85.4466 302.342 85.0773C301.682 84.708 301.146 84.1512 300.803 83.4773C300.459 82.8035 300.323 82.0429 300.412 81.2917C300.471 80.7934 300.627 80.3115 300.872 79.8736C301.116 79.4356 301.445 79.0502 301.839 78.7393C302.233 78.4284 302.684 78.198 303.166 78.0615C303.649 77.9249 304.154 77.8848 304.652 77.9434Z" fill="url(#paint0_linear_28_280)"/>
<path d="M304.652 77.9434C305.404 78.0311 306.112 78.3397 306.688 78.8302C307.264 79.3206 307.681 79.9709 307.887 80.6986C308.093 81.4264 308.079 82.1989 307.846 82.9185C307.613 83.6381 307.172 84.2724 306.578 84.7412C305.985 85.21 305.265 85.4921 304.511 85.5519C303.757 85.6118 303.002 85.4466 302.342 85.0773C301.682 84.708 301.146 84.1512 300.803 83.4773C300.459 82.8035 300.323 82.0429 300.412 81.2917C300.471 80.7934 300.627 80.3115 300.872 79.8736C301.116 79.4356 301.445 79.0502 301.839 78.7393C302.233 78.4284 302.684 78.198 303.166 78.0615C303.649 77.9249 304.154 77.8848 304.652 77.9434Z" stroke="#676767" stroke-width="1.09692"/>
<path d="M133.659 77.9434C134.411 78.0311 135.119 78.3397 135.695 78.8302C136.271 79.3206 136.688 79.9709 136.894 80.6986C137.1 81.4264 137.086 82.1989 136.853 82.9185C136.62 83.6381 136.179 84.2724 135.585 84.7412C134.991 85.21 134.272 85.4921 133.518 85.5519C132.764 85.6118 132.009 85.4466 131.349 85.0773C130.689 84.708 130.153 84.1512 129.81 83.4773C129.466 82.8035 129.33 82.0429 129.419 81.2917C129.478 80.7934 129.634 80.3115 129.878 79.8736C130.123 79.4356 130.452 79.0502 130.846 78.7393C131.239 78.4284 131.69 78.198 132.173 78.0615C132.656 77.9249 133.161 77.8848 133.659 77.9434Z" fill="#C4C4C4"/>
<path d="M133.659 77.9434C134.411 78.0311 135.119 78.3397 135.695 78.8302C136.271 79.3206 136.688 79.9709 136.894 80.6986C137.1 81.4264 137.086 82.1989 136.853 82.9185C136.62 83.6381 136.179 84.2724 135.585 84.7412C134.991 85.21 134.272 85.4921 133.518 85.5519C132.764 85.6118 132.009 85.4466 131.349 85.0773C130.689 84.708 130.153 84.1512 129.81 83.4773C129.466 82.8035 129.33 82.0429 129.419 81.2917C129.478 80.7934 129.634 80.3115 129.878 79.8736C130.123 79.4356 130.452 79.0502 130.846 78.7393C131.239 78.4284 131.69 78.198 132.173 78.0615C132.656 77.9249 133.161 77.8848 133.659 77.9434Z" fill="url(#paint1_linear_28_280)"/>
<path d="M133.659 77.9434C134.411 78.0311 135.119 78.3397 135.695 78.8302C136.271 79.3206 136.688 79.9709 136.894 80.6986C137.1 81.4264 137.086 82.1989 136.853 82.9185C136.62 83.6381 136.179 84.2724 135.585 84.7412C134.991 85.21 134.272 85.4921 133.518 85.5519C132.764 85.6118 132.009 85.4466 131.349 85.0773C130.689 84.708 130.153 84.1512 129.81 83.4773C129.466 82.8035 129.33 82.0429 129.419 81.2917C129.478 80.7934 129.634 80.3115 129.878 79.8736C130.123 79.4356 130.452 79.0502 130.846 78.7393C131.239 78.4284 131.69 78.198 132.173 78.0615C132.656 77.9249 133.161 77.8848 133.659 77.9434Z" stroke="#676767" stroke-width="1.09692"/>
<path d="M201.948 15.8409C201.9 15.9373 201.876 16.1422 201.876 16.4556C201.876 16.7811 201.9 16.974 201.948 17.0342L203.708 15.7686V22.2416C204.106 22.338 204.516 22.338 204.937 22.2416V14.4065C204.6 14.3462 204.274 14.3462 203.949 14.4065L201.948 15.8409ZM217.276 14.4065C216.926 14.3341 216.577 14.3341 216.227 14.4065L214.106 20.3129L211.984 14.4065C211.623 14.3341 211.273 14.3341 210.936 14.4065L209.103 22.2416C209.501 22.326 209.899 22.326 210.309 22.2416L211.575 16.5882L213.6 22.2416C213.937 22.3139 214.275 22.3139 214.612 22.2416L216.637 16.5882L217.903 22.2416C218.301 22.326 218.698 22.326 219.108 22.2416L217.276 14.4065ZM231.194 14.4065C230.772 14.3221 230.35 14.3221 229.929 14.4065L227.976 20.4094L226.023 14.4065C225.686 14.3341 225.336 14.3341 224.998 14.4065L223.046 20.4094L221.093 14.4065C220.671 14.3221 220.249 14.3221 219.827 14.4065L222.527 22.2416C222.865 22.3139 223.214 22.3139 223.564 22.2416L225.517 16.4315L227.457 22.2416C227.795 22.3139 228.145 22.3139 228.494 22.2416L231.194 14.4065ZM235.18 17.2392C234.626 17.2392 234.083 17.4923 233.553 17.9986V14.4065C233.179 14.3341 232.806 14.3341 232.432 14.4065V22.2416C232.806 22.326 233.179 22.326 233.553 22.2416V18.8423C233.939 18.4325 234.36 18.2155 234.819 18.2155C235.542 18.2155 235.903 18.6133 235.903 19.3968V22.2416C236.277 22.326 236.651 22.326 237.036 22.2416V19.1557C237.036 18.6133 236.88 18.1553 236.578 17.7936C236.277 17.432 235.807 17.2392 235.18 17.2392Z" fill="#0FB8C3"/>
<path d="M164.573 137.134C164.525 137.231 164.501 137.435 164.501 137.749C164.501 138.074 164.525 138.267 164.573 138.327L166.333 137.062V143.535C166.731 143.631 167.141 143.631 167.563 143.535V135.7C167.225 135.639 166.9 135.639 166.574 135.7L164.573 137.134ZM177.792 142.378C177.358 142.595 176.864 142.703 176.334 142.703C175.442 142.703 174.706 142.414 174.128 141.835C173.537 141.257 173.248 140.521 173.248 139.617C173.248 138.725 173.537 138.002 174.128 137.423C174.706 136.845 175.442 136.556 176.334 136.556C177.189 136.556 178.009 136.821 178.805 137.351C178.853 137.291 178.865 137.11 178.865 136.797C178.865 136.495 178.841 136.302 178.805 136.206C178.105 135.748 177.262 135.519 176.273 135.519C174.996 135.519 173.971 135.917 173.175 136.7C172.38 137.496 171.994 138.46 171.994 139.617C171.994 140.774 172.38 141.751 173.175 142.534C173.971 143.33 174.996 143.716 176.273 143.716C176.792 143.716 177.298 143.655 177.804 143.523C178.298 143.402 178.696 143.233 178.997 143.029V139.762C178.588 139.69 178.19 139.69 177.792 139.762V142.378ZM184.214 142.088C183.805 142.522 183.371 142.739 182.913 142.739C182.551 142.739 182.274 142.643 182.093 142.426C181.912 142.221 181.828 141.932 181.828 141.558V138.713C181.454 138.641 181.08 138.641 180.707 138.713V141.799C180.707 142.353 180.851 142.812 181.153 143.173C181.454 143.535 181.924 143.716 182.551 143.716C183.178 143.716 183.756 143.426 184.275 142.848L184.359 143.535C184.685 143.607 185.01 143.607 185.347 143.535V138.713C184.962 138.641 184.588 138.641 184.214 138.713V142.088ZM188.913 138.532C188.165 138.532 187.575 138.701 187.117 139.015C187.068 139.111 187.044 139.268 187.044 139.497C187.044 139.738 187.068 139.882 187.117 139.943C187.647 139.617 188.177 139.448 188.696 139.448C189.564 139.448 190.01 139.846 190.01 140.642V141.16C189.576 140.799 189.045 140.606 188.418 140.606C187.888 140.606 187.454 140.75 187.129 141.028C186.791 141.317 186.634 141.691 186.634 142.161C186.634 142.643 186.791 143.016 187.129 143.294C187.454 143.583 187.864 143.716 188.37 143.716C188.708 143.716 189.021 143.655 189.335 143.511C189.636 143.366 189.889 143.197 190.082 142.98L190.154 143.535C190.48 143.607 190.805 143.607 191.131 143.535V140.738C191.131 139.268 190.383 138.532 188.913 138.532ZM188.696 141.317C188.937 141.317 189.19 141.377 189.443 141.486C189.696 141.594 189.889 141.703 190.01 141.811V142.353C189.877 142.474 189.684 142.595 189.443 142.703C189.19 142.812 188.937 142.86 188.684 142.86C188.394 142.86 188.165 142.787 187.997 142.643C187.828 142.498 187.755 142.305 187.755 142.088C187.755 141.871 187.828 141.678 187.997 141.534C188.165 141.389 188.394 141.317 188.696 141.317ZM196.283 138.749C196.066 138.605 195.765 138.532 195.403 138.532C194.764 138.532 194.222 138.906 193.776 139.641L193.667 138.713C193.33 138.653 193.004 138.653 192.679 138.713V143.535C193.053 143.619 193.426 143.619 193.8 143.535V140.569C193.945 140.316 194.149 140.087 194.415 139.882C194.68 139.678 194.945 139.569 195.234 139.569C195.584 139.569 195.933 139.69 196.283 139.907C196.319 139.822 196.343 139.629 196.343 139.316C196.343 139.002 196.331 138.822 196.283 138.749ZM199.589 138.532C198.842 138.532 198.251 138.701 197.793 139.015C197.745 139.111 197.721 139.268 197.721 139.497C197.721 139.738 197.745 139.882 197.793 139.943C198.324 139.617 198.854 139.448 199.372 139.448C200.24 139.448 200.686 139.846 200.686 140.642V141.16C200.252 140.799 199.722 140.606 199.095 140.606C198.565 140.606 198.131 140.75 197.805 141.028C197.468 141.317 197.311 141.691 197.311 142.161C197.311 142.643 197.468 143.016 197.805 143.294C198.131 143.583 198.541 143.716 199.047 143.716C199.384 143.716 199.698 143.655 200.011 143.511C200.313 143.366 200.566 143.197 200.759 142.98L200.831 143.535C201.156 143.607 201.482 143.607 201.807 143.535V140.738C201.807 139.268 201.06 138.532 199.589 138.532ZM199.372 141.317C199.614 141.317 199.867 141.377 200.12 141.486C200.373 141.594 200.566 141.703 200.686 141.811V142.353C200.554 142.474 200.361 142.595 200.12 142.703C199.867 142.812 199.614 142.86 199.36 142.86C199.071 142.86 198.842 142.787 198.673 142.643C198.505 142.498 198.432 142.305 198.432 142.088C198.432 141.871 198.505 141.678 198.673 141.534C198.842 141.389 199.071 141.317 199.372 141.317ZM206.14 138.532C205.513 138.532 204.947 138.822 204.416 139.4L204.344 138.713C204.007 138.653 203.681 138.653 203.356 138.713V143.535C203.729 143.619 204.103 143.619 204.477 143.535V140.16C204.886 139.726 205.32 139.509 205.778 139.509C206.14 139.509 206.405 139.617 206.586 139.822C206.767 140.039 206.863 140.328 206.863 140.69V143.535C207.237 143.619 207.611 143.619 207.996 143.535V140.449C207.996 139.907 207.84 139.448 207.538 139.087C207.237 138.725 206.767 138.532 206.14 138.532ZM212.622 142.281C212.236 142.607 211.886 142.763 211.597 142.763C211.259 142.763 211.091 142.546 211.091 142.1V139.665H212.561C212.634 139.352 212.634 139.039 212.561 138.713H211.091V137.146C210.705 137.074 210.331 137.074 209.97 137.146V138.713H209.222C209.138 139.039 209.138 139.352 209.222 139.665H209.97V142.257C209.97 142.739 210.09 143.101 210.331 143.342C210.572 143.595 210.898 143.716 211.32 143.716C211.862 143.716 212.296 143.559 212.622 143.233C212.658 143.149 212.682 142.98 212.682 142.739C212.682 142.498 212.67 142.353 212.622 142.281ZM216.443 138.532C215.671 138.532 215.056 138.786 214.574 139.268C214.092 139.75 213.851 140.365 213.851 141.112C213.851 141.895 214.092 142.522 214.586 143.004C215.081 143.487 215.731 143.716 216.551 143.716C217.262 143.716 217.841 143.547 218.299 143.185C218.335 143.101 218.359 142.932 218.359 142.691C218.359 142.45 218.347 142.305 218.299 142.245C217.744 142.595 217.202 142.763 216.672 142.763C216.19 142.763 215.804 142.631 215.49 142.366C215.177 142.1 215.02 141.739 214.996 141.269H218.721C218.805 140.859 218.781 140.449 218.661 140.039C218.528 139.629 218.263 139.268 217.877 138.978C217.491 138.689 217.009 138.532 216.443 138.532ZM216.455 139.388C216.816 139.388 217.118 139.509 217.347 139.738C217.576 139.979 217.696 140.28 217.696 140.654H215.056C215.105 140.268 215.261 139.967 215.514 139.738C215.756 139.509 216.069 139.388 216.455 139.388ZM222.493 138.532C221.722 138.532 221.107 138.786 220.625 139.268C220.143 139.75 219.902 140.365 219.902 141.112C219.902 141.895 220.143 142.522 220.637 143.004C221.131 143.487 221.782 143.716 222.602 143.716C223.313 143.716 223.891 143.547 224.35 143.185C224.386 143.101 224.41 142.932 224.41 142.691C224.41 142.45 224.398 142.305 224.35 142.245C223.795 142.595 223.253 142.763 222.722 142.763C222.24 142.763 221.854 142.631 221.541 142.366C221.228 142.1 221.071 141.739 221.047 141.269H224.771C224.856 140.859 224.832 140.449 224.711 140.039C224.579 139.629 224.313 139.268 223.928 138.978C223.542 138.689 223.06 138.532 222.493 138.532ZM222.505 139.388C222.867 139.388 223.168 139.509 223.397 139.738C223.626 139.979 223.747 140.28 223.747 140.654H221.107C221.155 140.268 221.312 139.967 221.565 139.738C221.806 139.509 222.12 139.388 222.505 139.388ZM231.334 138.532C230.575 138.532 229.948 138.786 229.454 139.28C228.948 139.786 228.707 140.401 228.707 141.124C228.707 141.859 228.948 142.474 229.454 142.968C229.948 143.475 230.575 143.716 231.334 143.716C232.094 143.716 232.721 143.475 233.227 142.968C233.721 142.474 233.974 141.859 233.974 141.124C233.974 140.401 233.721 139.786 233.227 139.28C232.721 138.786 232.094 138.532 231.334 138.532ZM231.347 139.509C231.78 139.509 232.13 139.665 232.419 139.967C232.709 140.268 232.853 140.654 232.853 141.124C232.853 141.606 232.709 141.992 232.419 142.293C232.13 142.595 231.78 142.739 231.347 142.739C230.913 142.739 230.551 142.595 230.262 142.293C229.972 141.992 229.84 141.606 229.84 141.124C229.84 140.654 229.972 140.268 230.262 139.967C230.551 139.665 230.913 139.509 231.347 139.509ZM237.689 136.471C237.955 136.471 238.268 136.592 238.642 136.809C238.69 136.748 238.702 136.592 238.702 136.339C238.702 136.085 238.678 135.917 238.642 135.82C238.28 135.627 237.87 135.519 237.412 135.519C236.942 135.519 236.556 135.664 236.243 135.941C235.929 136.23 235.773 136.628 235.773 137.146V138.713H235.025C234.941 139.039 234.941 139.352 235.025 139.665H235.773V143.535C236.134 143.619 236.508 143.619 236.894 143.535V139.665H238.389C238.461 139.352 238.461 139.039 238.389 138.713H236.894V137.363C236.894 136.772 237.159 136.471 237.689 136.471ZM246.675 135.519C245.47 135.519 244.481 135.917 243.71 136.712C242.938 137.508 242.553 138.472 242.553 139.617C242.553 140.774 242.938 141.739 243.71 142.534C244.481 143.33 245.47 143.716 246.675 143.716C247.88 143.716 248.869 143.33 249.64 142.534C250.412 141.739 250.797 140.774 250.797 139.617C250.797 138.472 250.412 137.508 249.64 136.712C248.869 135.917 247.88 135.519 246.675 135.519ZM246.675 136.556C247.495 136.556 248.17 136.845 248.724 137.423C249.267 138.002 249.544 138.725 249.544 139.617C249.544 140.509 249.267 141.245 248.724 141.823C248.17 142.402 247.495 142.679 246.675 142.679C245.855 142.679 245.168 142.402 244.626 141.823C244.071 141.245 243.806 140.509 243.806 139.617C243.806 138.725 244.071 138.002 244.626 137.423C245.168 136.845 245.855 136.556 246.675 136.556ZM255.882 138.749C255.665 138.605 255.364 138.532 255.002 138.532C254.363 138.532 253.821 138.906 253.375 139.641L253.266 138.713C252.929 138.653 252.604 138.653 252.278 138.713V143.535C252.652 143.619 253.025 143.619 253.399 143.535V140.569C253.544 140.316 253.749 140.087 254.014 139.882C254.279 139.678 254.544 139.569 254.834 139.569C255.183 139.569 255.533 139.69 255.882 139.907C255.918 139.822 255.942 139.629 255.942 139.316C255.942 139.002 255.93 138.822 255.882 138.749ZM257.923 136.073C257.706 136.073 257.537 136.146 257.393 136.278C257.248 136.411 257.176 136.58 257.176 136.772C257.176 136.977 257.248 137.146 257.393 137.279C257.537 137.411 257.706 137.472 257.923 137.472C258.116 137.472 258.297 137.411 258.441 137.279C258.586 137.146 258.658 136.977 258.658 136.772C258.658 136.58 258.586 136.411 258.441 136.278C258.297 136.146 258.116 136.073 257.923 136.073ZM258.465 138.713C258.092 138.641 257.718 138.641 257.344 138.713V143.535C257.718 143.619 258.092 143.619 258.465 143.535V138.713ZM262.345 138.532C261.646 138.532 261.08 138.786 260.658 139.268C260.224 139.762 260.019 140.365 260.019 141.088C260.019 141.811 260.224 142.426 260.658 142.908C261.08 143.402 261.646 143.643 262.345 143.643C263.02 143.643 263.575 143.402 264.009 142.908V143.438C264.009 143.872 263.864 144.198 263.587 144.415C263.298 144.644 262.924 144.752 262.454 144.752C261.899 144.752 261.357 144.583 260.827 144.246C260.778 144.318 260.754 144.463 260.754 144.692C260.754 144.933 260.778 145.09 260.827 145.174C261.26 145.512 261.875 145.68 262.683 145.68C263.442 145.68 264.045 145.475 264.479 145.054C264.913 144.644 265.13 144.077 265.13 143.378V138.713C264.804 138.641 264.479 138.641 264.153 138.713L264.069 139.352C263.635 138.81 263.057 138.532 262.345 138.532ZM262.647 139.509C263.165 139.509 263.623 139.726 264.009 140.148V142.028C263.647 142.462 263.189 142.667 262.647 142.667C262.201 142.667 261.839 142.522 261.562 142.233C261.285 141.944 261.152 141.558 261.152 141.088C261.152 140.63 261.285 140.244 261.562 139.955C261.839 139.665 262.201 139.509 262.647 139.509ZM267.47 136.073C267.253 136.073 267.084 136.146 266.939 136.278C266.795 136.411 266.722 136.58 266.722 136.772C266.722 136.977 266.795 137.146 266.939 137.279C267.084 137.411 267.253 137.472 267.47 137.472C267.662 137.472 267.843 137.411 267.988 137.279C268.133 137.146 268.205 136.977 268.205 136.772C268.205 136.58 268.133 136.411 267.988 136.278C267.843 136.146 267.662 136.073 267.47 136.073ZM268.012 138.713C267.638 138.641 267.265 138.641 266.891 138.713V143.535C267.265 143.619 267.638 143.619 268.012 143.535V138.713ZM272.555 138.532C271.928 138.532 271.362 138.822 270.831 139.4L270.759 138.713C270.421 138.653 270.096 138.653 269.771 138.713V143.535C270.144 143.619 270.518 143.619 270.892 143.535V140.16C271.301 139.726 271.735 139.509 272.193 139.509C272.555 139.509 272.82 139.617 273.001 139.822C273.182 140.039 273.278 140.328 273.278 140.69V143.535C273.652 143.619 274.026 143.619 274.411 143.535V140.449C274.411 139.907 274.255 139.448 273.953 139.087C273.652 138.725 273.182 138.532 272.555 138.532Z" fill="#0FB8C3"/>
<path d="M26.915 114.994L28.1543 75.3269H29.3936L30.0085 114.994H26.915Z" fill="#0FB8C3"/>
<path d="M29.846 74.4532C29.846 74.5558 29.8156 74.6561 29.7586 74.7414C29.7016 74.8267 29.6205 74.8933 29.5257 74.9325C29.431 74.9718 29.3266 74.982 29.226 74.962C29.1254 74.942 29.0329 74.8926 28.9604 74.8201C28.8878 74.7475 28.8384 74.6551 28.8184 74.5545C28.7984 74.4538 28.8086 74.3495 28.8479 74.2547C28.8872 74.1599 28.9537 74.0788 29.039 74.0218C29.1243 73.9648 29.2246 73.9344 29.3272 73.9344C29.4648 73.9344 29.5967 73.9891 29.694 74.0864C29.7913 74.1837 29.846 74.3157 29.846 74.4532ZM29.1639 72.7911C28.7174 72.7911 28.2809 72.9236 27.9096 73.1717C27.5383 73.4198 27.249 73.7724 27.0781 74.1849C26.9073 74.5975 26.8625 75.0513 26.9496 75.4892C27.0367 75.9272 27.2518 76.3295 27.5675 76.6452C27.8833 76.9609 28.2855 77.176 28.7235 77.2631C29.1614 77.3502 29.6153 77.3054 30.0279 77.1346C30.4404 76.9637 30.793 76.6744 31.0411 76.3031C31.2892 75.9318 31.4215 75.4954 31.4215 75.0489C31.4215 74.4501 31.1837 73.8758 30.7603 73.4524C30.3369 73.029 29.7627 72.7911 29.1639 72.7911Z" fill="#0FB8C3"/>
<path d="M65.9494 58.7165C65.9494 58.8795 65.8846 59.0359 65.7693 59.1512C65.654 59.2665 65.4976 59.3313 65.3346 59.3313C65.1715 59.3313 65.0151 59.2665 64.8998 59.1512C64.7845 59.0359 64.7197 58.8795 64.7197 58.7165C64.7197 58.5534 64.7845 58.3969 64.8998 58.2816C65.0151 58.1663 65.1715 58.1016 65.3346 58.1016C65.4976 58.1016 65.654 58.1663 65.7693 58.2816C65.8846 58.3969 65.9494 58.5534 65.9494 58.7165ZM65.1424 56.7951C64.6138 56.7951 64.097 56.952 63.6576 57.2459C63.2182 57.5397 62.8759 57.9573 62.6741 58.4459C62.4722 58.9345 62.4199 59.4721 62.5237 59.9904C62.6275 60.5087 62.8828 60.9845 63.2573 61.3577C63.6318 61.7308 64.1086 61.9844 64.6273 62.0864C65.146 62.1884 65.6833 62.134 66.1711 61.9304C66.659 61.7268 67.0754 61.383 67.3677 60.9425C67.66 60.5021 67.815 59.9848 67.8131 59.4562C67.8169 59.1031 67.7507 58.7526 67.6182 58.4253C67.4856 58.0979 67.2896 57.8001 67.0412 57.549C66.7928 57.2979 66.497 57.0987 66.1711 56.9626C65.8452 56.8266 65.4956 56.7566 65.1424 56.7566V56.7951Z" fill="#0FB8C3"/>
<path d="M29.6153 73.3483L33.2564 58.1021C31.5816 60.7082 30.1013 63.4344 28.8276 66.2584C27.6075 69.4671 28.5682 72.7239 29.6153 73.3483Z" fill="#0FB8C3"/>
<path d="M29.8838 76.6048L41.7484 86.8554C40.2065 84.1697 38.4694 81.6009 36.551 79.1698C34.3318 76.5663 30.9213 75.9612 29.8838 76.6048Z" fill="#0FB8C3"/>
<path d="M27.5209 75.0776L12.4668 79.4296C15.5569 79.6027 18.6555 79.5482 21.7376 79.2664C25.1576 78.786 27.5017 76.2977 27.5209 75.0776Z" fill="#0FB8C3"/>
<path d="M14.0911 82.6669C12.8261 80.2922 12.1367 77.6536 12.0783 74.9637C12.0199 72.2738 12.5942 69.6077 13.7549 67.1804" stroke="#0FB8C3" stroke-width="0.244652" stroke-linecap="round" stroke-linejoin="round"/>
<path d="M43.7855 83.6373C41.6654 87.0594 38.4065 89.6244 34.582 90.881" stroke="#0FB8C3" stroke-width="0.244652" stroke-linecap="round" stroke-linejoin="round"/>
<path d="M30.4219 57.4679C32.7719 57.634 35.0627 58.2819 37.1517 59.371C39.2407 60.4601 41.0834 61.9673 42.5651 63.7989" stroke="#0FB8C3" stroke-width="0.244652" stroke-linecap="round" stroke-linejoin="round"/>
<path d="M18.6156 84.2908C16.9672 82.4856 15.8051 80.2907 15.2388 77.9126C14.6724 75.5345 14.7203 73.0514 15.378 70.6969" stroke="#0FB8C3" stroke-width="0.244652" stroke-linecap="round" stroke-linejoin="round"/>
<path d="M43.1514 78.373C42.6025 80.3637 41.6321 82.2131 40.3061 83.796C38.9801 85.3789 37.3294 86.6584 35.4658 87.5478" stroke="#0FB8C3" stroke-width="0.244652" stroke-linecap="round" stroke-linejoin="round"/>
<path d="M26.4639 60.4462C28.694 60.0055 30.9968 60.0987 33.1841 60.7182C35.3714 61.3376 37.3811 62.4658 39.049 64.0105" stroke="#0FB8C3" stroke-width="0.244652" stroke-linecap="round" stroke-linejoin="round"/>
<path d="M22.6318 63.0686C23.9064 62.5471 25.262 62.2513 26.6379 62.1944C29.1968 62.0892 31.7231 62.799 33.8528 64.2215" stroke="#0FB8C3" stroke-width="0.244652" stroke-linecap="round" stroke-linejoin="round"/>
<path d="M20.4409 82.3596C19.6289 81.3111 19.0018 80.1317 18.5867 78.8723C18.0612 77.3058 17.8682 75.6468 18.0199 74.0015" stroke="#0FB8C3" stroke-width="0.244652" stroke-linecap="round" stroke-linejoin="round"/>
<path d="M41.9597 74.347C42.0791 76.3105 41.714 78.2733 40.8965 80.0625C40.079 81.8516 38.8341 83.4123 37.2715 84.6072" stroke="#0FB8C3" stroke-width="0.244652" stroke-linecap="round" stroke-linejoin="round"/>
<path d="M113.327 114.985H96.0389C87.479 114.985 75.9987 107.03 64.5472 107.03H63.9419C55.0171 107.03 41.0101 114.985 32.4598 114.985H16.9756" stroke="#0FB8C3" stroke-width="0.978607" stroke-linecap="round" stroke-linejoin="round"/>
<path d="M101.168 114.994L102.407 75.3269H103.647L104.261 114.994H101.168Z" fill="#0FB8C3"/>
<path d="M104.099 74.4532C104.099 74.5558 104.069 74.6561 104.012 74.7414C103.955 74.8267 103.873 74.8933 103.779 74.9325C103.684 74.9718 103.58 74.982 103.479 74.962C103.378 74.942 103.286 74.8926 103.213 74.8201C103.141 74.7475 103.091 74.6551 103.071 74.5545C103.051 74.4538 103.062 74.3495 103.101 74.2547C103.14 74.1599 103.207 74.0788 103.292 74.0218C103.377 73.9648 103.478 73.9344 103.58 73.9344C103.718 73.9344 103.85 73.9891 103.947 74.0864C104.044 74.1837 104.099 74.3157 104.099 74.4532ZM103.417 72.7911C102.97 72.7911 102.534 72.9236 102.163 73.1717C101.791 73.4198 101.502 73.7724 101.331 74.1849C101.16 74.5975 101.115 75.0513 101.203 75.4892C101.29 75.9272 101.505 76.3295 101.82 76.6452C102.136 76.9609 102.538 77.176 102.976 77.2631C103.414 77.3502 103.868 77.3054 104.281 77.1346C104.693 76.9637 105.046 76.6744 105.294 76.3031C105.542 75.9318 105.675 75.4954 105.675 75.0489C105.675 74.4501 105.437 73.8758 105.013 73.4524C104.59 73.029 104.016 72.7911 103.417 72.7911Z" fill="#0FB8C3"/>
<path d="M103.868 73.3483L107.519 58.1021C105.84 60.7072 104.356 63.4335 103.081 66.2584C101.812 69.4671 102.812 72.7239 103.868 73.3483Z" fill="#0FB8C3"/>
<path d="M104.136 76.6048L116 86.8554C114.458 84.1697 112.721 81.6009 110.803 79.1698C108.536 76.5663 105.173 75.9612 104.136 76.6048Z" fill="#0FB8C3"/>
<path d="M101.773 75.0776L86.7188 79.4296C89.8088 79.6027 92.9075 79.5482 95.9895 79.2664C99.4096 78.786 101.754 76.2977 101.773 75.0776Z" fill="#0FB8C3"/>
<path d="M88.3431 82.6669C87.0781 80.2922 86.3886 77.6536 86.3302 74.9637C86.2718 72.2738 86.8461 69.6077 88.0069 67.1804" stroke="#0FB8C3" stroke-width="0.244652" stroke-linecap="round" stroke-linejoin="round"/>
<path d="M118.038 83.6373C115.918 87.0594 112.659 89.6244 108.835 90.881" stroke="#0FB8C3" stroke-width="0.244652" stroke-linecap="round" stroke-linejoin="round"/>
<path d="M104.676 57.4679C107.026 57.634 109.317 58.2819 111.406 59.371C113.495 60.4601 115.337 61.9673 116.819 63.7989" stroke="#0FB8C3" stroke-width="0.244652" stroke-linecap="round" stroke-linejoin="round"/>
<path d="M92.8685 84.2908C91.2201 82.4856 90.058 80.2907 89.4917 77.9126C88.9253 75.5345 88.9733 73.0514 89.631 70.6969" stroke="#0FB8C3" stroke-width="0.244652" stroke-linecap="round" stroke-linejoin="round"/>
<path d="M117.403 78.373C116.854 80.3637 115.884 82.2131 114.558 83.796C113.232 85.3789 111.581 86.6584 109.718 87.5478" stroke="#0FB8C3" stroke-width="0.244652" stroke-linecap="round" stroke-linejoin="round"/>
<path d="M100.717 60.4462C102.947 60.0055 105.25 60.0987 107.437 60.7182C109.624 61.3376 111.634 62.4658 113.302 64.0105" stroke="#0FB8C3" stroke-width="0.244652" stroke-linecap="round" stroke-linejoin="round"/>
<path d="M96.8828 63.0686C98.1574 62.5471 99.513 62.2513 100.889 62.1944C103.448 62.0892 105.974 62.799 108.104 64.2215" stroke="#0FB8C3" stroke-width="0.244652" stroke-linecap="round" stroke-linejoin="round"/>
<path d="M94.6937 82.3596C93.8818 81.3111 93.2548 80.1317 92.8397 78.8723C92.3142 77.3058 92.1211 75.6468 92.2729 74.0015" stroke="#0FB8C3" stroke-width="0.244652" stroke-linecap="round" stroke-linejoin="round"/>
<path d="M116.213 74.347C116.332 76.3105 115.967 78.2733 115.149 80.0625C114.332 81.8516 113.087 83.4123 111.524 84.6072" stroke="#0FB8C3" stroke-width="0.244652" stroke-linecap="round" stroke-linejoin="round"/>
<path d="M62.5479 107.088L63.9793 61.4551H65.4011L66.112 107.088H62.5479Z" fill="#0FB8C3"/>
<path d="M66.6309 60.744L83.0684 68.1606C80.4907 65.7184 77.7356 63.4706 74.8256 61.4357C71.4632 59.2549 67.5627 59.6872 66.6309 60.744Z" fill="#0FB8C3"/>
<path d="M62.8952 60.3401L48.7441 71.5322C52.1126 70.3725 55.3911 68.966 58.5529 67.3244C61.9922 65.3261 63.4044 61.6562 62.8952 60.3401Z" fill="#0FB8C3"/>
<path d="M65.1422 58.0059L63.4706 40.0504C62.6048 43.5232 61.9979 47.0555 61.6549 50.6181C61.4627 54.5377 63.7588 57.7177 65.1422 58.0059Z" fill="#0FB8C3"/>
<path d="M59.4648 41.194C62.421 40.2783 65.5508 40.069 68.6025 40.5829C71.6542 41.0968 74.5428 42.3195 77.036 44.1529" stroke="#0FB8C3" stroke-width="0.283796" stroke-linecap="round" stroke-linejoin="round"/>
<path d="M51.9418 74.5297C48.5362 71.3912 46.3456 67.1529 45.7549 62.5594" stroke="#0FB8C3" stroke-width="0.283796" stroke-linecap="round" stroke-linejoin="round"/>
<path d="M84.405 65.0862C83.7109 67.7068 82.4843 70.1563 80.8016 72.2819C79.119 74.4075 77.0164 76.1637 74.625 77.4407" stroke="#0FB8C3" stroke-width="0.283796" stroke-linecap="round" stroke-linejoin="round"/>
<path d="M56.6494 45.9489C59.0469 44.4788 61.7784 43.6415 64.5879 43.5155C67.3974 43.3894 70.1928 43.9788 72.7123 45.2284" stroke="#0FB8C3" stroke-width="0.283796" stroke-linecap="round" stroke-linejoin="round"/>
<path d="M58.0133 74.9526C55.8853 73.9031 54.0066 72.4103 52.5036 70.5742C51.0006 68.7382 49.9082 66.6015 49.2998 64.3081" stroke="#0FB8C3" stroke-width="0.283796" stroke-linecap="round" stroke-linejoin="round"/>
<path d="M81.8968 59.9753C81.9212 62.5896 81.3242 65.1722 80.155 67.5106C78.9859 69.8489 77.2779 71.8761 75.1719 73.4251" stroke="#0FB8C3" stroke-width="0.283796" stroke-linecap="round" stroke-linejoin="round"/>
<path d="M79.7635 55.0754C80.0727 56.6293 80.1149 58.2245 79.8884 59.7925C79.6558 61.3482 79.1586 62.8526 78.4185 64.2405C77.7835 65.4394 76.9777 66.5396 76.0264 67.5068" stroke="#0FB8C3" stroke-width="0.283796" stroke-linecap="round" stroke-linejoin="round"/>
<path d="M58.4365 48.4279C61.5211 46.8639 65.0821 46.5209 68.4085 47.4673" stroke="#0FB8C3" stroke-width="0.283796" stroke-linecap="round" stroke-linejoin="round"/>
<path d="M62.8362 74.5296C60.5933 74.2374 58.4566 73.3985 56.6139 72.0869C54.7712 70.7752 53.279 69.0309 52.2686 67.0073" stroke="#0FB8C3" stroke-width="0.283796" stroke-linecap="round" stroke-linejoin="round"/>
<defs>
<linearGradient id="paint0_linear_28_280" x1="300.236" y1="77.835" x2="310.657" y2="84.1438" gradientUnits="userSpaceOnUse">
<stop stop-color="#4BE4C0"/>
<stop offset="0.334733" stop-color="#75EEE2"/>
<stop offset="1" stop-color="#8980F3"/>
</linearGradient>
<linearGradient id="paint1_linear_28_280" x1="129.243" y1="77.835" x2="139.664" y2="84.1438" gradientUnits="userSpaceOnUse">
<stop stop-color="#4BE4C0"/>
<stop offset="0.334733" stop-color="#75EEE2"/>
<stop offset="1" stop-color="#8980F3"/>
</linearGradient>
</defs>
</svg>
