<svg width="450" height="163" viewBox="0 0 450 163" fill="none" xmlns="http://www.w3.org/2000/svg">
<path d="M133.535 93.3008V154.702C133.535 158.697 130.296 161.935 126.302 161.935H8.23241C4.23806 161.935 1 158.697 1 154.702V8.23243C1 4.23807 4.23806 1 8.23242 1H126.302C130.296 1 133.535 4.23806 133.535 8.23242V71.409" stroke="#14D9C1" stroke-width="1.38621"/>
<path d="M315.936 93.3008V154.702C315.936 158.697 319.174 161.935 323.168 161.935H441.238C445.232 161.935 448.47 158.697 448.47 154.702V8.23243C448.47 4.23807 445.232 1 441.238 1H323.168C319.174 1 315.936 4.23806 315.936 8.23242V71.409" stroke="#14D9C1" stroke-width="1.38621"/>
<path d="M296.095 61.9422L300.097 55.0112H292.093L296.095 61.9422ZM154.243 102.768L150.242 109.699H158.245L154.243 102.768ZM161.476 1.69311H288.863V0.306893H161.476V1.69311ZM288.863 161.242H161.476V162.628H288.863V161.242ZM295.402 8.23242V55.7043H296.788V8.23242H295.402ZM295.402 82.0591V154.702H296.788V82.0591H295.402ZM312.386 80.6264H296.835V82.0126H312.386V80.6264ZM154.936 154.702V109.006H153.55V154.702H154.936ZM154.936 80.5799V8.23242H153.55V80.5799H154.936ZM136.789 82.0126H153.504V80.6264H136.789V82.0126ZM161.476 161.242C157.864 161.242 154.936 158.314 154.936 154.702H153.55C153.55 159.08 157.099 162.628 161.476 162.628V161.242ZM296.835 80.6264C296.043 80.6264 295.402 81.2678 295.402 82.0591H296.788C296.788 82.0334 296.809 82.0126 296.835 82.0126V80.6264ZM288.863 162.628C293.24 162.628 296.788 159.08 296.788 154.702H295.402C295.402 158.314 292.474 161.242 288.863 161.242V162.628ZM288.863 1.69311C292.474 1.69311 295.402 4.62086 295.402 8.23242H296.788C296.788 3.85527 293.24 0.306893 288.863 0.306893V1.69311ZM153.504 82.0126C154.295 82.0126 154.936 81.3711 154.936 80.5799H153.55C153.55 80.6056 153.529 80.6264 153.504 80.6264V82.0126ZM161.476 0.306893C157.099 0.306893 153.55 3.85527 153.55 8.23242H154.936C154.936 4.62086 157.864 1.69311 161.476 1.69311V0.306893Z" fill="#14D9C1"/>
<path d="M355.26 127.749H363.306" stroke="#0FB8C3" stroke-opacity="0.6" stroke-width="1.4" stroke-linecap="round" stroke-linejoin="round"/>
<path d="M354.987 81.6218H359.89" stroke="#0FB8C3" stroke-opacity="0.6" stroke-width="1.4" stroke-linecap="round" stroke-linejoin="round"/>
<path d="M354.987 85.1838H359.89" stroke="#0FB8C3" stroke-opacity="0.6" stroke-width="1.4" stroke-linecap="round" stroke-linejoin="round"/>
<path d="M354.987 53.9434H359.89" stroke="#0FB8C3" stroke-opacity="0.6" stroke-width="1.4" stroke-linecap="round" stroke-linejoin="round"/>
<path d="M354.987 58.5528H359.89" stroke="#0FB8C3" stroke-opacity="0.6" stroke-width="1.4" stroke-linecap="round" stroke-linejoin="round"/>
<path d="M357.46 49.9516L372.526 38.8675H382.321" stroke="#0FB8C3" stroke-opacity="0.6" stroke-width="1.4" stroke-linecap="round" stroke-linejoin="round"/>
<path d="M357.46 87.9078V76.8552H381.525" stroke="#0FB8C3" stroke-opacity="0.6" stroke-width="1.4" stroke-linecap="round" stroke-linejoin="round"/>
<path d="M357.46 76.8557L372.264 65.7717H382.059L373.374 56.7829L381.525 50.2247" stroke="#0FB8C3" stroke-opacity="0.6" stroke-width="1.4" stroke-linecap="round" stroke-linejoin="round"/>
<path d="M382.058 66.1063L372.388 76.8551L381.785 83.4762L368.878 93.0098L381.523 101.726L364.08 113.491" stroke="#0FB8C3" stroke-opacity="0.6" stroke-width="1.4" stroke-linecap="round" stroke-linejoin="round"/>
<path d="M360.226 127.278L372.662 76.5616L372.526 38.8675L381.787 49.9516H357.46V61.0042" stroke="#0FB8C3" stroke-opacity="0.6" stroke-width="1.4" stroke-linecap="round" stroke-linejoin="round"/>
<path d="M382.059 93.1453L368.879 93.0091" stroke="#0FB8C3" stroke-opacity="0.6" stroke-width="1.4" stroke-linecap="round" stroke-linejoin="round"/>
<path d="M408.102 127.749H400.056" stroke="#0FB8C3" stroke-opacity="0.6" stroke-width="1.4" stroke-linecap="round" stroke-linejoin="round"/>
<path d="M408.375 81.6218H403.472" stroke="#0FB8C3" stroke-opacity="0.6" stroke-width="1.4" stroke-linecap="round" stroke-linejoin="round"/>
<path d="M408.375 85.1838H403.472" stroke="#0FB8C3" stroke-opacity="0.6" stroke-width="1.4" stroke-linecap="round" stroke-linejoin="round"/>
<path d="M408.375 53.9434H403.472" stroke="#0FB8C3" stroke-opacity="0.6" stroke-width="1.4" stroke-linecap="round" stroke-linejoin="round"/>
<path d="M408.375 58.5528H403.472" stroke="#0FB8C3" stroke-opacity="0.6" stroke-width="1.4" stroke-linecap="round" stroke-linejoin="round"/>
<path d="M405.902 49.9516L390.836 38.8675H381.041" stroke="#0FB8C3" stroke-opacity="0.6" stroke-width="1.4" stroke-linecap="round" stroke-linejoin="round"/>
<path d="M405.902 87.9078V76.8552H381.849" stroke="#0FB8C3" stroke-opacity="0.6" stroke-width="1.4" stroke-linecap="round" stroke-linejoin="round"/>
<path d="M405.903 76.8557L391.099 65.7717H381.314L389.989 56.7829L381.849 50.2247" stroke="#0FB8C3" stroke-opacity="0.6" stroke-width="1.4" stroke-linecap="round" stroke-linejoin="round"/>
<path d="M381.314 66.1063L390.974 76.8551L381.576 83.4762L394.483 93.0098L381.849 101.726L399.282 113.491" stroke="#0FB8C3" stroke-opacity="0.6" stroke-width="1.4" stroke-linecap="round" stroke-linejoin="round"/>
<path d="M403.137 127.278L390.701 76.5616L390.837 38.8675L381.576 49.9516H405.902V61.0042" stroke="#0FB8C3" stroke-opacity="0.6" stroke-width="1.4" stroke-linecap="round" stroke-linejoin="round"/>
<path d="M381.305 93.1453L394.484 93.0091" stroke="#0FB8C3" stroke-opacity="0.6" stroke-width="1.4" stroke-linecap="round" stroke-linejoin="round"/>
<path d="M266.383 93.1311V116.553C266.383 117.954 266.181 118.16 264.776 118.15C263.679 118.137 262.581 118.283 261.487 118.075C260.915 117.967 260.654 117.656 260.701 117.083C260.747 116.51 261.097 116.324 261.594 116.308C262.09 116.292 262.635 116.29 263.154 116.308C264.244 116.336 264.642 115.953 264.64 114.863C264.632 107.709 264.622 100.556 264.612 93.4026C264.612 86.6387 264.612 79.8755 264.612 73.1128C264.612 72.4883 264.637 71.8708 264.637 71.2409C264.637 70.3324 264.238 69.9421 263.331 69.9421H229.37C228.298 69.9421 227.986 70.2597 227.986 71.3101V104.705C227.986 105.658 228.325 105.995 229.291 105.995C232.005 105.995 234.72 105.995 237.432 105.981C238.109 105.981 238.372 106.267 238.406 106.918C238.547 109.558 238.763 112.195 238.729 114.842C238.707 116.141 238.861 116.295 240.174 116.29C240.309 116.29 240.445 116.29 240.581 116.29C240.698 116.282 240.815 116.298 240.927 116.335C241.038 116.373 241.14 116.432 241.229 116.508C241.317 116.585 241.389 116.679 241.441 116.784C241.493 116.888 241.523 117.002 241.531 117.119C241.588 117.592 241.281 117.899 240.816 118.031C238.79 118.614 237.107 117.963 235.7 116.526C232.763 113.522 229.686 110.671 226.634 107.777C226.476 107.632 226.351 107.456 226.268 107.259C226.184 107.063 226.144 106.851 226.15 106.637C226.15 94.1827 226.15 81.7273 226.15 69.2714C226.15 68.4463 226.479 68.0879 227.262 68.0879C239.856 68.0879 252.448 68.0879 265.04 68.0879C266.155 68.0879 266.367 68.3008 266.367 69.4115C266.367 77.3157 266.367 85.2216 266.367 93.1293L266.383 93.1311ZM233.647 107.88C232.882 107.88 232.118 107.865 231.355 107.88C231.018 107.888 230.641 107.908 230.473 108.277C230.305 108.646 230.527 108.971 230.763 109.2C232.32 110.719 233.882 112.236 235.481 113.712C236.132 114.313 236.782 114.067 236.825 113.197C236.9 111.691 236.877 110.181 236.843 108.671C236.832 108.139 236.454 107.872 235.914 107.869C235.159 107.876 234.402 107.88 233.647 107.88Z" fill="#0FB8C3" fill-opacity="0.6"/>
<path d="M256.14 118.347C256.14 119.497 256.14 120.653 256.14 121.796C256.14 122.893 255.515 123.246 254.561 122.698C253.668 122.179 252.758 121.66 251.861 121.131C251.636 120.984 251.372 120.907 251.103 120.908C250.833 120.91 250.571 120.99 250.347 121.14C249.454 121.672 248.55 122.19 247.647 122.708C246.717 123.24 246.004 122.841 246.006 121.768C246.006 120.322 246.006 118.874 246.054 117.428C246.142 115.43 245.456 113.476 244.136 111.966C241.3 108.677 241.945 103.804 244.768 100.905C247.427 98.1777 250.684 97.5691 254.199 98.8059C257.658 100.023 259.461 102.66 259.824 106.258C260.119 109.179 259.01 111.555 256.819 113.466C256.599 113.648 256.424 113.878 256.307 114.137C256.189 114.397 256.131 114.679 256.138 114.963C256.138 116.092 256.138 117.22 256.138 118.349L256.14 118.347ZM251.036 113.781C254.91 113.781 258.083 110.737 258.086 107.019C258.12 105.645 257.742 104.292 256.999 103.132C256.257 101.972 255.184 101.058 253.917 100.505C252.65 99.9526 251.247 99.7868 249.885 100.029C248.523 100.271 247.264 100.91 246.269 101.865C245.274 102.819 244.586 104.047 244.295 105.391C244.003 106.734 244.12 108.134 244.631 109.411C245.142 110.689 246.024 111.786 247.165 112.564C248.305 113.343 249.653 113.766 251.036 113.781ZM247.822 117.35C247.822 117.598 247.822 117.846 247.822 118.093C247.822 118.34 247.797 118.602 247.786 118.856C247.749 119.697 248.383 120.111 249.147 119.743C249.358 119.64 249.561 119.52 249.761 119.397C251.095 118.59 251.202 118.593 252.452 119.495C252.584 119.594 252.723 119.681 252.868 119.757C253.701 120.167 254.461 119.704 254.452 118.785C254.443 117.914 254.422 117.044 254.397 116.173C254.379 115.6 253.91 115.192 253.358 115.336C251.891 115.73 250.344 115.73 248.877 115.336C248.313 115.183 247.847 115.593 247.829 116.18C247.818 116.569 247.827 116.959 247.827 117.35H247.822Z" fill="#0FB8C3" fill-opacity="0.6"/>
<path d="M246.272 92.8084C242.2 92.8084 238.129 92.8084 234.059 92.8084C233.466 92.8084 232.87 92.7428 232.846 91.939C232.827 91.263 233.193 90.956 234.02 90.956H242.504C247.833 90.956 253.161 90.956 258.49 90.956C259.072 90.956 259.688 91.0146 259.74 91.8024C259.786 92.5121 259.41 92.8067 258.51 92.8067L246.272 92.8084Z" fill="#0FB8C3" fill-opacity="0.6"/>
<path d="M246.304 76.5162H258.515C259.344 76.5162 259.738 76.8143 259.744 77.4353C259.744 78.0954 259.387 78.3615 258.479 78.3615H238.063C236.713 78.3615 235.363 78.3757 234.014 78.3615C233.423 78.3527 232.831 78.2764 232.839 77.4602C232.839 76.8338 233.223 76.5269 234.029 76.5251C235.943 76.5251 237.856 76.5251 239.77 76.5251L246.304 76.5162Z" fill="#0FB8C3" fill-opacity="0.6"/>
<path d="M244.327 83.7975H254.74C255.604 83.7975 255.96 84.1523 255.831 84.8763C255.702 85.6002 255.135 85.5984 254.606 85.602C251.535 85.6144 248.463 85.602 245.393 85.602C241.607 85.602 237.822 85.602 234.036 85.602C233.559 85.602 233.098 85.5275 232.893 84.9969C232.818 84.8257 232.803 84.6347 232.849 84.4537C232.894 84.2727 232.999 84.1119 233.147 83.9962C233.356 83.8063 233.613 83.7992 233.861 83.7992H244.327V83.7975Z" fill="#0FB8C3" fill-opacity="0.6"/>
<path d="M236.348 100.005C235.431 100.098 234.507 100.086 233.593 99.9714C233.073 99.9129 232.825 99.6609 232.839 99.1392C232.853 98.6176 233.078 98.2521 233.63 98.2521C235.514 98.2325 237.398 98.2272 239.282 98.2521C239.861 98.2521 240.13 98.6584 240.105 99.212C240.08 99.7656 239.748 100.003 239.236 100.009C238.273 100.012 237.31 100.005 236.348 100.005Z" fill="#0FB8C3" fill-opacity="0.6"/>
<path d="M182.513 64.8717C182.491 61.7526 182.664 58.635 183.029 55.5373C183.096 55.021 183.246 54.546 183.809 54.3602C184.055 54.299 184.315 54.3158 184.552 54.4082C184.788 54.5007 184.991 54.6643 185.13 54.8764C187.02 56.828 189.436 57.7935 191.976 58.5214C195.156 59.4352 198.424 59.998 201.645 60.7311C208.357 62.28 213.695 65.7959 217.324 71.6557C220.757 77.2058 220.938 82.9779 217.871 88.7861C217.608 89.3024 217.665 89.5089 218.192 89.7412C220.086 90.5673 221.919 91.5431 223.922 92.1213C224.196 92.1898 224.431 92.3643 224.577 92.6063C224.722 92.8484 224.765 93.1382 224.696 93.412C224.628 93.6859 224.454 93.9214 224.211 94.0666C223.969 94.2118 223.68 94.2549 223.406 94.1865C222.048 93.8675 220.733 93.3838 219.493 92.746C218.568 92.3485 217.665 91.8942 216.756 91.4657C216.478 91.3314 216.24 91.2436 215.982 91.5431C213.519 94.5324 210.19 95.6734 206.467 95.9625C201.551 96.424 196.642 95.0053 192.73 91.9922C188.811 89.0339 186.333 85.0327 184.738 80.4584C183.352 76.3188 182.602 71.9931 182.513 67.6287C182.487 66.6942 182.513 65.7804 182.513 64.8717ZM217.84 81.2328C217.888 79.8086 217.714 78.3855 217.324 77.0148C215.522 71.1549 211.599 67.1331 206.178 64.5258C203.034 63.0183 199.575 62.4607 196.189 61.7224C192.441 60.917 188.667 60.1735 185.409 57.9483C185.089 57.7315 184.96 57.8554 184.929 58.1962C184.857 59.141 184.764 60.0858 184.717 61.0306C184.428 66.6116 184.686 72.1462 186.147 77.5517C187.309 81.8937 189.204 85.8484 192.534 88.9616C196.612 92.777 201.491 94.3104 206.989 93.7012C209.493 93.4224 211.836 92.6686 213.7 90.7893C214.129 90.3505 214.216 90.1388 213.581 89.8032C210.421 88.1487 207.441 86.1692 204.691 83.8969C201.48 81.2019 198.579 78.1816 195.657 75.1871C193.152 72.6768 190.794 70.0239 188.594 67.2415C188.078 66.591 188.14 65.9766 188.693 65.5584C188.813 65.4713 188.95 65.4101 189.095 65.3788C189.24 65.3474 189.39 65.3464 189.536 65.376C189.682 65.4056 189.819 65.4651 189.941 65.5507C190.062 65.6363 190.165 65.7462 190.241 65.8733C193.391 69.8694 196.989 73.4524 200.53 77.0871C204.795 81.4652 209.467 85.2702 214.918 88.084C215.435 88.3473 215.662 88.2698 215.91 87.7897C217.044 85.7796 217.704 83.537 217.84 81.2328Z" fill="#0FB8C3" fill-opacity="0.6" stroke="#0FB8C3" stroke-width="0.115936" stroke-linecap="round" stroke-linejoin="round"/>
<path d="M240.484 52.6564C240.252 57.8657 237.98 61.9031 233.468 64.6136C231.208 65.9714 229.835 64.1964 231.042 63.4364C236.086 61.2164 238.894 56.3427 238.197 51.0456C237.831 48.4531 236.607 46.0582 234.719 44.2442C232.831 42.4302 230.389 41.302 227.784 41.04C226.062 40.8562 224.321 41.0649 222.69 41.6506C221.06 42.2363 219.584 43.1837 218.373 44.4216L218.084 44.7056C217.346 45.4181 216.581 45.2735 216.132 44.3442C214.929 41.8763 212.41 40.374 209.937 40.6476C206.927 40.9832 204.826 42.7695 204.165 45.6401C203.969 46.4731 203.952 47.3382 204.115 48.1783C204.278 49.0184 204.617 49.8145 205.11 50.5138C205.931 51.7426 205.565 52.4189 204.078 52.579C202.774 52.7299 201.515 53.1435 200.375 53.7949C199.236 54.4462 198.24 55.3217 197.449 56.3685C197.361 56.4769 197.284 56.5853 197.201 56.6938C197.125 56.8282 197.022 56.945 196.897 57.0362C196.773 57.1274 196.63 57.1911 196.479 57.2228C196.328 57.2545 196.172 57.2535 196.021 57.2201C195.871 57.1866 195.729 57.1214 195.606 57.0287C195.482 56.9361 195.38 56.8181 195.306 56.6828C195.232 56.5474 195.187 56.3978 195.175 56.2439C195.164 56.09 195.185 55.9354 195.238 55.7904C195.291 55.6454 195.374 55.5133 195.482 55.403C196.465 54.0261 197.726 52.8706 199.184 52.0111C200.094 51.4569 201.08 51.0378 202.111 50.7668C202.508 50.6635 202.591 50.5087 202.446 50.106C200.541 44.9844 203.438 39.6563 208.765 38.6341C212.064 37.999 214.837 39.1039 216.979 41.6905C217.351 42.1396 217.562 42.2068 218.011 41.8144C219.903 40.306 222.156 39.3196 224.547 38.9534C226.938 38.5873 229.383 38.8541 231.639 39.7274C233.895 40.6007 235.882 42.05 237.403 43.9308C238.924 45.8115 239.926 48.0581 240.309 50.4467C240.437 51.176 240.496 51.9159 240.484 52.6564Z" fill="#0FB8C3" fill-opacity="0.6"/>
<path d="M223.648 56.3116C223.669 56.7438 223.599 57.1755 223.443 57.579C223.286 57.9824 223.047 58.3487 222.741 58.6541C222.435 58.9596 222.068 59.1974 221.664 59.3524C221.26 59.5074 220.828 59.576 220.396 59.5539C219.753 59.5529 219.126 59.3614 218.592 59.0037C218.059 58.646 217.643 58.1382 217.399 57.5444C217.154 56.9506 217.09 56.2976 217.217 55.6678C217.343 55.0381 217.653 54.46 218.108 54.0065C218.563 53.5531 219.142 53.2447 219.772 53.1204C220.402 52.9961 221.055 53.0615 221.648 53.3082C222.241 53.5549 222.748 53.9719 223.104 54.5066C223.46 55.0412 223.649 55.6693 223.648 56.3116ZM222.29 56.3116C222.312 56.0502 222.279 55.7871 222.192 55.5395C222.105 55.2919 221.967 55.0655 221.787 54.8749C221.607 54.6844 221.388 54.5341 221.146 54.4338C220.903 54.3335 220.642 54.2855 220.38 54.2929C219.847 54.2929 219.337 54.5045 218.96 54.8812C218.583 55.2578 218.372 55.7686 218.372 56.3013C218.372 56.8339 218.583 57.3448 218.96 57.7214C219.337 58.098 219.847 58.3096 220.38 58.3096C220.641 58.3195 220.901 58.2746 221.144 58.1778C221.386 58.0811 221.605 57.9346 221.788 57.7478C221.97 57.561 222.112 57.3381 222.203 57.0934C222.294 56.8487 222.332 56.5877 222.316 56.3271L222.29 56.3116Z" fill="#0FB8C3" fill-opacity="0.6"/>
<path d="M210.014 55.9126C210.046 55.3634 210.289 54.7744 210.616 54.3324C210.944 53.8903 211.393 53.5535 211.909 53.3633C212.495 53.0814 213.151 52.9799 213.795 53.0718C214.438 53.1638 215.04 53.4449 215.523 53.8796C215.72 54.05 216.174 54.2926 215.833 54.6024C215.492 54.9121 215.193 55.382 214.62 54.8295C214.273 54.511 213.821 54.3317 213.351 54.326C212.88 54.3203 212.424 54.4886 212.069 54.7985C211.717 55.1363 211.489 55.5841 211.425 56.0682C211.36 56.5523 211.462 57.044 211.713 57.4626C211.96 57.8497 212.337 58.136 212.776 58.2704C213.215 58.4047 213.687 58.3783 214.109 58.1957C214.257 58.1492 214.393 58.0698 214.506 57.9634C214.878 57.4471 215.208 57.6485 215.616 57.9634C216.024 58.2783 215.874 58.5313 215.59 58.7791C215.108 59.2145 214.51 59.5 213.868 59.6008C213.226 59.7017 212.569 59.6135 211.976 59.347C210.743 58.8307 210.009 57.7764 210.014 55.9126Z" fill="#0FB8C3" fill-opacity="0.6"/>
<path d="M225.93 62.414C225.626 62.3108 225.094 62.6567 224.898 62.1972C224.702 61.7377 225.239 61.4847 225.486 61.1646C225.734 60.8445 225.972 60.6484 226.199 60.4005C226.308 60.3015 226.377 60.1655 226.392 60.0188C226.407 59.8721 226.368 59.7249 226.281 59.6054C226.24 59.5437 226.185 59.4918 226.121 59.4533C226.057 59.4147 225.986 59.3904 225.912 59.3821C225.838 59.3738 225.763 59.3816 225.692 59.405C225.621 59.4284 225.556 59.4668 225.502 59.5177C225.239 59.6777 224.986 59.7913 224.825 59.4506C224.665 59.1098 224.991 58.9807 225.208 58.862C225.482 58.7185 225.795 58.6643 226.103 58.7069C226.41 58.7495 226.696 58.8867 226.922 59.0995C227.098 59.3561 227.181 59.6658 227.155 59.9762C227.13 60.2866 226.998 60.5787 226.782 60.8032C226.71 60.8962 226.617 60.9684 226.55 61.0614C226.483 61.1543 226.152 61.3453 226.245 61.5777C226.338 61.81 226.591 61.7068 226.762 61.7222C226.932 61.7377 227.242 61.7687 227.216 62.1043C227.19 62.4399 226.963 62.4037 226.746 62.4089C226.529 62.414 226.25 62.414 225.93 62.414Z" fill="#0FB8C3" fill-opacity="0.6"/>
<path d="M316.652 77.9434C317.404 78.0311 318.112 78.3397 318.688 78.8302C319.264 79.3206 319.681 79.9709 319.887 80.6986C320.093 81.4264 320.079 82.1989 319.846 82.9185C319.613 83.6381 319.172 84.2725 318.578 84.7412C317.985 85.21 317.265 85.4921 316.511 85.552C315.757 85.6118 315.002 85.4466 314.342 85.0773C313.682 84.708 313.146 84.1512 312.803 83.4773C312.459 82.8035 312.323 82.0429 312.412 81.2917C312.471 80.7934 312.627 80.3116 312.872 79.8736C313.116 79.4357 313.445 79.0502 313.839 78.7393C314.233 78.4284 314.684 78.198 315.166 78.0615C315.649 77.9249 316.154 77.8848 316.652 77.9434Z" fill="#C4C4C4"/>
<path d="M316.652 77.9434C317.404 78.0311 318.112 78.3397 318.688 78.8302C319.264 79.3206 319.681 79.9709 319.887 80.6986C320.093 81.4264 320.079 82.1989 319.846 82.9185C319.613 83.6381 319.172 84.2725 318.578 84.7412C317.985 85.21 317.265 85.4921 316.511 85.552C315.757 85.6118 315.002 85.4466 314.342 85.0773C313.682 84.708 313.146 84.1512 312.803 83.4773C312.459 82.8035 312.323 82.0429 312.412 81.2917C312.471 80.7934 312.627 80.3116 312.872 79.8736C313.116 79.4357 313.445 79.0502 313.839 78.7393C314.233 78.4284 314.684 78.198 315.166 78.0615C315.649 77.9249 316.154 77.8848 316.652 77.9434Z" fill="url(#paint0_linear_28_280)"/>
<path d="M316.652 77.9434C317.404 78.0311 318.112 78.3397 318.688 78.8302C319.264 79.3206 319.681 79.9709 319.887 80.6986C320.093 81.4264 320.079 82.1989 319.846 82.9185C319.613 83.6381 319.172 84.2725 318.578 84.7412C317.985 85.21 317.265 85.4921 316.511 85.552C315.757 85.6118 315.002 85.4466 314.342 85.0773C313.682 84.708 313.146 84.1512 312.803 83.4773C312.459 82.8035 312.323 82.0429 312.412 81.2917C312.471 80.7934 312.627 80.3116 312.872 79.8736C313.116 79.4357 313.445 79.0502 313.839 78.7393C314.233 78.4284 314.684 78.198 315.166 78.0615C315.649 77.9249 316.154 77.8848 316.652 77.9434Z" stroke="#14D9C1" stroke-width="1.09692"/>
<path d="M133.659 77.9434C134.411 78.0311 135.119 78.3397 135.695 78.8302C136.271 79.3206 136.688 79.9709 136.894 80.6986C137.1 81.4264 137.086 82.1989 136.853 82.9185C136.62 83.6381 136.179 84.2725 135.585 84.7412C134.991 85.21 134.272 85.4921 133.518 85.552C132.764 85.6118 132.009 85.4466 131.349 85.0773C130.689 84.708 130.153 84.1512 129.81 83.4773C129.466 82.8035 129.33 82.0429 129.419 81.2917C129.478 80.7934 129.634 80.3116 129.878 79.8736C130.123 79.4357 130.452 79.0502 130.846 78.7393C131.239 78.4284 131.69 78.198 132.173 78.0615C132.656 77.9249 133.161 77.8848 133.659 77.9434Z" fill="#C4C4C4"/>
<path d="M133.659 77.9434C134.411 78.0311 135.119 78.3397 135.695 78.8302C136.271 79.3206 136.688 79.9709 136.894 80.6986C137.1 81.4264 137.086 82.1989 136.853 82.9185C136.62 83.6381 136.179 84.2725 135.585 84.7412C134.991 85.21 134.272 85.4921 133.518 85.552C132.764 85.6118 132.009 85.4466 131.349 85.0773C130.689 84.708 130.153 84.1512 129.81 83.4773C129.466 82.8035 129.33 82.0429 129.419 81.2917C129.478 80.7934 129.634 80.3116 129.878 79.8736C130.123 79.4357 130.452 79.0502 130.846 78.7393C131.239 78.4284 131.69 78.198 132.173 78.0615C132.656 77.9249 133.161 77.8848 133.659 77.9434Z" fill="url(#paint1_linear_28_280)"/>
<path d="M133.659 77.9434C134.411 78.0311 135.119 78.3397 135.695 78.8302C136.271 79.3206 136.688 79.9709 136.894 80.6986C137.1 81.4264 137.086 82.1989 136.853 82.9185C136.62 83.6381 136.179 84.2725 135.585 84.7412C134.991 85.21 134.272 85.4921 133.518 85.552C132.764 85.6118 132.009 85.4466 131.349 85.0773C130.689 84.708 130.153 84.1512 129.81 83.4773C129.466 82.8035 129.33 82.0429 129.419 81.2917C129.478 80.7934 129.634 80.3116 129.878 79.8736C130.123 79.4357 130.452 79.0502 130.846 78.7393C131.239 78.4284 131.69 78.198 132.173 78.0615C132.656 77.9249 133.161 77.8848 133.659 77.9434Z" stroke="#14D9C1" stroke-width="1.09692"/>
<g opacity="0.6">
<path d="M28.915 114.994L30.1543 75.3269H31.3936L32.0085 114.994H28.915Z" fill="#0FB8C3"/>
<path d="M31.846 74.4532C31.846 74.5558 31.8156 74.6561 31.7586 74.7414C31.7016 74.8267 31.6205 74.8933 31.5257 74.9325C31.431 74.9718 31.3266 74.982 31.226 74.962C31.1254 74.9419 31.0329 74.8926 30.9604 74.8201C30.8878 74.7475 30.8384 74.6551 30.8184 74.5544C30.7984 74.4538 30.8086 74.3495 30.8479 74.2547C30.8872 74.1599 30.9537 74.0788 31.039 74.0218C31.1243 73.9648 31.2246 73.9344 31.3272 73.9344C31.4648 73.9344 31.5967 73.9891 31.694 74.0864C31.7913 74.1837 31.846 74.3156 31.846 74.4532ZM31.1639 72.7911C30.7174 72.7911 30.2809 72.9236 29.9096 73.1717C29.5383 73.4198 29.249 73.7724 29.0781 74.1849C28.9073 74.5974 28.8625 75.0513 28.9496 75.4892C29.0367 75.9272 29.2518 76.3294 29.5675 76.6452C29.8833 76.9609 30.2855 77.176 30.7235 77.2631C31.1614 77.3502 31.6153 77.3054 32.0279 77.1346C32.4404 76.9637 32.793 76.6744 33.0411 76.3031C33.2892 75.9318 33.4215 75.4954 33.4215 75.0489C33.4215 74.4501 33.1837 73.8758 32.7603 73.4524C32.3369 73.029 31.7627 72.7911 31.1639 72.7911Z" fill="#0FB8C3"/>
<path d="M67.9494 58.7164C67.9494 58.8795 67.8846 59.0358 67.7693 59.1511C67.654 59.2664 67.4976 59.3313 67.3346 59.3313C67.1715 59.3313 67.0151 59.2664 66.8998 59.1511C66.7845 59.0358 66.7197 58.8795 66.7197 58.7164C66.7197 58.5533 66.7845 58.3969 66.8998 58.2815C67.0151 58.1662 67.1715 58.1015 67.3346 58.1015C67.4976 58.1015 67.654 58.1662 67.7693 58.2815C67.8846 58.3969 67.9494 58.5533 67.9494 58.7164ZM67.1424 56.795C66.6138 56.795 66.097 56.9519 65.6576 57.2458C65.2182 57.5397 64.8759 57.9573 64.6741 58.4458C64.4722 58.9344 64.4199 59.472 64.5237 59.9903C64.6275 60.5087 64.8828 60.9845 65.2573 61.3576C65.6318 61.7307 66.1086 61.9844 66.6273 62.0863C67.146 62.1883 67.6833 62.134 68.1711 61.9304C68.659 61.7268 69.0754 61.3829 69.3677 60.9425C69.66 60.502 69.815 59.9848 69.8131 59.4562C69.8169 59.103 69.7507 58.7526 69.6182 58.4252C69.4856 58.0978 69.2896 57.8 69.0412 57.5489C68.7928 57.2979 68.497 57.0986 68.1711 56.9626C67.8452 56.8266 67.4956 56.7565 67.1424 56.7565V56.795Z" fill="#0FB8C3"/>
<path d="M31.6153 73.3483L35.2564 58.1021C33.5816 60.7083 32.1013 63.4344 30.8276 66.2584C29.6075 69.4671 30.5682 72.7239 31.6153 73.3483Z" fill="#0FB8C3"/>
<path d="M31.8838 76.6048L43.7484 86.8554C42.2065 84.1697 40.4694 81.6009 38.551 79.1698C36.3318 76.5663 32.9213 75.9611 31.8838 76.6048Z" fill="#0FB8C3"/>
<path d="M29.5204 75.0776L14.4663 79.4296C17.5564 79.6027 20.655 79.5482 23.7371 79.2664C27.1572 78.786 29.5012 76.2977 29.5204 75.0776Z" fill="#0FB8C3"/>
<path d="M16.0911 82.6668C14.8261 80.2922 14.1367 77.6536 14.0783 74.9637C14.0199 72.2737 14.5942 69.6077 15.7549 67.1804" stroke="#0FB8C3" stroke-width="0.244652" stroke-linecap="round" stroke-linejoin="round"/>
<path d="M45.786 83.6373C43.6659 87.0593 40.407 89.6243 36.5825 90.881" stroke="#0FB8C3" stroke-width="0.244652" stroke-linecap="round" stroke-linejoin="round"/>
<path d="M32.4219 57.4679C34.7719 57.634 37.0627 58.2818 39.1517 59.371C41.2407 60.4601 43.0834 61.9673 44.5651 63.7989" stroke="#0FB8C3" stroke-width="0.244652" stroke-linecap="round" stroke-linejoin="round"/>
<path d="M20.6156 84.2908C18.9672 82.4855 17.8051 80.2906 17.2388 77.9125C16.6724 75.5345 16.7203 73.0513 17.378 70.6969" stroke="#0FB8C3" stroke-width="0.244652" stroke-linecap="round" stroke-linejoin="round"/>
<path d="M45.1509 78.3731C44.602 80.3637 43.6317 82.2131 42.3056 83.796C40.9796 85.379 39.3289 86.6585 37.4653 87.5478" stroke="#0FB8C3" stroke-width="0.244652" stroke-linecap="round" stroke-linejoin="round"/>
<path d="M28.4644 60.4462C30.6945 60.0055 32.9973 60.0987 35.1846 60.7182C37.3719 61.3376 39.3816 62.4658 41.0495 64.0105" stroke="#0FB8C3" stroke-width="0.244652" stroke-linecap="round" stroke-linejoin="round"/>
<path d="M24.6313 63.0685C25.9059 62.547 27.2615 62.2513 28.6374 62.1944C31.1963 62.0892 33.7226 62.7989 35.8523 64.2214" stroke="#0FB8C3" stroke-width="0.244652" stroke-linecap="round" stroke-linejoin="round"/>
<path d="M22.4404 82.3596C21.6284 81.3111 21.0014 80.1318 20.5862 78.8723C20.0607 77.3058 19.8677 75.6468 20.0195 74.0015" stroke="#0FB8C3" stroke-width="0.244652" stroke-linecap="round" stroke-linejoin="round"/>
<path d="M43.9597 74.3471C44.0791 76.3106 43.714 78.2733 42.8965 80.0625C42.079 81.8517 40.8341 83.4124 39.2715 84.6073" stroke="#0FB8C3" stroke-width="0.244652" stroke-linecap="round" stroke-linejoin="round"/>
<path d="M115.326 114.985H98.0384C89.4785 114.985 77.9982 107.03 66.5467 107.03H65.9415C57.0166 107.03 43.0096 114.985 34.4594 114.985H18.9751" stroke="#0FB8C3" stroke-width="0.978607" stroke-linecap="round" stroke-linejoin="round"/>
<path d="M103.168 114.994L104.408 75.3269H105.647L106.262 114.994H103.168Z" fill="#0FB8C3"/>
<path d="M106.098 74.4532C106.098 74.5558 106.068 74.6561 106.011 74.7414C105.954 74.8267 105.873 74.8933 105.778 74.9325C105.683 74.9718 105.579 74.982 105.478 74.962C105.378 74.9419 105.285 74.8926 105.213 74.8201C105.14 74.7475 105.091 74.6551 105.071 74.5544C105.051 74.4538 105.061 74.3495 105.1 74.2547C105.14 74.1599 105.206 74.0788 105.292 74.0218C105.377 73.9648 105.477 73.9344 105.58 73.9344C105.717 73.9344 105.849 73.9891 105.946 74.0864C106.044 74.1837 106.098 74.3156 106.098 74.4532ZM105.416 72.7911C104.97 72.7911 104.533 72.9236 104.162 73.1717C103.791 73.4198 103.501 73.7724 103.331 74.1849C103.16 74.5974 103.115 75.0513 103.202 75.4892C103.289 75.9272 103.504 76.3294 103.82 76.6452C104.136 76.9609 104.538 77.176 104.976 77.2631C105.414 77.3502 105.868 77.3054 106.28 77.1346C106.693 76.9637 107.046 76.6744 107.294 76.3031C107.542 75.9318 107.674 75.4954 107.674 75.0489C107.674 74.4501 107.436 73.8758 107.013 73.4524C106.589 73.029 106.015 72.7911 105.416 72.7911Z" fill="#0FB8C3"/>
<path d="M105.869 73.3483L109.519 58.1021C107.84 60.7072 106.357 63.4335 105.081 66.2584C103.813 69.4671 104.812 72.7239 105.869 73.3483Z" fill="#0FB8C3"/>
<path d="M106.136 76.6048L118 86.8554C116.458 84.1697 114.721 81.6009 112.803 79.1698C110.536 76.5663 107.173 75.9611 106.136 76.6048Z" fill="#0FB8C3"/>
<path d="M103.773 75.0776L88.7192 79.4296C91.8093 79.6027 94.9079 79.5482 97.99 79.2664C101.41 78.786 103.754 76.2977 103.773 75.0776Z" fill="#0FB8C3"/>
<path d="M90.3431 82.6668C89.0781 80.2922 88.3886 77.6536 88.3302 74.9637C88.2718 72.2737 88.8461 69.6077 90.0069 67.1804" stroke="#0FB8C3" stroke-width="0.244652" stroke-linecap="round" stroke-linejoin="round"/>
<path d="M120.038 83.6373C117.918 87.0593 114.659 89.6243 110.835 90.881" stroke="#0FB8C3" stroke-width="0.244652" stroke-linecap="round" stroke-linejoin="round"/>
<path d="M106.675 57.4679C109.025 57.634 111.316 58.2818 113.405 59.371C115.494 60.4601 117.337 61.9673 118.819 63.7989" stroke="#0FB8C3" stroke-width="0.244652" stroke-linecap="round" stroke-linejoin="round"/>
<path d="M94.8685 84.2908C93.2201 82.4855 92.058 80.2906 91.4917 77.9125C90.9253 75.5345 90.9733 73.0513 91.631 70.6969" stroke="#0FB8C3" stroke-width="0.244652" stroke-linecap="round" stroke-linejoin="round"/>
<path d="M119.404 78.3731C118.855 80.3637 117.885 82.2131 116.559 83.796C115.233 85.379 113.582 86.6585 111.718 87.5478" stroke="#0FB8C3" stroke-width="0.244652" stroke-linecap="round" stroke-linejoin="round"/>
<path d="M102.717 60.4462C104.947 60.0055 107.25 60.0987 109.437 60.7182C111.624 61.3376 113.634 62.4658 115.302 64.0105" stroke="#0FB8C3" stroke-width="0.244652" stroke-linecap="round" stroke-linejoin="round"/>
<path d="M98.8833 63.0685C100.158 62.547 101.513 62.2513 102.889 62.1944C105.448 62.0892 107.975 62.7989 110.104 64.2214" stroke="#0FB8C3" stroke-width="0.244652" stroke-linecap="round" stroke-linejoin="round"/>
<path d="M96.6937 82.3596C95.8818 81.3111 95.2548 80.1318 94.8397 78.8723C94.3142 77.3058 94.1211 75.6468 94.2729 74.0015" stroke="#0FB8C3" stroke-width="0.244652" stroke-linecap="round" stroke-linejoin="round"/>
<path d="M118.213 74.3471C118.332 76.3106 117.967 78.2733 117.149 80.0625C116.332 81.8517 115.087 83.4124 113.524 84.6073" stroke="#0FB8C3" stroke-width="0.244652" stroke-linecap="round" stroke-linejoin="round"/>
<path d="M64.5474 107.088L65.9788 61.4551H67.4006L68.1115 107.088H64.5474Z" fill="#0FB8C3"/>
<path d="M68.6304 60.7439L85.0679 68.1605C82.4902 65.7183 79.7351 63.4705 76.8252 61.4356C73.4627 59.2548 69.5622 59.6872 68.6304 60.7439Z" fill="#0FB8C3"/>
<path d="M64.8952 60.3401L50.7441 71.5323C54.1126 70.3725 57.3911 68.9661 60.5529 67.3244C63.9922 65.3262 65.4044 61.6563 64.8952 60.3401Z" fill="#0FB8C3"/>
<path d="M67.1422 58.0059L65.4706 40.0504C64.6048 43.5232 63.9979 47.0554 63.6549 50.6181C63.4627 54.5377 65.7588 57.7177 67.1422 58.0059Z" fill="#0FB8C3"/>
<path d="M61.4644 41.194C64.4205 40.2783 67.5503 40.069 70.602 40.5829C73.6538 41.0968 76.5423 42.3196 79.0355 44.1529" stroke="#0FB8C3" stroke-width="0.283796" stroke-linecap="round" stroke-linejoin="round"/>
<path d="M53.9418 74.5298C50.5362 71.3912 48.3456 67.1529 47.7549 62.5595" stroke="#0FB8C3" stroke-width="0.283796" stroke-linecap="round" stroke-linejoin="round"/>
<path d="M86.405 65.0861C85.7109 67.7068 84.4843 70.1562 82.8016 72.2819C81.119 74.4075 79.0164 76.1637 76.625 77.4407" stroke="#0FB8C3" stroke-width="0.283796" stroke-linecap="round" stroke-linejoin="round"/>
<path d="M58.6499 45.9489C61.0474 44.4788 63.7789 43.6415 66.5884 43.5155C69.3979 43.3895 72.1933 43.9788 74.7128 45.2284" stroke="#0FB8C3" stroke-width="0.283796" stroke-linecap="round" stroke-linejoin="round"/>
<path d="M60.0129 74.9526C57.8848 73.9032 56.0061 72.4103 54.5031 70.5743C53.0001 68.7382 51.9077 66.6016 51.2993 64.3081" stroke="#0FB8C3" stroke-width="0.283796" stroke-linecap="round" stroke-linejoin="round"/>
<path d="M83.8963 59.9753C83.9207 62.5896 83.3237 65.1722 82.1545 67.5106C80.9854 69.8489 79.2774 71.8761 77.1714 73.4251" stroke="#0FB8C3" stroke-width="0.283796" stroke-linecap="round" stroke-linejoin="round"/>
<path d="M81.764 55.0755C82.0732 56.6293 82.1154 58.2245 81.8889 59.7925C81.6563 61.3482 81.1591 62.8526 80.419 64.2406C79.784 65.4395 78.9782 66.5397 78.0269 67.5069" stroke="#0FB8C3" stroke-width="0.283796" stroke-linecap="round" stroke-linejoin="round"/>
<path d="M60.4365 48.428C63.5211 46.864 67.0821 46.5209 70.4085 47.4673" stroke="#0FB8C3" stroke-width="0.283796" stroke-linecap="round" stroke-linejoin="round"/>
<path d="M64.8362 74.5296C62.5933 74.2374 60.4566 73.3986 58.6139 72.0869C56.7712 70.7752 55.279 69.031 54.2686 67.0073" stroke="#0FB8C3" stroke-width="0.283796" stroke-linecap="round" stroke-linejoin="round"/>
</g>
<path d="M207.948 18.8409C207.9 18.9374 207.876 19.1423 207.876 19.4557C207.876 19.7811 207.9 19.974 207.948 20.0343L209.708 18.7686V25.2416C210.106 25.338 210.516 25.338 210.937 25.2416V17.4065C210.6 17.3462 210.274 17.3462 209.949 17.4065L207.948 18.8409ZM223.276 17.4065C222.926 17.3342 222.577 17.3342 222.227 17.4065L220.106 23.313L217.984 17.4065C217.623 17.3342 217.273 17.3342 216.936 17.4065L215.103 25.2416C215.501 25.326 215.899 25.326 216.309 25.2416L217.575 19.5883L219.6 25.2416C219.937 25.3139 220.275 25.3139 220.612 25.2416L222.637 19.5883L223.903 25.2416C224.301 25.326 224.698 25.326 225.108 25.2416L223.276 17.4065ZM237.194 17.4065C236.772 17.3221 236.35 17.3221 235.929 17.4065L233.976 23.4094L232.023 17.4065C231.686 17.3342 231.336 17.3342 230.998 17.4065L229.046 23.4094L227.093 17.4065C226.671 17.3221 226.249 17.3221 225.827 17.4065L228.527 25.2416C228.865 25.3139 229.214 25.3139 229.564 25.2416L231.517 19.4316L233.457 25.2416C233.795 25.3139 234.145 25.3139 234.494 25.2416L237.194 17.4065ZM241.18 20.2392C240.626 20.2392 240.083 20.4923 239.553 20.9986V17.4065C239.179 17.3342 238.806 17.3342 238.432 17.4065V25.2416C238.806 25.326 239.179 25.326 239.553 25.2416V21.8424C239.939 21.4325 240.36 21.2156 240.819 21.2156C241.542 21.2156 241.903 21.6134 241.903 22.3969V25.2416C242.277 25.326 242.651 25.326 243.036 25.2416V22.1558C243.036 21.6134 242.88 21.1553 242.578 20.7937C242.277 20.4321 241.807 20.2392 241.18 20.2392Z" fill="#0FB8C3"/>
<path d="M170.147 138.599C170.099 138.696 170.074 138.901 170.074 139.214C170.074 139.54 170.099 139.732 170.147 139.793L171.907 138.527V145C172.304 145.096 172.714 145.096 173.136 145V137.165C172.799 137.105 172.473 137.105 172.148 137.165L170.147 138.599ZM183.365 143.843C182.931 144.06 182.437 144.168 181.907 144.168C181.015 144.168 180.279 143.879 179.701 143.3C179.11 142.722 178.821 141.986 178.821 141.082C178.821 140.19 179.11 139.467 179.701 138.889C180.279 138.31 181.015 138.021 181.907 138.021C182.763 138.021 183.582 138.286 184.378 138.816C184.426 138.756 184.438 138.575 184.438 138.262C184.438 137.96 184.414 137.768 184.378 137.671C183.679 137.213 182.835 136.984 181.846 136.984C180.569 136.984 179.544 137.382 178.749 138.165C177.953 138.961 177.567 139.925 177.567 141.082C177.567 142.24 177.953 143.216 178.749 144C179.544 144.795 180.569 145.181 181.846 145.181C182.365 145.181 182.871 145.121 183.377 144.988C183.872 144.867 184.269 144.699 184.571 144.494V141.227C184.161 141.155 183.763 141.155 183.365 141.227V143.843ZM189.788 143.554C189.378 143.987 188.944 144.204 188.486 144.204C188.124 144.204 187.847 144.108 187.666 143.891C187.485 143.686 187.401 143.397 187.401 143.023V140.178C187.027 140.106 186.654 140.106 186.28 140.178V143.264C186.28 143.819 186.425 144.277 186.726 144.638C187.027 145 187.497 145.181 188.124 145.181C188.751 145.181 189.33 144.892 189.848 144.313L189.932 145C190.258 145.072 190.583 145.072 190.921 145V140.178C190.535 140.106 190.161 140.106 189.788 140.178V143.554ZM194.486 139.998C193.739 139.998 193.148 140.166 192.69 140.48C192.642 140.576 192.618 140.733 192.618 140.962C192.618 141.203 192.642 141.348 192.69 141.408C193.22 141.082 193.751 140.914 194.269 140.914C195.137 140.914 195.583 141.311 195.583 142.107V142.625C195.149 142.264 194.618 142.071 193.992 142.071C193.461 142.071 193.027 142.216 192.702 142.493C192.364 142.782 192.208 143.156 192.208 143.626C192.208 144.108 192.364 144.482 192.702 144.759C193.027 145.048 193.437 145.181 193.943 145.181C194.281 145.181 194.594 145.121 194.908 144.976C195.209 144.831 195.462 144.662 195.655 144.446L195.727 145C196.053 145.072 196.378 145.072 196.704 145V142.203C196.704 140.733 195.956 139.998 194.486 139.998ZM194.269 142.782C194.51 142.782 194.763 142.842 195.016 142.951C195.269 143.059 195.462 143.168 195.583 143.276V143.819C195.45 143.939 195.257 144.06 195.016 144.168C194.763 144.277 194.51 144.325 194.257 144.325C193.968 144.325 193.739 144.253 193.57 144.108C193.401 143.963 193.329 143.77 193.329 143.554C193.329 143.337 193.401 143.144 193.57 142.999C193.739 142.854 193.968 142.782 194.269 142.782ZM201.856 140.215C201.639 140.07 201.338 139.998 200.976 139.998C200.337 139.998 199.795 140.371 199.349 141.107L199.241 140.178C198.903 140.118 198.578 140.118 198.252 140.178V145C198.626 145.084 198.999 145.084 199.373 145V142.035C199.518 141.782 199.723 141.553 199.988 141.348C200.253 141.143 200.518 141.034 200.808 141.034C201.157 141.034 201.507 141.155 201.856 141.372C201.892 141.287 201.917 141.094 201.917 140.781C201.917 140.468 201.904 140.287 201.856 140.215ZM205.163 139.998C204.415 139.998 203.825 140.166 203.367 140.48C203.318 140.576 203.294 140.733 203.294 140.962C203.294 141.203 203.318 141.348 203.367 141.408C203.897 141.082 204.427 140.914 204.946 140.914C205.814 140.914 206.26 141.311 206.26 142.107V142.625C205.826 142.264 205.295 142.071 204.668 142.071C204.138 142.071 203.704 142.216 203.379 142.493C203.041 142.782 202.884 143.156 202.884 143.626C202.884 144.108 203.041 144.482 203.379 144.759C203.704 145.048 204.114 145.181 204.62 145.181C204.958 145.181 205.271 145.121 205.585 144.976C205.886 144.831 206.139 144.662 206.332 144.446L206.404 145C206.73 145.072 207.055 145.072 207.381 145V142.203C207.381 140.733 206.633 139.998 205.163 139.998ZM204.946 142.782C205.187 142.782 205.44 142.842 205.693 142.951C205.946 143.059 206.139 143.168 206.26 143.276V143.819C206.127 143.939 205.934 144.06 205.693 144.168C205.44 144.277 205.187 144.325 204.934 144.325C204.644 144.325 204.415 144.253 204.247 144.108C204.078 143.963 204.005 143.77 204.005 143.554C204.005 143.337 204.078 143.144 204.247 142.999C204.415 142.854 204.644 142.782 204.946 142.782ZM211.713 139.998C211.087 139.998 210.52 140.287 209.99 140.865L209.917 140.178C209.58 140.118 209.254 140.118 208.929 140.178V145C209.303 145.084 209.676 145.084 210.05 145V141.625C210.46 141.191 210.894 140.974 211.352 140.974C211.713 140.974 211.979 141.082 212.159 141.287C212.34 141.504 212.437 141.794 212.437 142.155V145C212.81 145.084 213.184 145.084 213.57 145V141.914C213.57 141.372 213.413 140.914 213.112 140.552C212.81 140.19 212.34 139.998 211.713 139.998ZM218.195 143.746C217.809 144.072 217.459 144.229 217.17 144.229C216.833 144.229 216.664 144.012 216.664 143.566V141.131H218.134C218.207 140.817 218.207 140.504 218.134 140.178H216.664V138.611C216.278 138.539 215.904 138.539 215.543 138.611V140.178H214.796C214.711 140.504 214.711 140.817 214.796 141.131H215.543V143.722C215.543 144.204 215.663 144.566 215.904 144.807C216.146 145.06 216.471 145.181 216.893 145.181C217.435 145.181 217.869 145.024 218.195 144.699C218.231 144.614 218.255 144.446 218.255 144.204C218.255 143.963 218.243 143.819 218.195 143.746ZM222.016 139.998C221.244 139.998 220.63 140.251 220.148 140.733C219.665 141.215 219.424 141.83 219.424 142.577C219.424 143.361 219.665 143.987 220.16 144.47C220.654 144.952 221.305 145.181 222.124 145.181C222.836 145.181 223.414 145.012 223.872 144.65C223.908 144.566 223.932 144.397 223.932 144.156C223.932 143.915 223.92 143.77 223.872 143.71C223.318 144.06 222.775 144.229 222.245 144.229C221.763 144.229 221.377 144.096 221.064 143.831C220.75 143.566 220.594 143.204 220.569 142.734H224.294C224.378 142.324 224.354 141.914 224.234 141.504C224.101 141.094 223.836 140.733 223.45 140.444C223.065 140.154 222.582 139.998 222.016 139.998ZM222.028 140.853C222.39 140.853 222.691 140.974 222.92 141.203C223.149 141.444 223.27 141.745 223.27 142.119H220.63C220.678 141.733 220.835 141.432 221.088 141.203C221.329 140.974 221.642 140.853 222.028 140.853ZM228.066 139.998C227.295 139.998 226.68 140.251 226.198 140.733C225.716 141.215 225.475 141.83 225.475 142.577C225.475 143.361 225.716 143.987 226.21 144.47C226.704 144.952 227.355 145.181 228.175 145.181C228.886 145.181 229.465 145.012 229.923 144.65C229.959 144.566 229.983 144.397 229.983 144.156C229.983 143.915 229.971 143.77 229.923 143.71C229.368 144.06 228.826 144.229 228.295 144.229C227.813 144.229 227.428 144.096 227.114 143.831C226.801 143.566 226.644 143.204 226.62 142.734H230.345C230.429 142.324 230.405 141.914 230.284 141.504C230.152 141.094 229.887 140.733 229.501 140.444C229.115 140.154 228.633 139.998 228.066 139.998ZM228.078 140.853C228.44 140.853 228.741 140.974 228.97 141.203C229.2 141.444 229.32 141.745 229.32 142.119H226.68C226.728 141.733 226.885 141.432 227.138 141.203C227.379 140.974 227.693 140.853 228.078 140.853ZM236.908 139.998C236.148 139.998 235.521 140.251 235.027 140.745C234.521 141.251 234.28 141.866 234.28 142.589C234.28 143.324 234.521 143.939 235.027 144.433C235.521 144.94 236.148 145.181 236.908 145.181C237.667 145.181 238.294 144.94 238.8 144.433C239.294 143.939 239.548 143.324 239.548 142.589C239.548 141.866 239.294 141.251 238.8 140.745C238.294 140.251 237.667 139.998 236.908 139.998ZM236.92 140.974C237.354 140.974 237.703 141.131 237.993 141.432C238.282 141.733 238.427 142.119 238.427 142.589C238.427 143.071 238.282 143.457 237.993 143.758C237.703 144.06 237.354 144.204 236.92 144.204C236.486 144.204 236.124 144.06 235.835 143.758C235.546 143.457 235.413 143.071 235.413 142.589C235.413 142.119 235.546 141.733 235.835 141.432C236.124 141.131 236.486 140.974 236.92 140.974ZM243.263 137.936C243.528 137.936 243.841 138.057 244.215 138.274C244.263 138.214 244.275 138.057 244.275 137.804C244.275 137.551 244.251 137.382 244.215 137.285C243.853 137.093 243.443 136.984 242.985 136.984C242.515 136.984 242.13 137.129 241.816 137.406C241.503 137.695 241.346 138.093 241.346 138.611V140.178H240.599C240.514 140.504 240.514 140.817 240.599 141.131H241.346V145C241.708 145.084 242.081 145.084 242.467 145V141.131H243.962C244.034 140.817 244.034 140.504 243.962 140.178H242.467V138.828C242.467 138.238 242.732 137.936 243.263 137.936ZM252.248 136.984C251.043 136.984 250.054 137.382 249.283 138.177C248.511 138.973 248.126 139.937 248.126 141.082C248.126 142.24 248.511 143.204 249.283 144C250.054 144.795 251.043 145.181 252.248 145.181C253.454 145.181 254.442 144.795 255.214 144C255.985 143.204 256.371 142.24 256.371 141.082C256.371 139.937 255.985 138.973 255.214 138.177C254.442 137.382 253.454 136.984 252.248 136.984ZM252.248 138.021C253.068 138.021 253.743 138.31 254.297 138.889C254.84 139.467 255.117 140.19 255.117 141.082C255.117 141.974 254.84 142.71 254.297 143.288C253.743 143.867 253.068 144.144 252.248 144.144C251.429 144.144 250.741 143.867 250.199 143.288C249.645 142.71 249.379 141.974 249.379 141.082C249.379 140.19 249.645 139.467 250.199 138.889C250.741 138.31 251.429 138.021 252.248 138.021ZM261.455 140.215C261.238 140.07 260.937 139.998 260.576 139.998C259.937 139.998 259.394 140.371 258.948 141.107L258.84 140.178C258.502 140.118 258.177 140.118 257.851 140.178V145C258.225 145.084 258.599 145.084 258.972 145V142.035C259.117 141.782 259.322 141.553 259.587 141.348C259.852 141.143 260.117 141.034 260.407 141.034C260.756 141.034 261.106 141.155 261.455 141.372C261.492 141.287 261.516 141.094 261.516 140.781C261.516 140.468 261.504 140.287 261.455 140.215ZM263.496 137.539C263.279 137.539 263.11 137.611 262.966 137.743C262.821 137.876 262.749 138.045 262.749 138.238C262.749 138.443 262.821 138.611 262.966 138.744C263.11 138.877 263.279 138.937 263.496 138.937C263.689 138.937 263.87 138.877 264.014 138.744C264.159 138.611 264.231 138.443 264.231 138.238C264.231 138.045 264.159 137.876 264.014 137.743C263.87 137.611 263.689 137.539 263.496 137.539ZM264.039 140.178C263.665 140.106 263.291 140.106 262.918 140.178V145C263.291 145.084 263.665 145.084 264.039 145V140.178ZM267.919 139.998C267.219 139.998 266.653 140.251 266.231 140.733C265.797 141.227 265.592 141.83 265.592 142.553C265.592 143.276 265.797 143.891 266.231 144.373C266.653 144.867 267.219 145.108 267.919 145.108C268.594 145.108 269.148 144.867 269.582 144.373V144.904C269.582 145.338 269.437 145.663 269.16 145.88C268.871 146.109 268.497 146.217 268.027 146.217C267.473 146.217 266.93 146.049 266.4 145.711C266.352 145.784 266.327 145.928 266.327 146.157C266.327 146.398 266.352 146.555 266.4 146.639C266.834 146.977 267.448 147.146 268.256 147.146C269.015 147.146 269.618 146.941 270.052 146.519C270.486 146.109 270.703 145.542 270.703 144.843V140.178C270.378 140.106 270.052 140.106 269.727 140.178L269.642 140.817C269.208 140.275 268.63 139.998 267.919 139.998ZM268.22 140.974C268.738 140.974 269.196 141.191 269.582 141.613V143.493C269.22 143.927 268.762 144.132 268.22 144.132C267.774 144.132 267.412 143.987 267.135 143.698C266.858 143.409 266.725 143.023 266.725 142.553C266.725 142.095 266.858 141.709 267.135 141.42C267.412 141.131 267.774 140.974 268.22 140.974ZM273.043 137.539C272.826 137.539 272.657 137.611 272.512 137.743C272.368 137.876 272.295 138.045 272.295 138.238C272.295 138.443 272.368 138.611 272.512 138.744C272.657 138.877 272.826 138.937 273.043 138.937C273.236 138.937 273.417 138.877 273.561 138.744C273.706 138.611 273.778 138.443 273.778 138.238C273.778 138.045 273.706 137.876 273.561 137.743C273.417 137.611 273.236 137.539 273.043 137.539ZM273.585 140.178C273.212 140.106 272.838 140.106 272.464 140.178V145C272.838 145.084 273.212 145.084 273.585 145V140.178ZM278.128 139.998C277.501 139.998 276.935 140.287 276.405 140.865L276.332 140.178C275.995 140.118 275.669 140.118 275.344 140.178V145C275.717 145.084 276.091 145.084 276.465 145V141.625C276.875 141.191 277.309 140.974 277.767 140.974C278.128 140.974 278.393 141.082 278.574 141.287C278.755 141.504 278.851 141.794 278.851 142.155V145C279.225 145.084 279.599 145.084 279.985 145V141.914C279.985 141.372 279.828 140.914 279.527 140.552C279.225 140.19 278.755 139.998 278.128 139.998Z" fill="#0FB8C3"/>
<defs>
<linearGradient id="paint0_linear_28_280" x1="312.236" y1="77.835" x2="322.657" y2="84.1438" gradientUnits="userSpaceOnUse">
<stop stop-color="#4BE4C0"/>
<stop offset="0.334733" stop-color="#75EEE2"/>
<stop offset="1" stop-color="#8980F3"/>
</linearGradient>
<linearGradient id="paint1_linear_28_280" x1="129.243" y1="77.835" x2="139.664" y2="84.1438" gradientUnits="userSpaceOnUse">
<stop stop-color="#4BE4C0"/>
<stop offset="0.334733" stop-color="#75EEE2"/>
<stop offset="1" stop-color="#8980F3"/>
</linearGradient>
</defs>
</svg>
