<svg width="450" height="163" viewBox="0 0 450 163" fill="none" xmlns="http://www.w3.org/2000/svg">
<path d="M133.535 93.3008V154.702C133.535 158.697 130.296 161.935 126.302 161.935H8.23241C4.23806 161.935 1 158.697 1 154.702V8.23243C1 4.23807 4.23806 1 8.23242 1H126.302C130.296 1 133.535 4.23806 133.535 8.23242V71.409" stroke="#14D9C1" stroke-width="1.38621"/>
<path d="M315.936 93.3008V154.702C315.936 158.697 319.174 161.935 323.168 161.935H441.238C445.232 161.935 448.47 158.697 448.47 154.702V8.23243C448.47 4.23807 445.232 1 441.238 1H323.168C319.174 1 315.936 4.23806 315.936 8.23242V71.409" stroke="#14D9C1" stroke-width="1.38621"/>
<path d="M296.095 61.9422L300.097 55.0112H292.093L296.095 61.9422ZM154.243 102.768L150.242 109.699H158.245L154.243 102.768ZM161.476 1.69311H288.863V0.306893H161.476V1.69311ZM288.863 161.242H161.476V162.628H288.863V161.242ZM295.402 8.23242V55.7043H296.788V8.23242H295.402ZM295.402 82.0591V154.702H296.788V82.0591H295.402ZM312.386 80.6264H296.835V82.0126H312.386V80.6264ZM154.936 154.702V109.006H153.55V154.702H154.936ZM154.936 80.5799V8.23242H153.55V80.5799H154.936ZM136.789 82.0126H153.504V80.6264H136.789V82.0126ZM161.476 161.242C157.864 161.242 154.936 158.314 154.936 154.702H153.55C153.55 159.08 157.099 162.628 161.476 162.628V161.242ZM296.835 80.6264C296.043 80.6264 295.402 81.2678 295.402 82.0591H296.788C296.788 82.0334 296.809 82.0126 296.835 82.0126V80.6264ZM288.863 162.628C293.24 162.628 296.788 159.08 296.788 154.702H295.402C295.402 158.314 292.474 161.242 288.863 161.242V162.628ZM288.863 1.69311C292.474 1.69311 295.402 4.62086 295.402 8.23242H296.788C296.788 3.85527 293.24 0.306893 288.863 0.306893V1.69311ZM153.504 82.0126C154.295 82.0126 154.936 81.3711 154.936 80.5799H153.55C153.55 80.6056 153.529 80.6264 153.504 80.6264V82.0126ZM161.476 0.306893C157.099 0.306893 153.55 3.85527 153.55 8.23242H154.936C154.936 4.62086 157.864 1.69311 161.476 1.69311V0.306893Z" fill="#14D9C1"/>
<path d="M355.26 127.749H363.306" stroke="#0FB8C3" stroke-opacity="0.6" stroke-width="1.4" stroke-linecap="round" stroke-linejoin="round"/>
<path d="M354.987 81.6218H359.89" stroke="#0FB8C3" stroke-opacity="0.6" stroke-width="1.4" stroke-linecap="round" stroke-linejoin="round"/>
<path d="M354.987 85.1838H359.89" stroke="#0FB8C3" stroke-opacity="0.6" stroke-width="1.4" stroke-linecap="round" stroke-linejoin="round"/>
<path d="M354.987 53.9434H359.89" stroke="#0FB8C3" stroke-opacity="0.6" stroke-width="1.4" stroke-linecap="round" stroke-linejoin="round"/>
<path d="M354.987 58.5528H359.89" stroke="#0FB8C3" stroke-opacity="0.6" stroke-width="1.4" stroke-linecap="round" stroke-linejoin="round"/>
<path d="M357.46 49.9516L372.526 38.8675H382.321" stroke="#0FB8C3" stroke-opacity="0.6" stroke-width="1.4" stroke-linecap="round" stroke-linejoin="round"/>
<path d="M357.46 87.9078V76.8552H381.525" stroke="#0FB8C3" stroke-opacity="0.6" stroke-width="1.4" stroke-linecap="round" stroke-linejoin="round"/>
<path d="M357.46 76.8557L372.264 65.7717H382.059L373.374 56.7829L381.525 50.2247" stroke="#0FB8C3" stroke-opacity="0.6" stroke-width="1.4" stroke-linecap="round" stroke-linejoin="round"/>
<path d="M382.058 66.1063L372.388 76.8551L381.785 83.4762L368.878 93.0098L381.523 101.726L364.08 113.491" stroke="#0FB8C3" stroke-opacity="0.6" stroke-width="1.4" stroke-linecap="round" stroke-linejoin="round"/>
<path d="M360.226 127.278L372.662 76.5616L372.526 38.8675L381.787 49.9516H357.46V61.0042" stroke="#0FB8C3" stroke-opacity="0.6" stroke-width="1.4" stroke-linecap="round" stroke-linejoin="round"/>
<path d="M382.059 93.1453L368.879 93.0091" stroke="#0FB8C3" stroke-opacity="0.6" stroke-width="1.4" stroke-linecap="round" stroke-linejoin="round"/>
<path d="M408.102 127.749H400.056" stroke="#0FB8C3" stroke-opacity="0.6" stroke-width="1.4" stroke-linecap="round" stroke-linejoin="round"/>
<path d="M408.375 81.6218H403.472" stroke="#0FB8C3" stroke-opacity="0.6" stroke-width="1.4" stroke-linecap="round" stroke-linejoin="round"/>
<path d="M408.375 85.1838H403.472" stroke="#0FB8C3" stroke-opacity="0.6" stroke-width="1.4" stroke-linecap="round" stroke-linejoin="round"/>
<path d="M408.375 53.9434H403.472" stroke="#0FB8C3" stroke-opacity="0.6" stroke-width="1.4" stroke-linecap="round" stroke-linejoin="round"/>
<path d="M408.375 58.5528H403.472" stroke="#0FB8C3" stroke-opacity="0.6" stroke-width="1.4" stroke-linecap="round" stroke-linejoin="round"/>
<path d="M405.902 49.9516L390.836 38.8675H381.041" stroke="#0FB8C3" stroke-opacity="0.6" stroke-width="1.4" stroke-linecap="round" stroke-linejoin="round"/>
<path d="M405.902 87.9078V76.8552H381.849" stroke="#0FB8C3" stroke-opacity="0.6" stroke-width="1.4" stroke-linecap="round" stroke-linejoin="round"/>
<path d="M405.903 76.8557L391.099 65.7717H381.314L389.989 56.7829L381.849 50.2247" stroke="#0FB8C3" stroke-opacity="0.6" stroke-width="1.4" stroke-linecap="round" stroke-linejoin="round"/>
<path d="M381.314 66.1063L390.974 76.8551L381.576 83.4762L394.483 93.0098L381.849 101.726L399.282 113.491" stroke="#0FB8C3" stroke-opacity="0.6" stroke-width="1.4" stroke-linecap="round" stroke-linejoin="round"/>
<path d="M403.137 127.278L390.701 76.5616L390.837 38.8675L381.576 49.9516H405.902V61.0042" stroke="#0FB8C3" stroke-opacity="0.6" stroke-width="1.4" stroke-linecap="round" stroke-linejoin="round"/>
<path d="M381.305 93.1453L394.484 93.0091" stroke="#0FB8C3" stroke-opacity="0.6" stroke-width="1.4" stroke-linecap="round" stroke-linejoin="round"/>
<path d="M267.383 85.1311V108.553C267.383 109.954 267.181 110.16 265.776 110.15C264.679 110.137 263.581 110.283 262.487 110.075C261.915 109.967 261.654 109.656 261.701 109.083C261.747 108.51 262.097 108.324 262.594 108.308C263.09 108.292 263.635 108.29 264.154 108.308C265.244 108.336 265.642 107.953 265.64 106.863C265.632 99.7092 265.622 92.5556 265.612 85.4026C265.612 78.6387 265.612 71.8755 265.612 65.1128C265.612 64.4883 265.637 63.8708 265.637 63.2409C265.637 62.3324 265.238 61.9421 264.331 61.9421H230.37C229.298 61.9421 228.986 62.2597 228.986 63.3101V96.7052C228.986 97.6581 229.325 97.9952 230.291 97.9952C233.005 97.9952 235.72 97.9952 238.432 97.981C239.109 97.981 239.372 98.2667 239.406 98.9178C239.547 101.558 239.763 104.195 239.729 106.842C239.707 108.141 239.861 108.295 241.174 108.29C241.309 108.29 241.445 108.29 241.581 108.29C241.698 108.282 241.815 108.298 241.927 108.335C242.038 108.373 242.14 108.432 242.229 108.508C242.317 108.585 242.389 108.679 242.441 108.784C242.493 108.888 242.523 109.002 242.531 109.119C242.588 109.592 242.281 109.899 241.816 110.031C239.79 110.614 238.107 109.963 236.7 108.526C233.763 105.522 230.686 102.671 227.634 99.7766C227.476 99.6321 227.351 99.4556 227.268 99.2591C227.184 99.0627 227.144 98.8507 227.15 98.6375C227.15 86.1827 227.15 73.7273 227.15 61.2714C227.15 60.4463 227.479 60.0879 228.262 60.0879C240.856 60.0879 253.448 60.0879 266.04 60.0879C267.155 60.0879 267.367 60.3008 267.367 61.4115C267.367 69.3157 267.367 77.2216 267.367 85.1293L267.383 85.1311ZM234.647 99.8795C233.882 99.8795 233.118 99.8654 232.355 99.8795C232.018 99.8884 231.641 99.9079 231.473 100.277C231.305 100.646 231.527 100.971 231.763 101.2C233.32 102.719 234.882 104.236 236.481 105.712C237.132 106.313 237.782 106.067 237.825 105.197C237.9 103.691 237.877 102.181 237.843 100.671C237.832 100.139 237.454 99.8724 236.914 99.8689C236.159 99.876 235.402 99.8795 234.647 99.8795Z" fill="#0FB8C3" fill-opacity="0.6"/>
<path d="M257.14 110.347C257.14 111.497 257.14 112.653 257.14 113.796C257.14 114.893 256.515 115.246 255.561 114.698C254.668 114.179 253.758 113.66 252.861 113.131C252.636 112.984 252.372 112.907 252.103 112.908C251.833 112.91 251.571 112.99 251.347 113.14C250.454 113.672 249.55 114.19 248.647 114.708C247.717 115.24 247.004 114.841 247.006 113.768C247.006 112.322 247.006 110.874 247.054 109.428C247.142 107.43 246.456 105.476 245.136 103.966C242.3 100.677 242.945 95.8042 245.768 92.9049C248.427 90.1777 251.684 89.5691 255.199 90.8059C258.658 92.0231 260.461 94.6598 260.824 98.2581C261.119 101.179 260.01 103.555 257.819 105.466C257.599 105.648 257.424 105.878 257.307 106.137C257.189 106.397 257.131 106.679 257.138 106.963C257.138 108.092 257.138 109.22 257.138 110.349L257.14 110.347ZM252.036 105.781C255.91 105.781 259.083 102.737 259.086 99.0193C259.12 97.6451 258.742 96.292 257.999 95.132C257.257 93.9721 256.184 93.0577 254.917 92.5051C253.65 91.9526 252.247 91.7868 250.885 92.0289C249.523 92.271 248.264 92.91 247.269 93.8648C246.274 94.8195 245.586 96.0467 245.295 97.3905C245.003 98.7343 245.12 100.134 245.631 101.411C246.142 102.689 247.024 103.786 248.165 104.564C249.305 105.343 250.653 105.766 252.036 105.781ZM248.822 109.35C248.822 109.598 248.822 109.846 248.822 110.093C248.822 110.34 248.797 110.602 248.786 110.856C248.749 111.697 249.383 112.111 250.147 111.743C250.358 111.64 250.561 111.52 250.761 111.397C252.095 110.59 252.202 110.593 253.452 111.495C253.584 111.594 253.723 111.681 253.868 111.757C254.701 112.167 255.461 111.704 255.452 110.785C255.443 109.914 255.422 109.044 255.397 108.173C255.379 107.6 254.91 107.192 254.358 107.336C252.891 107.73 251.344 107.73 249.877 107.336C249.313 107.183 248.847 107.593 248.829 108.18C248.818 108.569 248.827 108.959 248.827 109.35H248.822Z" fill="#0FB8C3" fill-opacity="0.6"/>
<path d="M247.272 84.8084C243.2 84.8084 239.129 84.8084 235.059 84.8084C234.466 84.8084 233.87 84.7428 233.846 83.939C233.827 83.263 234.193 82.956 235.02 82.956H243.504C248.833 82.956 254.161 82.956 259.49 82.956C260.072 82.956 260.688 83.0146 260.74 83.8024C260.786 84.5121 260.41 84.8067 259.51 84.8067L247.272 84.8084Z" fill="#0FB8C3" fill-opacity="0.6"/>
<path d="M247.304 68.5162H259.515C260.344 68.5162 260.738 68.8143 260.744 69.4353C260.744 70.0954 260.387 70.3615 259.479 70.3615H239.063C237.713 70.3615 236.363 70.3757 235.014 70.3615C234.423 70.3527 233.831 70.2764 233.839 69.4602C233.839 68.8338 234.223 68.5269 235.029 68.5251C236.943 68.5251 238.856 68.5251 240.77 68.5251L247.304 68.5162Z" fill="#0FB8C3" fill-opacity="0.6"/>
<path d="M245.327 75.7975H255.74C256.604 75.7975 256.96 76.1523 256.831 76.8763C256.702 77.6002 256.135 77.5984 255.606 77.602C252.535 77.6144 249.463 77.602 246.393 77.602C242.607 77.602 238.822 77.602 235.036 77.602C234.559 77.602 234.098 77.5275 233.893 76.9969C233.818 76.8257 233.803 76.6347 233.849 76.4537C233.894 76.2727 233.999 76.1119 234.147 75.9962C234.356 75.8063 234.613 75.7992 234.861 75.7992H245.327V75.7975Z" fill="#0FB8C3" fill-opacity="0.6"/>
<path d="M237.348 92.0051C236.431 92.0977 235.507 92.0864 234.593 91.9714C234.073 91.9129 233.825 91.6609 233.839 91.1392C233.853 90.6176 234.078 90.2521 234.63 90.2521C236.514 90.2325 238.398 90.2272 240.282 90.2521C240.861 90.2521 241.13 90.6584 241.105 91.212C241.08 91.7656 240.748 92.0034 240.236 92.0087C239.273 92.0122 238.31 92.0051 237.348 92.0051Z" fill="#0FB8C3" fill-opacity="0.6"/>
<path d="M183.513 56.8717C183.491 53.7526 183.664 50.635 184.029 47.5373C184.096 47.021 184.246 46.546 184.809 46.3602C185.055 46.299 185.315 46.3158 185.552 46.4082C185.788 46.5007 185.991 46.6643 186.13 46.8764C188.02 48.828 190.436 49.7935 192.976 50.5214C196.156 51.4352 199.424 51.998 202.645 52.7311C209.357 54.28 214.695 57.7959 218.324 63.6557C221.757 69.2058 221.938 74.9779 218.871 80.7861C218.608 81.3024 218.665 81.5089 219.192 81.7412C221.086 82.5673 222.919 83.5431 224.922 84.1213C225.196 84.1898 225.431 84.3643 225.577 84.6063C225.722 84.8484 225.765 85.1382 225.696 85.412C225.628 85.6859 225.454 85.9214 225.211 86.0666C224.969 86.2118 224.68 86.2549 224.406 86.1865C223.048 85.8675 221.733 85.3838 220.493 84.746C219.568 84.3485 218.665 83.8942 217.756 83.4656C217.478 83.3314 217.24 83.2436 216.982 83.5431C214.519 86.5324 211.19 87.6734 207.467 87.9625C202.551 88.424 197.642 87.0053 193.73 83.9922C189.811 81.0339 187.333 77.0327 185.738 72.4584C184.352 68.3188 183.602 63.9931 183.513 59.6287C183.487 58.6942 183.513 57.7804 183.513 56.8717ZM218.84 73.2328C218.888 71.8086 218.714 70.3855 218.324 69.0148C216.522 63.1549 212.599 59.1331 207.178 56.5258C204.034 55.0183 200.575 54.4607 197.189 53.7224C193.441 52.917 189.667 52.1735 186.409 49.9483C186.089 49.7315 185.96 49.8554 185.929 50.1962C185.857 51.141 185.764 52.0858 185.717 53.0306C185.428 58.6116 185.686 64.1462 187.147 69.5517C188.309 73.8937 190.204 77.8484 193.534 80.9616C197.612 84.777 202.491 86.3104 207.989 85.7012C210.493 85.4224 212.836 84.6686 214.7 82.7893C215.129 82.3505 215.216 82.1388 214.581 81.8032C211.421 80.1487 208.441 78.1692 205.691 75.8969C202.48 73.2019 199.579 70.1816 196.657 67.1871C194.152 64.6768 191.794 62.0239 189.594 59.2415C189.078 58.591 189.14 57.9766 189.693 57.5584C189.813 57.4713 189.95 57.4101 190.095 57.3788C190.24 57.3474 190.39 57.3464 190.536 57.376C190.682 57.4056 190.819 57.4651 190.941 57.5507C191.062 57.6363 191.165 57.7462 191.241 57.8733C194.391 61.8694 197.989 65.4524 201.53 69.0871C205.795 73.4652 210.467 77.2702 215.918 80.084C216.435 80.3473 216.662 80.2698 216.91 79.7897C218.044 77.7796 218.704 75.537 218.84 73.2328Z" fill="#0FB8C3" fill-opacity="0.6" stroke="#0FB8C3" stroke-width="0.115936" stroke-linecap="round" stroke-linejoin="round"/>
<path d="M241.484 44.6564C241.252 49.8657 238.98 53.9031 234.468 56.6136C232.208 57.9714 230.835 56.1964 232.042 55.4364C237.086 53.2164 239.894 48.3427 239.197 43.0456C238.831 40.4531 237.607 38.0582 235.719 36.2442C233.831 34.4302 231.389 33.302 228.784 33.04C227.062 32.8562 225.321 33.0649 223.69 33.6506C222.06 34.2363 220.584 35.1837 219.373 36.4216L219.084 36.7056C218.346 37.4181 217.581 37.2735 217.132 36.3442C215.929 33.8763 213.41 32.374 210.937 32.6476C207.927 32.9832 205.826 34.7695 205.165 37.6401C204.969 38.4731 204.952 39.3382 205.115 40.1783C205.278 41.0184 205.617 41.8145 206.11 42.5138C206.931 43.7426 206.565 44.4189 205.078 44.579C203.774 44.7299 202.515 45.1435 201.375 45.7949C200.236 46.4462 199.24 47.3217 198.449 48.3685C198.361 48.4769 198.284 48.5853 198.201 48.6938C198.125 48.8282 198.022 48.945 197.897 49.0362C197.773 49.1274 197.63 49.1911 197.479 49.2228C197.328 49.2545 197.172 49.2535 197.021 49.2201C196.871 49.1866 196.729 49.1214 196.606 49.0287C196.482 48.9361 196.38 48.8181 196.306 48.6828C196.232 48.5474 196.187 48.3978 196.175 48.2439C196.164 48.09 196.185 47.9354 196.238 47.7904C196.291 47.6454 196.374 47.5133 196.482 47.403C197.465 46.0261 198.726 44.8706 200.184 44.0111C201.094 43.4569 202.08 43.0378 203.111 42.7668C203.508 42.6635 203.591 42.5087 203.446 42.106C201.541 36.9844 204.438 31.6563 209.765 30.6341C213.064 29.999 215.837 31.1039 217.979 33.6905C218.351 34.1396 218.562 34.2068 219.011 33.8144C220.903 32.306 223.156 31.3196 225.547 30.9534C227.938 30.5873 230.383 30.8541 232.639 31.7274C234.895 32.6007 236.882 34.05 238.403 35.9308C239.924 37.8115 240.926 40.0581 241.309 42.4467C241.437 43.176 241.496 43.9159 241.484 44.6564Z" fill="#0FB8C3" fill-opacity="0.6"/>
<path d="M224.648 48.3116C224.669 48.7438 224.599 49.1755 224.443 49.579C224.286 49.9824 224.047 50.3487 223.741 50.6541C223.435 50.9596 223.068 51.1974 222.664 51.3524C222.26 51.5074 221.828 51.576 221.396 51.5539C220.753 51.5529 220.126 51.3614 219.592 51.0037C219.059 50.646 218.643 50.1382 218.399 49.5444C218.154 48.9506 218.09 48.2976 218.217 47.6678C218.343 47.0381 218.653 46.46 219.108 46.0065C219.563 45.5531 220.142 45.2447 220.772 45.1204C221.402 44.9961 222.055 45.0615 222.648 45.3082C223.241 45.5549 223.748 45.9719 224.104 46.5066C224.46 47.0412 224.649 47.6693 224.648 48.3116ZM223.29 48.3116C223.312 48.0502 223.279 47.7871 223.192 47.5395C223.105 47.2919 222.967 47.0655 222.787 46.8749C222.607 46.6844 222.388 46.5341 222.146 46.4338C221.903 46.3335 221.642 46.2855 221.38 46.2929C220.847 46.2929 220.337 46.5045 219.96 46.8812C219.583 47.2578 219.372 47.7686 219.372 48.3013C219.372 48.8339 219.583 49.3448 219.96 49.7214C220.337 50.098 220.847 50.3096 221.38 50.3096C221.641 50.3195 221.901 50.2746 222.144 50.1778C222.386 50.0811 222.605 49.9346 222.788 49.7478C222.97 49.561 223.112 49.3381 223.203 49.0934C223.294 48.8487 223.332 48.5877 223.316 48.3271L223.29 48.3116Z" fill="#0FB8C3" fill-opacity="0.6"/>
<path d="M211.014 47.9126C211.046 47.3634 211.289 46.7744 211.616 46.3324C211.944 45.8903 212.393 45.5535 212.909 45.3633C213.495 45.0814 214.151 44.9799 214.795 45.0718C215.438 45.1638 216.04 45.4449 216.523 45.8796C216.72 46.05 217.174 46.2926 216.833 46.6024C216.492 46.9121 216.193 47.382 215.62 46.8295C215.273 46.511 214.821 46.3317 214.351 46.326C213.88 46.3203 213.424 46.4886 213.069 46.7985C212.717 47.1363 212.489 47.5841 212.425 48.0682C212.36 48.5523 212.462 49.044 212.713 49.4626C212.96 49.8497 213.337 50.136 213.776 50.2704C214.215 50.4047 214.687 50.3783 215.109 50.1957C215.257 50.1492 215.393 50.0698 215.506 49.9634C215.878 49.4471 216.208 49.6485 216.616 49.9634C217.024 50.2783 216.874 50.5313 216.59 50.7791C216.108 51.2145 215.51 51.5 214.868 51.6008C214.226 51.7017 213.569 51.6135 212.976 51.347C211.743 50.8307 211.009 49.7764 211.014 47.9126Z" fill="#0FB8C3" fill-opacity="0.6"/>
<path d="M226.93 54.414C226.626 54.3108 226.094 54.6567 225.898 54.1972C225.702 53.7377 226.239 53.4847 226.486 53.1646C226.734 52.8445 226.972 52.6484 227.199 52.4005C227.308 52.3015 227.377 52.1655 227.392 52.0188C227.407 51.8721 227.368 51.7249 227.281 51.6054C227.24 51.5437 227.185 51.4918 227.121 51.4533C227.057 51.4147 226.986 51.3904 226.912 51.3821C226.838 51.3738 226.763 51.3816 226.692 51.405C226.621 51.4284 226.556 51.4668 226.502 51.5177C226.239 51.6777 225.986 51.7913 225.825 51.4506C225.665 51.1098 225.991 50.9807 226.208 50.862C226.482 50.7185 226.795 50.6643 227.103 50.7069C227.41 50.7495 227.696 50.8867 227.922 51.0995C228.098 51.3561 228.181 51.6658 228.155 51.9762C228.13 52.2866 227.998 52.5787 227.782 52.8032C227.71 52.8962 227.617 52.9684 227.55 53.0614C227.483 53.1543 227.152 53.3453 227.245 53.5777C227.338 53.81 227.591 53.7068 227.762 53.7222C227.932 53.7377 228.242 53.7687 228.216 54.1043C228.19 54.4399 227.963 54.4037 227.746 54.4089C227.529 54.414 227.25 54.414 226.93 54.414Z" fill="#0FB8C3" fill-opacity="0.6"/>
<path d="M316.652 77.9434C317.404 78.0311 318.112 78.3397 318.688 78.8302C319.264 79.3206 319.681 79.9709 319.887 80.6986C320.093 81.4264 320.079 82.1989 319.846 82.9185C319.613 83.6381 319.172 84.2725 318.578 84.7412C317.985 85.21 317.265 85.4921 316.511 85.552C315.757 85.6118 315.002 85.4466 314.342 85.0773C313.682 84.708 313.146 84.1512 312.803 83.4773C312.459 82.8035 312.323 82.0429 312.412 81.2917C312.471 80.7934 312.627 80.3116 312.872 79.8736C313.116 79.4357 313.445 79.0502 313.839 78.7393C314.233 78.4284 314.684 78.198 315.166 78.0615C315.649 77.9249 316.154 77.8848 316.652 77.9434Z" fill="#C4C4C4"/>
<path d="M316.652 77.9434C317.404 78.0311 318.112 78.3397 318.688 78.8302C319.264 79.3206 319.681 79.9709 319.887 80.6986C320.093 81.4264 320.079 82.1989 319.846 82.9185C319.613 83.6381 319.172 84.2725 318.578 84.7412C317.985 85.21 317.265 85.4921 316.511 85.552C315.757 85.6118 315.002 85.4466 314.342 85.0773C313.682 84.708 313.146 84.1512 312.803 83.4773C312.459 82.8035 312.323 82.0429 312.412 81.2917C312.471 80.7934 312.627 80.3116 312.872 79.8736C313.116 79.4357 313.445 79.0502 313.839 78.7393C314.233 78.4284 314.684 78.198 315.166 78.0615C315.649 77.9249 316.154 77.8848 316.652 77.9434Z" fill="url(#paint0_linear_28_280)"/>
<path d="M316.652 77.9434C317.404 78.0311 318.112 78.3397 318.688 78.8302C319.264 79.3206 319.681 79.9709 319.887 80.6986C320.093 81.4264 320.079 82.1989 319.846 82.9185C319.613 83.6381 319.172 84.2725 318.578 84.7412C317.985 85.21 317.265 85.4921 316.511 85.552C315.757 85.6118 315.002 85.4466 314.342 85.0773C313.682 84.708 313.146 84.1512 312.803 83.4773C312.459 82.8035 312.323 82.0429 312.412 81.2917C312.471 80.7934 312.627 80.3116 312.872 79.8736C313.116 79.4357 313.445 79.0502 313.839 78.7393C314.233 78.4284 314.684 78.198 315.166 78.0615C315.649 77.9249 316.154 77.8848 316.652 77.9434Z" stroke="#14D9C1" stroke-width="1.09692"/>
<path d="M133.659 77.9434C134.411 78.0311 135.119 78.3397 135.695 78.8302C136.271 79.3206 136.688 79.9709 136.894 80.6986C137.1 81.4264 137.086 82.1989 136.853 82.9185C136.62 83.6381 136.179 84.2725 135.585 84.7412C134.991 85.21 134.272 85.4921 133.518 85.552C132.764 85.6118 132.009 85.4466 131.349 85.0773C130.689 84.708 130.153 84.1512 129.81 83.4773C129.466 82.8035 129.33 82.0429 129.419 81.2917C129.478 80.7934 129.634 80.3116 129.878 79.8736C130.123 79.4357 130.452 79.0502 130.846 78.7393C131.239 78.4284 131.69 78.198 132.173 78.0615C132.656 77.9249 133.161 77.8848 133.659 77.9434Z" fill="#C4C4C4"/>
<path d="M133.659 77.9434C134.411 78.0311 135.119 78.3397 135.695 78.8302C136.271 79.3206 136.688 79.9709 136.894 80.6986C137.1 81.4264 137.086 82.1989 136.853 82.9185C136.62 83.6381 136.179 84.2725 135.585 84.7412C134.991 85.21 134.272 85.4921 133.518 85.552C132.764 85.6118 132.009 85.4466 131.349 85.0773C130.689 84.708 130.153 84.1512 129.81 83.4773C129.466 82.8035 129.33 82.0429 129.419 81.2917C129.478 80.7934 129.634 80.3116 129.878 79.8736C130.123 79.4357 130.452 79.0502 130.846 78.7393C131.239 78.4284 131.69 78.198 132.173 78.0615C132.656 77.9249 133.161 77.8848 133.659 77.9434Z" fill="url(#paint1_linear_28_280)"/>
<path d="M133.659 77.9434C134.411 78.0311 135.119 78.3397 135.695 78.8302C136.271 79.3206 136.688 79.9709 136.894 80.6986C137.1 81.4264 137.086 82.1989 136.853 82.9185C136.62 83.6381 136.179 84.2725 135.585 84.7412C134.991 85.21 134.272 85.4921 133.518 85.552C132.764 85.6118 132.009 85.4466 131.349 85.0773C130.689 84.708 130.153 84.1512 129.81 83.4773C129.466 82.8035 129.33 82.0429 129.419 81.2917C129.478 80.7934 129.634 80.3116 129.878 79.8736C130.123 79.4357 130.452 79.0502 130.846 78.7393C131.239 78.4284 131.69 78.198 132.173 78.0615C132.656 77.9249 133.161 77.8848 133.659 77.9434Z" stroke="#14D9C1" stroke-width="1.09692"/>
<path d="M208.929 141.535V131.455H209.958V141.535H208.929ZM211.916 136.936V136.054H216.116V136.936H211.916ZM217.935 141.535V131.455H221.827C221.925 131.455 222.035 131.459 222.156 131.469C222.282 131.473 222.408 131.487 222.534 131.511C223.062 131.59 223.507 131.774 223.871 132.064C224.24 132.348 224.518 132.708 224.704 133.142C224.896 133.576 224.991 134.056 224.991 134.584C224.991 135.344 224.791 136.005 224.389 136.565C223.988 137.125 223.414 137.477 222.667 137.622L222.31 137.706H218.964V141.535H217.935ZM224.039 141.535L222.051 137.433L223.038 137.055L225.222 141.535H224.039ZM218.964 136.726H221.799C221.883 136.726 221.981 136.721 222.093 136.712C222.205 136.702 222.315 136.686 222.422 136.663C222.768 136.588 223.05 136.446 223.269 136.236C223.493 136.026 223.659 135.776 223.766 135.487C223.878 135.197 223.934 134.896 223.934 134.584C223.934 134.271 223.878 133.97 223.766 133.681C223.659 133.387 223.493 133.135 223.269 132.925C223.05 132.715 222.768 132.572 222.422 132.498C222.315 132.474 222.205 132.46 222.093 132.456C221.981 132.446 221.883 132.442 221.799 132.442H218.964V136.726ZM226.767 141.535V131.455H233.067V132.442H227.796V135.928H232.227V136.915H227.796V140.548H233.067V141.535H226.767ZM238.477 141.745C237.474 141.745 236.627 141.523 235.936 141.08C235.245 140.632 234.723 140.013 234.368 139.225C234.013 138.436 233.836 137.526 233.836 136.495C233.836 135.463 234.013 134.553 234.368 133.765C234.723 132.976 235.245 132.36 235.936 131.917C236.627 131.469 237.474 131.245 238.477 131.245C239.648 131.245 240.605 131.546 241.347 132.148C242.089 132.745 242.598 133.548 242.873 134.556L241.823 134.829C241.608 134.031 241.223 133.398 240.668 132.932C240.113 132.465 239.382 132.232 238.477 132.232C237.688 132.232 237.033 132.411 236.51 132.771C235.987 133.13 235.593 133.632 235.327 134.276C235.066 134.915 234.93 135.655 234.921 136.495C234.916 137.335 235.045 138.074 235.306 138.714C235.572 139.353 235.969 139.855 236.496 140.219C237.028 140.578 237.688 140.758 238.477 140.758C239.382 140.758 240.113 140.524 240.668 140.058C241.223 139.586 241.608 138.954 241.823 138.161L242.873 138.434C242.598 139.442 242.089 140.247 241.347 140.849C240.605 141.446 239.648 141.745 238.477 141.745Z" fill="#676767"/>
<g opacity="0.6">
<path d="M28.915 114.994L30.1543 75.3269H31.3936L32.0085 114.994H28.915Z" fill="#0FB8C3"/>
<path d="M31.846 74.4532C31.846 74.5558 31.8156 74.6561 31.7586 74.7414C31.7016 74.8267 31.6205 74.8933 31.5257 74.9325C31.431 74.9718 31.3266 74.982 31.226 74.962C31.1254 74.9419 31.0329 74.8926 30.9604 74.8201C30.8878 74.7475 30.8384 74.6551 30.8184 74.5544C30.7984 74.4538 30.8086 74.3495 30.8479 74.2547C30.8872 74.1599 30.9537 74.0788 31.039 74.0218C31.1243 73.9648 31.2246 73.9344 31.3272 73.9344C31.4648 73.9344 31.5967 73.9891 31.694 74.0864C31.7913 74.1837 31.846 74.3156 31.846 74.4532ZM31.1639 72.7911C30.7174 72.7911 30.2809 72.9236 29.9096 73.1717C29.5383 73.4198 29.249 73.7724 29.0781 74.1849C28.9073 74.5974 28.8625 75.0513 28.9496 75.4892C29.0367 75.9272 29.2518 76.3294 29.5675 76.6452C29.8833 76.9609 30.2855 77.176 30.7235 77.2631C31.1614 77.3502 31.6153 77.3054 32.0279 77.1346C32.4404 76.9637 32.793 76.6744 33.0411 76.3031C33.2892 75.9318 33.4215 75.4954 33.4215 75.0489C33.4215 74.4501 33.1837 73.8758 32.7603 73.4524C32.3369 73.029 31.7627 72.7911 31.1639 72.7911Z" fill="#0FB8C3"/>
<path d="M67.9494 58.7164C67.9494 58.8795 67.8846 59.0358 67.7693 59.1511C67.654 59.2664 67.4976 59.3313 67.3346 59.3313C67.1715 59.3313 67.0151 59.2664 66.8998 59.1511C66.7845 59.0358 66.7197 58.8795 66.7197 58.7164C66.7197 58.5533 66.7845 58.3969 66.8998 58.2815C67.0151 58.1662 67.1715 58.1015 67.3346 58.1015C67.4976 58.1015 67.654 58.1662 67.7693 58.2815C67.8846 58.3969 67.9494 58.5533 67.9494 58.7164ZM67.1424 56.795C66.6138 56.795 66.097 56.9519 65.6576 57.2458C65.2182 57.5397 64.8759 57.9573 64.6741 58.4458C64.4722 58.9344 64.4199 59.472 64.5237 59.9903C64.6275 60.5087 64.8828 60.9845 65.2573 61.3576C65.6318 61.7307 66.1086 61.9844 66.6273 62.0863C67.146 62.1883 67.6833 62.134 68.1711 61.9304C68.659 61.7268 69.0754 61.3829 69.3677 60.9425C69.66 60.502 69.815 59.9848 69.8131 59.4562C69.8169 59.103 69.7507 58.7526 69.6182 58.4252C69.4856 58.0978 69.2896 57.8 69.0412 57.5489C68.7928 57.2979 68.497 57.0986 68.1711 56.9626C67.8452 56.8266 67.4956 56.7565 67.1424 56.7565V56.795Z" fill="#0FB8C3"/>
<path d="M31.6153 73.3483L35.2564 58.1021C33.5816 60.7083 32.1013 63.4344 30.8276 66.2584C29.6075 69.4671 30.5682 72.7239 31.6153 73.3483Z" fill="#0FB8C3"/>
<path d="M31.8838 76.6048L43.7484 86.8554C42.2065 84.1697 40.4694 81.6009 38.551 79.1698C36.3318 76.5663 32.9213 75.9611 31.8838 76.6048Z" fill="#0FB8C3"/>
<path d="M29.5204 75.0776L14.4663 79.4296C17.5564 79.6027 20.655 79.5482 23.7371 79.2664C27.1572 78.786 29.5012 76.2977 29.5204 75.0776Z" fill="#0FB8C3"/>
<path d="M16.0911 82.6668C14.8261 80.2922 14.1367 77.6536 14.0783 74.9637C14.0199 72.2737 14.5942 69.6077 15.7549 67.1804" stroke="#0FB8C3" stroke-width="0.244652" stroke-linecap="round" stroke-linejoin="round"/>
<path d="M45.786 83.6373C43.6659 87.0593 40.407 89.6243 36.5825 90.881" stroke="#0FB8C3" stroke-width="0.244652" stroke-linecap="round" stroke-linejoin="round"/>
<path d="M32.4219 57.4679C34.7719 57.634 37.0627 58.2818 39.1517 59.371C41.2407 60.4601 43.0834 61.9673 44.5651 63.7989" stroke="#0FB8C3" stroke-width="0.244652" stroke-linecap="round" stroke-linejoin="round"/>
<path d="M20.6156 84.2908C18.9672 82.4855 17.8051 80.2906 17.2388 77.9125C16.6724 75.5345 16.7203 73.0513 17.378 70.6969" stroke="#0FB8C3" stroke-width="0.244652" stroke-linecap="round" stroke-linejoin="round"/>
<path d="M45.1509 78.3731C44.602 80.3637 43.6317 82.2131 42.3056 83.796C40.9796 85.379 39.3289 86.6585 37.4653 87.5478" stroke="#0FB8C3" stroke-width="0.244652" stroke-linecap="round" stroke-linejoin="round"/>
<path d="M28.4644 60.4462C30.6945 60.0055 32.9973 60.0987 35.1846 60.7182C37.3719 61.3376 39.3816 62.4658 41.0495 64.0105" stroke="#0FB8C3" stroke-width="0.244652" stroke-linecap="round" stroke-linejoin="round"/>
<path d="M24.6313 63.0685C25.9059 62.547 27.2615 62.2513 28.6374 62.1944C31.1963 62.0892 33.7226 62.7989 35.8523 64.2214" stroke="#0FB8C3" stroke-width="0.244652" stroke-linecap="round" stroke-linejoin="round"/>
<path d="M22.4404 82.3596C21.6284 81.3111 21.0014 80.1318 20.5862 78.8723C20.0607 77.3058 19.8677 75.6468 20.0195 74.0015" stroke="#0FB8C3" stroke-width="0.244652" stroke-linecap="round" stroke-linejoin="round"/>
<path d="M43.9597 74.3471C44.0791 76.3106 43.714 78.2733 42.8965 80.0625C42.079 81.8517 40.8341 83.4124 39.2715 84.6073" stroke="#0FB8C3" stroke-width="0.244652" stroke-linecap="round" stroke-linejoin="round"/>
<path d="M115.326 114.985H98.0384C89.4785 114.985 77.9982 107.03 66.5467 107.03H65.9415C57.0166 107.03 43.0096 114.985 34.4594 114.985H18.9751" stroke="#0FB8C3" stroke-width="0.978607" stroke-linecap="round" stroke-linejoin="round"/>
<path d="M103.168 114.994L104.408 75.3269H105.647L106.262 114.994H103.168Z" fill="#0FB8C3"/>
<path d="M106.098 74.4532C106.098 74.5558 106.068 74.6561 106.011 74.7414C105.954 74.8267 105.873 74.8933 105.778 74.9325C105.683 74.9718 105.579 74.982 105.478 74.962C105.378 74.9419 105.285 74.8926 105.213 74.8201C105.14 74.7475 105.091 74.6551 105.071 74.5544C105.051 74.4538 105.061 74.3495 105.1 74.2547C105.14 74.1599 105.206 74.0788 105.292 74.0218C105.377 73.9648 105.477 73.9344 105.58 73.9344C105.717 73.9344 105.849 73.9891 105.946 74.0864C106.044 74.1837 106.098 74.3156 106.098 74.4532ZM105.416 72.7911C104.97 72.7911 104.533 72.9236 104.162 73.1717C103.791 73.4198 103.501 73.7724 103.331 74.1849C103.16 74.5974 103.115 75.0513 103.202 75.4892C103.289 75.9272 103.504 76.3294 103.82 76.6452C104.136 76.9609 104.538 77.176 104.976 77.2631C105.414 77.3502 105.868 77.3054 106.28 77.1346C106.693 76.9637 107.046 76.6744 107.294 76.3031C107.542 75.9318 107.674 75.4954 107.674 75.0489C107.674 74.4501 107.436 73.8758 107.013 73.4524C106.589 73.029 106.015 72.7911 105.416 72.7911Z" fill="#0FB8C3"/>
<path d="M105.869 73.3483L109.519 58.1021C107.84 60.7072 106.357 63.4335 105.081 66.2584C103.813 69.4671 104.812 72.7239 105.869 73.3483Z" fill="#0FB8C3"/>
<path d="M106.136 76.6048L118 86.8554C116.458 84.1697 114.721 81.6009 112.803 79.1698C110.536 76.5663 107.173 75.9611 106.136 76.6048Z" fill="#0FB8C3"/>
<path d="M103.773 75.0776L88.7192 79.4296C91.8093 79.6027 94.9079 79.5482 97.99 79.2664C101.41 78.786 103.754 76.2977 103.773 75.0776Z" fill="#0FB8C3"/>
<path d="M90.3431 82.6668C89.0781 80.2922 88.3886 77.6536 88.3302 74.9637C88.2718 72.2737 88.8461 69.6077 90.0069 67.1804" stroke="#0FB8C3" stroke-width="0.244652" stroke-linecap="round" stroke-linejoin="round"/>
<path d="M120.038 83.6373C117.918 87.0593 114.659 89.6243 110.835 90.881" stroke="#0FB8C3" stroke-width="0.244652" stroke-linecap="round" stroke-linejoin="round"/>
<path d="M106.675 57.4679C109.025 57.634 111.316 58.2818 113.405 59.371C115.494 60.4601 117.337 61.9673 118.819 63.7989" stroke="#0FB8C3" stroke-width="0.244652" stroke-linecap="round" stroke-linejoin="round"/>
<path d="M94.8685 84.2908C93.2201 82.4855 92.058 80.2906 91.4917 77.9125C90.9253 75.5345 90.9733 73.0513 91.631 70.6969" stroke="#0FB8C3" stroke-width="0.244652" stroke-linecap="round" stroke-linejoin="round"/>
<path d="M119.404 78.3731C118.855 80.3637 117.885 82.2131 116.559 83.796C115.233 85.379 113.582 86.6585 111.718 87.5478" stroke="#0FB8C3" stroke-width="0.244652" stroke-linecap="round" stroke-linejoin="round"/>
<path d="M102.717 60.4462C104.947 60.0055 107.25 60.0987 109.437 60.7182C111.624 61.3376 113.634 62.4658 115.302 64.0105" stroke="#0FB8C3" stroke-width="0.244652" stroke-linecap="round" stroke-linejoin="round"/>
<path d="M98.8833 63.0685C100.158 62.547 101.513 62.2513 102.889 62.1944C105.448 62.0892 107.975 62.7989 110.104 64.2214" stroke="#0FB8C3" stroke-width="0.244652" stroke-linecap="round" stroke-linejoin="round"/>
<path d="M96.6937 82.3596C95.8818 81.3111 95.2548 80.1318 94.8397 78.8723C94.3142 77.3058 94.1211 75.6468 94.2729 74.0015" stroke="#0FB8C3" stroke-width="0.244652" stroke-linecap="round" stroke-linejoin="round"/>
<path d="M118.213 74.3471C118.332 76.3106 117.967 78.2733 117.149 80.0625C116.332 81.8517 115.087 83.4124 113.524 84.6073" stroke="#0FB8C3" stroke-width="0.244652" stroke-linecap="round" stroke-linejoin="round"/>
<path d="M64.5474 107.088L65.9788 61.4551H67.4006L68.1115 107.088H64.5474Z" fill="#0FB8C3"/>
<path d="M68.6304 60.7439L85.0679 68.1605C82.4902 65.7183 79.7351 63.4705 76.8252 61.4356C73.4627 59.2548 69.5622 59.6872 68.6304 60.7439Z" fill="#0FB8C3"/>
<path d="M64.8952 60.3401L50.7441 71.5323C54.1126 70.3725 57.3911 68.9661 60.5529 67.3244C63.9922 65.3262 65.4044 61.6563 64.8952 60.3401Z" fill="#0FB8C3"/>
<path d="M67.1422 58.0059L65.4706 40.0504C64.6048 43.5232 63.9979 47.0554 63.6549 50.6181C63.4627 54.5377 65.7588 57.7177 67.1422 58.0059Z" fill="#0FB8C3"/>
<path d="M61.4644 41.194C64.4205 40.2783 67.5503 40.069 70.602 40.5829C73.6538 41.0968 76.5423 42.3196 79.0355 44.1529" stroke="#0FB8C3" stroke-width="0.283796" stroke-linecap="round" stroke-linejoin="round"/>
<path d="M53.9418 74.5298C50.5362 71.3912 48.3456 67.1529 47.7549 62.5595" stroke="#0FB8C3" stroke-width="0.283796" stroke-linecap="round" stroke-linejoin="round"/>
<path d="M86.405 65.0861C85.7109 67.7068 84.4843 70.1562 82.8016 72.2819C81.119 74.4075 79.0164 76.1637 76.625 77.4407" stroke="#0FB8C3" stroke-width="0.283796" stroke-linecap="round" stroke-linejoin="round"/>
<path d="M58.6499 45.9489C61.0474 44.4788 63.7789 43.6415 66.5884 43.5155C69.3979 43.3895 72.1933 43.9788 74.7128 45.2284" stroke="#0FB8C3" stroke-width="0.283796" stroke-linecap="round" stroke-linejoin="round"/>
<path d="M60.0129 74.9526C57.8848 73.9032 56.0061 72.4103 54.5031 70.5743C53.0001 68.7382 51.9077 66.6016 51.2993 64.3081" stroke="#0FB8C3" stroke-width="0.283796" stroke-linecap="round" stroke-linejoin="round"/>
<path d="M83.8963 59.9753C83.9207 62.5896 83.3237 65.1722 82.1545 67.5106C80.9854 69.8489 79.2774 71.8761 77.1714 73.4251" stroke="#0FB8C3" stroke-width="0.283796" stroke-linecap="round" stroke-linejoin="round"/>
<path d="M81.764 55.0755C82.0732 56.6293 82.1154 58.2245 81.8889 59.7925C81.6563 61.3482 81.1591 62.8526 80.419 64.2406C79.784 65.4395 78.9782 66.5397 78.0269 67.5069" stroke="#0FB8C3" stroke-width="0.283796" stroke-linecap="round" stroke-linejoin="round"/>
<path d="M60.4365 48.428C63.5211 46.864 67.0821 46.5209 70.4085 47.4673" stroke="#0FB8C3" stroke-width="0.283796" stroke-linecap="round" stroke-linejoin="round"/>
<path d="M64.8362 74.5296C62.5933 74.2374 60.4566 73.3986 58.6139 72.0869C56.7712 70.7752 55.279 69.031 54.2686 67.0073" stroke="#0FB8C3" stroke-width="0.283796" stroke-linecap="round" stroke-linejoin="round"/>
</g>
<defs>
<linearGradient id="paint0_linear_28_280" x1="312.236" y1="77.835" x2="322.657" y2="84.1438" gradientUnits="userSpaceOnUse">
<stop stop-color="#4BE4C0"/>
<stop offset="0.334733" stop-color="#75EEE2"/>
<stop offset="1" stop-color="#8980F3"/>
</linearGradient>
<linearGradient id="paint1_linear_28_280" x1="129.243" y1="77.835" x2="139.664" y2="84.1438" gradientUnits="userSpaceOnUse">
<stop stop-color="#4BE4C0"/>
<stop offset="0.334733" stop-color="#75EEE2"/>
<stop offset="1" stop-color="#8980F3"/>
</linearGradient>
</defs>
</svg>
