<svg width="99" height="82" viewBox="0 0 99 82" fill="none" xmlns="http://www.w3.org/2000/svg">
<path d="M12.3875 31.1525C12.3875 22.4028 12.3875 13.6579 12.3875 4.9081C12.3875 3.96574 12.8758 2.62302 11.6112 2.23728C10.1733 1.82596 8.64708 1.8395 7.21674 2.27632C6.69429 2.42769 6.68453 2.99896 6.66988 3.4677C6.64546 4.24893 6.64055 5.03015 6.64055 5.81138C6.64055 21.1951 6.64055 36.5837 6.64055 51.9772C6.64055 52.8659 7.23627 54.4185 5.81541 54.482C4.39455 54.5455 4.61911 52.9147 4.61911 51.8844C4.61911 35.3224 4.61914 18.7652 4.58496 2.2031C4.58496 0.635759 5.00973 -0.0966644 6.69914 0.0156374C8.48749 0.134403 10.2817 0.134403 12.0701 0.0156374C13.7644 -0.101547 14.5505 0.420915 14.3845 2.22751C14.2673 3.46771 14.3845 4.72744 14.3845 5.97741C14.3845 7.04672 14.8727 7.60334 15.9567 7.5301C17.4215 7.42268 19.2623 8.26738 20.0045 5.93834C20.2339 5.2157 21.2008 5.45008 21.3863 6.19713C21.772 7.72053 22.8999 7.52033 23.979 7.5301C25.4438 7.5301 26.9476 7.5301 28.432 7.5301C29.6429 7.5301 30.8733 7.79376 31.4202 6.06529C31.7131 5.11317 32.6848 5.47937 32.885 6.30943C33.1975 7.60822 34.091 7.54476 35.0383 7.54476C36.9132 7.54476 38.7882 7.54476 40.6631 7.54476C41.5274 7.54476 42.3037 7.54475 42.6943 6.43638C43.0849 5.32801 43.9101 5.15712 44.3446 6.43638C44.7206 7.54475 45.497 7.54962 46.371 7.55451C48.1678 7.55451 49.9646 7.55451 51.7419 7.55451C52.8308 7.55451 53.8659 7.68148 54.2956 6.17273C54.5739 5.19619 55.5162 5.43054 55.7604 6.27524C56.1461 7.66681 57.1324 7.55451 58.148 7.55939H63.2993C64.3246 7.55939 65.2523 7.618 65.6967 6.2655C65.9799 5.37197 66.8783 5.38661 67.1956 6.29479C67.6497 7.59847 68.6116 7.55451 69.637 7.55451H74.7931C75.8184 7.55451 76.7461 7.58869 77.1807 6.25084C77.5664 5.09852 78.3819 5.42566 78.7822 6.3729C79.6758 8.48222 81.4531 7.52035 82.8104 7.42269C84.2753 7.32504 83.826 5.89439 83.8456 4.95691C83.9579 0.0742273 83.9383 0.0742272 88.8454 0.0742272C93.5719 0.0742272 93.567 0.074245 93.5719 4.76162C93.5719 20.3862 93.5621 36.0108 93.5426 51.6354C93.5426 52.6657 94.1676 54.5211 92.566 54.4918C90.9645 54.4625 91.7213 52.6119 91.7165 51.611C91.6579 36.3038 91.6774 20.9917 91.6774 5.67957C91.6774 2.09568 90.7595 1.39255 87.1805 2.12007C86.3456 2.29097 85.9451 2.69137 85.9256 3.51654C85.9061 4.34172 85.8866 5.079 85.8866 5.86023V56.7085C85.8866 57.4898 85.8865 58.271 85.8426 59.0522C85.8084 59.6528 85.5691 60.1313 84.866 60.1069C84.1629 60.0824 83.9677 59.5795 83.9384 58.9887C83.9091 58.3979 83.8944 57.7388 83.8944 57.1138C83.8944 46.8797 83.883 36.6472 83.8602 26.4163C83.8602 23.5941 83.8261 23.5453 80.9306 23.5648C74.6368 23.6088 75.5597 22.808 75.8575 28.9016C76.2725 37.9541 76.834 46.9968 77.2979 56.0445C77.3418 56.9673 77.9034 58.5444 76.6143 58.6274C75.1154 58.7202 75.5597 57.0064 75.5011 56.0591C75.0128 48.3445 74.6466 40.6201 74.2365 32.8957C74.0656 29.6243 73.8361 26.348 73.7482 23.0717C73.7092 21.27 72.9914 20.5864 71.1848 20.6304C64.1391 20.8452 65.2377 19.5024 64.8373 26.636C64.2807 36.1524 63.7973 45.6785 63.2846 55.1802C63.2553 55.7271 63.2309 56.2788 63.1479 56.8159C63.0356 57.5386 63.265 58.7055 62.225 58.6567C60.9653 58.5981 61.3755 57.3677 61.4145 56.5962C61.9419 46.6111 62.5131 36.6309 63.0551 26.6507C63.2211 23.5404 63.1869 23.5014 60.0425 23.5404C54.9596 23.599 55.3942 22.9203 55.6481 28.2473C56.1363 37.5244 56.6539 46.8015 57.1666 56.0786C57.1666 56.4693 57.23 56.8599 57.2203 57.2505C57.2203 57.8706 57.2203 58.6372 56.3951 58.6762C55.57 58.7153 55.5162 57.9146 55.4723 57.3189C55.2282 53.735 54.984 50.1511 54.7936 46.577C54.3883 38.9356 54.027 31.2893 53.6315 23.6283C53.4753 20.6987 53.3874 20.601 50.4675 20.6401C44.3251 20.7231 45.0966 19.6636 44.7353 26.0648C44.1835 36.0499 43.7001 46.035 43.1337 56.0152C43.0751 56.9917 43.4511 58.6762 41.9814 58.5737C40.7217 58.4858 41.2588 56.9136 41.3076 55.981C41.7959 46.1521 42.372 36.3282 42.8896 26.4993C43.0459 23.5697 43.0068 23.5209 39.96 23.5404C34.7209 23.5795 35.2091 22.891 35.4874 28.3645C35.9757 37.7246 36.4982 47.0798 37.006 56.44C37.0377 56.9065 37.0377 57.3747 37.006 57.8413C37.0118 58.0385 36.9472 58.2314 36.8237 58.3853C36.7003 58.5392 36.526 58.6441 36.3322 58.6811C35.7512 58.7641 35.4631 58.354 35.3947 57.8608C35.2629 56.938 35.1701 56.0005 35.1212 55.0679C34.5744 44.6938 34.034 34.3198 33.5002 23.9457C33.3293 20.6499 33.3342 20.6157 29.9456 20.645C24.267 20.6987 24.8676 19.8833 24.5746 25.7083C24.0864 35.7715 23.5493 45.8299 22.9683 55.8882C22.9146 56.8647 23.3198 58.6665 21.9673 58.5883C20.3414 58.4907 21.1031 56.7232 21.1568 55.6929C21.645 45.8641 22.2163 36.0401 22.7436 26.2113C22.8852 23.5941 22.8267 23.5551 20.273 23.5209C19.1012 23.5209 17.9244 23.5844 16.7575 23.4916C14.9704 23.35 14.2136 23.9799 14.2771 25.8841C14.3943 29.1604 14.3015 32.4464 14.3015 35.7276C14.3015 42.9898 14.3015 50.2536 14.3015 57.519C14.3015 58.0659 14.3015 58.6128 14.2673 59.1596C14.2673 59.7895 13.9792 60.2143 13.2908 60.1899C12.6023 60.1654 12.4021 59.6625 12.3777 59.0668C12.3533 58.4712 12.3533 57.8169 12.3533 57.1968V31.1525H12.3875ZM49.0076 9.37577C38.3048 9.37577 27.6019 9.37577 16.8991 9.37577C14.487 9.37577 14.3699 9.51735 14.3454 11.8903C14.3454 14.4684 14.3943 17.0465 14.3454 19.6245C14.3064 21.1528 14.9411 21.6411 16.4352 21.6753C18.0807 21.7094 18.2663 20.6303 18.6325 19.4927C19.9605 15.3277 22.8169 12.7009 27.0746 11.9147C31.3323 11.1286 35.1457 12.4714 37.8507 16.0406C38.8956 17.4273 39.3936 17.4712 40.5069 16.0406C41.5234 14.6946 42.8366 13.601 44.3444 12.8449C45.8522 12.0889 47.514 11.6906 49.2007 11.6812C50.8875 11.6717 52.5537 12.0513 54.0699 12.7905C55.5861 13.5296 56.9114 14.6084 57.943 15.943C59.3199 17.6568 59.3492 17.6812 60.687 15.9722C62.7915 13.2965 65.4574 11.778 68.9192 11.7487C73.631 11.7146 78.3868 13.8776 79.9785 19.9956C80.374 21.5141 81.2968 21.7436 82.5956 21.5971C83.8944 21.4506 83.8211 20.3911 83.8309 19.478C83.8569 17.0562 83.8569 14.6344 83.8309 12.2126C83.8309 9.43924 83.7626 9.37577 80.9013 9.37577C70.2798 9.35624 59.6568 9.35134 49.0321 9.3611L49.0076 9.37577ZM69.4612 13.5602C65.4232 13.5163 61.6928 16.1139 60.6724 19.6929C60.4917 20.3325 60.062 21.1577 61.0239 21.4897C61.8295 21.7631 62.8891 21.8998 63.2504 20.8647C63.9535 18.8579 65.4867 18.7359 67.2103 18.7798C68.846 18.8237 70.4865 18.8189 72.1271 18.7798C73.5919 18.7505 74.7687 19.0972 75.3009 20.6059C75.7257 21.8071 76.7022 21.8315 77.5958 21.4799C78.6211 21.0796 78.1475 20.1616 77.9229 19.4585C76.878 16.0455 73.3185 13.5749 69.4856 13.5456L69.4612 13.5602ZM37.9337 20.396C37.8995 20.2446 37.8702 20.0884 37.836 19.937C37.0548 16.4752 33.2268 13.6481 29.2327 13.5895C25.2387 13.5309 21.4205 16.1773 20.4439 19.7026C20.2681 20.352 19.9214 21.1674 20.8394 21.5092C21.6304 21.7827 22.6362 21.9194 23.0171 20.8305C23.6714 18.9605 25.1215 18.7603 26.7767 18.8189C28.0218 18.8628 29.2718 18.8189 30.5169 18.8189C32.47 18.8189 34.4719 18.5162 35.302 21.0649C35.5851 21.9243 36.63 21.6997 37.3868 21.5532C38.0069 21.3872 38.0118 20.8501 37.9581 20.3618L37.9337 20.396ZM58.021 20.4936C57.9966 20.3374 57.9625 20.1079 57.9136 19.8784C57.1666 16.4117 53.3288 13.6042 49.3006 13.5749C45.2724 13.5456 41.2832 16.4166 40.5117 19.9761C40.3848 20.5717 40.1016 21.3139 40.9659 21.5336C41.8301 21.7534 42.7724 21.9145 43.1484 20.8256C43.8027 18.9507 45.2626 18.77 46.9129 18.8091C48.2361 18.8433 49.5642 18.8384 50.8874 18.8091C52.7966 18.7651 54.6715 18.6626 55.4576 21.0356C55.7311 21.8608 56.6246 21.6411 57.3082 21.5727C57.899 21.4799 58.0748 21.0649 58.0455 20.4594L58.021 20.4936Z" fill="#0FB8C3"/>
<path d="M10.2685 69.6087C8.75491 69.5599 7.68067 68.6322 6.55765 67.7826C4.86336 66.4985 3.20326 65.1069 0.83516 66.0688C0.522668 66.1957 0.175995 66.186 0.0392794 65.8588C-0.0216048 65.6717 -0.0114238 65.4687 0.0678293 65.2886C0.147082 65.1085 0.28986 64.9638 0.468958 64.8823C1.05685 64.4837 1.75084 64.2706 2.46113 64.2706C3.17142 64.2706 3.86536 64.4837 4.45325 64.8823C5.52255 65.5219 6.48934 66.3471 7.51959 67.0307C9.6582 68.4955 11.1133 68.6566 13.0859 67.0893C17.0945 63.9057 18.5154 62.9683 23.4469 67.06C25.4 68.6615 26.9185 68.4857 29.0327 67.06C34.1644 63.6421 34.1644 63.6421 39.1301 67.0111C41.3273 68.5101 42.7384 68.5101 44.9405 67.0111C45.0062 66.9688 45.0698 66.9232 45.1309 66.8744C49.5644 63.0757 50.9901 63.7886 54.867 66.8744C57.0642 68.6322 58.5632 68.5346 60.8385 66.9574C61.3512 66.601 61.8151 66.2055 62.3375 65.8344C65.1646 63.73 66.4438 63.73 69.2465 65.8344C69.7347 66.2104 70.223 66.6108 70.7406 66.9672C72.9525 68.5004 74.4661 68.6713 76.5119 67.0111C81.126 63.2661 82.5323 63.5933 86.6679 67.0111C88.7284 68.7006 90.1981 68.5345 92.4295 67.0111C93.4598 66.3032 94.4314 65.5122 95.486 64.853C95.9115 64.5665 96.3991 64.3852 96.9084 64.324C97.4178 64.2629 97.9344 64.3237 98.4156 64.5014C98.5637 64.5536 98.6912 64.6521 98.7791 64.7822C98.867 64.9123 98.9107 65.0672 98.9039 65.2241C98.9046 65.3031 98.8883 65.3814 98.8561 65.4536C98.824 65.5258 98.7766 65.5903 98.7173 65.6426C98.6581 65.6949 98.5882 65.7339 98.5126 65.7569C98.437 65.7798 98.3573 65.7863 98.279 65.7758C95.8767 65.4536 94.3728 67.1283 92.698 68.3148C90.159 70.0823 88.7919 70.097 86.3164 68.3148C85.6181 67.8265 84.9687 67.2504 84.2558 66.7719C82.2198 65.4145 80.7842 65.2778 78.8849 66.8305C74.3049 70.5804 73.0257 70.4876 68.5483 66.8793C66.4975 65.2387 65.0473 65.2338 63.0162 66.8793C58.8122 70.2972 57.4304 70.7122 52.6698 66.8354C50.6776 65.2143 49.2031 65.229 47.1426 66.9037C43.2364 70.0677 41.8546 70.9124 36.9866 66.933C34.8821 65.2094 33.4857 65.3657 31.2348 66.933L31.0394 67.0648C26.2495 70.4827 26.2496 70.4827 21.3083 67.0356C18.8669 65.3315 17.6316 65.3462 15.1512 67.1039C11.8798 69.3841 11.3964 69.638 10.2685 69.6087Z" fill="#0FB8C3"/>
<path d="M80.4774 77.8409C78.9491 77.8409 77.8749 78.8175 76.7519 79.628C73.0215 82.3721 72.1915 82.3769 68.5148 79.628C65.3557 77.255 64.1693 77.2452 61.0248 79.5743C57.1675 82.4257 56.4595 82.4257 52.6022 79.5743C49.5261 77.2794 48.3493 77.2745 45.2781 79.5157C44.5848 80.0039 43.9207 80.5801 43.1883 81.0244C42.533 81.4626 41.7624 81.6964 40.9741 81.6964C40.1858 81.6964 39.4151 81.4626 38.7598 81.0244C37.7832 80.4092 36.88 79.6377 35.9132 78.9786C33.7648 77.5138 32.2023 77.2648 30.3615 78.9786C26.7581 82.3135 23.5258 82.3379 19.9565 78.9786C18.2671 77.3771 16.1334 77.4747 14.4 78.9786C10.0056 82.8847 7.8621 82.2451 4.24892 78.9786C3.41844 78.2456 2.34893 77.841 1.24122 77.8409C0.752956 77.8409 -0.0234082 77.9581 0.0644802 77.1329C0.13772 76.464 0.81638 76.4493 1.37301 76.4347C2.15974 76.4114 2.93377 76.637 3.58488 77.0792C4.36122 77.6065 5.11318 78.168 5.87 78.7198C8.68243 80.7608 9.98608 80.751 12.8034 78.6515C13.2428 78.3243 13.6628 77.9728 14.1071 77.6749C16.3727 76.0343 17.8131 76.005 20.0933 77.5333C25.1468 80.9512 25.1468 80.9512 30.2394 77.504C32.3634 76.0783 33.7257 76.0392 35.8448 77.4552C36.0401 77.587 36.2256 77.7286 36.416 77.8653C40.9667 81.1074 41.1181 81.1074 45.5955 77.8653C48.2175 75.9562 49.5017 75.9464 52.1334 77.8263C52.7682 78.2853 53.3883 78.7589 54.0182 79.2178C55.8003 80.5264 57.7827 80.7852 59.3891 79.2666C63.0023 75.8488 66.3176 75.7706 69.9796 79.2325C71.669 80.8291 73.4952 80.751 75.3164 79.2325C79.8036 75.4533 81.4881 75.712 85.6726 79.2032C87.5573 80.7754 89.2223 80.6191 91.2584 79.2032C92.1568 78.5831 93.0064 77.8946 93.8951 77.2501C94.3627 76.8926 94.9051 76.6455 95.4818 76.5271C96.0584 76.4087 96.6544 76.4222 97.225 76.5665C97.8988 76.7277 98.8852 76.962 98.7582 77.7286C98.5629 78.9102 97.64 78.0216 97.0785 77.9581C95.9868 77.7929 94.8734 78.0534 93.9683 78.6856C93.0747 79.3155 92.2154 79.9942 91.317 80.6143C89.1686 82.0791 87.6696 82.0791 85.5213 80.5801C84.6277 79.9551 83.7635 79.2813 82.8699 78.6563C82.1824 78.1314 81.3424 77.8451 80.4774 77.8409Z" fill="#0FB8C3"/>
<path d="M69.9351 40.2783V51.6306H69.4811C69.0758 47.8514 69.3199 44.0624 69.2809 40.2783H69.9351Z" fill="#0FB8C3"/>
<path d="M49.2178 52.0553V40.8788H49.6669V52.065L49.2178 52.0553Z" fill="#0FB8C3"/>
<path d="M28.6279 54.223C28.8113 54.223 28.9599 50.6138 28.9599 46.1617C28.9599 41.7095 28.8113 38.1003 28.6279 38.1003C28.4445 38.1003 28.2959 41.7095 28.2959 46.1617C28.2959 50.6138 28.4445 54.223 28.6279 54.223Z" fill="#0FB8C3"/>
<path d="M49.3213 34.2138V24.3702H49.7265V34.2138H49.3213Z" fill="#0FB8C3"/>
<path d="M69.4521 33.7595V24.8047H69.8965V33.7791L69.4521 33.7595Z" fill="#0FB8C3"/>
<path d="M29.2763 24.8884V34.0825H28.7539V24.8933L29.2763 24.8884Z" fill="#0FB8C3"/>
<path d="M49.2427 58.193C50.0581 59.1695 49.7749 59.858 49.5649 60.9468C48.7788 59.9605 48.979 59.2135 49.2427 58.193Z" fill="#0FB8C3"/>
<path d="M69.7542 60.4193C69.1731 59.3939 69.1927 58.6859 69.5686 57.9437C70.135 58.8861 70.135 58.8861 69.7542 60.4193Z" fill="#0FB8C3"/>
<path d="M28.2558 57.8607C28.8661 58.8958 28.8857 59.5452 28.2558 60.3753C27.704 59.555 27.7968 58.891 28.2558 57.8607Z" fill="#0FB8C3"/>
</svg>
