<svg width="220" height="130" viewBox="0 0 220 130" fill="none" xmlns="http://www.w3.org/2000/svg">
<path d="M46.5921 19.0001C47.1699 19.1446 47.4588 19.5779 47.531 20.1557C49.1922 27.9558 50.8533 35.8281 52.4422 43.6282C52.7311 45.0005 52.5867 46.4449 52.5144 47.8172C52.5144 48.5394 51.9366 48.6838 51.2144 48.6838C44.0643 48.6838 36.9864 48.6838 29.8363 48.6838C29.2586 48.6838 29.1141 48.8283 29.1141 49.4061C29.1863 50.6339 29.1141 51.9339 29.1141 53.1617C29.1141 53.6672 29.2586 53.8839 29.8363 53.8839C31.8586 53.8839 33.8809 53.8839 35.9031 53.8839C36.9865 53.8839 37.5642 54.3895 37.3476 55.4006C37.2031 56.0506 37.9976 57.3506 36.842 57.4229C29.8363 57.5673 22.8307 57.4951 15.7528 57.4951C15.3195 57.4951 15.175 57.3506 15.175 56.9173C15.1028 54.0284 15.1028 54.0284 17.9918 54.0284C19.5084 54.0284 21.0973 54.0284 22.614 54.0284C23.264 54.0284 23.4085 53.8117 23.4085 53.2339C23.3363 52.0061 23.3363 50.7783 23.4085 49.5505C23.4085 48.9727 23.264 48.7561 22.6863 48.7561C15.6806 48.7561 8.74719 48.7561 1.74154 48.7561C0.513743 48.7561 0.0803971 48.3227 0.00817395 47.0949C-0.136272 41.8226 1.66931 36.9115 2.60821 31.8558C3.33044 27.9558 4.19712 24.128 5.0638 20.2279C5.20824 19.6501 5.42492 19.1446 6.07493 19.0001C19.5084 19.0001 33.0864 19.0001 46.5921 19.0001ZM26.2974 45.0005C18.4251 45.0005 10.5528 45.0005 2.68044 45.0005C1.88599 45.0005 1.95821 45.4338 1.95821 45.9394C1.95821 46.5172 1.95821 46.8783 2.68044 46.8783C18.4251 46.8783 34.0975 46.8783 49.8422 46.8783C50.5644 46.8783 50.5644 46.5172 50.5644 46.0116C50.5644 45.506 50.7088 45.0005 49.8422 45.0005C41.9698 45.0005 34.1697 45.0005 26.2974 45.0005ZM26.2252 42.9782C28.4641 42.9782 30.7753 42.9782 33.0142 42.9782C33.3753 42.9782 33.592 42.906 33.592 42.4727C33.4475 40.8115 33.3031 39.1504 33.2308 37.4893C33.2308 37.1281 33.0864 36.9837 32.7253 36.9837C28.4641 36.9837 24.1307 36.9837 19.8695 36.9837C19.4362 36.9837 19.364 37.1281 19.364 37.5615C19.2918 39.1504 19.1473 40.8115 19.0029 42.4004C18.9307 42.8338 19.1473 42.9782 19.5807 42.9782C21.7474 42.9782 23.9863 42.9782 26.2252 42.9782ZM9.54164 42.9782C11.7806 42.9782 14.0917 42.9782 16.3306 42.9782C16.764 42.9782 16.9806 42.8338 16.9806 42.4004C17.0528 40.7393 17.1973 39.1504 17.2695 37.4893C17.2695 37.0559 17.1251 36.9837 16.764 36.9837C12.5028 36.9837 8.24162 36.9837 3.98045 36.9837C3.54711 36.9837 3.40267 37.1281 3.33044 37.5615C3.04155 39.1504 2.68044 40.7393 2.31932 42.3282C2.17488 42.8338 2.39154 42.9782 2.8971 42.9782C5.0638 42.9782 7.30272 42.9782 9.54164 42.9782ZM42.9087 42.9782C45.1477 42.9782 47.4588 42.9782 49.6977 42.9782C49.9866 42.9782 50.3477 42.9782 50.2033 42.4727C49.8422 40.8115 49.481 39.1504 49.1199 37.417C49.0477 37.0559 48.8311 36.9837 48.5422 36.9837C44.281 36.9837 39.9476 36.9837 35.6864 36.9837C35.3253 36.9837 35.1809 37.1281 35.2531 37.4893C35.3975 39.0782 35.4698 40.6671 35.542 42.256C35.542 42.7615 35.7587 42.9782 36.2642 42.9782C38.5031 42.9782 40.6698 42.9782 42.9087 42.9782ZM26.2252 35.0337C28.3197 35.0337 30.3419 35.0337 32.4364 35.0337C32.7975 35.0337 33.0142 34.9614 33.0142 34.5281C32.8697 32.867 32.7975 31.2058 32.6531 29.4725C32.6531 29.1114 32.4364 29.0391 32.0753 29.0391C28.1752 29.0391 24.2752 29.0391 20.3751 29.0391C20.014 29.0391 19.7973 29.1836 19.7973 29.5447C19.7251 31.1336 19.5807 32.7947 19.4362 34.3837C19.364 34.8892 19.5084 35.0337 20.014 35.0337C22.1085 34.9614 24.2029 35.0337 26.2252 35.0337ZM10.6972 35.0337C12.7917 35.0337 14.8139 35.0337 16.9084 35.0337C17.3417 35.0337 17.5584 34.8892 17.5584 34.4559C17.6306 32.7948 17.7751 31.1336 17.8473 29.5447C17.8473 29.1836 17.7751 29.0391 17.414 29.0391C13.5139 29.0391 9.61386 29.0391 5.71381 29.0391C5.3527 29.0391 5.13602 29.1836 5.0638 29.5447C4.70268 31.2058 4.41379 32.867 4.05268 34.4559C3.98045 34.8892 4.1249 35.0337 4.55824 35.0337C6.50826 34.9614 8.60273 35.0337 10.6972 35.0337ZM41.8254 35.0337C43.9199 35.0337 46.0143 35.0337 48.1088 35.0337C48.5422 35.0337 48.6144 34.8892 48.5422 34.5281C48.181 32.867 47.8199 31.2781 47.531 29.6169C47.4588 29.1836 47.2421 29.0391 46.881 29.0391C42.981 29.0391 39.1531 29.0391 35.2531 29.0391C34.892 29.0391 34.7475 29.1114 34.7475 29.5447C34.892 31.2058 34.9642 32.7948 35.0364 34.4559C35.0364 34.8892 35.2531 35.0337 35.6864 35.0337C37.7087 34.9614 39.7309 35.0337 41.8254 35.0337ZM11.7806 27.0169C13.6584 27.0169 15.5362 27.0169 17.4862 27.0169C17.9195 27.0169 18.1362 26.8724 18.1362 26.3669C18.2084 24.778 18.3529 23.1168 18.4251 21.5279C18.4251 21.0946 18.3529 21.0224 17.9195 21.0224C14.3806 21.0224 10.8417 21.0224 7.37495 21.0224C7.01383 21.0224 6.79715 21.1668 6.72493 21.5279C6.43604 23.1891 6.07493 24.778 5.71381 26.4391C5.64159 26.8724 5.78603 27.0169 6.14714 27.0169C8.02495 27.0169 9.90275 27.0169 11.7806 27.0169ZM26.2252 27.0169C28.103 27.0169 29.9808 27.0169 31.9308 27.0169C32.3642 27.0169 32.5086 26.8724 32.5086 26.4391C32.3642 24.778 32.2197 23.1168 32.1475 21.5279C32.1475 21.1668 31.9308 21.0224 31.5697 21.0224C28.0308 21.0224 24.4918 21.0224 21.0251 21.0224C20.664 21.0224 20.5196 21.1668 20.4473 21.5279C20.3029 23.1891 20.2307 24.778 20.0862 26.4391C20.014 26.8724 20.2307 27.0891 20.664 27.0169C22.5418 27.0169 24.3474 27.0169 26.2252 27.0169ZM40.6698 27.0169C42.5476 27.0169 44.4254 27.0169 46.3755 27.0169C46.8088 27.0169 46.9533 26.8724 46.8088 26.4391C46.4477 24.778 46.0866 23.1891 45.7977 21.5279C45.7255 21.1668 45.5088 21.0224 45.1477 21.0224C41.681 21.0224 38.2142 21.0224 34.6753 21.0224C34.1697 21.0224 34.0975 21.239 34.0975 21.6724C34.242 23.2613 34.3864 24.8502 34.4586 26.4391C34.4586 26.8724 34.6753 27.0169 35.1086 27.0169C36.9142 27.0169 38.792 27.0169 40.6698 27.0169ZM26.2252 56.3395C29.0419 56.3395 31.9308 56.3395 34.7475 56.3395C35.0364 56.3395 35.3253 56.4117 35.3253 55.9784C35.3253 55.545 35.0364 55.6173 34.7475 55.6173C29.0419 55.6173 23.4085 55.6173 17.7029 55.6173C17.414 55.6173 17.1251 55.6173 17.1251 55.9784C17.1251 56.4117 17.414 56.3395 17.7029 56.3395C20.5918 56.3395 23.4085 56.3395 26.2252 56.3395ZM27.1641 51.4283C27.1641 50.7061 27.1641 49.9839 27.1641 49.2616C27.1641 48.6839 26.8752 48.6838 26.5141 48.7561C26.153 48.8283 25.4307 48.3227 25.3585 49.2616C25.3585 50.7061 25.3585 52.0783 25.3585 53.5228C25.3585 53.8839 25.503 53.9561 25.8641 54.0284C26.9474 54.1728 27.3808 53.8117 27.1641 52.7283C27.0919 52.295 27.1641 51.8617 27.1641 51.4283Z" fill="#0FB8C3"/>
<path d="M137.785 44.4974C137.352 45.003 136.919 45.003 136.341 44.7141C129.624 40.814 122.98 36.9862 116.263 33.1584C115.396 32.6528 114.891 33.8084 114.891 34.3139C115.18 40.7418 115.541 47.1697 115.902 53.5975C115.902 53.9586 116.046 54.0309 116.407 54.1031C117.274 54.2475 118.141 54.3198 119.007 54.5364C119.874 54.7531 120.38 55.3309 120.235 56.1976C120.091 57.1365 119.441 57.5698 118.502 57.3531C113.663 56.4142 108.896 56.1976 104.057 57.5698C103.191 57.7865 102.468 57.4254 102.252 56.4865C102.035 55.5476 102.541 54.9698 103.407 54.7531C104.635 54.4642 105.863 54.1753 107.091 53.9586C107.524 53.8864 107.668 53.742 107.668 53.3086C108.03 47.0252 108.391 40.7418 108.752 34.3862C108.752 34.0973 108.824 33.8084 108.535 33.6639C108.246 33.5917 108.174 33.9528 108.03 34.0973C105.068 38.2862 100.807 40.5251 96.1849 42.3307C93.2238 43.4863 90.1904 44.2807 87.0848 44.8585C86.6515 44.9307 86.2181 44.8585 86.0737 44.4252C85.857 43.9196 86.1459 43.6307 86.5793 43.4141C93.296 39.514 100.013 35.614 106.802 31.7861C107.163 31.5695 107.307 31.3528 107.307 30.9195C107.163 28.6805 108.391 26.8027 110.557 26.0805C110.774 26.0083 110.991 26.0083 110.846 25.6472C107.957 20.8082 108.102 15.5359 108.824 10.1914C109.257 6.94136 110.052 3.83576 111.207 0.802387C111.352 0.369048 111.568 -0.0642901 112.146 0.0079331C112.724 0.0801563 112.796 0.585719 112.796 1.09128C112.796 9.10805 112.796 17.1248 112.796 25.2138C112.796 25.7194 112.868 25.9361 113.446 26.1527C115.252 26.6583 116.552 28.3916 116.624 30.2694C116.624 30.5583 116.624 30.775 116.985 30.775C122.33 31.0639 126.591 33.7361 130.635 36.914C133.308 39.0084 135.691 41.3918 137.858 43.9918C137.785 44.1363 137.785 44.2807 137.785 44.4974ZM110.341 52.5864C110.557 52.8753 109.907 53.4531 110.63 53.5253C111.352 53.6698 112.074 53.5253 112.796 53.5975C113.23 53.5975 113.302 53.3809 113.302 53.0197C113.157 50.9253 113.085 48.8308 112.941 46.8086C112.724 43.053 112.507 39.2973 112.291 35.5417C112.291 35.1806 112.146 35.0362 111.785 35.0362C111.496 35.0362 111.352 35.1806 111.28 35.4695C110.991 41.1751 110.63 46.8808 110.341 52.5864ZM111.93 28.3916C110.702 28.5361 109.907 29.1139 109.907 30.4139C109.907 31.6417 110.63 32.4361 111.857 32.4361C113.157 32.4361 113.88 31.7139 113.88 30.4861C113.88 29.1861 113.157 28.5361 111.93 28.3916Z" fill="#0FB8C3"/>
<path d="M94.5234 29.0419C94.5234 22.1085 99.0013 15.8973 105.14 13.7306C105.646 13.5861 106.079 13.5861 106.296 14.0917C106.512 14.6695 106.151 14.9584 105.646 15.1028C99.6513 17.4139 95.8957 22.7585 95.9679 28.8252C95.9679 29.3308 96.0401 29.8363 96.1123 30.3419C96.1846 30.7752 95.9679 31.1364 95.5346 31.2086C95.1012 31.2808 94.7401 31.0641 94.6679 30.6308C94.5956 29.9808 94.5957 29.2585 94.5234 29.0419Z" fill="#0FB8C3"/>
<path d="M128.324 28.7529C128.252 29.1862 128.251 29.8362 128.179 30.4863C128.107 30.9918 127.89 31.2807 127.385 31.2085C126.879 31.1363 126.663 30.7751 126.735 30.2696C127.24 25.7917 125.94 21.9639 122.835 18.7139C121.246 17.0527 119.296 15.8249 117.201 14.9583C116.696 14.7416 116.407 14.4527 116.624 13.9471C116.84 13.4416 117.274 13.4416 117.707 13.586C123.774 15.825 128.324 22.1806 128.324 28.7529Z" fill="#0FB8C3"/>
<path d="M98.4229 28.3196C98.784 23.4807 101.312 20.0862 105.717 17.9917C106.151 17.775 106.656 17.7028 106.873 18.2806C107.09 18.8584 106.729 19.0751 106.295 19.2917C102.395 21.1695 100.156 24.2029 99.9395 28.6085C99.9395 29.0418 99.6507 29.403 99.2173 29.3307C98.6395 29.3307 98.4229 28.8974 98.4229 28.3196Z" fill="#0FB8C3"/>
<path d="M124.352 28.5362C124.352 28.9695 124.207 29.3307 123.702 29.4029C123.196 29.4751 122.907 29.114 122.907 28.6806C122.691 24.1306 120.38 21.0972 116.335 19.2194C115.974 19.0027 115.829 18.6416 116.046 18.2083C116.263 17.7749 116.624 17.775 117.057 17.9194C121.102 19.5083 124.28 24.0584 124.352 28.5362Z" fill="#0FB8C3"/>
<path d="M193.24 109.384C191.001 109.384 188.69 109.311 186.451 109.384C184.862 109.456 184.068 108.806 183.995 107.289C183.779 102.884 184.645 98.6947 188.69 96.3113C189.123 96.0224 189.629 95.7335 190.062 95.7335C191.506 95.5891 191.795 94.7946 191.723 93.4224C191.651 89.8834 191.723 86.3445 191.651 82.8056C191.651 81.65 192.084 81 193.384 81C204.651 81.0722 215.34 89.5946 216.423 102.595C217.435 114.8 208.84 125.995 196.779 127.801C183.706 129.751 172.006 121.156 169.912 108.011C169.478 104.978 168.251 102.234 168.034 99.128C167.673 93.2057 170.201 89.0168 175.184 85.9834C177.929 84.3223 180.673 82.8778 183.779 82.1556C183.995 82.0833 184.284 82.1556 184.501 82.1556C184.429 82.3722 184.429 82.5889 184.284 82.8056C182.912 85.2612 183.779 87.7168 184.212 90.1723C185.44 96.8169 182.984 101.439 176.917 104.4C176.195 104.761 175.401 105.123 174.679 105.556C174.173 105.845 174.028 105.773 173.956 105.195C173.451 101.439 174.317 97.9002 175.834 94.4335C176.267 93.4946 176.845 92.6279 177.279 91.7613C177.351 91.6168 177.495 91.3279 177.423 91.2557C177.134 91.1112 177.062 91.4001 176.99 91.5446C174.606 94.7224 173.234 98.2613 172.873 102.306C172.367 108.084 173.595 113.428 177.423 117.834C181.179 122.167 186.162 124.406 191.868 124.912C202.412 125.706 211.657 118.339 213.318 107.867C214.979 97.9724 209.201 88.3668 199.74 85.0445C198.295 84.5389 196.851 84.1778 195.334 84.0334C194.829 83.9611 194.54 84.1778 194.612 84.7556C194.684 88.0779 194.684 91.4001 194.684 94.7224C194.684 95.0835 194.757 95.3002 195.118 95.3724C199.234 96.3113 201.979 99.6336 202.123 103.967C202.196 105.267 202.196 106.495 202.123 107.795C202.051 108.806 201.546 109.311 200.462 109.311C198.151 109.384 195.695 109.384 193.24 109.384ZM193.168 107.217C193.818 105.484 194.323 104.039 194.901 102.667C195.262 101.8 195.118 101.439 194.179 101.584C193.457 101.728 193.24 101.439 193.312 100.645C193.384 99.7058 193.312 98.8391 193.312 97.9002C193.312 97.828 193.24 97.6836 193.168 97.6113C193.095 97.6836 192.951 97.7558 192.951 97.9002C192.445 99.4169 191.868 100.934 191.362 102.45C191.145 103.028 191.29 103.317 191.868 103.173C193.023 103.028 193.384 103.461 193.24 104.545C193.095 105.339 193.168 106.134 193.168 107.217Z" fill="#0FB8C3"/>
<path d="M191.167 114.683C191.167 115.622 191.167 116.561 191.167 117.5C191.167 118.15 190.806 118.367 190.228 118.367C189.65 118.367 189 118.439 189 117.572C189 115.695 189 113.817 189 111.867C189 111 189.65 111.072 190.228 111.072C190.806 111.072 191.239 111.217 191.239 111.867C191.167 112.733 191.167 113.745 191.167 114.683Z" fill="#0FB8C3"/>
<path d="M196.367 114.611C196.367 113.817 196.439 112.95 196.367 112.156C196.295 111.361 196.584 111 197.45 111C198.317 111 198.606 111.361 198.606 112.156C198.534 113.889 198.606 115.55 198.606 117.283C198.606 118.078 198.245 118.295 197.45 118.295C196.728 118.295 196.295 118.078 196.367 117.283C196.439 116.417 196.367 115.478 196.367 114.611Z" fill="#0FB8C3"/>
<path d="M3 103.139C3.28889 100.033 3.9389 97 5.31114 94.1833C9.8612 84.8666 19.9724 79.5943 30.0837 81.3276C40.5561 83.1332 48.3562 91.3666 49.4395 101.911C50.884 115.2 40.4116 127.189 27.0503 127.478C14.4113 127.839 3.86668 118.161 3.14445 105.667C3.14445 105.522 3.07222 105.378 3.07222 105.233C3 104.511 3 103.861 3 103.139ZM46.695 104.295C46.695 92.9555 37.5949 83.7832 26.4003 83.7832C14.9168 83.7832 5.74448 92.8833 5.74448 104.222C5.74448 115.489 14.8446 124.662 26.1114 124.662C37.5949 124.662 46.695 115.634 46.695 104.295Z" fill="#0FB8C3"/>
<path d="M15.7832 107.906C15.9999 103.861 18.1666 99.8168 20.8388 95.8445C22.3555 93.6056 24.0889 91.4389 25.8222 89.3444C26.1111 88.9833 26.4 88.9111 26.6889 89.2722C30.6612 93.9667 34.3446 98.8779 36.2224 104.8C38.2446 111.372 34.7779 117.439 28.2056 118.811C21.9222 120.112 15.7832 115.056 15.7832 107.906ZM29 104.511C27.8445 104.8 27.5556 104.295 27.9889 102.995C28.4945 101.333 28.7834 99.6723 29.1445 98.0112C29.2167 97.7223 29.2167 97.4334 28.9278 97.289C28.6389 97.1445 28.35 97.289 28.1334 97.5056C25.8222 100.25 23.5111 102.922 21.1999 105.667C20.9833 105.884 20.911 106.1 20.9833 106.389C21.1277 106.678 21.4166 106.75 21.6333 106.75C22.2111 106.75 22.8611 106.75 23.4389 106.75C23.9444 106.75 24.0166 106.895 23.9444 107.328C23.5111 109.278 23.0777 111.228 22.5722 113.178C22.5 113.467 22.5 113.828 22.8611 113.973C23.2222 114.117 23.4389 113.973 23.5833 113.756C25.8944 111.011 28.2778 108.339 30.589 105.595C30.7334 105.378 30.8778 105.161 30.7334 104.872C30.6612 104.584 30.3723 104.584 30.1556 104.584C29.8667 104.439 29.5056 104.511 29 104.511Z" fill="#0FB8C3"/>
<path d="M111.628 80C125.278 80 136.328 91.0501 136.328 104.7C136.328 118.278 125.062 129.256 111.195 129.256C98.0501 129.256 87 117.917 87 104.484C87 90.9057 97.9779 80 111.628 80ZM89.8889 104.556C89.8889 116.473 99.5668 126.223 111.411 126.223C123.545 126.223 133.295 116.545 133.295 104.556C133.295 92.5668 123.545 82.8167 111.556 82.8167C99.5668 82.8889 89.8889 92.5668 89.8889 104.556Z" fill="#0FB8C3"/>
<path d="M103.972 105.206C104.189 102.1 105.561 98.2722 107.439 94.7332C108.522 92.6388 109.244 90.3276 110.544 88.3054C110.905 87.7998 111.122 87.0054 111.844 87.0054C112.567 87.0054 112.494 87.872 112.711 88.3776C114.661 92.7832 116.9 97.1166 118.561 101.667C120.367 106.795 118.922 110.983 114.083 113.367C113.867 113.511 113.578 113.728 113.361 113.439C113.144 113.15 113.217 112.861 113.361 112.572C114.011 111.561 114.661 110.55 115.239 109.467C116.105 107.95 115.961 106.433 114.95 104.989C114.011 103.617 113 102.317 111.989 101.017C111.844 100.8 111.628 100.728 111.411 100.583C111.267 100.8 111.194 101.017 111.05 101.161C110.544 101.739 110.111 102.389 109.533 102.967C107.005 105.928 106.861 108.022 108.955 111.345C109.1 111.633 109.317 111.85 109.461 112.139C109.678 112.572 110.255 113.006 109.894 113.367C109.605 113.728 108.955 113.295 108.522 113.15C105.561 111.995 103.9 109.395 103.972 105.206Z" fill="#0FB8C3"/>
<path d="M111.194 115.678C113.65 115.678 116.033 115.678 118.489 115.678C119.428 115.678 120.006 116.256 120.006 117.195C120.006 118.206 119.5 118.784 118.489 118.784C113.794 118.856 109.1 118.856 104.405 118.856C103.322 118.856 102.889 118.134 102.889 117.123C102.889 116.039 103.539 115.606 104.55 115.606C106.717 115.606 108.955 115.606 111.194 115.678C111.194 115.606 111.194 115.606 111.194 115.678Z" fill="#0FB8C3"/>
<path d="M212.873 37.4534C212.006 37.4534 211.14 37.4534 210.345 37.4534C209.912 37.4534 209.767 37.5978 209.695 38.0312C209.551 38.6812 209.478 39.4034 209.334 40.0534C209.262 40.4145 209.334 40.6312 209.695 40.8479C210.778 41.5701 211.717 42.4368 212.367 43.5201C212.728 44.0257 212.945 44.6035 213.017 45.2535C213.09 45.759 212.873 45.9035 212.44 45.759C211.14 45.3979 209.912 44.8924 208.612 44.3868C207.817 44.0979 207.817 44.0979 207.384 44.8201C207.095 45.3257 206.734 45.8313 206.373 46.3368C206.156 46.6979 206.156 46.9146 206.445 47.2035C206.734 47.4924 207.023 47.7813 207.312 48.0702C208.467 49.2257 209.84 49.2257 210.995 48.0702C211.717 47.3479 212.367 46.6979 213.306 46.1924C215.04 45.3979 216.556 45.6868 218.001 46.7702C218.651 47.2757 219.229 47.8535 219.156 48.7924C219.084 49.2257 219.156 49.6591 219.156 50.1646C219.156 50.4535 219.012 50.598 218.723 50.3813C218.001 49.948 217.495 49.298 216.917 48.7202C216.267 48.0702 215.473 47.8535 214.534 47.998C214.028 48.0702 213.667 48.4313 213.306 48.7924C212.873 49.2257 212.512 49.6591 212.078 50.0202C210.128 51.6091 207.673 51.4647 205.723 49.5869C205.362 49.2257 205.073 48.8646 204.712 48.5757C203.845 47.7813 202.545 47.7813 201.678 48.5035C201.317 48.7924 201.028 49.1535 200.739 49.4424C198.5 51.6813 195.828 51.6813 193.589 49.3702C193.373 49.1535 193.084 48.8646 192.867 48.648C191.784 47.7091 190.484 47.7091 189.4 48.7202C188.895 49.2257 188.461 49.7313 187.884 50.1646C186.223 51.4647 183.911 51.4647 182.25 50.0924C181.672 49.5869 181.167 49.0091 180.589 48.5035C179.722 47.7813 178.422 47.7813 177.556 48.5757C177.195 48.8646 176.906 49.2257 176.545 49.5869C174.45 51.6813 171.85 51.6813 169.756 49.6591C169.539 49.4424 169.322 49.2257 169.178 49.0091C168.6 48.4313 168.022 47.998 167.156 47.9257C166.433 47.9257 166 47.4202 166.072 46.7702C166.144 46.1202 166.578 45.759 167.3 45.759C168.383 45.759 169.322 46.1924 170.117 46.9146C170.55 47.3479 170.983 47.7813 171.417 48.2146C172.428 49.1535 173.656 49.1535 174.667 48.2868C175.245 47.7813 175.75 47.2035 176.328 46.6979C176.545 46.5535 176.545 46.3368 176.4 46.1202C176.111 45.6868 175.822 45.2535 175.534 44.7479C175.389 44.5312 175.172 44.5312 174.956 44.5312C172.789 45.0368 170.695 44.6757 168.672 43.6646C168.528 43.5923 168.383 43.5923 168.383 43.4479C168.383 43.3034 168.6 43.3034 168.745 43.2312C170.261 42.5812 171.778 41.9312 173.295 41.2812C173.656 41.1368 173.872 40.9201 173.728 40.4867C173.511 39.6201 173.295 38.7534 173.222 37.8867C173.15 37.4534 172.789 37.4534 172.5 37.3089C170.767 36.8756 169.25 36.0811 168.022 34.7811C167.806 34.5644 167.589 34.3478 167.372 34.0589C167.3 33.9144 167.083 33.8422 167.156 33.6978C167.228 33.5533 167.445 33.6255 167.517 33.6255C169.178 33.6255 170.767 33.6255 172.428 33.6255C172.933 33.6255 173.222 33.4811 173.222 32.9033C173.295 32.3255 173.439 31.6755 173.584 31.0977C173.656 30.6644 173.584 30.3755 173.222 30.1588C171.417 29.0033 170.189 27.3421 169.539 25.2476C169.467 25.1032 169.395 24.8865 169.467 24.8143C169.611 24.6699 169.756 24.8143 169.9 24.8865C171.417 25.4643 172.933 26.1143 174.45 26.6921C174.884 26.9088 175.172 26.7643 175.389 26.331C175.75 25.6088 176.184 24.9588 176.689 24.3087C176.978 23.9476 176.978 23.731 176.761 23.3698C175.75 21.9254 175.317 20.2643 175.245 18.5309C175.245 18.0976 175.317 17.592 175.389 17.0864C175.389 17.0142 175.389 16.8698 175.534 16.8698C175.606 16.8698 175.678 16.942 175.75 17.0142C176.978 18.242 178.206 19.3976 179.361 20.6254C179.65 20.9143 179.939 20.9865 180.3 20.6976C180.806 20.2643 181.384 19.9031 181.961 19.542C182.322 19.3254 182.395 19.1087 182.322 18.6753C181.817 16.4364 182.178 14.3419 183.334 12.3919C183.406 12.3197 183.406 12.1753 183.55 12.2475C183.623 12.2475 183.695 12.3919 183.695 12.4641C184.345 13.9086 184.995 15.4253 185.573 16.8698C185.934 17.6642 186.006 17.7364 186.873 17.5198C187.595 17.3031 188.389 17.1587 189.184 17.0864C189.545 17.0142 189.689 16.7975 189.761 16.5086C190.195 14.2697 191.278 12.5364 193.012 11.1641C193.084 11.0919 193.228 10.9475 193.373 11.0197C193.517 11.0919 193.445 11.2364 193.445 11.3808C193.445 12.8975 193.445 14.3419 193.445 15.8586C193.445 16.1475 193.445 16.4364 193.445 16.7253C193.445 16.942 193.589 17.0864 193.806 17.0864C194.6 17.2309 195.395 17.3753 196.189 17.5198C196.55 17.592 196.695 17.3031 196.839 17.0864C197.995 15.2809 199.656 14.1253 201.678 13.4753C201.823 13.403 202.039 13.2586 202.184 13.403C202.328 13.5475 202.112 13.6919 202.039 13.9086C201.462 15.4253 200.884 16.942 200.234 18.4587C200.017 18.892 200.089 19.1809 200.595 19.3976C201.317 19.7587 202.039 20.2643 202.689 20.7698C202.978 20.9865 203.195 20.9865 203.484 20.7698C204.928 19.8309 206.517 19.3254 208.251 19.1809C208.756 19.1809 209.262 19.2531 209.695 19.3254C209.767 19.3254 209.912 19.3253 209.912 19.3976C209.912 19.4698 209.84 19.542 209.767 19.6142C208.612 20.842 207.384 21.9976 206.156 23.1532C205.795 23.5143 205.723 23.8032 206.084 24.2365C206.517 24.7421 206.878 25.3199 207.167 25.8977C207.312 26.1866 207.601 26.2588 207.89 26.1866C210.056 25.681 212.151 26.0421 214.173 27.0532C214.245 27.1255 214.39 27.1255 214.39 27.2699C214.39 27.4143 214.245 27.4143 214.101 27.4866C212.512 28.1366 210.995 28.8588 209.406 29.5088C209.045 29.6533 208.901 29.8699 209.045 30.3033C209.262 31.17 209.478 32.0366 209.551 32.9755C209.623 33.2644 209.767 33.4089 210.128 33.4811C212.295 33.9144 214.101 34.9978 215.473 36.8034C215.545 36.8756 215.69 37.02 215.617 37.0923C215.545 37.2367 215.401 37.1645 215.256 37.1645C214.606 37.4534 213.74 37.4534 212.873 37.4534ZM177.122 35.5756C177.122 36.0811 177.195 36.5867 177.195 37.0923C177.772 42.0757 180.3 45.6868 184.634 48.2146C186.006 49.0091 186.15 48.9369 187.234 47.7813C187.739 47.2035 188.317 46.6979 188.967 46.3368C190.845 45.3257 192.939 45.6868 194.6 47.4202C195.034 47.8535 195.395 48.2868 195.9 48.648C196.262 48.8646 196.623 49.0813 197.128 48.8646C198.717 48.2868 200.089 47.2035 201.317 46.1202C205.939 41.859 207.167 34.8533 204.351 29.2921C201.895 24.3088 196.478 20.9143 190.411 21.4198C186.728 21.7087 183.55 23.2254 181.022 25.8977C178.422 28.4255 177.122 31.7477 177.122 35.5756Z" fill="#0FB8C3"/>
<path d="M219.156 56.2313C219.156 56.5925 219.228 57.0258 219.012 57.098C218.723 57.2425 218.506 56.8813 218.29 56.6647C217.784 56.2313 217.351 55.7258 216.845 55.2924C215.834 54.3535 214.534 54.3535 213.523 55.2924C213.017 55.7258 212.584 56.3036 212.078 56.7369C210.345 58.1814 207.889 58.1814 206.228 56.5925C205.795 56.2313 205.434 55.798 205.073 55.4369C203.917 54.2813 202.545 54.2813 201.389 55.4369C201.1 55.7258 200.739 56.0869 200.45 56.3758C198.645 58.1814 195.973 58.2536 194.023 56.448C193.589 56.0147 193.228 55.5813 192.795 55.2202C191.928 54.4258 190.628 54.3535 189.689 55.148C189.184 55.5813 188.75 56.0869 188.245 56.5925C186.367 58.2536 183.839 58.1814 182.034 56.448C181.6 56.0147 181.167 55.5813 180.661 55.148C179.722 54.3535 178.278 54.4258 177.411 55.3647C177.05 55.7258 176.761 56.0147 176.4 56.3758C174.45 58.2536 171.778 58.2536 169.828 56.3758C169.467 56.0147 169.106 55.6535 168.672 55.2202C168.239 54.7869 167.733 54.6424 167.156 54.5702C166.433 54.5702 166 54.0646 166 53.4869C166 52.8368 166.506 52.4035 167.228 52.4035C168.456 52.4757 169.467 52.9813 170.333 53.848C170.622 54.1369 170.911 54.498 171.272 54.7869C172.428 55.8702 173.8 55.8702 174.956 54.7146C175.389 54.2813 175.822 53.848 176.256 53.4146C177.917 52.0424 180.3 52.1146 181.889 53.4869C182.322 53.848 182.756 54.3535 183.189 54.7869C184.345 55.9424 185.717 55.9424 186.872 54.7869C187.161 54.498 187.45 54.2091 187.739 53.9202C189.761 51.9702 192.361 51.9702 194.384 53.9202C194.745 54.2813 195.106 54.7146 195.539 55.0758C196.478 55.9424 197.778 55.8702 198.717 55.0035C199.223 54.5702 199.656 54.0646 200.162 53.6313C201.462 52.4757 202.978 52.2591 204.567 52.7646C205.506 53.0535 206.012 53.848 206.589 54.498C207.384 55.2924 208.323 55.8702 209.551 55.6535C210.056 55.5813 210.417 55.2924 210.778 55.0035C211.139 54.6424 211.501 54.2813 211.862 53.9924C213.812 52.1868 216.34 52.1868 218.362 53.9202C219.228 54.498 219.012 55.3647 219.156 56.2313Z" fill="#0FB8C3"/>
<path d="M188.173 36.2254C187.884 36.2254 187.667 36.2254 187.378 36.2254C187.017 36.2976 186.728 36.2254 186.512 35.8643C186.295 35.5032 186.367 35.1421 186.656 34.8532C187.667 33.842 188.534 32.6865 189.473 31.6753C190.99 29.942 192.434 28.2086 193.951 26.4753C194.24 26.1864 194.456 25.8975 194.962 26.1142C195.395 26.3308 195.395 26.6919 195.323 27.1253C194.89 29.0031 194.456 30.9531 194.023 32.8309C193.878 33.5531 193.951 33.6976 194.673 33.6976C195.179 33.6976 195.612 33.6254 196.117 33.6254C196.912 33.6254 197.345 34.4198 196.912 35.1421C196.84 35.2143 196.767 35.3587 196.695 35.431C194.24 37.8143 192.29 40.631 189.906 43.0866C189.69 43.3033 189.473 43.5199 189.256 43.7366C189.04 43.9533 188.823 44.0255 188.606 43.8811C188.317 43.7366 188.173 43.5922 188.173 43.2311C188.173 43.0866 188.173 42.9422 188.173 42.7977C188.678 40.9199 188.967 39.0421 189.545 37.2365C189.762 36.3699 189.69 36.2254 188.751 36.2254C188.462 36.2254 188.317 36.2254 188.173 36.2254Z" fill="#0FB8C3"/>
</svg>
