<svg width="76" height="26" viewBox="0 0 76 26" fill="none" xmlns="http://www.w3.org/2000/svg">
<path d="M37.2178 7.08789V8.40625H30.626V12.625H36.9102V13.9434H30.626V18.3379H37.3496V19.6562H29V7.08789H37.2178Z" fill="#0FC391"/>
<path d="M42.2236 19.6562H40.5361L45.8711 7.08789H47.6729L53.0342 19.6562H51.2324L49.6064 15.7012H45.4492L45.8975 14.3828H49.0615L46.7148 8.6875L42.2236 19.6562Z" fill="#0FC391"/>
<path d="M65.2402 19.2168C64.1562 19.5684 62.9844 19.7441 61.7246 19.7441C57.3301 19.7441 55.1328 17.5615 55.1328 13.1963C55.1328 9.06543 57.3301 7 61.7246 7C62.9844 7 64.1562 7.17578 65.2402 7.52734V8.93359C64.1562 8.52344 63.043 8.31836 61.9004 8.31836C58.4727 8.31836 56.7588 9.94434 56.7588 13.1963C56.7588 16.6826 58.4727 18.4258 61.9004 18.4258C63.043 18.4258 64.1562 18.2207 65.2402 17.8105V19.2168Z" fill="#0FC391"/>
<path d="M37.2178 7.08789V8.40625H30.626V12.625H36.9102V13.9434H30.626V18.3379H37.3496V19.6562H29V7.08789H37.2178Z" stroke="#0FC391" stroke-width="0.3" stroke-linejoin="round"/>
<path d="M42.2236 19.6562H40.5361L45.8711 7.08789H47.6729L53.0342 19.6562H51.2324L49.6064 15.7012H45.4492L45.8975 14.3828H49.0615L46.7148 8.6875L42.2236 19.6562Z" stroke="#0FC391" stroke-width="0.3" stroke-linejoin="round"/>
<path d="M65.2402 19.2168C64.1562 19.5684 62.9844 19.7441 61.7246 19.7441C57.3301 19.7441 55.1328 17.5615 55.1328 13.1963C55.1328 9.06543 57.3301 7 61.7246 7C62.9844 7 64.1562 7.17578 65.2402 7.52734V8.93359C64.1562 8.52344 63.043 8.31836 61.9004 8.31836C58.4727 8.31836 56.7588 9.94434 56.7588 13.1963C56.7588 16.6826 58.4727 18.4258 61.9004 18.4258C63.043 18.4258 64.1562 18.2207 65.2402 17.8105V19.2168Z" stroke="#0FC391" stroke-width="0.3" stroke-linejoin="round"/>
<path d="M68.4951 12.7744C68.4951 11.9893 68.832 11.333 69.5059 10.8057C70.1797 10.2783 71.0205 10.0146 72.0283 10.0146C73.0186 10.0146 73.8359 10.2432 74.4805 10.7002C75.125 11.1572 75.4971 11.7754 75.5967 12.5547H74.1025C73.9971 12.168 73.7686 11.8633 73.417 11.6406C73.0479 11.4121 72.582 11.2979 72.0195 11.2979C71.4512 11.2979 70.9766 11.4268 70.5957 11.6846C70.209 11.9541 70.0156 12.2969 70.0156 12.7129C70.0156 13.3281 70.5635 13.7705 71.6592 14.04L73.1182 14.3916C74.0205 14.6084 74.6855 14.9189 75.1133 15.3232C75.5469 15.7393 75.7637 16.2842 75.7637 16.958C75.7637 17.7959 75.4004 18.4844 74.6738 19.0234C73.959 19.5566 73.0566 19.8232 71.9668 19.8232C70.9121 19.8232 70.0479 19.5889 69.374 19.1201C68.7002 18.6514 68.3223 18.0244 68.2402 17.2393H69.7959C70.0713 18.1123 70.8125 18.5488 72.0195 18.5488C72.6582 18.5488 73.1826 18.4111 73.5928 18.1357C74.0029 17.8604 74.208 17.5059 74.208 17.0723C74.208 16.4277 73.707 15.9824 72.7051 15.7363L71.0791 15.3408C70.1826 15.124 69.5293 14.8135 69.1191 14.4092C68.7031 13.999 68.4951 13.4541 68.4951 12.7744Z" fill="#0FC391" stroke="#0FC391" stroke-width="0.3" stroke-linejoin="round"/>
<path d="M15.639 0.784124C15.4677 0.569576 15.2557 0.390971 15.0151 0.258557C14.7746 0.126143 14.5103 0.0425269 14.2373 0.012505C13.9644 -0.0175169 13.6882 0.00664698 13.4247 0.0836097C13.1611 0.160572 12.9153 0.288819 12.7015 0.460993L0.745585 10.4683C0.534535 10.6437 0.360538 10.8593 0.23375 11.1027C0.106962 11.3461 0.0299256 11.6123 0.00713686 11.8857C-0.0156519 12.1592 0.0162643 12.4345 0.101022 12.6954C0.185779 12.9564 0.321678 13.1979 0.500789 13.4058L0.745585 13.6996C0.944324 13.9281 1.19173 14.1091 1.46963 14.2294C1.74752 14.3497 2.04885 14.4063 2.35145 14.3948L15.4628 14.3263C15.5998 14.3263 15.7271 14.4829 15.5705 14.6102L7.24739 21.6016C7.21907 21.6123 7.18865 21.6163 7.15853 21.6133C7.12841 21.6103 7.0994 21.6003 7.07378 21.5842C7.04817 21.568 7.02663 21.5462 7.01088 21.5203C6.99513 21.4945 6.98559 21.4653 6.98301 21.4352L7.10051 16.0986C7.10051 15.609 6.32695 15.4719 6.20945 15.9419L4.25107 23.0019C4.15535 23.3352 4.14006 23.6866 4.20644 24.027C4.27283 24.3674 4.419 24.6873 4.63296 24.9602C4.80842 25.1709 5.02386 25.3447 5.26685 25.4716C5.50984 25.5985 5.77557 25.676 6.04868 25.6997C6.3218 25.7234 6.5969 25.6927 6.8581 25.6095C7.1193 25.5263 7.36143 25.3921 7.57052 25.2148L19.3208 15.3348C19.718 14.9602 19.9589 14.4493 19.9952 13.9045C20.0315 13.3597 19.8606 12.8213 19.5166 12.3973L19.262 12.1035C19.0624 11.8754 18.8151 11.694 18.5376 11.5722C18.2601 11.4503 17.9591 11.391 17.6561 11.3985H4.62317C4.48608 11.3985 4.35878 11.232 4.50566 11.1048L12.9071 4.05461C12.9854 3.99586 13.191 4.05461 13.1715 4.22107L13.054 9.55764C13.054 10.0472 13.8373 10.1843 13.945 9.71431L15.9034 2.65437C16.0029 2.34282 16.0307 2.01285 15.985 1.68903C15.9392 1.36521 15.8209 1.0559 15.639 0.784124Z" fill="#0FC391"/>
</svg>
