<svg width="21" height="21" viewBox="0 0 21 21" fill="none" xmlns="http://www.w3.org/2000/svg">
<path d="M6.95285 11.9103C6.91199 12.438 6.99107 12.9681 7.18419 13.4609C7.59059 14.4112 9.45379 15.1865 8.43466 13.4609C8.15122 12.786 8.04158 12.0508 8.11578 11.3226C8.1658 9.59067 9.9352 5.77051 9.9352 5.77051C9.9352 5.77051 7.18419 9.90954 6.95285 11.9103Z" fill="#0FB8C3"/>
<path d="M10.0038 0.5C8.0252 0.5 6.09109 1.08672 4.44598 2.18595C2.80087 3.28517 1.51867 4.84754 0.761509 6.67549C0.0043486 8.50343 -0.193778 10.5149 0.192219 12.4554C0.578216 14.3959 1.53101 16.1784 2.93006 17.5775C4.32911 18.9765 6.11161 19.9293 8.05215 20.3153C9.99268 20.7013 12.0041 20.5032 13.8321 19.746C15.66 18.9889 17.2223 17.7066 18.3216 16.0615C19.4208 14.4164 20.0075 12.4823 20.0075 10.5038C20.0075 9.19004 19.7488 7.8892 19.246 6.67549C18.7433 5.46178 18.0064 4.35898 17.0775 3.43004C16.1485 2.50111 15.0458 1.76422 13.8321 1.26149C12.6183 0.758754 11.3175 0.5 10.0038 0.5Z" fill="#0FB8C3"/>
<path d="M6.87894 10.7083C6.97608 9.39313 7.59129 7.77215 8.43316 6.27352C8.91885 5.38657 9.24265 4.40786 9.82548 3.5515C9.98737 3.33741 10.0845 3.00098 10.4083 3.00098C10.7321 3.00098 10.6997 3.36799 10.7969 3.58208C11.6711 5.44773 12.6749 7.2828 13.4196 9.20963C14.2291 11.3811 13.5815 13.155 11.4121 14.1643C11.3149 14.2255 11.1854 14.3172 11.0883 14.1949C10.9911 14.0726 11.0235 13.9502 11.0883 13.8279C11.3797 13.3997 11.6711 12.9715 11.9301 12.5127C12.3187 11.8705 12.2539 11.2282 11.8006 10.6165C11.3797 10.0354 10.9264 9.48488 10.4731 8.93436C10.4083 8.84261 10.3112 8.81203 10.214 8.75086C10.1493 8.84261 10.1169 8.93436 10.0521 8.99553C9.82548 9.24021 9.6312 9.51547 9.37217 9.76014C8.23888 11.0141 8.17412 11.9011 9.11313 13.3079C9.17789 13.4303 9.27503 13.522 9.33978 13.6444C9.43692 13.8279 9.69596 14.0114 9.53406 14.1643C9.40455 14.3172 9.11313 14.1337 8.91885 14.0726C7.59129 13.5832 6.84656 12.4822 6.87894 10.7083Z" fill="white"/>
<path d="M10.2152 14.9221C11.2018 14.9221 12.1594 14.9221 13.1461 14.9221C13.5234 14.9221 13.7555 15.2555 13.7555 15.7974C13.7555 16.3809 13.5524 16.7144 13.1461 16.7144C11.2598 16.7561 9.37359 16.7561 7.48734 16.7561C7.05205 16.7561 6.87793 16.3393 6.87793 15.7557C6.87793 15.1305 7.1391 14.8804 7.54537 14.8804C8.41595 14.8804 9.31555 14.8804 10.2152 14.9221C10.2152 14.8804 10.2152 14.8804 10.2152 14.9221Z" fill="white"/>
</svg>
