<svg width="23" height="21" viewBox="0 0 23 21" fill="none" xmlns="http://www.w3.org/2000/svg">
<path d="M19.748 11.6449C19.3828 11.6449 19.0177 11.6449 18.683 11.6449C18.5004 11.6449 18.4396 11.7058 18.4091 11.8884C18.3483 12.1622 18.3179 12.4665 18.257 12.7403C18.2266 12.8925 18.257 12.9838 18.4091 13.075C18.8656 13.3793 19.2611 13.7445 19.535 14.2009C19.6871 14.4139 19.7784 14.6573 19.8088 14.9312C19.8392 15.1441 19.748 15.205 19.5654 15.1441C19.0177 14.992 18.5004 14.779 17.9527 14.566C17.618 14.4443 17.618 14.4443 17.4354 14.7486C17.3137 14.9616 17.1616 15.1746 17.0094 15.3876C16.9182 15.5397 16.9182 15.631 17.0399 15.7527C17.1616 15.8744 17.2833 15.9961 17.405 16.1178C17.8919 16.6047 18.47 16.6047 18.9568 16.1178C19.2611 15.8136 19.535 15.5397 19.9305 15.3267C20.6608 14.992 21.2998 15.1137 21.9084 15.5701C22.1822 15.7831 22.4256 16.0266 22.3952 16.4221C22.3648 16.6047 22.3952 16.7873 22.3952 17.0003C22.3952 17.122 22.3343 17.1828 22.2126 17.0915C21.9084 16.909 21.6954 16.6351 21.4519 16.3917C21.1781 16.1178 20.8434 16.0266 20.4478 16.0874C20.2348 16.1178 20.0827 16.27 19.9305 16.4221C19.748 16.6047 19.5958 16.7873 19.4133 16.9394C18.5917 17.6088 17.5572 17.548 16.7356 16.7568C16.5835 16.6047 16.4617 16.4525 16.3096 16.3308C15.9445 15.9961 15.3968 15.9961 15.0316 16.3004C14.8795 16.4221 14.7578 16.5743 14.6361 16.696C13.6928 17.6392 12.567 17.6392 11.6237 16.6655C11.5324 16.5743 11.4107 16.4525 11.3194 16.3613C10.863 15.9657 10.3153 15.9657 9.85888 16.3917C9.64588 16.6047 9.46331 16.8177 9.21989 17.0003C8.52004 17.548 7.54635 17.548 6.84651 16.9698C6.60309 16.7568 6.39009 16.5134 6.14666 16.3004C5.78153 15.9961 5.23383 15.9961 4.86869 16.3308C4.71655 16.4525 4.59483 16.6047 4.44269 16.7568C3.56028 17.6392 2.46488 17.6392 1.58247 16.7873C1.49118 16.696 1.3999 16.6047 1.33905 16.5134C1.09562 16.27 0.852193 16.0874 0.487057 16.057C0.182778 16.057 0.000209975 15.844 0.0306379 15.5701C0.0610659 15.2963 0.243637 15.1441 0.547917 15.1441C1.00434 15.1441 1.3999 15.3267 1.73461 15.631C1.91717 15.8136 2.09975 15.9961 2.28232 16.1787C2.70831 16.5743 3.22558 16.5743 3.65157 16.2091C3.895 15.9961 4.10799 15.7527 4.35141 15.5397C4.4427 15.4789 4.4427 15.3876 4.38184 15.2963C4.26013 15.1137 4.13842 14.9311 4.0167 14.7182C3.95585 14.6269 3.86457 14.6269 3.77328 14.6269C2.86044 14.8399 1.97803 14.6877 1.12605 14.2617C1.06519 14.2313 1.00434 14.2313 1.00434 14.1705C1.00434 14.1096 1.09562 14.1096 1.15648 14.0792C1.79546 13.8053 2.43445 13.5315 3.07343 13.2576C3.22557 13.1968 3.31686 13.1055 3.256 12.9229C3.16472 12.5578 3.07344 12.1926 3.04301 11.8275C3.01259 11.6449 2.86045 11.6449 2.73873 11.5841C2.00846 11.4015 1.36947 11.0668 0.852197 10.5191C0.760913 10.4278 0.669631 10.3365 0.578347 10.2148C0.547919 10.154 0.45663 10.1235 0.487057 10.0627C0.517485 10.0018 0.608769 10.0322 0.639197 10.0322C1.33904 10.0322 2.00846 10.0322 2.7083 10.0322C2.9213 10.0322 3.04301 9.97139 3.04301 9.72797C3.07344 9.48454 3.1343 9.21069 3.19515 8.96727C3.22558 8.7847 3.19515 8.66299 3.04301 8.57171C2.28232 8.08486 1.76504 7.38501 1.49119 6.5026C1.46076 6.44175 1.43033 6.35046 1.46076 6.32003C1.52161 6.25918 1.58247 6.32003 1.64333 6.35046C2.28231 6.59389 2.9213 6.86774 3.56028 7.11116C3.74285 7.20245 3.86457 7.14159 3.95585 6.95902C4.10799 6.65474 4.29056 6.38089 4.50355 6.10704C4.62526 5.9549 4.62527 5.86362 4.53398 5.71148C4.10799 5.10292 3.92542 4.40307 3.89499 3.6728C3.89499 3.49023 3.92543 3.27724 3.95585 3.06424C3.95585 3.03381 3.95585 2.97296 4.0167 2.97296C4.04713 2.97296 4.07757 3.00339 4.10799 3.03381C4.62527 3.55109 5.14254 4.03794 5.62939 4.55521C5.7511 4.67692 5.87281 4.70735 6.02495 4.58564C6.23795 4.40307 6.48137 4.25093 6.72479 4.09879C6.87693 4.00751 6.90736 3.91623 6.87693 3.73366C6.66394 2.79039 6.81608 1.90798 7.30293 1.08642C7.33336 1.056 7.33335 0.99514 7.39421 1.02557C7.42464 1.02557 7.45507 1.08642 7.45507 1.11685C7.72892 1.72541 8.00277 2.3644 8.24619 2.97296C8.39833 3.30767 8.42876 3.33809 8.7939 3.24681C9.09818 3.15553 9.43288 3.09467 9.76759 3.06424C9.91973 3.03381 9.98059 2.94253 10.011 2.82082C10.1936 1.87755 10.65 1.14728 11.3803 0.569149C11.4107 0.538721 11.4716 0.477865 11.5324 0.508293C11.5933 0.538721 11.5628 0.599577 11.5628 0.660433C11.5628 1.29942 11.5628 1.90798 11.5628 2.54697C11.5628 2.66868 11.5628 2.79039 11.5628 2.9121C11.5628 3.00339 11.6237 3.06424 11.715 3.06424C12.0497 3.1251 12.3844 3.18595 12.7191 3.24681C12.8712 3.27724 12.9321 3.15553 12.993 3.06424C13.4798 2.30354 14.1796 1.8167 15.0316 1.54284C15.0925 1.51242 15.1838 1.45156 15.2446 1.51242C15.3055 1.57327 15.2142 1.63413 15.1838 1.72541C14.9403 2.3644 14.6969 3.00339 14.4231 3.64237C14.3318 3.82494 14.3622 3.94665 14.5752 4.03794C14.8795 4.19008 15.1838 4.40307 15.4576 4.61607C15.5793 4.70735 15.6706 4.70735 15.7923 4.61607C16.4009 4.22051 17.0703 4.00751 17.8006 3.94665C18.0136 3.94665 18.2266 3.97708 18.4091 4.00751C18.4396 4.00751 18.5004 4.00751 18.5004 4.03794C18.5004 4.06837 18.47 4.09879 18.4396 4.12922C17.9527 4.6465 17.4354 5.13334 16.9182 5.62019C16.766 5.77233 16.7356 5.89404 16.8877 6.07661C17.0703 6.28961 17.2224 6.53303 17.3442 6.77645C17.405 6.89817 17.5267 6.92859 17.6484 6.89817C18.5613 6.68517 19.4437 6.83731 20.2957 7.2633C20.3261 7.29373 20.387 7.29373 20.387 7.35459C20.387 7.41544 20.3261 7.41544 20.2652 7.44587C19.5958 7.71972 18.9568 8.024 18.2874 8.29785C18.1353 8.35871 18.0744 8.44999 18.1353 8.63256C18.2266 8.9977 18.3179 9.36283 18.3483 9.7584C18.3787 9.88011 18.4396 9.94096 18.5917 9.97139C19.5045 10.154 20.2652 10.6104 20.8434 11.3711C20.8738 11.4015 20.9347 11.4624 20.9042 11.4928C20.8738 11.5536 20.8129 11.5232 20.7521 11.5232C20.4782 11.6449 20.1131 11.6449 19.748 11.6449ZM4.68612 10.8538C4.68612 11.0668 4.71655 11.2798 4.71655 11.4928C4.95998 13.5923 6.02495 15.1137 7.85063 16.1787C8.42876 16.5134 8.48962 16.483 8.94604 15.9961C9.15903 15.7527 9.40246 15.5397 9.67631 15.3876C10.4674 14.9616 11.3498 15.1137 12.0497 15.844C12.2323 16.0266 12.3844 16.2091 12.5974 16.3613C12.7495 16.4525 12.9017 16.5438 13.1147 16.4525C13.7841 16.2091 14.3622 15.7527 14.8795 15.2963C16.8269 13.501 17.3442 10.5495 16.1575 8.20657C15.1229 6.10704 12.8408 4.67692 10.2849 4.88992C8.73304 5.01163 7.39421 5.65062 6.32923 6.77645C5.23382 7.84143 4.68612 9.24112 4.68612 10.8538Z" fill="#0FB8C3"/>
<path d="M22.395 19.5562C22.395 19.7083 22.4254 19.8909 22.3341 19.9213C22.2124 19.9822 22.1211 19.83 22.0298 19.7387C21.8169 19.5562 21.6343 19.3432 21.4213 19.1606C20.9953 18.765 20.4476 18.765 20.0216 19.1606C19.8086 19.3432 19.626 19.5866 19.413 19.7692C18.6828 20.3777 17.6482 20.3777 16.9484 19.7083C16.7658 19.5562 16.6137 19.3736 16.4615 19.2215C15.9747 18.7346 15.3966 18.7346 14.9097 19.2215C14.788 19.3432 14.6358 19.4953 14.5141 19.617C13.7534 20.3777 12.6276 20.4081 11.806 19.6474C11.6235 19.4649 11.4713 19.2823 11.2888 19.1302C10.9236 18.7955 10.3759 18.765 9.98037 19.0997C9.76738 19.2823 9.58481 19.4953 9.37181 19.7083C8.58068 20.4081 7.5157 20.3777 6.755 19.6474C6.57244 19.4649 6.38987 19.2823 6.17687 19.0997C5.78131 18.765 5.17275 18.7955 4.80762 19.191C4.65548 19.3432 4.53377 19.4649 4.38163 19.617C3.56007 20.4081 2.43423 20.4081 1.61268 19.617C1.46054 19.4649 1.3084 19.3127 1.12583 19.1302C0.943262 18.9476 0.730264 18.8867 0.48684 18.8563C0.18256 18.8563 0 18.6433 0 18.3999C0 18.126 0.21299 17.9435 0.51727 17.9435C1.03455 17.9739 1.46054 18.1869 1.82568 18.552C1.94739 18.6738 2.0691 18.8259 2.22124 18.9476C2.70809 19.404 3.28622 19.404 3.77307 18.9172C3.95563 18.7346 4.1382 18.552 4.32077 18.3695C5.02061 17.7913 6.02474 17.8218 6.69415 18.3999C6.87672 18.552 7.05929 18.765 7.24185 18.9476C7.7287 19.4345 8.30683 19.4345 8.79368 18.9476C8.91539 18.8259 9.0371 18.7042 9.15881 18.5825C10.0108 17.7609 11.1062 17.7609 11.9582 18.5825C12.1103 18.7346 12.2625 18.9172 12.445 19.0693C12.8406 19.4345 13.3883 19.404 13.7839 19.0389C13.9969 18.8563 14.1794 18.6433 14.3924 18.4608C14.9401 17.9739 15.5791 17.8826 16.2485 18.0956C16.6441 18.2173 16.8571 18.552 17.1005 18.8259C17.4352 19.1606 17.8308 19.404 18.3481 19.3127C18.5611 19.2823 18.7132 19.1606 18.8653 19.0389C19.0175 18.8868 19.1696 18.7346 19.3218 18.6129C20.1433 17.8522 21.2083 17.8522 22.0603 18.5825C22.4254 18.8259 22.3341 19.191 22.395 19.5562Z" fill="#0FB8C3"/>
<path d="M9.3413 11.1275C9.21959 11.1275 9.1283 11.1275 9.00659 11.1275C8.85445 11.1579 8.73274 11.1275 8.64146 10.9753C8.55017 10.8232 8.5806 10.6711 8.70231 10.5493C9.1283 10.1234 9.49344 9.63651 9.88901 9.21052C10.528 8.48025 11.1365 7.74998 11.7755 7.0197C11.8972 6.89799 11.9885 6.77628 12.2015 6.86756C12.3841 6.95885 12.3841 7.11099 12.3537 7.29356C12.1711 8.08468 11.9885 8.90624 11.806 9.69737C11.7451 10.0016 11.7755 10.0625 12.0798 10.0625C12.2928 10.0625 12.4754 10.0321 12.6884 10.0321C13.0231 10.0321 13.2057 10.3668 13.0231 10.6711C12.9927 10.7015 12.9622 10.7623 12.9318 10.7928C11.8973 11.7969 11.0757 12.9836 10.0716 14.0181C9.98028 14.1094 9.889 14.2007 9.79772 14.292C9.70643 14.3833 9.61515 14.4137 9.52387 14.3528C9.40215 14.292 9.3413 14.2311 9.3413 14.079C9.3413 14.0181 9.3413 13.9573 9.3413 13.8964C9.55429 13.1053 9.676 12.3142 9.91943 11.5535C10.0107 11.1883 9.98029 11.1275 9.58473 11.1275C9.46301 11.1275 9.40215 11.1275 9.3413 11.1275Z" fill="#0FB8C3"/>
</svg>
