<svg width="21" height="21" viewBox="0 0 21 21" fill="none" xmlns="http://www.w3.org/2000/svg">
<path d="M6.95285 11.9103C6.91199 12.438 6.99107 12.9681 7.18419 13.4609C7.59059 14.4112 9.45379 15.1865 8.43466 13.4609C8.15122 12.786 8.04158 12.0508 8.11578 11.3226C8.1658 9.59067 9.9352 5.77051 9.9352 5.77051C9.9352 5.77051 7.18419 9.90954 6.95285 11.9103Z" fill="#0FB8C3"/>
<path d="M9.63489 16.6436C8.55878 16.5696 7.55513 16.0747 6.84129 15.2661C6.12744 14.4574 5.76084 13.4002 5.82093 12.3232C5.90846 11.229 6.63374 9.50339 7.69664 7.82151C8.50935 6.59426 9.40558 5.42439 10.3789 4.32019C10.3789 8.36546 14.1303 9.90979 13.924 12.8234C13.8961 13.3568 13.7627 13.8795 13.5315 14.361C13.3002 14.8426 12.9758 15.2735 12.5769 15.6288C12.1779 15.9841 11.7125 16.2567 11.2075 16.4309C10.7025 16.6051 10.168 16.6774 9.63489 16.6436ZM10.0038 0.5C8.0252 0.5 6.09109 1.08672 4.44598 2.18595C2.80087 3.28517 1.51867 4.84754 0.761509 6.67549C0.0043486 8.50343 -0.193778 10.5149 0.192219 12.4554C0.578216 14.3959 1.53101 16.1784 2.93006 17.5775C4.32911 18.9765 6.11161 19.9293 8.05215 20.3153C9.99268 20.7013 12.0041 20.5032 13.8321 19.746C15.66 18.9889 17.2223 17.7066 18.3216 16.0615C19.4208 14.4164 20.0075 12.4823 20.0075 10.5038C20.0075 9.19004 19.7488 7.8892 19.246 6.67549C18.7433 5.46178 18.0064 4.35898 17.0775 3.43004C16.1485 2.50111 15.0458 1.76422 13.8321 1.26149C12.6183 0.758754 11.3175 0.5 10.0038 0.5Z" fill="#0FB8C3"/>
</svg>
