<svg width="21" height="21" viewBox="0 0 21 21" fill="none" xmlns="http://www.w3.org/2000/svg">
<path d="M16.3141 10.8998H14.4953C14.4373 10.9069 14.3784 10.9017 14.3226 10.8844C14.2668 10.8671 14.2153 10.8382 14.1715 10.7995C14.1277 10.7608 14.0926 10.7133 14.0686 10.66C14.0446 10.6068 14.0321 10.549 14.0321 10.4906C14.0321 10.4322 14.0446 10.3745 14.0686 10.3212C14.0926 10.268 14.1277 10.2204 14.1715 10.1817C14.2153 10.1431 14.2668 10.1141 14.3226 10.0968C14.3784 10.0796 14.4373 10.0743 14.4953 10.0815H16.3141C16.368 10.0815 16.4213 10.0922 16.471 10.113C16.5207 10.1338 16.5658 10.1643 16.6036 10.2026C16.6414 10.241 16.6711 10.2865 16.6912 10.3365C16.7112 10.3865 16.7211 10.4399 16.7203 10.4937C16.7641 10.7186 16.5828 10.8998 16.3141 10.8998ZM14.764 15.272C14.7289 15.3162 14.6843 15.352 14.6334 15.3765C14.5826 15.4011 14.5268 15.4138 14.4703 15.4138C14.4138 15.4138 14.3581 15.4011 14.3072 15.3765C14.2563 15.352 14.2117 15.3162 14.1765 15.272L12.9265 14.0228C12.8478 13.94 12.8052 13.8293 12.8082 13.7151C12.8111 13.6008 12.8593 13.4925 12.9422 13.4138C13.0251 13.3351 13.1358 13.2926 13.2501 13.2955C13.3644 13.2984 13.4728 13.3466 13.5515 13.4294L14.8015 14.6786C14.8406 14.7176 14.8708 14.7644 14.8903 14.8159C14.9097 14.8675 14.918 14.9226 14.9144 14.9776C14.9109 15.0325 14.8956 15.0861 14.8697 15.1348C14.8437 15.1834 14.8077 15.2259 14.764 15.2595V15.272ZM9.9953 13.7729C9.34527 13.7754 8.70919 13.5849 8.16768 13.2255C7.62617 12.8661 7.20366 12.3541 6.95376 11.7544C6.70387 11.1547 6.63781 10.4944 6.76402 9.85709C6.89023 9.21983 7.20301 8.6344 7.66265 8.17504C8.12229 7.71569 8.70811 7.40311 9.34577 7.27698C9.98343 7.15085 10.6442 7.21684 11.2443 7.46658C11.8443 7.71633 12.3567 8.13857 12.7163 8.67974C13.0759 9.22091 13.2665 9.85663 13.2641 10.5063C13.2674 10.9362 13.1851 11.3625 13.022 11.7603C12.8589 12.1581 12.6183 12.5196 12.3141 12.8236C12.0099 13.1276 11.6482 13.3681 11.2501 13.5311C10.8521 13.6941 10.4255 13.7763 9.9953 13.7729V13.7729ZM10.4016 16.821C10.4035 16.9335 10.3627 17.0425 10.2873 17.126C10.2118 17.2095 10.1075 17.2613 9.9953 17.2708C9.94142 17.2716 9.88795 17.2617 9.83794 17.2417C9.78793 17.2216 9.7424 17.1919 9.70401 17.1541C9.66562 17.1163 9.63513 17.0713 9.61432 17.0216C9.59352 16.9719 9.58281 16.9186 9.58281 16.8648V14.9909C9.57563 14.933 9.58086 14.8741 9.59815 14.8183C9.61544 14.7625 9.64439 14.7111 9.6831 14.6673C9.72181 14.6235 9.7694 14.5885 9.82268 14.5645C9.87597 14.5405 9.93376 14.528 9.99221 14.528C10.0507 14.528 10.1084 14.5405 10.1617 14.5645C10.215 14.5885 10.2626 14.6235 10.3013 14.6673C10.34 14.7111 10.3689 14.7625 10.3862 14.8183C10.4035 14.8741 10.4087 14.933 10.4016 14.9909V16.821ZM7.12657 14.004L5.83282 15.3407C5.79605 15.3886 5.74876 15.4275 5.69457 15.4542C5.64038 15.4809 5.58074 15.4948 5.52032 15.4948C5.45989 15.4948 5.40025 15.4809 5.34606 15.4542C5.29187 15.4275 5.24458 15.3886 5.20782 15.3407C5.12538 15.2577 5.07911 15.1454 5.07911 15.0284C5.07911 14.9114 5.12538 14.7992 5.20782 14.7161L6.45782 13.4669C6.49855 13.4253 6.54717 13.3923 6.60083 13.3698C6.65449 13.3473 6.71211 13.3357 6.77032 13.3357C6.82852 13.3357 6.88614 13.3473 6.9398 13.3698C6.99346 13.3923 7.04208 13.4253 7.08281 13.4669C7.1411 13.5403 7.17635 13.6292 7.18413 13.7226C7.19192 13.816 7.1719 13.9096 7.12657 13.9916V14.004ZM3.22032 10.5063C3.21949 10.4524 3.22938 10.3989 3.24943 10.349C3.26947 10.299 3.29928 10.2535 3.33709 10.2151C3.3749 10.1768 3.41995 10.1463 3.46965 10.1255C3.51935 10.1047 3.57267 10.094 3.62655 10.094H5.50155C5.60141 10.1064 5.69332 10.1548 5.75995 10.2301C5.82659 10.3055 5.86337 10.4026 5.86337 10.5031C5.86337 10.6037 5.82659 10.7008 5.75995 10.7761C5.69332 10.8515 5.60141 10.8999 5.50155 10.9122H3.68281C3.62426 10.9184 3.56506 10.9121 3.50909 10.8939C3.45313 10.8756 3.40164 10.8458 3.35799 10.8063C3.31435 10.7668 3.27952 10.7185 3.2558 10.6647C3.23207 10.6108 3.22 10.5526 3.22032 10.4937V10.5063ZM5.22033 5.73423C5.30745 5.65989 5.41826 5.61904 5.53283 5.61904C5.64739 5.61904 5.7582 5.65989 5.84533 5.73423L7.15781 7.05217C7.23342 7.13866 7.27508 7.24962 7.27508 7.36447C7.27508 7.47932 7.23342 7.59028 7.15781 7.67678C7.11799 7.71951 7.06955 7.7533 7.01568 7.77592C6.9618 7.79853 6.90373 7.80944 6.84531 7.80794C6.78586 7.81034 6.72661 7.79987 6.67159 7.77723C6.61657 7.75459 6.56708 7.72032 6.52656 7.67678L5.20782 6.31511C5.13176 6.23503 5.08937 6.12885 5.08937 6.01844C5.08937 5.90803 5.13176 5.80183 5.20782 5.72175L5.22033 5.73423ZM9.59533 4.14772C9.58815 4.08975 9.59337 4.03094 9.61066 3.97514C9.62795 3.91934 9.65691 3.86784 9.69561 3.82407C9.73432 3.78031 9.78187 3.74526 9.83516 3.72126C9.88844 3.69725 9.94623 3.68485 10.0047 3.68485C10.0631 3.68485 10.1209 3.69725 10.1742 3.72126C10.2275 3.74526 10.2751 3.78031 10.3138 3.82407C10.3525 3.86784 10.3814 3.91934 10.3987 3.97514C10.416 4.03094 10.4213 4.08975 10.4141 4.14772V6.02155C10.4017 6.12135 10.3532 6.2132 10.2779 6.27979C10.2025 6.34639 10.1053 6.38314 10.0047 6.38314C9.90406 6.38314 9.80691 6.34639 9.73151 6.27979C9.65611 6.2132 9.60769 6.12135 9.59533 6.02155V4.14772ZM12.9141 7.00844L14.1641 5.69051C14.2026 5.65195 14.2484 5.62138 14.2988 5.60052C14.3492 5.57965 14.4032 5.56891 14.4578 5.56891C14.5124 5.56891 14.5664 5.57965 14.6168 5.60052C14.6672 5.62138 14.713 5.65195 14.7516 5.69051C14.7901 5.72906 14.8207 5.77482 14.8416 5.82519C14.8625 5.87556 14.8732 5.92955 14.8732 5.98407C14.8732 6.03859 14.8625 6.09258 14.8416 6.14295C14.8207 6.19332 14.7901 6.23909 14.7516 6.27764L13.5016 7.59557C13.4648 7.6435 13.4175 7.68232 13.3633 7.70905C13.3091 7.73577 13.2495 7.74967 13.1891 7.74967C13.1286 7.74967 13.069 7.73577 13.0148 7.70905C12.9606 7.68232 12.9133 7.6435 12.8766 7.59557C12.8336 7.55743 12.7996 7.5102 12.7771 7.45732C12.7547 7.40444 12.7443 7.34723 12.7466 7.28983C12.749 7.23242 12.7642 7.17627 12.791 7.12544C12.8178 7.07461 12.8555 7.03039 12.9016 6.99595L12.9141 7.00844ZM10.0078 0.512512C8.03 0.512512 6.09662 1.09863 4.45212 2.19675C2.80763 3.29488 1.52591 4.85568 0.769035 6.6818C0.0121595 8.50792 -0.185893 10.5173 0.199959 12.4559C0.585811 14.3945 1.53821 16.1752 2.93674 17.5729C4.33526 18.9705 6.11709 19.9224 8.0569 20.308C9.99671 20.6936 12.0074 20.4957 13.8346 19.7393C15.6619 18.9829 17.2237 17.7019 18.3225 16.0585C19.4213 14.415 20.0078 12.4828 20.0078 10.5063C20.0095 9.19175 19.7516 7.88985 19.249 6.67509C18.7464 5.46034 18.009 4.35659 17.0789 3.4271C16.1488 2.49761 15.0444 1.76063 13.8289 1.25835C12.6134 0.756075 11.3106 0.498364 9.9953 0.500008L10.0078 0.512512Z" fill="#0FB8C3"/>
</svg>
