<svg width="21" height="21" viewBox="0 0 21 21" fill="none" xmlns="http://www.w3.org/2000/svg">
<path d="M13.2738 9.59091V9.82225C13.2625 10.1039 13.2011 10.3812 13.0924 10.6413C13.0096 10.8696 12.8869 11.0813 12.7298 11.2665C12.5444 11.5375 12.3912 11.8292 12.2734 12.1356C12.224 12.2507 12.1944 12.3733 12.1859 12.4983V12.4045C12.1859 12.3607 12.1358 12.2232 12.1358 12.1356C12.0954 11.7747 12.1605 11.4098 12.3234 11.0852C12.4109 10.9039 12.4547 10.6788 12.5485 10.4975C12.5861 10.2724 12.6007 10.0441 12.5922 9.81601V9.4471C12.5922 9.35957 12.5485 9.22202 12.5485 9.13449C12.499 8.89248 12.4057 8.66154 12.2734 8.45298C12.1221 8.18183 12.0145 7.88855 11.9545 7.58392C11.8974 7.28528 11.8826 6.98007 11.9108 6.67732C11.9237 6.39591 11.985 6.11883 12.0921 5.85826C12.1789 5.63187 12.3013 5.42079 12.4547 5.23303C12.6438 4.96653 12.7972 4.67646 12.9111 4.3702C12.9639 4.25592 12.9956 4.1331 13.0049 4.00758V4.10136C13.0049 4.15138 13.0487 4.28268 13.0487 4.37646C13.0858 4.73457 13.023 5.09595 12.8673 5.42059C12.7736 5.65193 12.7298 5.83325 12.636 6.04583C12.598 6.27088 12.5833 6.49928 12.5922 6.72735C12.5988 6.97166 12.6303 7.21465 12.686 7.4526C12.736 7.69348 12.827 7.924 12.9549 8.13413C13.1089 8.40403 13.2166 8.69776 13.2738 9.00319C13.3153 9.14943 13.3322 9.30157 13.3238 9.45336L13.2738 9.59091ZM10.9104 8.54676V8.77186C10.9005 9.05366 10.839 9.33127 10.7291 9.59091C10.6446 9.81845 10.522 10.0299 10.3664 10.2161C10.18 10.4843 10.0268 10.774 9.91 11.079C9.86084 11.1963 9.83126 11.3209 9.82246 11.4479V11.3541C9.82246 11.3103 9.77243 11.1728 9.77243 11.079C9.73125 10.7207 9.79422 10.3582 9.95377 10.0348C10.0476 9.85351 10.0913 9.62843 10.1851 9.44086C10.2231 9.21581 10.2378 8.98743 10.2289 8.75936V8.39671C10.2289 8.30918 10.1851 8.17162 10.1851 8.07784C10.1306 7.83736 10.0377 7.60725 9.91 7.39634C9.75505 7.12913 9.64718 6.83729 9.59113 6.53353C9.53405 6.23488 9.51932 5.92968 9.54736 5.62693C9.55723 5.34512 9.61868 5.06752 9.72866 4.80787C9.81307 4.58034 9.93572 4.36889 10.0913 4.18264C10.2777 3.91451 10.431 3.62479 10.5478 3.31981C10.5965 3.2045 10.626 3.08202 10.6353 2.95719V3.04471C10.6353 3.08847 10.6853 3.22603 10.6853 3.31981C10.7224 3.67792 10.6596 4.03932 10.504 4.36396C10.4102 4.58905 10.3664 4.77035 10.2726 4.95792C10.2346 5.18298 10.22 5.41136 10.2289 5.63943C10.2354 5.88374 10.2668 6.12675 10.3226 6.3647C10.3709 6.60609 10.4619 6.83689 10.5915 7.04621C10.7454 7.31388 10.8532 7.60557 10.9104 7.90903C10.9465 8.05833 10.9613 8.21201 10.9541 8.36546L10.9104 8.54676ZM8.50322 9.59091V9.82225C8.48933 10.1035 8.42801 10.3804 8.32188 10.6413C8.23469 10.8688 8.11003 11.0802 7.95302 11.2665C7.76679 11.536 7.6155 11.828 7.50283 12.1356C7.45009 12.2499 7.41835 12.3727 7.40906 12.4983V12.4045C7.40906 12.3607 7.36529 12.2232 7.36529 12.1356C7.32535 11.7754 7.3882 11.4112 7.5466 11.0852C7.63413 10.9039 7.68418 10.6788 7.77171 10.4975C7.81461 10.273 7.83136 10.0443 7.8217 9.81601V9.4471C7.8217 9.35957 7.77171 9.22202 7.77171 9.13449C7.72173 8.89361 7.63076 8.6631 7.50283 8.45298C7.34886 8.18308 7.24112 7.88935 7.18399 7.58392C7.12182 7.28596 7.10494 6.98031 7.13396 6.67732C7.14596 6.39514 7.20952 6.11754 7.32152 5.85826C7.40357 5.62962 7.52645 5.41778 7.68417 5.23303C7.86893 4.96491 8.0201 4.67513 8.13432 4.3702C8.18706 4.25592 8.21884 4.1331 8.22812 4.00758V4.10136C8.22812 4.15138 8.27189 4.28268 8.27189 4.37646C8.31308 4.7347 8.2501 5.09721 8.09055 5.42059C8.00302 5.65193 7.95301 5.83325 7.86547 6.04583C7.82745 6.27088 7.81278 6.49928 7.8217 6.72735C7.82925 6.97123 7.85855 7.21393 7.90924 7.4526C7.95876 7.6946 8.05199 7.92557 8.18435 8.13413C8.3356 8.40528 8.44322 8.69856 8.50322 9.00319C8.53974 9.1503 8.55449 9.30197 8.547 9.45336L8.50322 9.59091ZM10.0038 0.5C7.3506 0.5 4.80614 1.55398 2.93007 3.43004C1.05401 5.30611 1.35468e-05 7.85059 1.35468e-05 10.5038C-0.00384818 12.8329 0.818037 15.0881 2.31965 16.8687C4.29575 16.2492 6.12225 15.2274 7.68417 13.8675C9.23332 14.1396 10.818 14.1396 12.3672 13.8675C13.6176 14.6428 15.4558 16.2309 17.6879 16.8687C19.1872 15.0867 20.0087 12.8325 20.0075 10.5038C20.0075 9.19004 19.7488 7.8892 19.246 6.67549C18.7433 5.46178 18.0064 4.35898 17.0775 3.43004C16.1486 2.50111 15.0458 1.76422 13.8321 1.26149C12.6184 0.758754 11.3175 0.5 10.0038 0.5Z" fill="#0FB8C3"/>
</svg>
