<svg width="18" height="21" viewBox="0 0 18 21" fill="none" xmlns="http://www.w3.org/2000/svg">
<path d="M17.8329 15.8232C17.6837 15.9972 17.5344 15.9972 17.3355 15.8978C15.0225 14.5547 12.7344 13.2366 10.4214 11.9184C10.1229 11.7443 9.94883 12.1423 9.94883 12.3164C10.0483 14.5299 10.1727 16.7434 10.297 18.9569C10.297 19.0812 10.3468 19.1061 10.4711 19.131C10.7696 19.1807 11.068 19.2056 11.3665 19.2802C11.6649 19.3548 11.839 19.5538 11.7893 19.8522C11.7395 20.1755 11.5157 20.3248 11.1924 20.2502C9.52602 19.9268 7.88455 19.8522 6.2182 20.3248C5.91975 20.3994 5.67105 20.275 5.59643 19.9517C5.52182 19.6284 5.69592 19.4294 5.99437 19.3548C6.41717 19.2553 6.83998 19.1558 7.26278 19.0812C7.41201 19.0564 7.46174 19.0066 7.46174 18.8574C7.5861 16.6936 7.71045 14.5299 7.83481 12.3412C7.83481 12.2418 7.85968 12.1423 7.7602 12.0925C7.66071 12.0677 7.63584 12.192 7.5861 12.2418C6.56639 13.6843 5.09902 14.4553 3.50729 15.077C2.48758 15.475 1.44301 15.7485 0.373562 15.9475C0.224338 15.9724 0.0751141 15.9475 0.0253725 15.7983C-0.0492399 15.6242 0.0502464 15.5247 0.199471 15.4501C2.51246 14.1071 4.82544 12.764 7.1633 11.4459C7.28765 11.3713 7.33739 11.2967 7.33739 11.1474C7.28765 10.3764 7.71045 9.7298 8.45658 9.48109C8.53119 9.45622 8.6058 9.45622 8.55606 9.33187C7.56123 7.66553 7.61097 5.84996 7.85968 4.00952C8.0089 2.89033 8.28248 1.82088 8.68041 0.77631C8.73015 0.627086 8.80477 0.477861 9.00374 0.502732C9.2027 0.527603 9.22757 0.701698 9.22757 0.875794C9.22757 3.63645 9.22757 6.39711 9.22757 9.18264C9.22757 9.35674 9.25244 9.43135 9.45141 9.50597C10.0732 9.68006 10.5209 10.277 10.5457 10.9236C10.5457 11.0231 10.5457 11.0977 10.6701 11.0977C12.5105 11.1972 13.9779 12.1174 15.3707 13.2117C16.2909 13.933 17.1116 14.7537 17.8577 15.6491C17.8329 15.6988 17.8329 15.7485 17.8329 15.8232ZM8.38197 18.6087C8.45658 18.7082 8.23274 18.9071 8.48145 18.932C8.73016 18.9817 8.97887 18.932 9.22757 18.9569C9.3768 18.9569 9.40167 18.8823 9.40167 18.7579C9.35193 18.0367 9.32706 17.3154 9.27732 16.619C9.20271 15.3257 9.12809 14.0325 9.05348 12.7392C9.05348 12.6148 9.00374 12.5651 8.87938 12.5651C8.7799 12.5651 8.73016 12.6148 8.70529 12.7143C8.6058 14.6791 8.48145 16.6439 8.38197 18.6087ZM8.92912 10.277C8.50632 10.3267 8.23274 10.5257 8.23274 10.9733C8.23274 11.3961 8.48145 11.6697 8.90426 11.6697C9.35193 11.6697 9.60064 11.421 9.60064 10.9982C9.60064 10.5505 9.35192 10.3267 8.92912 10.277Z" fill="#0FB8C3"/>
<path d="M2.93555 10.5011C2.93555 8.11346 4.47753 5.97457 6.59155 5.22845C6.76565 5.17871 6.91487 5.17871 6.98949 5.3528C7.0641 5.55177 6.93975 5.65125 6.76565 5.70099C4.70137 6.49686 3.40809 8.3373 3.43296 10.4264C3.43296 10.6005 3.45783 10.7746 3.4827 10.9487C3.50757 11.098 3.43296 11.2223 3.28374 11.2472C3.13451 11.2721 3.01015 11.1974 2.98528 11.0482C2.96041 10.8244 2.96042 10.5757 2.93555 10.5011Z" fill="#0FB8C3"/>
<path d="M14.5746 10.4014C14.5498 10.5506 14.5498 10.7745 14.5249 10.9983C14.5 11.1724 14.4254 11.2719 14.2513 11.247C14.0772 11.2221 14.0026 11.0978 14.0275 10.9237C14.2016 9.38169 13.7539 8.06353 12.6845 6.94435C12.1373 6.37232 11.4658 5.94951 10.7445 5.65106C10.5704 5.57645 10.471 5.47697 10.5456 5.30287C10.6202 5.12878 10.7694 5.12878 10.9186 5.17852C13.0078 5.94952 14.5746 8.13815 14.5746 10.4014Z" fill="#0FB8C3"/>
<path d="M4.27832 10.2523C4.40267 8.58599 5.27315 7.41706 6.79027 6.69581C6.9395 6.6212 7.11359 6.59633 7.1882 6.79529C7.26281 6.99426 7.13846 7.06887 6.98924 7.14348C5.64621 7.79012 4.87522 8.8347 4.80061 10.3518C4.80061 10.501 4.70113 10.6254 4.5519 10.6005C4.35293 10.6005 4.27832 10.4513 4.27832 10.2523Z" fill="#0FB8C3"/>
<path d="M13.2067 10.3268C13.2067 10.476 13.157 10.6003 12.9829 10.6252C12.8088 10.6501 12.7093 10.5257 12.7093 10.3765C12.6347 8.80963 11.8388 7.76505 10.4461 7.11841C10.3217 7.0438 10.272 6.91945 10.3466 6.77022C10.4212 6.621 10.5455 6.621 10.6948 6.67074C12.0875 7.2179 13.1819 8.78476 13.2067 10.3268Z" fill="#0FB8C3"/>
</svg>
