<svg width="24" height="26" viewBox="0 0 24 26" fill="none" xmlns="http://www.w3.org/2000/svg">
<path d="M14.6433 13.2029L23.6166 3.72247C23.8634 3.4615 23.9996 3.11332 24 2.74206C24 2.37059 23.8638 2.022 23.6166 1.76144L22.8302 0.930895C22.583 0.6693 22.2535 0.526031 21.9017 0.526031C21.5504 0.526031 21.2209 0.6693 20.9737 0.930895L12.0004 10.4108L3.02673 0.930895C2.7799 0.6693 2.45015 0.526031 2.09854 0.526031C1.74732 0.526031 1.41756 0.6693 1.17073 0.930895L0.384 1.76144C-0.128 2.30236 -0.128 3.18217 0.384 3.72247L9.35746 13.2029L0.384 22.683C0.136976 22.9444 0.00097561 23.2926 0.00097561 23.6638C0.00097561 24.0351 0.136976 24.3833 0.384 24.6445L1.17054 25.475C1.41737 25.7364 1.74732 25.8799 2.09834 25.8799C2.44995 25.8799 2.77971 25.7364 3.02654 25.475L12.0002 15.9949L20.9735 25.475C21.2207 25.7364 21.5502 25.8799 21.9015 25.8799H21.9019C22.2533 25.8799 22.5828 25.7364 22.83 25.475L23.6164 24.6445C23.8632 24.3835 23.9994 24.0351 23.9994 23.6638C23.9994 23.2926 23.8632 22.9444 23.6164 22.6832L14.6433 13.2029Z" fill="#676767" fill-opacity="0.6"/>
</svg>
