<svg width="22" height="22" viewBox="0 0 22 22" fill="none" xmlns="http://www.w3.org/2000/svg">
<path fill-rule="evenodd" clip-rule="evenodd" d="M10.9998 21.0833C5.43097 21.0833 0.916504 16.5688 0.916504 11C0.916504 5.43109 5.43097 0.916626 10.9998 0.916626C16.5687 0.916626 21.0832 5.43109 21.0832 11C21.0832 16.5688 16.5687 21.0833 10.9998 21.0833ZM10.9998 19.25C15.5562 19.25 19.2498 15.5563 19.2498 11C19.2498 6.44361 15.5562 2.74996 10.9998 2.74996C6.44349 2.74996 2.74984 6.44361 2.74984 11C2.74984 15.5563 6.44349 19.25 10.9998 19.25ZM15.3147 9.81481L14.0183 8.51845L10.9998 11.5369L7.98135 8.51845L6.68499 9.81481L10.9998 14.1297L15.3147 9.81481Z" fill="#0FC391"/>
</svg>
