<svg width="139" height="118" viewBox="0 0 139 118" fill="none" xmlns="http://www.w3.org/2000/svg">
<mask id="path-1-outside-1_398_524" maskUnits="userSpaceOnUse" x="0" y="0" width="139" height="118" fill="black">
<rect fill="white" width="139" height="118"/>
<path d="M115.228 54.9873C115.228 57.9664 115.265 60.9498 115.21 63.9289C115.185 64.5817 115.291 65.233 115.521 65.8443C115.751 66.4557 116.102 67.0148 116.551 67.4886C120.065 71.434 122.527 75.9579 123.595 81.1729C123.746 81.9182 124.067 82.5378 124.808 82.7047C126.108 82.9993 126.379 83.9136 126.372 85.0381C126.372 86.7714 126.359 88.5047 126.333 90.2379C126.32 91.3754 126.021 92.2919 124.682 92.4782C123.948 92.5801 123.694 93.1434 123.582 93.8107C123.478 94.4238 123.333 95.0327 123.211 95.6436C123.107 96.1723 122.763 96.8006 123.337 97.1798C123.626 97.3864 123.977 97.4881 124.331 97.468C124.686 97.4479 125.023 97.3072 125.287 97.0693C126.756 95.6176 128.536 96.2438 130.211 96.2026C130.421 96.1796 130.631 96.2369 130.8 96.3629C132.053 97.7409 133.706 97.4159 135.272 97.4463C137.805 97.5004 138.099 97.7864 138.132 100.367C138.153 102.239 138.186 104.113 138.132 105.983C138.078 107.852 137.629 108.279 135.749 108.323C134.015 108.366 132.432 108.453 130.807 109.464C129.34 110.377 127.377 110.021 125.841 109.116C125.02 108.619 124.072 108.373 123.114 108.407C121.597 108.42 120.063 108.407 118.542 108.303C117.681 108.227 116.812 108.331 115.992 108.606C115.172 108.882 114.418 109.324 113.776 109.904C110.723 112.543 107.113 114.458 103.217 115.507C99.1611 116.623 95.0404 117.063 90.8894 116.402C81.5735 114.924 74.448 110.162 69.7835 101.886C69.2528 100.943 68.514 100.445 67.4567 100.415C66.3995 100.384 65.3769 100.367 64.337 100.367C44.4429 100.367 24.5474 100.367 4.65039 100.367C3.82001 100.372 2.99013 100.325 2.16544 100.228C1.65848 100.165 1.25768 99.8663 1.29884 99.2532C1.29626 99.0402 1.37588 98.8344 1.52115 98.6787C1.66642 98.5229 1.86614 98.4291 2.07877 98.4169C4.19543 98.3605 4.2041 96.9284 4.1976 95.3836C4.17593 90.2553 4.1586 85.1248 4.22143 80.0007C4.24309 78.3519 3.78812 77.117 2.45357 76.0467C0.601226 74.5561 0.471233 71.0635 2.34091 69.627C3.95927 68.3791 4.27342 66.9339 4.19326 65.1075C4.01344 61.0083 4.26692 56.9199 5.30033 52.9442C6.63055 47.831 9.58782 43.8661 14.2003 41.2012C14.9195 40.7873 15.6345 40.3129 16.4122 40.0615C18.1823 39.4874 18.6914 38.2242 18.6524 36.53C18.6242 35.2842 18.6632 34.034 18.6914 32.7882C18.7174 31.6334 19.2677 30.9726 20.4787 30.9748C20.6174 30.9748 20.756 30.9618 20.8947 30.9531C23.9841 30.7581 24.0079 30.7581 24.0188 27.5819C24.0426 21.3442 24.0794 15.1044 24.0188 8.86456C23.9949 6.11514 25.1497 4.09803 27.3053 2.50558C28.2954 1.77327 29.3895 1.47644 30.5745 1.30961C33.3346 0.921785 36.1099 1.03228 38.8809 1.02578C42.0006 1.02578 45.1203 1.04095 48.24 1.02578C51.0261 1.02578 53.6303 1.43743 55.5498 3.7687C56.1997 4.56601 56.9602 4.52485 57.6751 3.7687C59.3346 2.00292 61.4057 1.20127 63.804 1.14061C69.6232 0.99111 75.4424 0.923946 81.2637 1.12761C87.5075 1.34427 89.8083 5.62766 89.6978 10.8058C89.57 16.7597 90.0272 22.7222 89.5809 28.6673C89.4531 30.4006 89.9925 30.834 91.7734 30.9293C91.912 30.9293 92.0506 30.9293 92.1893 30.9293C94.6179 31.0333 94.8476 31.2824 94.8476 33.7935C94.8476 35.0415 94.8108 36.2895 94.8628 37.5353C94.9299 39.1342 95.3437 39.613 96.9101 39.9185C97.5271 40.0057 98.1506 40.0376 98.7733 40.0139C102.378 40.0139 105.983 39.9922 109.586 40.0139C113.189 40.0355 115.102 41.8533 115.206 45.452C115.297 48.6391 115.223 51.8305 115.223 55.0198L115.228 54.9873ZM38.2395 70.4243C38.2395 78.4596 38.2395 86.4941 38.2395 94.5278C38.2395 95.1518 38.2266 95.778 38.2786 96.3976C38.3999 97.8428 38.7119 98.1439 40.2284 98.2609C40.64 98.2956 41.0582 98.2826 41.4741 98.2826C49.2995 98.2826 57.1255 98.2739 64.9523 98.2566C65.5047 98.2566 66.0594 98.2392 66.6118 98.1916C66.8212 98.1934 67.0234 98.116 67.1781 97.975C67.3327 97.834 67.4284 97.6397 67.4459 97.4311C67.6387 96.1961 66.2652 92.983 65.1516 92.4045C64.8036 92.2515 64.5108 91.9954 64.3128 91.6707C64.1148 91.346 64.0212 90.9685 64.0445 90.5889C64.0445 88.5805 64.025 86.5721 64.0445 84.5636C64.0445 83.9375 64.0814 83.1727 64.7898 82.9907C66.211 82.6245 66.4234 81.4957 66.7765 80.3539C68.2345 75.6177 70.1432 71.1198 73.7439 67.5427C74.7881 66.5028 75.1673 65.1942 75.1673 63.7555C75.1673 57.3835 75.3016 51.0072 75.1066 44.6417C74.9896 40.8112 74.071 37.0218 71.7052 33.9019C67.5738 28.455 62.0644 25.7229 55.1208 26.2992C48.5325 26.8496 43.7034 30.1558 40.5425 35.8908C38.7985 39.0519 38.2829 42.5575 38.2634 46.115C38.1984 54.2181 38.2287 62.3212 38.2287 70.4243H38.2395ZM108.85 84.8994C107.396 84.8994 105.94 84.8994 104.484 84.8994C101.234 84.8886 97.9717 84.9124 94.7176 84.8301C93.8792 84.8106 92.5901 84.7716 92.6508 83.619C92.7114 82.5075 93.9507 82.8628 94.7024 82.8585C99.5532 82.8303 104.404 82.8585 109.255 82.8585C112.58 82.8585 115.906 82.8845 119.221 82.8455C121.355 82.8195 121.653 82.4295 121.17 80.3106C120.71 78.3549 119.981 76.4723 119.004 74.7164C117.054 71.1588 114.567 68.0346 111.179 65.699C108.728 64.009 106.349 62.1739 103.067 62.9279C102.791 62.9572 102.513 62.9572 102.237 62.9279C96.5548 62.9279 90.8743 62.9647 85.1916 62.9279C84.0149 62.8932 82.8524 63.1937 81.84 63.7945C75.425 67.6078 71.0336 72.9918 68.9971 80.2217C68.4035 82.3363 68.7436 82.7957 71.0098 82.8628C71.9782 82.8932 72.9596 82.8628 73.9194 82.891C74.4177 82.9062 74.929 83.0231 75.0026 83.6341C75.0871 84.3491 74.5693 84.6221 73.993 84.7174C73.3106 84.8262 72.6214 84.8863 71.9305 84.8973C70.5461 84.9276 69.1596 84.9254 67.773 84.9233C66.653 84.9233 66.1222 85.4844 66.1287 86.5894C66.1287 86.806 66.1179 87.0054 66.1135 87.2112C66.055 89.731 66.2652 89.9801 68.7349 90.0278C71.0206 90.0603 73.3084 90.0278 75.5941 90.0451C76.3567 90.0451 77.1258 90.0451 77.858 90.2835C78.3238 90.4395 78.8048 90.6323 78.8156 91.2303C78.8264 91.8283 78.365 92.0969 77.8797 92.1662C77.1301 92.2947 76.3718 92.3671 75.6114 92.3829C73.8782 92.4197 72.145 92.3526 70.4118 92.4305C68.8238 92.4999 68.5183 93.0372 68.9321 94.5972C70.5028 100.508 73.8262 105.283 78.612 108.979C82.3836 111.947 86.9179 113.787 91.6911 114.287C95.8218 114.734 100 114.304 103.953 113.024C107.693 111.856 110.767 109.679 113.633 107.15C117.256 103.95 119.563 99.8728 121.056 95.3316C121.805 93.0545 121.303 92.4327 118.935 92.4132C116.094 92.3916 113.254 92.4132 110.412 92.4132C109.79 92.4149 109.168 92.3641 108.555 92.2616C108.061 92.1727 107.645 91.8781 107.63 91.2974C107.615 90.7168 108.063 90.4784 108.533 90.2964C109.259 90.0061 110.03 90.0538 110.791 90.0516C114.463 90.0516 118.135 90.0516 121.807 90.0386C122.559 90.0386 123.478 90.1665 123.898 89.4146C124.533 88.275 124.414 86.9664 124.052 85.7769C123.705 84.6329 122.579 84.9514 121.725 84.9471C117.431 84.8865 113.135 84.8994 108.839 84.8994H108.85ZM87.371 19.1559C87.371 16.179 87.397 13.2021 87.371 10.2274C87.3191 5.46082 84.9533 3.12738 80.1502 3.07755C77.3836 3.04722 74.6148 3.07755 71.846 3.07755C69.3546 3.07755 66.8631 3.03205 64.3717 3.11872C60.1795 3.26388 58.0196 5.46299 57.8852 9.61854C57.8462 10.8643 57.8506 12.1101 57.8722 13.3559C57.9221 16.1725 57.3024 16.8463 61.2346 17.0868C62.6992 17.1778 63.0263 17.5548 63.0999 19.0368C63.1736 20.5534 63.1476 22.0809 63.1411 23.604C63.1411 24.6158 63.5462 25.2159 64.5146 25.6623C66.3886 26.5289 68.2909 27.3717 69.8594 28.7908C72.6941 31.3526 74.8643 34.5646 76.1833 38.1506C76.5365 39.0887 76.2917 40.458 77.3662 40.8848C78.3888 41.2922 79.1947 40.1114 80.2151 39.9034C81.4825 39.6434 82.0069 38.7507 81.9852 37.4659C81.9635 36.2201 81.9657 34.97 82.0588 33.7307C82.2343 31.3648 82.5701 31.0766 84.9554 30.9444C87.1219 30.8253 87.3385 30.6411 87.3667 28.5113C87.3905 25.3849 87.3667 22.2694 87.371 19.1559ZM40.4645 3.07323V3.09489C37.6243 3.09489 34.7818 3.02773 31.9437 3.11006C28.5294 3.20972 26.4236 5.28966 26.1354 8.68473C26.0877 9.23505 26.0856 9.79188 26.0834 10.3465C26.0618 16.582 26.043 22.8175 26.0271 29.053C26.0271 30.5501 26.2156 30.7603 27.6108 30.9033C31.2006 31.2694 31.2007 31.2694 31.1747 34.9808C31.1747 35.0502 31.1747 35.1195 31.1747 35.1975C31.1443 39.0562 31.1443 39.0562 34.6584 40.7115C36.0189 41.3615 36.307 41.2402 36.7815 39.8449C36.9136 39.4505 36.9981 39.0389 37.1173 38.6446C38.8072 33.4296 41.7428 29.066 46.769 26.7282C49.7436 25.3394 50.5278 23.461 50.3242 20.4451C50.1075 17.3555 50.3112 17.3425 53.4353 17.0565C54.8738 16.9265 55.2204 16.6925 55.2508 15.3362C55.3049 12.9139 55.3006 10.4852 55.1836 8.06508C55.0883 6.08914 53.8967 4.75668 52.1895 3.8792C51.0669 3.32164 49.8245 3.04859 48.5715 3.08406C45.8678 3.08406 43.1661 3.07106 40.4645 3.07106V3.07323ZM21.2023 67.9956C25.2926 67.9956 29.383 67.9956 33.4711 67.9956C35.8889 67.9956 36.0709 67.8179 36.0817 65.3957C36.1034 59.2945 35.9474 53.189 36.1641 47.0943C36.2594 44.4424 35.0461 43.2443 32.949 42.1783C31.0382 41.2098 28.9887 41.017 26.989 40.51C25.6462 40.1529 24.2422 40.0893 22.8727 40.3237C19.9133 40.8372 17.1185 41.7796 14.5924 43.4804C11.0697 45.8637 8.74288 49.0616 7.36066 53.0655C5.95028 57.182 6.22542 61.4113 6.27742 65.6318C6.29908 67.7638 6.53957 67.9869 8.72555 68.0021C12.8765 68.0151 17.0362 67.9956 21.2023 67.9956ZM21.3128 98.2826V98.2544C25.5396 98.2544 29.7621 98.2782 33.9911 98.2544C35.7893 98.2414 36.0644 97.9749 36.0731 96.2048C36.1063 90.5933 36.1063 84.981 36.0731 79.3681C36.0731 77.5156 35.7438 77.2166 33.8394 77.2123C25.5273 77.1878 17.2138 77.1878 8.89886 77.2123C6.70421 77.2123 6.32508 77.5872 6.29908 79.7473C6.24492 83.697 6.25792 87.6467 6.25359 91.5942C6.25359 93.1109 6.23625 94.6448 6.30341 96.1658C6.38141 97.9121 6.63923 98.1374 8.43092 98.2522C9.11986 98.2977 9.81529 98.2934 10.5086 98.2934C14.1035 98.2891 17.7027 98.2854 21.3063 98.2826H21.3128ZM77.2839 53.761C77.2839 54.177 77.2839 54.5929 77.2839 55.0068C77.2969 57.4334 77.2557 59.86 77.3467 62.2822C77.3944 63.5432 77.8645 63.7533 78.9348 63.125C80.005 62.4967 81.0016 61.7233 82.1845 61.2813C83.8354 60.6616 84.5677 59.4917 84.3813 57.7345C84.3445 57.3922 84.3813 57.0412 84.3813 56.6946C84.325 54.7836 84.0997 52.7817 86.9703 52.7708C87.4036 52.7708 87.6679 52.3375 87.6592 51.8739C87.6602 51.6638 87.5875 51.46 87.4537 51.2981C87.3198 51.1361 87.1335 51.0263 86.927 50.9877C86.5283 50.8707 86.1102 50.8144 85.7245 50.667C85.52 50.6123 85.3419 50.486 85.2226 50.3111C85.1033 50.1361 85.0508 49.9242 85.0746 49.7138C85.1244 49.2414 85.4667 48.9879 85.8957 48.8948C86.303 48.8141 86.7158 48.7649 87.1306 48.7474C88.8638 48.6391 90.5912 48.5373 92.3128 48.442C93.9918 48.3466 94.2778 48.1105 94.3255 46.5072C94.3623 45.192 94.2973 43.8726 94.7414 42.6073C94.9581 41.9811 94.7588 41.5002 94.1132 41.3073C91.6672 40.5403 89.2234 39.7322 86.602 40.3735C85.9325 40.5382 85.2739 40.7917 84.5937 40.8718C82.6871 41.0885 81.0276 41.9682 79.3529 42.785C77.9252 43.4804 77.2168 44.6179 77.2731 46.2949C77.3403 48.7691 77.2774 51.2672 77.2774 53.761H77.2839ZM18.9427 70.0712C15.5673 70.147 10.9939 69.9152 6.42475 70.2033C5.64265 70.2532 4.90821 70.3507 4.25827 70.7667C2.6399 71.785 2.64205 73.5334 4.21058 74.6449C5.257 75.3859 6.42907 75.3512 7.60114 75.3512C16.1226 75.3512 24.6441 75.3512 33.1656 75.3512C33.7181 75.3512 34.2727 75.3274 34.8252 75.2884C35.2585 75.258 35.7156 75.1367 35.8499 74.7056C36.2507 73.4251 36.3135 72.0688 35.8499 70.8382C35.4513 69.8047 34.3074 70.0972 33.4451 70.0928C29.0017 70.0712 24.569 70.0712 18.9427 70.0712ZM101.72 42.3386C101.707 42.5228 101.679 42.6029 101.705 42.6528C101.785 42.8403 101.893 43.0148 102.025 43.1706C106.534 47.5645 109.253 52.7752 108.934 59.2035C108.821 61.4741 110.095 62.4361 111.735 63.32C112.465 63.7144 112.944 63.4695 113.066 62.6527C113.128 62.173 113.155 61.6892 113.146 61.2054C113.146 56.4288 113.146 51.6521 113.146 46.8755C113.17 46.1139 113.093 45.3526 112.916 44.6114C112.407 42.7373 111.833 42.1956 109.883 42.1285C107.879 42.0613 105.871 42.0895 103.862 42.1285C103.139 42.122 102.361 41.9291 101.72 42.3386ZM136.303 102.7C136.3 102.266 136.275 101.832 136.227 101.4C136.039 99.9617 135.682 99.6129 134.256 99.5132C133.498 99.459 132.739 99.4959 131.97 99.4807C131.279 99.4655 130.631 99.3984 129.99 99.0127C128.086 97.8622 127.44 98.2349 127.334 100.447C127.293 101.342 127.438 102.254 127.165 103.131C127.129 103.302 127.036 103.456 126.901 103.568C126.767 103.679 126.599 103.742 126.424 103.747C126.248 103.758 126.074 103.704 125.936 103.595C125.797 103.487 125.703 103.331 125.672 103.157C125.547 102.481 125.512 101.788 125.445 101.101C125.391 100.531 125.265 100.018 124.702 99.7082C123.569 99.1102 121.794 99.5977 121.079 100.737C120.234 102.083 119.396 103.437 118.581 104.802C117.866 106 118.098 106.41 119.502 106.399C121.235 106.386 122.969 106.308 124.702 106.293C125.672 106.282 126.639 106.31 127.388 107.116C127.624 107.383 127.952 107.551 128.306 107.588C128.66 107.625 129.015 107.528 129.301 107.315C130.699 106.284 132.271 106.312 133.851 106.26C136.106 106.184 136.262 106.013 136.303 103.684C136.305 103.469 136.303 103.261 136.303 102.7ZM94.8476 55.0761C93.1902 55.0761 91.5329 55.0761 89.8755 55.0761C86.4091 55.0761 86.3138 55.1866 86.4979 58.7203C86.5846 60.3713 86.6626 60.4406 88.2593 60.6096C91.9792 61.0083 95.7121 60.7786 99.4384 60.8068C103.165 60.8349 103.36 60.5663 103.121 56.9416C103.02 55.3946 102.818 55.1259 101.271 55.0826C99.1307 55.0306 96.9881 55.0761 94.8476 55.0761ZM88.2441 38.3456V38.3066C89.0739 38.3066 89.9058 38.3391 90.7334 38.3066C92.315 38.2329 92.6096 37.9187 92.718 36.296C92.7353 36.0208 92.7331 35.7435 92.718 35.4683C92.6833 33.4512 92.4341 33.1696 90.467 33.1024C89.2234 33.0591 87.9777 33.0591 86.7341 33.0872C84.3011 33.1457 84.0455 33.4295 84.0607 35.9038C84.0607 36.2505 84.0737 36.595 84.0954 36.9416C84.1473 37.8473 84.6153 38.3369 85.5404 38.3434C86.4655 38.3499 87.3472 38.3456 88.2441 38.3456ZM24.8528 38.3304V38.3174H26.2957C26.7764 38.3442 27.2584 38.3406 27.7386 38.3066C28.8825 38.1636 29.0385 37.8733 29.0948 35.9926C29.1598 33.7285 29.0233 33.2562 27.9076 33.1566C25.9204 32.9821 23.9218 32.9821 21.9346 33.1566C21.3258 33.2107 20.9727 33.5899 20.8015 34.1857C19.9739 37.0629 20.9055 38.3499 23.8216 38.3282L24.8528 38.3304ZM56.516 24.2041V24.2193C56.9991 24.2193 57.4822 24.2193 57.9632 24.2193C60.9963 24.2821 61.3169 23.9463 61.0504 20.9477C61.0504 20.8806 61.0396 20.8112 61.0396 20.7419C61.0223 19.7431 60.537 19.2014 59.5231 19.1993C57.6621 19.1993 55.8011 19.1863 53.9401 19.1993C53.4505 19.1993 52.8958 19.2708 52.677 19.7539C52.175 20.9053 52.1262 22.2037 52.5405 23.3895C52.9023 24.5096 54.0115 24.1521 54.8695 24.1955C55.4111 24.2258 55.9636 24.2041 56.516 24.2041ZM101.566 48.7171C102.153 48.6586 102.825 48.8883 103.082 48.247C103.327 47.6598 102.877 47.1897 102.495 46.804C101.784 46.0559 101.028 45.3519 100.231 44.6959C99.3496 43.9939 98.4526 42.6875 97.2546 43.3418C96.0565 43.9961 96.5071 45.5647 96.4551 46.7758C96.4562 46.8484 96.4619 46.9207 96.4724 46.9925C96.5374 47.8873 97.0033 48.3965 97.9132 48.4138C99.1611 48.4268 100.4 48.4593 101.564 48.7171H101.566ZM106.848 57.8168C106.644 56.1984 106.495 54.3503 105.765 52.5953C105.134 51.0787 103.908 50.4612 102.331 50.9964C101.912 51.1394 101.575 51.3604 101.559 51.8457C101.541 52.0542 101.598 52.2622 101.72 52.4326C101.841 52.603 102.019 52.7244 102.222 52.7752C102.556 52.8541 102.895 52.9098 103.236 52.942C105.037 53.2085 105.171 53.3407 105.225 55.1346C105.264 56.4346 105.247 57.754 105.301 59.0605C105.323 59.5523 105.505 60.0701 106.102 60.0983C106.785 60.133 106.785 59.548 106.833 59.0778C106.872 58.7355 106.846 58.3867 106.846 57.8147L106.848 57.8168ZM94.7414 53.8635C95.8507 53.8635 97.4189 53.883 98.526 53.8635C99.1217 53.8483 99.174 52.6712 99.1697 51.9605C99.1697 51.3907 98.7494 51.0787 98.2208 51.0419C95.9387 50.9032 93.6503 50.9032 91.3682 51.0419C91.2451 51.0384 91.1226 51.0605 91.0084 51.1067C90.8942 51.1529 90.7908 51.2223 90.7047 51.3104C90.6186 51.3985 90.5517 51.5035 90.5082 51.6187C90.4647 51.734 90.4454 51.857 90.4518 51.98C90.4518 52.565 90.1263 53.8435 91.0343 53.8635C92.1198 53.8873 93.6344 53.8635 94.7414 53.8635Z"/>
</mask>
<path d="M115.228 54.9873C115.228 57.9664 115.265 60.9498 115.21 63.9289C115.185 64.5817 115.291 65.233 115.521 65.8443C115.751 66.4557 116.102 67.0148 116.551 67.4886C120.065 71.434 122.527 75.9579 123.595 81.1729C123.746 81.9182 124.067 82.5378 124.808 82.7047C126.108 82.9993 126.379 83.9136 126.372 85.0381C126.372 86.7714 126.359 88.5047 126.333 90.2379C126.32 91.3754 126.021 92.2919 124.682 92.4782C123.948 92.5801 123.694 93.1434 123.582 93.8107C123.478 94.4238 123.333 95.0327 123.211 95.6436C123.107 96.1723 122.763 96.8006 123.337 97.1798C123.626 97.3864 123.977 97.4881 124.331 97.468C124.686 97.4479 125.023 97.3072 125.287 97.0693C126.756 95.6176 128.536 96.2438 130.211 96.2026C130.421 96.1796 130.631 96.2369 130.8 96.3629C132.053 97.7409 133.706 97.4159 135.272 97.4463C137.805 97.5004 138.099 97.7864 138.132 100.367C138.153 102.239 138.186 104.113 138.132 105.983C138.078 107.852 137.629 108.279 135.749 108.323C134.015 108.366 132.432 108.453 130.807 109.464C129.34 110.377 127.377 110.021 125.841 109.116C125.02 108.619 124.072 108.373 123.114 108.407C121.597 108.42 120.063 108.407 118.542 108.303C117.681 108.227 116.812 108.331 115.992 108.606C115.172 108.882 114.418 109.324 113.776 109.904C110.723 112.543 107.113 114.458 103.217 115.507C99.1611 116.623 95.0404 117.063 90.8894 116.402C81.5735 114.924 74.448 110.162 69.7835 101.886C69.2528 100.943 68.514 100.445 67.4567 100.415C66.3995 100.384 65.3769 100.367 64.337 100.367C44.4429 100.367 24.5474 100.367 4.65039 100.367C3.82001 100.372 2.99013 100.325 2.16544 100.228C1.65848 100.165 1.25768 99.8663 1.29884 99.2532C1.29626 99.0402 1.37588 98.8344 1.52115 98.6787C1.66642 98.5229 1.86614 98.4291 2.07877 98.4169C4.19543 98.3605 4.2041 96.9284 4.1976 95.3836C4.17593 90.2553 4.1586 85.1248 4.22143 80.0007C4.24309 78.3519 3.78812 77.117 2.45357 76.0467C0.601226 74.5561 0.471233 71.0635 2.34091 69.627C3.95927 68.3791 4.27342 66.9339 4.19326 65.1075C4.01344 61.0083 4.26692 56.9199 5.30033 52.9442C6.63055 47.831 9.58782 43.8661 14.2003 41.2012C14.9195 40.7873 15.6345 40.3129 16.4122 40.0615C18.1823 39.4874 18.6914 38.2242 18.6524 36.53C18.6242 35.2842 18.6632 34.034 18.6914 32.7882C18.7174 31.6334 19.2677 30.9726 20.4787 30.9748C20.6174 30.9748 20.756 30.9618 20.8947 30.9531C23.9841 30.7581 24.0079 30.7581 24.0188 27.5819C24.0426 21.3442 24.0794 15.1044 24.0188 8.86456C23.9949 6.11514 25.1497 4.09803 27.3053 2.50558C28.2954 1.77327 29.3895 1.47644 30.5745 1.30961C33.3346 0.921785 36.1099 1.03228 38.8809 1.02578C42.0006 1.02578 45.1203 1.04095 48.24 1.02578C51.0261 1.02578 53.6303 1.43743 55.5498 3.7687C56.1997 4.56601 56.9602 4.52485 57.6751 3.7687C59.3346 2.00292 61.4057 1.20127 63.804 1.14061C69.6232 0.99111 75.4424 0.923946 81.2637 1.12761C87.5075 1.34427 89.8083 5.62766 89.6978 10.8058C89.57 16.7597 90.0272 22.7222 89.5809 28.6673C89.4531 30.4006 89.9925 30.834 91.7734 30.9293C91.912 30.9293 92.0506 30.9293 92.1893 30.9293C94.6179 31.0333 94.8476 31.2824 94.8476 33.7935C94.8476 35.0415 94.8108 36.2895 94.8628 37.5353C94.9299 39.1342 95.3437 39.613 96.9101 39.9185C97.5271 40.0057 98.1506 40.0376 98.7733 40.0139C102.378 40.0139 105.983 39.9922 109.586 40.0139C113.189 40.0355 115.102 41.8533 115.206 45.452C115.297 48.6391 115.223 51.8305 115.223 55.0198L115.228 54.9873ZM38.2395 70.4243C38.2395 78.4596 38.2395 86.4941 38.2395 94.5278C38.2395 95.1518 38.2266 95.778 38.2786 96.3976C38.3999 97.8428 38.7119 98.1439 40.2284 98.2609C40.64 98.2956 41.0582 98.2826 41.4741 98.2826C49.2995 98.2826 57.1255 98.2739 64.9523 98.2566C65.5047 98.2566 66.0594 98.2392 66.6118 98.1916C66.8212 98.1934 67.0234 98.116 67.1781 97.975C67.3327 97.834 67.4284 97.6397 67.4459 97.4311C67.6387 96.1961 66.2652 92.983 65.1516 92.4045C64.8036 92.2515 64.5108 91.9954 64.3128 91.6707C64.1148 91.346 64.0212 90.9685 64.0445 90.5889C64.0445 88.5805 64.025 86.5721 64.0445 84.5636C64.0445 83.9375 64.0814 83.1727 64.7898 82.9907C66.211 82.6245 66.4234 81.4957 66.7765 80.3539C68.2345 75.6177 70.1432 71.1198 73.7439 67.5427C74.7881 66.5028 75.1673 65.1942 75.1673 63.7555C75.1673 57.3835 75.3016 51.0072 75.1066 44.6417C74.9896 40.8112 74.071 37.0218 71.7052 33.9019C67.5738 28.455 62.0644 25.7229 55.1208 26.2992C48.5325 26.8496 43.7034 30.1558 40.5425 35.8908C38.7985 39.0519 38.2829 42.5575 38.2634 46.115C38.1984 54.2181 38.2287 62.3212 38.2287 70.4243H38.2395ZM108.85 84.8994C107.396 84.8994 105.94 84.8994 104.484 84.8994C101.234 84.8886 97.9717 84.9124 94.7176 84.8301C93.8792 84.8106 92.5901 84.7716 92.6508 83.619C92.7114 82.5075 93.9507 82.8628 94.7024 82.8585C99.5532 82.8303 104.404 82.8585 109.255 82.8585C112.58 82.8585 115.906 82.8845 119.221 82.8455C121.355 82.8195 121.653 82.4295 121.17 80.3106C120.71 78.3549 119.981 76.4723 119.004 74.7164C117.054 71.1588 114.567 68.0346 111.179 65.699C108.728 64.009 106.349 62.1739 103.067 62.9279C102.791 62.9572 102.513 62.9572 102.237 62.9279C96.5548 62.9279 90.8743 62.9647 85.1916 62.9279C84.0149 62.8932 82.8524 63.1937 81.84 63.7945C75.425 67.6078 71.0336 72.9918 68.9971 80.2217C68.4035 82.3363 68.7436 82.7957 71.0098 82.8628C71.9782 82.8932 72.9596 82.8628 73.9194 82.891C74.4177 82.9062 74.929 83.0231 75.0026 83.6341C75.0871 84.3491 74.5693 84.6221 73.993 84.7174C73.3106 84.8262 72.6214 84.8863 71.9305 84.8973C70.5461 84.9276 69.1596 84.9254 67.773 84.9233C66.653 84.9233 66.1222 85.4844 66.1287 86.5894C66.1287 86.806 66.1179 87.0054 66.1135 87.2112C66.055 89.731 66.2652 89.9801 68.7349 90.0278C71.0206 90.0603 73.3084 90.0278 75.5941 90.0451C76.3567 90.0451 77.1258 90.0451 77.858 90.2835C78.3238 90.4395 78.8048 90.6323 78.8156 91.2303C78.8264 91.8283 78.365 92.0969 77.8797 92.1662C77.1301 92.2947 76.3718 92.3671 75.6114 92.3829C73.8782 92.4197 72.145 92.3526 70.4118 92.4305C68.8238 92.4999 68.5183 93.0372 68.9321 94.5972C70.5028 100.508 73.8262 105.283 78.612 108.979C82.3836 111.947 86.9179 113.787 91.6911 114.287C95.8218 114.734 100 114.304 103.953 113.024C107.693 111.856 110.767 109.679 113.633 107.15C117.256 103.95 119.563 99.8728 121.056 95.3316C121.805 93.0545 121.303 92.4327 118.935 92.4132C116.094 92.3916 113.254 92.4132 110.412 92.4132C109.79 92.4149 109.168 92.3641 108.555 92.2616C108.061 92.1727 107.645 91.8781 107.63 91.2974C107.615 90.7168 108.063 90.4784 108.533 90.2964C109.259 90.0061 110.03 90.0538 110.791 90.0516C114.463 90.0516 118.135 90.0516 121.807 90.0386C122.559 90.0386 123.478 90.1665 123.898 89.4146C124.533 88.275 124.414 86.9664 124.052 85.7769C123.705 84.6329 122.579 84.9514 121.725 84.9471C117.431 84.8865 113.135 84.8994 108.839 84.8994H108.85ZM87.371 19.1559C87.371 16.179 87.397 13.2021 87.371 10.2274C87.3191 5.46082 84.9533 3.12738 80.1502 3.07755C77.3836 3.04722 74.6148 3.07755 71.846 3.07755C69.3546 3.07755 66.8631 3.03205 64.3717 3.11872C60.1795 3.26388 58.0196 5.46299 57.8852 9.61854C57.8462 10.8643 57.8506 12.1101 57.8722 13.3559C57.9221 16.1725 57.3024 16.8463 61.2346 17.0868C62.6992 17.1778 63.0263 17.5548 63.0999 19.0368C63.1736 20.5534 63.1476 22.0809 63.1411 23.604C63.1411 24.6158 63.5462 25.2159 64.5146 25.6623C66.3886 26.5289 68.2909 27.3717 69.8594 28.7908C72.6941 31.3526 74.8643 34.5646 76.1833 38.1506C76.5365 39.0887 76.2917 40.458 77.3662 40.8848C78.3888 41.2922 79.1947 40.1114 80.2151 39.9034C81.4825 39.6434 82.0069 38.7507 81.9852 37.4659C81.9635 36.2201 81.9657 34.97 82.0588 33.7307C82.2343 31.3648 82.5701 31.0766 84.9554 30.9444C87.1219 30.8253 87.3385 30.6411 87.3667 28.5113C87.3905 25.3849 87.3667 22.2694 87.371 19.1559ZM40.4645 3.07323V3.09489C37.6243 3.09489 34.7818 3.02773 31.9437 3.11006C28.5294 3.20972 26.4236 5.28966 26.1354 8.68473C26.0877 9.23505 26.0856 9.79188 26.0834 10.3465C26.0618 16.582 26.043 22.8175 26.0271 29.053C26.0271 30.5501 26.2156 30.7603 27.6108 30.9033C31.2006 31.2694 31.2007 31.2694 31.1747 34.9808C31.1747 35.0502 31.1747 35.1195 31.1747 35.1975C31.1443 39.0562 31.1443 39.0562 34.6584 40.7115C36.0189 41.3615 36.307 41.2402 36.7815 39.8449C36.9136 39.4505 36.9981 39.0389 37.1173 38.6446C38.8072 33.4296 41.7428 29.066 46.769 26.7282C49.7436 25.3394 50.5278 23.461 50.3242 20.4451C50.1075 17.3555 50.3112 17.3425 53.4353 17.0565C54.8738 16.9265 55.2204 16.6925 55.2508 15.3362C55.3049 12.9139 55.3006 10.4852 55.1836 8.06508C55.0883 6.08914 53.8967 4.75668 52.1895 3.8792C51.0669 3.32164 49.8245 3.04859 48.5715 3.08406C45.8678 3.08406 43.1661 3.07106 40.4645 3.07106V3.07323ZM21.2023 67.9956C25.2926 67.9956 29.383 67.9956 33.4711 67.9956C35.8889 67.9956 36.0709 67.8179 36.0817 65.3957C36.1034 59.2945 35.9474 53.189 36.1641 47.0943C36.2594 44.4424 35.0461 43.2443 32.949 42.1783C31.0382 41.2098 28.9887 41.017 26.989 40.51C25.6462 40.1529 24.2422 40.0893 22.8727 40.3237C19.9133 40.8372 17.1185 41.7796 14.5924 43.4804C11.0697 45.8637 8.74288 49.0616 7.36066 53.0655C5.95028 57.182 6.22542 61.4113 6.27742 65.6318C6.29908 67.7638 6.53957 67.9869 8.72555 68.0021C12.8765 68.0151 17.0362 67.9956 21.2023 67.9956ZM21.3128 98.2826V98.2544C25.5396 98.2544 29.7621 98.2782 33.9911 98.2544C35.7893 98.2414 36.0644 97.9749 36.0731 96.2048C36.1063 90.5933 36.1063 84.981 36.0731 79.3681C36.0731 77.5156 35.7438 77.2166 33.8394 77.2123C25.5273 77.1878 17.2138 77.1878 8.89886 77.2123C6.70421 77.2123 6.32508 77.5872 6.29908 79.7473C6.24492 83.697 6.25792 87.6467 6.25359 91.5942C6.25359 93.1109 6.23625 94.6448 6.30341 96.1658C6.38141 97.9121 6.63923 98.1374 8.43092 98.2522C9.11986 98.2977 9.81529 98.2934 10.5086 98.2934C14.1035 98.2891 17.7027 98.2854 21.3063 98.2826H21.3128ZM77.2839 53.761C77.2839 54.177 77.2839 54.5929 77.2839 55.0068C77.2969 57.4334 77.2557 59.86 77.3467 62.2822C77.3944 63.5432 77.8645 63.7533 78.9348 63.125C80.005 62.4967 81.0016 61.7233 82.1845 61.2813C83.8354 60.6616 84.5677 59.4917 84.3813 57.7345C84.3445 57.3922 84.3813 57.0412 84.3813 56.6946C84.325 54.7836 84.0997 52.7817 86.9703 52.7708C87.4036 52.7708 87.6679 52.3375 87.6592 51.8739C87.6602 51.6638 87.5875 51.46 87.4537 51.2981C87.3198 51.1361 87.1335 51.0263 86.927 50.9877C86.5283 50.8707 86.1102 50.8144 85.7245 50.667C85.52 50.6123 85.3419 50.486 85.2226 50.3111C85.1033 50.1361 85.0508 49.9242 85.0746 49.7138C85.1244 49.2414 85.4667 48.9879 85.8957 48.8948C86.303 48.8141 86.7158 48.7649 87.1306 48.7474C88.8638 48.6391 90.5912 48.5373 92.3128 48.442C93.9918 48.3466 94.2778 48.1105 94.3255 46.5072C94.3623 45.192 94.2973 43.8726 94.7414 42.6073C94.9581 41.9811 94.7588 41.5002 94.1132 41.3073C91.6672 40.5403 89.2234 39.7322 86.602 40.3735C85.9325 40.5382 85.2739 40.7917 84.5937 40.8718C82.6871 41.0885 81.0276 41.9682 79.3529 42.785C77.9252 43.4804 77.2168 44.6179 77.2731 46.2949C77.3403 48.7691 77.2774 51.2672 77.2774 53.761H77.2839ZM18.9427 70.0712C15.5673 70.147 10.9939 69.9152 6.42475 70.2033C5.64265 70.2532 4.90821 70.3507 4.25827 70.7667C2.6399 71.785 2.64205 73.5334 4.21058 74.6449C5.257 75.3859 6.42907 75.3512 7.60114 75.3512C16.1226 75.3512 24.6441 75.3512 33.1656 75.3512C33.7181 75.3512 34.2727 75.3274 34.8252 75.2884C35.2585 75.258 35.7156 75.1367 35.8499 74.7056C36.2507 73.4251 36.3135 72.0688 35.8499 70.8382C35.4513 69.8047 34.3074 70.0972 33.4451 70.0928C29.0017 70.0712 24.569 70.0712 18.9427 70.0712ZM101.72 42.3386C101.707 42.5228 101.679 42.6029 101.705 42.6528C101.785 42.8403 101.893 43.0148 102.025 43.1706C106.534 47.5645 109.253 52.7752 108.934 59.2035C108.821 61.4741 110.095 62.4361 111.735 63.32C112.465 63.7144 112.944 63.4695 113.066 62.6527C113.128 62.173 113.155 61.6892 113.146 61.2054C113.146 56.4288 113.146 51.6521 113.146 46.8755C113.17 46.1139 113.093 45.3526 112.916 44.6114C112.407 42.7373 111.833 42.1956 109.883 42.1285C107.879 42.0613 105.871 42.0895 103.862 42.1285C103.139 42.122 102.361 41.9291 101.72 42.3386ZM136.303 102.7C136.3 102.266 136.275 101.832 136.227 101.4C136.039 99.9617 135.682 99.6129 134.256 99.5132C133.498 99.459 132.739 99.4959 131.97 99.4807C131.279 99.4655 130.631 99.3984 129.99 99.0127C128.086 97.8622 127.44 98.2349 127.334 100.447C127.293 101.342 127.438 102.254 127.165 103.131C127.129 103.302 127.036 103.456 126.901 103.568C126.767 103.679 126.599 103.742 126.424 103.747C126.248 103.758 126.074 103.704 125.936 103.595C125.797 103.487 125.703 103.331 125.672 103.157C125.547 102.481 125.512 101.788 125.445 101.101C125.391 100.531 125.265 100.018 124.702 99.7082C123.569 99.1102 121.794 99.5977 121.079 100.737C120.234 102.083 119.396 103.437 118.581 104.802C117.866 106 118.098 106.41 119.502 106.399C121.235 106.386 122.969 106.308 124.702 106.293C125.672 106.282 126.639 106.31 127.388 107.116C127.624 107.383 127.952 107.551 128.306 107.588C128.66 107.625 129.015 107.528 129.301 107.315C130.699 106.284 132.271 106.312 133.851 106.26C136.106 106.184 136.262 106.013 136.303 103.684C136.305 103.469 136.303 103.261 136.303 102.7ZM94.8476 55.0761C93.1902 55.0761 91.5329 55.0761 89.8755 55.0761C86.4091 55.0761 86.3138 55.1866 86.4979 58.7203C86.5846 60.3713 86.6626 60.4406 88.2593 60.6096C91.9792 61.0083 95.7121 60.7786 99.4384 60.8068C103.165 60.8349 103.36 60.5663 103.121 56.9416C103.02 55.3946 102.818 55.1259 101.271 55.0826C99.1307 55.0306 96.9881 55.0761 94.8476 55.0761ZM88.2441 38.3456V38.3066C89.0739 38.3066 89.9058 38.3391 90.7334 38.3066C92.315 38.2329 92.6096 37.9187 92.718 36.296C92.7353 36.0208 92.7331 35.7435 92.718 35.4683C92.6833 33.4512 92.4341 33.1696 90.467 33.1024C89.2234 33.0591 87.9777 33.0591 86.7341 33.0872C84.3011 33.1457 84.0455 33.4295 84.0607 35.9038C84.0607 36.2505 84.0737 36.595 84.0954 36.9416C84.1473 37.8473 84.6153 38.3369 85.5404 38.3434C86.4655 38.3499 87.3472 38.3456 88.2441 38.3456ZM24.8528 38.3304V38.3174H26.2957C26.7764 38.3442 27.2584 38.3406 27.7386 38.3066C28.8825 38.1636 29.0385 37.8733 29.0948 35.9926C29.1598 33.7285 29.0233 33.2562 27.9076 33.1566C25.9204 32.9821 23.9218 32.9821 21.9346 33.1566C21.3258 33.2107 20.9727 33.5899 20.8015 34.1857C19.9739 37.0629 20.9055 38.3499 23.8216 38.3282L24.8528 38.3304ZM56.516 24.2041V24.2193C56.9991 24.2193 57.4822 24.2193 57.9632 24.2193C60.9963 24.2821 61.3169 23.9463 61.0504 20.9477C61.0504 20.8806 61.0396 20.8112 61.0396 20.7419C61.0223 19.7431 60.537 19.2014 59.5231 19.1993C57.6621 19.1993 55.8011 19.1863 53.9401 19.1993C53.4505 19.1993 52.8958 19.2708 52.677 19.7539C52.175 20.9053 52.1262 22.2037 52.5405 23.3895C52.9023 24.5096 54.0115 24.1521 54.8695 24.1955C55.4111 24.2258 55.9636 24.2041 56.516 24.2041ZM101.566 48.7171C102.153 48.6586 102.825 48.8883 103.082 48.247C103.327 47.6598 102.877 47.1897 102.495 46.804C101.784 46.0559 101.028 45.3519 100.231 44.6959C99.3496 43.9939 98.4526 42.6875 97.2546 43.3418C96.0565 43.9961 96.5071 45.5647 96.4551 46.7758C96.4562 46.8484 96.4619 46.9207 96.4724 46.9925C96.5374 47.8873 97.0033 48.3965 97.9132 48.4138C99.1611 48.4268 100.4 48.4593 101.564 48.7171H101.566ZM106.848 57.8168C106.644 56.1984 106.495 54.3503 105.765 52.5953C105.134 51.0787 103.908 50.4612 102.331 50.9964C101.912 51.1394 101.575 51.3604 101.559 51.8457C101.541 52.0542 101.598 52.2622 101.72 52.4326C101.841 52.603 102.019 52.7244 102.222 52.7752C102.556 52.8541 102.895 52.9098 103.236 52.942C105.037 53.2085 105.171 53.3407 105.225 55.1346C105.264 56.4346 105.247 57.754 105.301 59.0605C105.323 59.5523 105.505 60.0701 106.102 60.0983C106.785 60.133 106.785 59.548 106.833 59.0778C106.872 58.7355 106.846 58.3867 106.846 57.8147L106.848 57.8168ZM94.7414 53.8635C95.8507 53.8635 97.4189 53.883 98.526 53.8635C99.1217 53.8483 99.174 52.6712 99.1697 51.9605C99.1697 51.3907 98.7494 51.0787 98.2208 51.0419C95.9387 50.9032 93.6503 50.9032 91.3682 51.0419C91.2451 51.0384 91.1226 51.0605 91.0084 51.1067C90.8942 51.1529 90.7908 51.2223 90.7047 51.3104C90.6186 51.3985 90.5517 51.5035 90.5082 51.6187C90.4647 51.734 90.4454 51.857 90.4518 51.98C90.4518 52.565 90.1263 53.8435 91.0343 53.8635C92.1198 53.8873 93.6344 53.8635 94.7414 53.8635Z" fill="#0FB8C3" fill-opacity="0.4"/>
<path d="M115.228 54.9873C115.228 57.9664 115.265 60.9498 115.21 63.9289C115.185 64.5817 115.291 65.233 115.521 65.8443C115.751 66.4557 116.102 67.0148 116.551 67.4886C120.065 71.434 122.527 75.9579 123.595 81.1729C123.746 81.9182 124.067 82.5378 124.808 82.7047C126.108 82.9993 126.379 83.9136 126.372 85.0381C126.372 86.7714 126.359 88.5047 126.333 90.2379C126.32 91.3754 126.021 92.2919 124.682 92.4782C123.948 92.5801 123.694 93.1434 123.582 93.8107C123.478 94.4238 123.333 95.0327 123.211 95.6436C123.107 96.1723 122.763 96.8006 123.337 97.1798C123.626 97.3864 123.977 97.4881 124.331 97.468C124.686 97.4479 125.023 97.3072 125.287 97.0693C126.756 95.6176 128.536 96.2438 130.211 96.2026C130.421 96.1796 130.631 96.2369 130.8 96.3629C132.053 97.7409 133.706 97.4159 135.272 97.4463C137.805 97.5004 138.099 97.7864 138.132 100.367C138.153 102.239 138.186 104.113 138.132 105.983C138.078 107.852 137.629 108.279 135.749 108.323C134.015 108.366 132.432 108.453 130.807 109.464C129.34 110.377 127.377 110.021 125.841 109.116C125.02 108.619 124.072 108.373 123.114 108.407C121.597 108.42 120.063 108.407 118.542 108.303C117.681 108.227 116.812 108.331 115.992 108.606C115.172 108.882 114.418 109.324 113.776 109.904C110.723 112.543 107.113 114.458 103.217 115.507C99.1611 116.623 95.0404 117.063 90.8894 116.402C81.5735 114.924 74.448 110.162 69.7835 101.886C69.2528 100.943 68.514 100.445 67.4567 100.415C66.3995 100.384 65.3769 100.367 64.337 100.367C44.4429 100.367 24.5474 100.367 4.65039 100.367C3.82001 100.372 2.99013 100.325 2.16544 100.228C1.65848 100.165 1.25768 99.8663 1.29884 99.2532C1.29626 99.0402 1.37588 98.8344 1.52115 98.6787C1.66642 98.5229 1.86614 98.4291 2.07877 98.4169C4.19543 98.3605 4.2041 96.9284 4.1976 95.3836C4.17593 90.2553 4.1586 85.1248 4.22143 80.0007C4.24309 78.3519 3.78812 77.117 2.45357 76.0467C0.601226 74.5561 0.471233 71.0635 2.34091 69.627C3.95927 68.3791 4.27342 66.9339 4.19326 65.1075C4.01344 61.0083 4.26692 56.9199 5.30033 52.9442C6.63055 47.831 9.58782 43.8661 14.2003 41.2012C14.9195 40.7873 15.6345 40.3129 16.4122 40.0615C18.1823 39.4874 18.6914 38.2242 18.6524 36.53C18.6242 35.2842 18.6632 34.034 18.6914 32.7882C18.7174 31.6334 19.2677 30.9726 20.4787 30.9748C20.6174 30.9748 20.756 30.9618 20.8947 30.9531C23.9841 30.7581 24.0079 30.7581 24.0188 27.5819C24.0426 21.3442 24.0794 15.1044 24.0188 8.86456C23.9949 6.11514 25.1497 4.09803 27.3053 2.50558C28.2954 1.77327 29.3895 1.47644 30.5745 1.30961C33.3346 0.921785 36.1099 1.03228 38.8809 1.02578C42.0006 1.02578 45.1203 1.04095 48.24 1.02578C51.0261 1.02578 53.6303 1.43743 55.5498 3.7687C56.1997 4.56601 56.9602 4.52485 57.6751 3.7687C59.3346 2.00292 61.4057 1.20127 63.804 1.14061C69.6232 0.99111 75.4424 0.923946 81.2637 1.12761C87.5075 1.34427 89.8083 5.62766 89.6978 10.8058C89.57 16.7597 90.0272 22.7222 89.5809 28.6673C89.4531 30.4006 89.9925 30.834 91.7734 30.9293C91.912 30.9293 92.0506 30.9293 92.1893 30.9293C94.6179 31.0333 94.8476 31.2824 94.8476 33.7935C94.8476 35.0415 94.8108 36.2895 94.8628 37.5353C94.9299 39.1342 95.3437 39.613 96.9101 39.9185C97.5271 40.0057 98.1506 40.0376 98.7733 40.0139C102.378 40.0139 105.983 39.9922 109.586 40.0139C113.189 40.0355 115.102 41.8533 115.206 45.452C115.297 48.6391 115.223 51.8305 115.223 55.0198L115.228 54.9873ZM38.2395 70.4243C38.2395 78.4596 38.2395 86.4941 38.2395 94.5278C38.2395 95.1518 38.2266 95.778 38.2786 96.3976C38.3999 97.8428 38.7119 98.1439 40.2284 98.2609C40.64 98.2956 41.0582 98.2826 41.4741 98.2826C49.2995 98.2826 57.1255 98.2739 64.9523 98.2566C65.5047 98.2566 66.0594 98.2392 66.6118 98.1916C66.8212 98.1934 67.0234 98.116 67.1781 97.975C67.3327 97.834 67.4284 97.6397 67.4459 97.4311C67.6387 96.1961 66.2652 92.983 65.1516 92.4045C64.8036 92.2515 64.5108 91.9954 64.3128 91.6707C64.1148 91.346 64.0212 90.9685 64.0445 90.5889C64.0445 88.5805 64.025 86.5721 64.0445 84.5636C64.0445 83.9375 64.0814 83.1727 64.7898 82.9907C66.211 82.6245 66.4234 81.4957 66.7765 80.3539C68.2345 75.6177 70.1432 71.1198 73.7439 67.5427C74.7881 66.5028 75.1673 65.1942 75.1673 63.7555C75.1673 57.3835 75.3016 51.0072 75.1066 44.6417C74.9896 40.8112 74.071 37.0218 71.7052 33.9019C67.5738 28.455 62.0644 25.7229 55.1208 26.2992C48.5325 26.8496 43.7034 30.1558 40.5425 35.8908C38.7985 39.0519 38.2829 42.5575 38.2634 46.115C38.1984 54.2181 38.2287 62.3212 38.2287 70.4243H38.2395ZM108.85 84.8994C107.396 84.8994 105.94 84.8994 104.484 84.8994C101.234 84.8886 97.9717 84.9124 94.7176 84.8301C93.8792 84.8106 92.5901 84.7716 92.6508 83.619C92.7114 82.5075 93.9507 82.8628 94.7024 82.8585C99.5532 82.8303 104.404 82.8585 109.255 82.8585C112.58 82.8585 115.906 82.8845 119.221 82.8455C121.355 82.8195 121.653 82.4295 121.17 80.3106C120.71 78.3549 119.981 76.4723 119.004 74.7164C117.054 71.1588 114.567 68.0346 111.179 65.699C108.728 64.009 106.349 62.1739 103.067 62.9279C102.791 62.9572 102.513 62.9572 102.237 62.9279C96.5548 62.9279 90.8743 62.9647 85.1916 62.9279C84.0149 62.8932 82.8524 63.1937 81.84 63.7945C75.425 67.6078 71.0336 72.9918 68.9971 80.2217C68.4035 82.3363 68.7436 82.7957 71.0098 82.8628C71.9782 82.8932 72.9596 82.8628 73.9194 82.891C74.4177 82.9062 74.929 83.0231 75.0026 83.6341C75.0871 84.3491 74.5693 84.6221 73.993 84.7174C73.3106 84.8262 72.6214 84.8863 71.9305 84.8973C70.5461 84.9276 69.1596 84.9254 67.773 84.9233C66.653 84.9233 66.1222 85.4844 66.1287 86.5894C66.1287 86.806 66.1179 87.0054 66.1135 87.2112C66.055 89.731 66.2652 89.9801 68.7349 90.0278C71.0206 90.0603 73.3084 90.0278 75.5941 90.0451C76.3567 90.0451 77.1258 90.0451 77.858 90.2835C78.3238 90.4395 78.8048 90.6323 78.8156 91.2303C78.8264 91.8283 78.365 92.0969 77.8797 92.1662C77.1301 92.2947 76.3718 92.3671 75.6114 92.3829C73.8782 92.4197 72.145 92.3526 70.4118 92.4305C68.8238 92.4999 68.5183 93.0372 68.9321 94.5972C70.5028 100.508 73.8262 105.283 78.612 108.979C82.3836 111.947 86.9179 113.787 91.6911 114.287C95.8218 114.734 100 114.304 103.953 113.024C107.693 111.856 110.767 109.679 113.633 107.15C117.256 103.95 119.563 99.8728 121.056 95.3316C121.805 93.0545 121.303 92.4327 118.935 92.4132C116.094 92.3916 113.254 92.4132 110.412 92.4132C109.79 92.4149 109.168 92.3641 108.555 92.2616C108.061 92.1727 107.645 91.8781 107.63 91.2974C107.615 90.7168 108.063 90.4784 108.533 90.2964C109.259 90.0061 110.03 90.0538 110.791 90.0516C114.463 90.0516 118.135 90.0516 121.807 90.0386C122.559 90.0386 123.478 90.1665 123.898 89.4146C124.533 88.275 124.414 86.9664 124.052 85.7769C123.705 84.6329 122.579 84.9514 121.725 84.9471C117.431 84.8865 113.135 84.8994 108.839 84.8994H108.85ZM87.371 19.1559C87.371 16.179 87.397 13.2021 87.371 10.2274C87.3191 5.46082 84.9533 3.12738 80.1502 3.07755C77.3836 3.04722 74.6148 3.07755 71.846 3.07755C69.3546 3.07755 66.8631 3.03205 64.3717 3.11872C60.1795 3.26388 58.0196 5.46299 57.8852 9.61854C57.8462 10.8643 57.8506 12.1101 57.8722 13.3559C57.9221 16.1725 57.3024 16.8463 61.2346 17.0868C62.6992 17.1778 63.0263 17.5548 63.0999 19.0368C63.1736 20.5534 63.1476 22.0809 63.1411 23.604C63.1411 24.6158 63.5462 25.2159 64.5146 25.6623C66.3886 26.5289 68.2909 27.3717 69.8594 28.7908C72.6941 31.3526 74.8643 34.5646 76.1833 38.1506C76.5365 39.0887 76.2917 40.458 77.3662 40.8848C78.3888 41.2922 79.1947 40.1114 80.2151 39.9034C81.4825 39.6434 82.0069 38.7507 81.9852 37.4659C81.9635 36.2201 81.9657 34.97 82.0588 33.7307C82.2343 31.3648 82.5701 31.0766 84.9554 30.9444C87.1219 30.8253 87.3385 30.6411 87.3667 28.5113C87.3905 25.3849 87.3667 22.2694 87.371 19.1559ZM40.4645 3.07323V3.09489C37.6243 3.09489 34.7818 3.02773 31.9437 3.11006C28.5294 3.20972 26.4236 5.28966 26.1354 8.68473C26.0877 9.23505 26.0856 9.79188 26.0834 10.3465C26.0618 16.582 26.043 22.8175 26.0271 29.053C26.0271 30.5501 26.2156 30.7603 27.6108 30.9033C31.2006 31.2694 31.2007 31.2694 31.1747 34.9808C31.1747 35.0502 31.1747 35.1195 31.1747 35.1975C31.1443 39.0562 31.1443 39.0562 34.6584 40.7115C36.0189 41.3615 36.307 41.2402 36.7815 39.8449C36.9136 39.4505 36.9981 39.0389 37.1173 38.6446C38.8072 33.4296 41.7428 29.066 46.769 26.7282C49.7436 25.3394 50.5278 23.461 50.3242 20.4451C50.1075 17.3555 50.3112 17.3425 53.4353 17.0565C54.8738 16.9265 55.2204 16.6925 55.2508 15.3362C55.3049 12.9139 55.3006 10.4852 55.1836 8.06508C55.0883 6.08914 53.8967 4.75668 52.1895 3.8792C51.0669 3.32164 49.8245 3.04859 48.5715 3.08406C45.8678 3.08406 43.1661 3.07106 40.4645 3.07106V3.07323ZM21.2023 67.9956C25.2926 67.9956 29.383 67.9956 33.4711 67.9956C35.8889 67.9956 36.0709 67.8179 36.0817 65.3957C36.1034 59.2945 35.9474 53.189 36.1641 47.0943C36.2594 44.4424 35.0461 43.2443 32.949 42.1783C31.0382 41.2098 28.9887 41.017 26.989 40.51C25.6462 40.1529 24.2422 40.0893 22.8727 40.3237C19.9133 40.8372 17.1185 41.7796 14.5924 43.4804C11.0697 45.8637 8.74288 49.0616 7.36066 53.0655C5.95028 57.182 6.22542 61.4113 6.27742 65.6318C6.29908 67.7638 6.53957 67.9869 8.72555 68.0021C12.8765 68.0151 17.0362 67.9956 21.2023 67.9956ZM21.3128 98.2826V98.2544C25.5396 98.2544 29.7621 98.2782 33.9911 98.2544C35.7893 98.2414 36.0644 97.9749 36.0731 96.2048C36.1063 90.5933 36.1063 84.981 36.0731 79.3681C36.0731 77.5156 35.7438 77.2166 33.8394 77.2123C25.5273 77.1878 17.2138 77.1878 8.89886 77.2123C6.70421 77.2123 6.32508 77.5872 6.29908 79.7473C6.24492 83.697 6.25792 87.6467 6.25359 91.5942C6.25359 93.1109 6.23625 94.6448 6.30341 96.1658C6.38141 97.9121 6.63923 98.1374 8.43092 98.2522C9.11986 98.2977 9.81529 98.2934 10.5086 98.2934C14.1035 98.2891 17.7027 98.2854 21.3063 98.2826H21.3128ZM77.2839 53.761C77.2839 54.177 77.2839 54.5929 77.2839 55.0068C77.2969 57.4334 77.2557 59.86 77.3467 62.2822C77.3944 63.5432 77.8645 63.7533 78.9348 63.125C80.005 62.4967 81.0016 61.7233 82.1845 61.2813C83.8354 60.6616 84.5677 59.4917 84.3813 57.7345C84.3445 57.3922 84.3813 57.0412 84.3813 56.6946C84.325 54.7836 84.0997 52.7817 86.9703 52.7708C87.4036 52.7708 87.6679 52.3375 87.6592 51.8739C87.6602 51.6638 87.5875 51.46 87.4537 51.2981C87.3198 51.1361 87.1335 51.0263 86.927 50.9877C86.5283 50.8707 86.1102 50.8144 85.7245 50.667C85.52 50.6123 85.3419 50.486 85.2226 50.3111C85.1033 50.1361 85.0508 49.9242 85.0746 49.7138C85.1244 49.2414 85.4667 48.9879 85.8957 48.8948C86.303 48.8141 86.7158 48.7649 87.1306 48.7474C88.8638 48.6391 90.5912 48.5373 92.3128 48.442C93.9918 48.3466 94.2778 48.1105 94.3255 46.5072C94.3623 45.192 94.2973 43.8726 94.7414 42.6073C94.9581 41.9811 94.7588 41.5002 94.1132 41.3073C91.6672 40.5403 89.2234 39.7322 86.602 40.3735C85.9325 40.5382 85.2739 40.7917 84.5937 40.8718C82.6871 41.0885 81.0276 41.9682 79.3529 42.785C77.9252 43.4804 77.2168 44.6179 77.2731 46.2949C77.3403 48.7691 77.2774 51.2672 77.2774 53.761H77.2839ZM18.9427 70.0712C15.5673 70.147 10.9939 69.9152 6.42475 70.2033C5.64265 70.2532 4.90821 70.3507 4.25827 70.7667C2.6399 71.785 2.64205 73.5334 4.21058 74.6449C5.257 75.3859 6.42907 75.3512 7.60114 75.3512C16.1226 75.3512 24.6441 75.3512 33.1656 75.3512C33.7181 75.3512 34.2727 75.3274 34.8252 75.2884C35.2585 75.258 35.7156 75.1367 35.8499 74.7056C36.2507 73.4251 36.3135 72.0688 35.8499 70.8382C35.4513 69.8047 34.3074 70.0972 33.4451 70.0928C29.0017 70.0712 24.569 70.0712 18.9427 70.0712ZM101.72 42.3386C101.707 42.5228 101.679 42.6029 101.705 42.6528C101.785 42.8403 101.893 43.0148 102.025 43.1706C106.534 47.5645 109.253 52.7752 108.934 59.2035C108.821 61.4741 110.095 62.4361 111.735 63.32C112.465 63.7144 112.944 63.4695 113.066 62.6527C113.128 62.173 113.155 61.6892 113.146 61.2054C113.146 56.4288 113.146 51.6521 113.146 46.8755C113.17 46.1139 113.093 45.3526 112.916 44.6114C112.407 42.7373 111.833 42.1956 109.883 42.1285C107.879 42.0613 105.871 42.0895 103.862 42.1285C103.139 42.122 102.361 41.9291 101.72 42.3386ZM136.303 102.7C136.3 102.266 136.275 101.832 136.227 101.4C136.039 99.9617 135.682 99.6129 134.256 99.5132C133.498 99.459 132.739 99.4959 131.97 99.4807C131.279 99.4655 130.631 99.3984 129.99 99.0127C128.086 97.8622 127.44 98.2349 127.334 100.447C127.293 101.342 127.438 102.254 127.165 103.131C127.129 103.302 127.036 103.456 126.901 103.568C126.767 103.679 126.599 103.742 126.424 103.747C126.248 103.758 126.074 103.704 125.936 103.595C125.797 103.487 125.703 103.331 125.672 103.157C125.547 102.481 125.512 101.788 125.445 101.101C125.391 100.531 125.265 100.018 124.702 99.7082C123.569 99.1102 121.794 99.5977 121.079 100.737C120.234 102.083 119.396 103.437 118.581 104.802C117.866 106 118.098 106.41 119.502 106.399C121.235 106.386 122.969 106.308 124.702 106.293C125.672 106.282 126.639 106.31 127.388 107.116C127.624 107.383 127.952 107.551 128.306 107.588C128.66 107.625 129.015 107.528 129.301 107.315C130.699 106.284 132.271 106.312 133.851 106.26C136.106 106.184 136.262 106.013 136.303 103.684C136.305 103.469 136.303 103.261 136.303 102.7ZM94.8476 55.0761C93.1902 55.0761 91.5329 55.0761 89.8755 55.0761C86.4091 55.0761 86.3138 55.1866 86.4979 58.7203C86.5846 60.3713 86.6626 60.4406 88.2593 60.6096C91.9792 61.0083 95.7121 60.7786 99.4384 60.8068C103.165 60.8349 103.36 60.5663 103.121 56.9416C103.02 55.3946 102.818 55.1259 101.271 55.0826C99.1307 55.0306 96.9881 55.0761 94.8476 55.0761ZM88.2441 38.3456V38.3066C89.0739 38.3066 89.9058 38.3391 90.7334 38.3066C92.315 38.2329 92.6096 37.9187 92.718 36.296C92.7353 36.0208 92.7331 35.7435 92.718 35.4683C92.6833 33.4512 92.4341 33.1696 90.467 33.1024C89.2234 33.0591 87.9777 33.0591 86.7341 33.0872C84.3011 33.1457 84.0455 33.4295 84.0607 35.9038C84.0607 36.2505 84.0737 36.595 84.0954 36.9416C84.1473 37.8473 84.6153 38.3369 85.5404 38.3434C86.4655 38.3499 87.3472 38.3456 88.2441 38.3456ZM24.8528 38.3304V38.3174H26.2957C26.7764 38.3442 27.2584 38.3406 27.7386 38.3066C28.8825 38.1636 29.0385 37.8733 29.0948 35.9926C29.1598 33.7285 29.0233 33.2562 27.9076 33.1566C25.9204 32.9821 23.9218 32.9821 21.9346 33.1566C21.3258 33.2107 20.9727 33.5899 20.8015 34.1857C19.9739 37.0629 20.9055 38.3499 23.8216 38.3282L24.8528 38.3304ZM56.516 24.2041V24.2193C56.9991 24.2193 57.4822 24.2193 57.9632 24.2193C60.9963 24.2821 61.3169 23.9463 61.0504 20.9477C61.0504 20.8806 61.0396 20.8112 61.0396 20.7419C61.0223 19.7431 60.537 19.2014 59.5231 19.1993C57.6621 19.1993 55.8011 19.1863 53.9401 19.1993C53.4505 19.1993 52.8958 19.2708 52.677 19.7539C52.175 20.9053 52.1262 22.2037 52.5405 23.3895C52.9023 24.5096 54.0115 24.1521 54.8695 24.1955C55.4111 24.2258 55.9636 24.2041 56.516 24.2041ZM101.566 48.7171C102.153 48.6586 102.825 48.8883 103.082 48.247C103.327 47.6598 102.877 47.1897 102.495 46.804C101.784 46.0559 101.028 45.3519 100.231 44.6959C99.3496 43.9939 98.4526 42.6875 97.2546 43.3418C96.0565 43.9961 96.5071 45.5647 96.4551 46.7758C96.4562 46.8484 96.4619 46.9207 96.4724 46.9925C96.5374 47.8873 97.0033 48.3965 97.9132 48.4138C99.1611 48.4268 100.4 48.4593 101.564 48.7171H101.566ZM106.848 57.8168C106.644 56.1984 106.495 54.3503 105.765 52.5953C105.134 51.0787 103.908 50.4612 102.331 50.9964C101.912 51.1394 101.575 51.3604 101.559 51.8457C101.541 52.0542 101.598 52.2622 101.72 52.4326C101.841 52.603 102.019 52.7244 102.222 52.7752C102.556 52.8541 102.895 52.9098 103.236 52.942C105.037 53.2085 105.171 53.3407 105.225 55.1346C105.264 56.4346 105.247 57.754 105.301 59.0605C105.323 59.5523 105.505 60.0701 106.102 60.0983C106.785 60.133 106.785 59.548 106.833 59.0778C106.872 58.7355 106.846 58.3867 106.846 57.8147L106.848 57.8168ZM94.7414 53.8635C95.8507 53.8635 97.4189 53.883 98.526 53.8635C99.1217 53.8483 99.174 52.6712 99.1697 51.9605C99.1697 51.3907 98.7494 51.0787 98.2208 51.0419C95.9387 50.9032 93.6503 50.9032 91.3682 51.0419C91.2451 51.0384 91.1226 51.0605 91.0084 51.1067C90.8942 51.1529 90.7908 51.2223 90.7047 51.3104C90.6186 51.3985 90.5517 51.5035 90.5082 51.6187C90.4647 51.734 90.4454 51.857 90.4518 51.98C90.4518 52.565 90.1263 53.8435 91.0343 53.8635C92.1198 53.8873 93.6344 53.8635 94.7414 53.8635Z" stroke="#0FB8C3" stroke-opacity="0.4" stroke-linejoin="round" mask="url(#path-1-outside-1_398_524)"/>
</svg>
