<svg width="117" height="117" viewBox="0 0 117 117" fill="none" xmlns="http://www.w3.org/2000/svg">
<path d="M4.9793 40.3639C5.4126 43.0852 7.26711 42.5175 8.9873 42.5305C11.9792 42.5478 14.9733 42.5305 17.9652 42.5305C26.9864 42.5305 26.9669 42.5305 26.8478 33.4611C26.8305 32.1048 26.3582 31.5675 24.9803 31.5783C19.1459 31.6195 13.3116 31.6303 7.47943 31.5783C5.96289 31.561 5.25012 32.0701 5.31295 33.7904L4.9793 40.3639ZM2.19538 33.8641C1.82274 28.3977 1.39595 22.6627 6.07772 18.7672C9.0588 16.2886 9.99689 13.654 9.56792 10.1007C9.32745 8.09878 10.2764 7.12597 12.354 7.2603C13.1448 7.31013 14.2345 7.50296 14.4598 6.41532C15.2744 2.4981 17.7702 0.541652 21.5832 0H45.9128C49.2709 0.567651 51.8317 2.14277 52.6874 5.65484C52.9886 6.89197 53.6125 7.42063 54.8279 7.2733C57.1071 6.99598 57.757 8.08144 57.7917 10.2459C57.8242 12.211 56.6846 14.7719 58.5001 16.0741C63.4462 19.6186 65.6495 24.2205 65.2422 30.2047C65.1642 31.3421 65.6755 31.86 66.8541 31.8556C72.3829 31.8318 77.9031 31.8405 83.4428 31.8556C84.3592 31.8556 84.9962 31.587 85.0417 30.5383C85.1088 29.0217 85.9581 28.4107 87.4248 28.4367C89.3941 28.4714 91.3635 28.4367 93.3328 28.4627C94.3684 28.4736 95.1787 28.909 95.183 30.0292C95.183 31.5848 95.9954 31.9466 97.3495 31.8686C101.871 31.613 106.167 32.003 109.224 36.0198C111.9 39.5362 110.981 43.6203 111.163 47.5375C111.195 48.2612 110.946 49.3033 111.921 49.4571C117.14 50.2805 114.042 54.2973 114.72 56.8063C115.273 58.8494 114.016 59.8569 111.939 59.9479C111.67 59.9479 111.215 60.6585 111.213 61.0312C111.172 69.9316 111.172 78.8327 111.213 87.7346C111.213 88.0921 111.646 88.7572 111.88 88.7572C115.201 88.7572 114.543 91.1253 114.837 93.2074C115.511 97.974 112.887 103.174 116.616 107.555V114.832C116.022 116.05 114.985 116.403 113.711 116.403C76.8531 116.403 39.9947 116.403 3.13562 116.403C1.06013 116.403 0.535856 115.363 0.141556 113.428C-0.627545 109.57 1.98739 106.435 2.00039 102.858C2.07188 82.9247 2.0329 63.0028 2.04157 43.0765C2.05023 42.3312 2.19538 33.8706 2.19538 33.8706V33.8641ZM71.5228 56.6416C77.1318 56.6069 82.7387 56.5983 88.3456 56.6416C89.7624 56.6416 90.512 56.3383 90.512 54.6917C90.512 53.0927 89.8339 52.7027 88.3759 52.7092C77.8446 52.7482 67.3112 52.7287 56.7778 52.7287C46.2053 52.7287 35.6351 52.746 25.0648 52.7114C23.6479 52.7114 22.8983 53.019 22.8983 54.6613C22.8983 56.3036 23.5916 56.6438 25.041 56.6394C37.0895 56.6048 49.138 56.6048 61.1865 56.6394L71.5228 56.6416ZM61.167 59.781C50.2176 59.7955 39.2675 59.7955 28.3167 59.781C27.1338 59.781 26.3517 59.9977 26.3538 61.4407C26.3755 75.7244 26.3755 90.0095 26.3538 104.296C26.3538 105.503 26.8478 105.993 28.0567 105.986C32.9443 105.956 37.8319 105.943 42.7194 105.986C44.119 106.001 44.5761 105.423 44.5675 104.084C44.5285 98.5893 44.6 93.0948 44.5306 87.6003C44.5046 85.6027 45.3041 84.7837 47.2864 84.8053C53.6515 84.853 60.0174 84.853 66.3839 84.8053C68.4789 84.788 69.3325 85.7218 69.3195 87.7541C69.2892 93.2096 69.3347 98.6673 69.3022 104.123C69.3022 105.399 69.716 105.997 71.0722 105.986C75.7713 105.943 80.4682 105.951 85.1673 105.986C86.3827 105.986 86.8702 105.486 86.8572 104.283C86.8269 101.25 86.842 103.217 86.8572 95.1834C86.8724 87.1501 86.5 86 88.3976 87.7265C90.5 85.2387 89.9618 87.0505 90.0008 95.1097C90.0224 96.9665 90.2542 98.8644 89.9618 100.674C89.2511 105.059 90.8284 106.697 95.2805 106.042C96.9508 105.795 97.6029 105.442 97.5553 103.705C97.4556 100.021 97.5553 96.3555 97.5141 92.6788C97.4903 90.7288 97.2628 88.7637 100.172 88.7637C100.915 88.7637 100.937 87.9274 100.937 87.3143C100.937 78.6753 100.937 70.0363 100.937 61.3973C100.937 60.496 100.71 59.7897 99.6373 59.7897C97.9929 59.7897 97.4708 58.8602 97.5098 57.3696C97.5488 55.476 97.5314 53.5824 97.5228 51.6866C97.5228 50.3714 98.1727 49.897 99.4466 49.52C102.545 48.5818 100.361 45.9364 100.885 44.1316C101.201 43.0483 100.636 42.3138 99.3015 42.0365C96.485 41.4559 95.7333 43.1198 94.351 45.1326C92.8583 47.3144 85.9018 45.3038 84.9247 42.8078C84.6192 42.0279 83.9411 42.0669 83.302 42.0647C78.9452 42.0647 74.5559 42.3875 70.2403 41.9628C65.9593 41.5425 64.6074 42.9942 65.1382 47.141C65.3678 48.9545 65.7253 49.6413 67.6383 49.611C73.8496 49.507 80.0653 49.572 86.2701 49.572C94.3251 49.572 94.3186 49.572 93.5949 57.6642C93.4845 58.8797 92.9775 59.7355 91.6668 59.742C90.2759 59.742 89.9748 60.4917 89.9791 61.7093C90.0051 69.5524 90.0051 77.3955 89.9791 85.2387C90.0008 88.9349 90.3041 88.0553 88.4366 88.0856C86.5 88.0856 86.842 88.9349 86.842 85.2885C86.8175 77.4093 86.8175 69.5279 86.842 61.6443C86.842 60.275 86.3329 59.755 84.9637 59.7702C80.4935 59.8179 76.0233 59.8179 71.5532 59.7702L61.167 59.781ZM33.7155 3.39941C29.74 3.39941 25.7624 3.41241 21.7869 3.39941C20.4047 3.39941 19.2109 3.78939 18.4483 4.96586C18.1255 5.46418 17.8612 6.20083 17.9955 6.71865C18.0714 7.01981 19.0095 7.2993 19.5294 7.2538C21.8627 7.05664 22.7336 8.12045 22.4823 10.3477C22.1075 13.615 22.6643 16.1976 25.732 18.3945C28.7651 20.5719 29.9264 24.2617 29.9654 28.0727C30.0174 33.5261 30.3012 39.0054 29.8787 44.4263C29.5429 48.7443 30.8254 50.2631 35.1454 49.676C36.9284 49.4333 37.5567 49.0433 37.5285 47.2125C37.4397 40.8124 37.5285 34.4101 37.4852 28.0099C37.4636 24.2703 38.5685 20.7106 41.4932 18.6198C44.8491 16.2366 45.3929 13.3355 45.0072 9.76707C44.8166 7.97312 45.642 7.16713 47.4575 7.2668C48.1616 7.30146 49.1734 7.62645 49.494 6.75114C49.8428 5.80434 49.0997 5.03302 48.4628 4.38304C47.6677 3.57273 46.6191 3.40375 45.5272 3.40591C41.5929 3.40447 37.6556 3.4023 33.7155 3.39941ZM58.5326 109.147C40.9581 109.147 23.3821 109.141 5.80475 109.13C4.36187 109.13 3.54511 109.399 3.56027 111.117C3.57544 112.765 4.33803 113.051 5.74408 113.049C40.8584 113.028 75.9728 113.028 111.087 113.049C112.489 113.049 113.254 112.774 113.275 111.121C113.29 109.407 112.482 109.128 111.033 109.13C93.535 109.159 76.0349 109.164 58.5326 109.147ZM56.9056 105.984H57.8133C66.1478 105.984 66.1478 105.984 66.1478 97.649C66.1478 87.9967 66.1478 87.9967 56.4874 87.9967C47.7132 87.9967 47.7132 87.9967 47.7132 96.7997C47.7132 105.984 47.7132 105.984 56.9056 105.984ZM5.20679 96.9838C5.20679 105.984 5.20679 105.984 14.2497 105.984C23.1929 105.984 23.1929 105.984 23.1929 96.9968C23.1929 88.0098 23.1929 87.9989 14.15 87.9989C5.2068 87.9989 5.20679 87.9989 5.20679 96.9838ZM51.394 31.5978C48.4064 31.5978 45.4167 31.5978 42.4291 31.5978C41.4586 31.5978 40.5031 31.7928 40.7089 32.9758C41.2636 36.1303 39.2921 39.5623 41.764 42.485C41.8312 42.5652 42.0543 42.524 42.1973 42.524H60.5821C61.3988 42.524 61.9318 42.251 62.0466 41.3215C63.2187 31.8578 62.9977 31.5978 53.6558 31.5978H51.394ZM14.1825 70.7246C16.6827 70.7246 19.1828 70.7094 21.6829 70.7246C22.8268 70.7246 23.3793 70.1114 23.1626 69.0888C22.5127 66.0252 24.7225 62.589 21.9385 59.82C21.88 59.7615 21.7219 59.7984 21.6049 59.7984C16.6805 59.7984 11.7561 59.8092 6.82949 59.7854C5.66609 59.7854 5.23928 60.2902 5.19812 61.432C4.87531 70.7267 4.86233 70.7267 14.0677 70.7267C14.1059 70.7303 14.1445 70.7296 14.1825 70.7246ZM14.306 73.8965C4.97498 73.8965 4.99013 73.8965 5.19378 83.0655C5.22195 84.3027 5.64658 84.8552 6.92697 84.8443C11.777 84.8068 16.627 84.8068 21.4771 84.8443C22.6643 84.8443 23.1626 84.3958 23.2103 83.1717C23.4876 73.8965 23.5136 73.8965 14.306 73.8965ZM16.0067 28.4259C19.0766 28.4259 22.1444 28.4129 25.2143 28.4259C26.3733 28.4259 26.8586 27.9926 26.7026 26.7641C26.0527 21.5772 21.5919 17.5452 16.3967 17.4932C10.7053 17.4347 6.22936 21.1461 5.41043 26.5106C5.19378 27.9037 5.57294 28.4606 7.02881 28.4411C10.0207 28.3869 13.0148 28.4302 16.0067 28.4259ZM51.3377 28.4259C54.4011 28.4259 57.4645 28.4259 60.5301 28.4259C61.6285 28.4259 62.1094 27.9644 62.0098 26.8248C61.5765 21.8026 56.8817 17.5517 51.6692 17.5084C46.0082 17.4477 41.2701 21.4082 40.7241 26.6623C40.5963 27.8582 41.0036 28.4519 42.2602 28.4411C45.2867 28.4086 48.3133 28.4259 51.3377 28.4237V28.4259ZM16.0479 45.7024C12.9433 45.7024 9.83658 45.7154 6.73201 45.7024C5.5946 45.7024 5.02481 46.2939 5.2393 47.3209C5.88924 50.3909 3.70108 53.8207 6.44385 56.6026C6.52184 56.6828 6.73632 56.6308 6.87714 56.6308C10.6273 56.6308 14.3775 56.6156 18.1255 56.6308C19.2781 56.6308 19.928 56.1346 19.7374 55.0015C18.9964 50.5968 20.7513 48.8137 25.1753 49.5503C26.6052 49.7886 26.8196 48.7855 26.8261 47.6112C26.8261 46.4001 26.5466 45.6613 25.1276 45.6786C22.1097 45.7349 19.0788 45.7024 16.0479 45.7024ZM111.627 99.0703C111.627 97.4432 111.557 95.8204 111.646 94.1933C111.731 92.6485 111.187 92.0548 109.575 92.0505C100.692 92.0288 100.692 91.9963 100.692 100.975C100.723 101.314 100.723 101.656 100.692 101.995C100.066 105.338 101.477 106.19 104.744 106.062C111.62 105.798 111.629 105.984 111.627 99.0724V99.0703ZM108.006 74.475C108.006 70.1569 107.978 65.8367 108.022 61.5186C108.037 60.132 107.372 59.7854 106.128 59.7854C104.884 59.7854 104.105 60.0194 104.111 61.5186C104.146 70.0796 104.146 78.6406 104.111 87.2016C104.111 88.5861 104.761 88.9479 106.007 88.9349C107.252 88.9219 108.041 88.7052 108.024 87.2016C107.961 82.9681 108.006 78.7172 108.006 74.475ZM108.006 45.0893C108.006 37.0121 106.009 34.9994 98.2702 35.0319C96.9205 35.0319 95.2068 34.4296 95.2111 36.9645C95.2155 39.4994 96.9443 38.9404 98.2767 38.8754C102.456 38.6588 104.475 40.4744 104.126 44.7448C104.04 45.8281 104.126 46.9374 104.126 48.0337C104.111 49.0585 104.547 49.5503 105.61 49.5828C109.969 49.7258 107.031 46.2744 108.006 45.0893ZM51.3247 49.5741C54.3946 49.5741 57.4645 49.5525 60.5344 49.5741C61.9513 49.5871 62.0856 48.7227 62.0878 47.6242C62.09 46.5257 61.9318 45.6742 60.5214 45.6851C54.4206 45.7082 48.3198 45.7082 42.219 45.6851C40.8064 45.6851 40.6635 46.5344 40.6613 47.635C40.6591 48.7357 40.8238 49.585 42.2298 49.572C45.2542 49.5525 48.2873 49.5741 51.3182 49.5741H51.3247ZM75.1365 38.9014C77.8251 38.9014 80.5159 38.8581 83.2045 38.9188C84.5932 38.9491 85.0655 38.3706 85.0677 37.0208C85.0698 35.671 84.7167 34.9842 83.2132 34.9994C77.8692 35.0514 72.5252 35.0514 67.1812 34.9994C65.7947 34.9885 65.1989 35.4327 65.201 36.8973C65.2032 38.3619 65.6582 38.9686 67.1725 38.9231C69.8243 38.8451 72.4761 38.9014 75.13 38.9014H75.1365ZM93 37C92.9935 33.9554 94 31.5 89.6996 31.6C88.4387 31.5783 88.0206 32.3648 88.2416 33.3679C88.9067 36.386 86.2419 41.1092 89.5761 42.1903C94.9089 42.8078 92.9905 39.964 93 37ZM106.202 52.3669C102.5 52.3669 99.7673 50.5599 101.002 55.1835C101.916 58.6002 106.395 55.9115 109.198 56.5745C110.143 56.7911 111.581 57.0078 111.607 55.2333C111.689 50.378 109.198 52.3669 106.195 52.3669H106.202ZM15.9071 14.4079C17.0791 13.8273 19.4753 15.7079 19.3474 12.4732C19.2131 8.99359 16.6458 10.8374 15.1488 10.4864C13.5759 10.1181 12.6703 10.6705 12.6681 12.614C12.6551 15.4912 14.6982 13.966 15.9005 14.4079H15.9071ZM51.4222 14.4079C52.5726 13.9595 54.6568 15.4912 54.6308 12.536C54.6113 10.3694 53.4197 10.2502 51.9356 10.4755C50.4516 10.7009 48.1573 9.30991 48.1313 12.5555C48.101 15.5151 50.1873 13.9573 51.4157 14.4058L51.4222 14.4079Z" fill="#0FB8C3" fill-opacity="0.4"/>
<path d="M34.4852 66.0173H36.8402V63.0173H34.4852V66.0173ZM36.8402 66.0173C37.9057 66.0173 38.7697 66.8812 38.7697 67.9471H41.7697C41.7697 65.2245 39.5628 63.0173 36.8402 63.0173V66.0173ZM38.7697 67.9471V73.2791H41.7697V67.9471H38.7697ZM38.7697 73.2791C38.7697 74.3449 37.9057 75.2088 36.8402 75.2088V78.2088C39.5628 78.2088 41.7697 76.0016 41.7697 73.2791H38.7697ZM36.8402 75.2088H34.4852V78.2088H36.8402V75.2088ZM34.4852 75.2088C33.4196 75.2088 32.5557 74.3449 32.5557 73.2791H29.5557C29.5557 76.0016 31.7626 78.2088 34.4852 78.2088V75.2088ZM32.5557 73.2791V67.9471H29.5557V73.2791H32.5557ZM32.5557 67.9471C32.5557 66.8812 33.4196 66.0173 34.4852 66.0173V63.0173C31.7626 63.0173 29.5557 65.2245 29.5557 67.9471H32.5557ZM49.2455 66.0173H51.6004V63.0173H49.2455V66.0173ZM51.6004 66.0173C52.666 66.0173 53.53 66.8812 53.53 67.9471H56.53C56.53 65.2245 54.323 63.0173 51.6004 63.0173V66.0173ZM53.53 67.9471V73.2791H56.53V67.9471H53.53ZM53.53 73.2791C53.53 74.3449 52.666 75.2088 51.6004 75.2088V78.2088C54.323 78.2088 56.53 76.0016 56.53 73.2791H53.53ZM51.6004 75.2088H49.2455V78.2088H51.6004V75.2088ZM49.2455 75.2088C48.1799 75.2088 47.3159 74.3449 47.3159 73.2791H44.3159C44.3159 76.0016 46.5229 78.2088 49.2455 78.2088V75.2088ZM47.3159 73.2791V67.9471H44.3159V73.2791H47.3159ZM47.3159 67.9471C47.3159 66.8812 48.1799 66.0173 49.2455 66.0173V63.0173C46.5229 63.0173 44.3159 65.2245 44.3159 67.9471H47.3159ZM63.2951 66.0173H65.6501V63.0173H63.2951V66.0173ZM65.6501 66.0173C66.7156 66.0173 67.5796 66.8812 67.5796 67.9471H70.5796C70.5796 65.2245 68.3727 63.0173 65.6501 63.0173V66.0173ZM67.5796 67.9471V73.2791H70.5796V67.9471H67.5796ZM67.5796 73.2791C67.5796 74.3449 66.7156 75.2088 65.6501 75.2088V78.2088C68.3727 78.2088 70.5796 76.0016 70.5796 73.2791H67.5796ZM65.6501 75.2088H63.2951V78.2088H65.6501V75.2088ZM63.2951 75.2088C62.2295 75.2088 61.3656 74.3449 61.3656 73.2791H58.3656C58.3656 76.0016 60.5725 78.2088 63.2951 78.2088V75.2088ZM61.3656 73.2791V67.9471H58.3656V73.2791H61.3656ZM61.3656 67.9471C61.3656 66.8812 62.2295 66.0173 63.2951 66.0173V63.0173C60.5725 63.0173 58.3656 65.2245 58.3656 67.9471H61.3656ZM77.6069 66.0173H79.9619V63.0173H77.6069V66.0173ZM79.9619 66.0173C81.0274 66.0173 81.8914 66.8812 81.8914 67.9471H84.8914C84.8914 65.2245 82.6845 63.0173 79.9619 63.0173V66.0173ZM81.8914 67.9471V73.2791H84.8914V67.9471H81.8914ZM81.8914 73.2791C81.8914 74.3449 81.0274 75.2088 79.9619 75.2088V78.2088C82.6845 78.2088 84.8914 76.0016 84.8914 73.2791H81.8914ZM79.9619 75.2088H77.6069V78.2088H79.9619V75.2088ZM77.6069 75.2088C76.5413 75.2088 75.6774 74.3449 75.6774 73.2791H72.6774C72.6774 76.0016 74.8843 78.2088 77.6069 78.2088V75.2088ZM75.6774 73.2791V67.9471H72.6774V73.2791H75.6774ZM75.6774 67.9471C75.6774 66.8812 76.5413 66.0173 77.6069 66.0173V63.0173C74.8843 63.0173 72.6774 65.2245 72.6774 67.9471H75.6774Z" fill="#0FB8C3" fill-opacity="0.4"/>
</svg>
