<svg width="140" height="108" viewBox="0 0 140 108" fill="none" xmlns="http://www.w3.org/2000/svg">
<mask id="path-1-inside-1_230_534" fill="white">
<path d="M123.974 0C125.511 0.403056 126.28 1.61222 126.472 3.22444C130.892 24.9895 135.312 46.956 139.54 68.721C140.309 72.5501 139.924 76.5806 139.732 80.4097C139.732 82.4249 138.195 82.828 136.273 82.828C117.248 82.828 98.4149 82.828 79.3896 82.828C77.8523 82.828 77.4679 83.231 77.4679 84.8433C77.6601 88.2692 77.4679 91.8967 77.4679 95.3227C77.4679 96.7334 77.8523 97.338 79.3896 97.338C84.7705 97.338 90.1514 97.338 95.5323 97.338C98.4149 97.338 99.9523 98.7487 99.3758 101.57C98.9914 103.384 101.105 107.011 98.0305 107.213C79.3896 107.616 60.7488 107.414 41.9157 107.414C40.7627 107.414 40.3783 107.011 40.3783 105.802C40.1861 97.7411 40.1861 97.7411 47.8731 97.7411C51.9088 97.7411 56.1366 97.7411 60.1722 97.7411C61.9018 97.7411 62.2862 97.1365 62.2862 95.5243C62.094 92.0983 62.094 88.6723 62.2862 85.2463C62.2862 83.6341 61.9018 83.0295 60.3644 83.0295C41.7235 83.0295 23.2748 83.0295 4.63395 83.0295C1.36699 83.0295 0.213924 81.8204 0.0217496 78.3944C-0.362599 63.6828 4.44177 49.9789 6.94003 35.872C8.86177 24.9895 11.1678 14.3085 13.4739 3.42597C13.8583 1.81375 14.4348 0.403056 16.1644 0C51.9088 0 88.0375 0 123.974 0ZM69.9731 72.5501C49.0262 72.5501 28.0792 72.5501 7.13221 72.5501C5.0183 72.5501 5.21047 73.7592 5.21047 75.1699C5.21047 76.7822 5.21047 77.7898 7.13221 77.7898C49.0262 77.7898 90.7279 77.7898 132.622 77.7898C134.544 77.7898 134.544 76.7822 134.544 75.3715C134.544 73.9608 134.928 72.5501 132.622 72.5501C111.675 72.5501 90.9201 72.5501 69.9731 72.5501ZM69.7809 66.9073C75.7383 66.9073 81.8879 66.9073 87.8453 66.9073C88.8062 66.9073 89.3827 66.7058 89.3827 65.4966C88.9984 60.8615 88.614 56.2263 88.4218 51.5912C88.4218 50.5835 88.0375 50.1805 87.0766 50.1805C75.7383 50.1805 64.2079 50.1805 52.8696 50.1805C51.7166 50.1805 51.5244 50.5835 51.5244 51.7927C51.3322 56.2263 50.9479 60.8615 50.5635 65.2951C50.3714 66.5042 50.9479 66.9073 52.1009 66.9073C57.8662 66.9073 63.8236 66.9073 69.7809 66.9073ZM25.3888 66.9073C31.3461 66.9073 37.4957 66.9073 43.4531 66.9073C44.6061 66.9073 45.1827 66.5042 45.1827 65.2951C45.3748 60.6599 45.7592 56.2263 45.9514 51.5912C45.9514 50.382 45.567 50.1805 44.6062 50.1805C33.2679 50.1805 21.9296 50.1805 10.5913 50.1805C9.43828 50.1805 9.05394 50.5835 8.86177 51.7927C8.09307 56.2263 7.13221 60.6599 6.17134 65.0935C5.787 66.5042 6.36349 66.9073 7.70871 66.9073C13.4739 66.9073 19.4314 66.9073 25.3888 66.9073ZM114.173 66.9073C120.131 66.9073 126.28 66.9073 132.238 66.9073C133.006 66.9073 133.967 66.9073 133.583 65.4966C132.622 60.8615 131.661 56.2263 130.7 51.3896C130.508 50.382 129.931 50.1805 129.163 50.1805C117.824 50.1805 106.294 50.1805 94.9558 50.1805C93.9949 50.1805 93.6105 50.5835 93.8027 51.5912C94.1871 56.0248 94.3792 60.4584 94.5714 64.892C94.5714 66.3027 95.1479 66.9073 96.4932 66.9073C102.451 66.9073 108.216 66.9073 114.173 66.9073ZM69.7809 44.7392C75.354 44.7392 80.7349 44.7392 86.3079 44.7392C87.2688 44.7392 87.8453 44.5377 87.8453 43.3285C87.461 38.6934 87.2688 34.0582 86.8845 29.2216C86.8845 28.2139 86.3079 28.0124 85.3471 28.0124C74.9697 28.0124 64.5923 28.0124 54.2149 28.0124C53.254 28.0124 52.6775 28.4154 52.6775 29.4231C52.4853 33.8567 52.1009 38.4918 51.7166 42.9255C51.5244 44.3361 51.9088 44.7392 53.254 44.7392C58.827 44.5377 64.4001 44.7392 69.7809 44.7392ZM28.4635 44.7392C34.0366 44.7392 39.4175 44.7392 44.9905 44.7392C46.1435 44.7392 46.7201 44.3362 46.7201 43.127C46.9122 38.4918 47.2966 33.8567 47.4888 29.4231C47.4888 28.4154 47.2966 28.0124 46.3357 28.0124C35.9583 28.0124 25.5809 28.0124 15.2035 28.0124C14.2426 28.0124 13.6661 28.4154 13.4739 29.4231C12.5131 34.0582 11.7444 38.6934 10.7835 43.127C10.5913 44.3362 10.9757 44.7392 12.1287 44.7392C17.3174 44.5377 22.8905 44.7392 28.4635 44.7392ZM111.291 44.7392C116.864 44.7392 122.437 44.7392 128.01 44.7392C129.163 44.7392 129.355 44.3362 129.163 43.3285C128.202 38.6934 127.241 34.2598 126.472 29.6246C126.28 28.4154 125.704 28.0124 124.743 28.0124C114.365 28.0124 104.18 28.0124 93.8027 28.0124C92.8418 28.0124 92.4575 28.2139 92.4575 29.4231C92.8418 34.0582 93.034 38.4918 93.2262 43.127C93.2262 44.3362 93.8027 44.7392 94.9558 44.7392C100.337 44.5377 105.718 44.7392 111.291 44.7392ZM31.3461 22.3696C36.3427 22.3696 41.3392 22.3696 46.5279 22.3696C47.6809 22.3696 48.2575 21.9665 48.2575 20.5558C48.4496 16.1222 48.834 11.4871 49.0261 7.05348C49.0261 5.84431 48.834 5.64278 47.6809 5.64278C38.2644 5.64278 28.8479 5.64278 19.6235 5.64278C18.6627 5.64278 18.0861 6.04584 17.8939 7.05348C17.1252 11.6886 16.1644 16.1222 15.2035 20.7574C15.0113 21.9665 15.3957 22.3696 16.3565 22.3696C21.3531 22.3696 26.3496 22.3696 31.3461 22.3696ZM69.7809 22.3696C74.7775 22.3696 79.774 22.3696 84.9627 22.3696C86.1158 22.3696 86.5001 21.9665 86.5001 20.7574C86.1157 16.1222 85.7314 11.4871 85.5392 7.05348C85.5392 6.04584 84.9627 5.64278 84.0018 5.64278C74.5853 5.64278 65.1688 5.64278 55.9444 5.64278C54.9835 5.64278 54.5992 6.04584 54.407 7.05348C54.0227 11.6886 53.8305 16.1222 53.4461 20.7574C53.254 21.9665 53.8305 22.5711 54.9835 22.3696C59.9801 22.3696 64.7844 22.3696 69.7809 22.3696ZM108.216 22.3696C113.212 22.3696 118.209 22.3696 123.398 22.3696C124.551 22.3696 124.935 21.9665 124.551 20.7574C123.59 16.1222 122.629 11.6886 121.86 7.05348C121.668 6.04584 121.091 5.64278 120.131 5.64278C110.906 5.64278 101.682 5.64278 92.2653 5.64278C90.9201 5.64278 90.7279 6.24736 90.7279 7.45653C91.1123 11.8901 91.4966 16.3238 91.6888 20.7574C91.6888 21.9665 92.2653 22.3696 93.4184 22.3696C98.2227 22.3696 103.219 22.3696 108.216 22.3696ZM69.7809 102.926C77.2757 102.926 84.9627 102.926 92.4575 102.926C93.2262 102.926 94.548 102.926 94.5714 103.182C94.5714 101.973 93.2262 102.175 92.4575 102.175C77.2757 102.175 62.2861 102.175 47.1044 102.175C46.3357 102.175 45.567 102.175 45.567 103.182C45.567 103.182 46.3357 102.926 47.1044 102.926C54.7914 102.926 62.2862 102.926 69.7809 102.926ZM72.2792 90.4861C72.2792 88.4708 72.2792 86.4555 72.2792 84.4402C72.2792 82.828 71.5105 82.828 70.5497 83.0295C69.5888 83.231 67.667 81.8204 67.4749 84.4402C67.4749 88.4708 67.4749 92.2998 67.4749 96.3304C67.4749 97.338 67.8592 97.5395 68.8201 97.7411C71.7027 98.1441 72.8557 97.1365 72.2792 94.1136C72.087 92.9044 72.2792 91.6952 72.2792 90.4861Z"/>
</mask>
<path d="M123.974 0C125.511 0.403056 126.28 1.61222 126.472 3.22444C130.892 24.9895 135.312 46.956 139.54 68.721C140.309 72.5501 139.924 76.5806 139.732 80.4097C139.732 82.4249 138.195 82.828 136.273 82.828C117.248 82.828 98.4149 82.828 79.3896 82.828C77.8523 82.828 77.4679 83.231 77.4679 84.8433C77.6601 88.2692 77.4679 91.8967 77.4679 95.3227C77.4679 96.7334 77.8523 97.338 79.3896 97.338C84.7705 97.338 90.1514 97.338 95.5323 97.338C98.4149 97.338 99.9523 98.7487 99.3758 101.57C98.9914 103.384 101.105 107.011 98.0305 107.213C79.3896 107.616 60.7488 107.414 41.9157 107.414C40.7627 107.414 40.3783 107.011 40.3783 105.802C40.1861 97.7411 40.1861 97.7411 47.8731 97.7411C51.9088 97.7411 56.1366 97.7411 60.1722 97.7411C61.9018 97.7411 62.2862 97.1365 62.2862 95.5243C62.094 92.0983 62.094 88.6723 62.2862 85.2463C62.2862 83.6341 61.9018 83.0295 60.3644 83.0295C41.7235 83.0295 23.2748 83.0295 4.63395 83.0295C1.36699 83.0295 0.213924 81.8204 0.0217496 78.3944C-0.362599 63.6828 4.44177 49.9789 6.94003 35.872C8.86177 24.9895 11.1678 14.3085 13.4739 3.42597C13.8583 1.81375 14.4348 0.403056 16.1644 0C51.9088 0 88.0375 0 123.974 0ZM69.9731 72.5501C49.0262 72.5501 28.0792 72.5501 7.13221 72.5501C5.0183 72.5501 5.21047 73.7592 5.21047 75.1699C5.21047 76.7822 5.21047 77.7898 7.13221 77.7898C49.0262 77.7898 90.7279 77.7898 132.622 77.7898C134.544 77.7898 134.544 76.7822 134.544 75.3715C134.544 73.9608 134.928 72.5501 132.622 72.5501C111.675 72.5501 90.9201 72.5501 69.9731 72.5501ZM69.7809 66.9073C75.7383 66.9073 81.8879 66.9073 87.8453 66.9073C88.8062 66.9073 89.3827 66.7058 89.3827 65.4966C88.9984 60.8615 88.614 56.2263 88.4218 51.5912C88.4218 50.5835 88.0375 50.1805 87.0766 50.1805C75.7383 50.1805 64.2079 50.1805 52.8696 50.1805C51.7166 50.1805 51.5244 50.5835 51.5244 51.7927C51.3322 56.2263 50.9479 60.8615 50.5635 65.2951C50.3714 66.5042 50.9479 66.9073 52.1009 66.9073C57.8662 66.9073 63.8236 66.9073 69.7809 66.9073ZM25.3888 66.9073C31.3461 66.9073 37.4957 66.9073 43.4531 66.9073C44.6061 66.9073 45.1827 66.5042 45.1827 65.2951C45.3748 60.6599 45.7592 56.2263 45.9514 51.5912C45.9514 50.382 45.567 50.1805 44.6062 50.1805C33.2679 50.1805 21.9296 50.1805 10.5913 50.1805C9.43828 50.1805 9.05394 50.5835 8.86177 51.7927C8.09307 56.2263 7.13221 60.6599 6.17134 65.0935C5.787 66.5042 6.36349 66.9073 7.70871 66.9073C13.4739 66.9073 19.4314 66.9073 25.3888 66.9073ZM114.173 66.9073C120.131 66.9073 126.28 66.9073 132.238 66.9073C133.006 66.9073 133.967 66.9073 133.583 65.4966C132.622 60.8615 131.661 56.2263 130.7 51.3896C130.508 50.382 129.931 50.1805 129.163 50.1805C117.824 50.1805 106.294 50.1805 94.9558 50.1805C93.9949 50.1805 93.6105 50.5835 93.8027 51.5912C94.1871 56.0248 94.3792 60.4584 94.5714 64.892C94.5714 66.3027 95.1479 66.9073 96.4932 66.9073C102.451 66.9073 108.216 66.9073 114.173 66.9073ZM69.7809 44.7392C75.354 44.7392 80.7349 44.7392 86.3079 44.7392C87.2688 44.7392 87.8453 44.5377 87.8453 43.3285C87.461 38.6934 87.2688 34.0582 86.8845 29.2216C86.8845 28.2139 86.3079 28.0124 85.3471 28.0124C74.9697 28.0124 64.5923 28.0124 54.2149 28.0124C53.254 28.0124 52.6775 28.4154 52.6775 29.4231C52.4853 33.8567 52.1009 38.4918 51.7166 42.9255C51.5244 44.3361 51.9088 44.7392 53.254 44.7392C58.827 44.5377 64.4001 44.7392 69.7809 44.7392ZM28.4635 44.7392C34.0366 44.7392 39.4175 44.7392 44.9905 44.7392C46.1435 44.7392 46.7201 44.3362 46.7201 43.127C46.9122 38.4918 47.2966 33.8567 47.4888 29.4231C47.4888 28.4154 47.2966 28.0124 46.3357 28.0124C35.9583 28.0124 25.5809 28.0124 15.2035 28.0124C14.2426 28.0124 13.6661 28.4154 13.4739 29.4231C12.5131 34.0582 11.7444 38.6934 10.7835 43.127C10.5913 44.3362 10.9757 44.7392 12.1287 44.7392C17.3174 44.5377 22.8905 44.7392 28.4635 44.7392ZM111.291 44.7392C116.864 44.7392 122.437 44.7392 128.01 44.7392C129.163 44.7392 129.355 44.3362 129.163 43.3285C128.202 38.6934 127.241 34.2598 126.472 29.6246C126.28 28.4154 125.704 28.0124 124.743 28.0124C114.365 28.0124 104.18 28.0124 93.8027 28.0124C92.8418 28.0124 92.4575 28.2139 92.4575 29.4231C92.8418 34.0582 93.034 38.4918 93.2262 43.127C93.2262 44.3362 93.8027 44.7392 94.9558 44.7392C100.337 44.5377 105.718 44.7392 111.291 44.7392ZM31.3461 22.3696C36.3427 22.3696 41.3392 22.3696 46.5279 22.3696C47.6809 22.3696 48.2575 21.9665 48.2575 20.5558C48.4496 16.1222 48.834 11.4871 49.0261 7.05348C49.0261 5.84431 48.834 5.64278 47.6809 5.64278C38.2644 5.64278 28.8479 5.64278 19.6235 5.64278C18.6627 5.64278 18.0861 6.04584 17.8939 7.05348C17.1252 11.6886 16.1644 16.1222 15.2035 20.7574C15.0113 21.9665 15.3957 22.3696 16.3565 22.3696C21.3531 22.3696 26.3496 22.3696 31.3461 22.3696ZM69.7809 22.3696C74.7775 22.3696 79.774 22.3696 84.9627 22.3696C86.1158 22.3696 86.5001 21.9665 86.5001 20.7574C86.1157 16.1222 85.7314 11.4871 85.5392 7.05348C85.5392 6.04584 84.9627 5.64278 84.0018 5.64278C74.5853 5.64278 65.1688 5.64278 55.9444 5.64278C54.9835 5.64278 54.5992 6.04584 54.407 7.05348C54.0227 11.6886 53.8305 16.1222 53.4461 20.7574C53.254 21.9665 53.8305 22.5711 54.9835 22.3696C59.9801 22.3696 64.7844 22.3696 69.7809 22.3696ZM108.216 22.3696C113.212 22.3696 118.209 22.3696 123.398 22.3696C124.551 22.3696 124.935 21.9665 124.551 20.7574C123.59 16.1222 122.629 11.6886 121.86 7.05348C121.668 6.04584 121.091 5.64278 120.131 5.64278C110.906 5.64278 101.682 5.64278 92.2653 5.64278C90.9201 5.64278 90.7279 6.24736 90.7279 7.45653C91.1123 11.8901 91.4966 16.3238 91.6888 20.7574C91.6888 21.9665 92.2653 22.3696 93.4184 22.3696C98.2227 22.3696 103.219 22.3696 108.216 22.3696ZM69.7809 102.926C77.2757 102.926 84.9627 102.926 92.4575 102.926C93.2262 102.926 94.548 102.926 94.5714 103.182C94.5714 101.973 93.2262 102.175 92.4575 102.175C77.2757 102.175 62.2861 102.175 47.1044 102.175C46.3357 102.175 45.567 102.175 45.567 103.182C45.567 103.182 46.3357 102.926 47.1044 102.926C54.7914 102.926 62.2862 102.926 69.7809 102.926ZM72.2792 90.4861C72.2792 88.4708 72.2792 86.4555 72.2792 84.4402C72.2792 82.828 71.5105 82.828 70.5497 83.0295C69.5888 83.231 67.667 81.8204 67.4749 84.4402C67.4749 88.4708 67.4749 92.2998 67.4749 96.3304C67.4749 97.338 67.8592 97.5395 68.8201 97.7411C71.7027 98.1441 72.8557 97.1365 72.2792 94.1136C72.087 92.9044 72.2792 91.6952 72.2792 90.4861Z" fill="#0FB8C3" fill-opacity="0.4" stroke="white" stroke-width="2" stroke-linejoin="round" mask="url(#path-1-inside-1_230_534)"/>
</svg>
