<svg width="115" height="115" viewBox="0 0 115 115" fill="none" xmlns="http://www.w3.org/2000/svg">
<path d="M57.6801 114.018C39.3071 114.018 21.0542 114.018 2.68122 114.018C1.48037 114.018 1 113.658 1 112.457C1 89.881 1 67.305 1 44.8491C1 43.168 1.36025 42.9278 2.80127 43.6483C7.24442 45.5697 11.5675 47.491 16.0106 49.5325C16.7311 49.8927 16.9713 49.8927 16.9713 48.932C17.2115 41.0064 17.4517 32.9607 17.6918 25.0351C17.932 17.4698 18.2922 9.90442 18.1721 2.33907C18.1721 1.37839 18.5324 0.89805 19.4931 1.01813C21.7747 1.01813 24.0564 1.01813 26.338 1.01813C27.1786 1.01813 27.5388 1.37839 27.5388 2.21898C27.5388 5.22111 27.5388 8.22323 27.5388 11.1053C27.779 19.8715 28.1392 28.6377 28.3794 37.4039C28.4994 42.5675 28.7396 47.8513 28.8597 53.0149C28.8597 53.6153 28.9798 54.3359 28.9798 54.9363C28.9798 55.2965 29.22 55.4166 29.4602 55.5367C31.2614 56.2572 32.9426 57.0978 34.7439 57.9384C35.2243 58.1786 35.4644 58.0585 35.4644 57.4581C35.4644 53.135 35.4644 48.8119 35.4644 44.609C35.4644 43.288 35.9447 43.0479 37.0255 43.5282C41.5887 45.5697 46.0318 47.491 50.5951 49.5325C51.1955 49.7726 51.4357 49.7726 51.4357 49.0521C51.6759 41.9671 51.7959 34.8821 52.0361 27.7971C52.1562 22.5133 52.3964 17.2296 52.5165 11.9459C52.6366 8.70357 52.6365 5.46128 52.6365 2.21898C52.6365 1.37839 52.9968 1.01813 53.8374 1.01813C56.119 1.01813 58.5207 1.01813 60.8023 1.01813C61.6429 1.01813 61.8831 1.37839 61.8831 2.0989C61.763 8.70357 62.1233 15.1882 62.3635 21.7928C62.4835 28.1573 62.7237 34.5218 62.9639 40.8863C63.084 45.5697 63.3241 50.1329 63.4442 54.8162C63.4442 55.1764 63.6844 55.5367 64.0446 55.6568C65.7258 56.3773 67.5271 57.2179 69.3284 57.9384C69.9288 58.1786 70.0489 58.0585 70.0489 57.4581C70.0489 53.135 70.0489 48.8119 70.0489 44.4889C70.0489 43.4081 70.5292 43.0479 71.4899 43.5282L105.474 58.6589C105.954 58.8991 106.315 59.3794 106.315 59.9799C106.315 64.423 106.315 68.9862 106.315 73.4294C106.315 74.0298 106.435 74.1499 107.035 74.1499C108.956 74.1499 110.998 74.1499 112.919 74.1499C113.64 74.1499 114 74.5101 114 75.2306C114 87.8396 114 100.448 114 113.057C114 114.018 113.52 114.138 112.679 114.138C100.55 114.138 88.4219 114.138 76.2933 114.138L57.6801 114.018ZM15.17 75.5909C14.5696 75.5909 14.3295 75.711 14.3295 76.3114C14.3295 88.0797 14.3295 99.8481 14.3295 111.736C14.3295 112.337 14.4495 112.457 15.05 112.457H65.8459C66.4463 112.457 66.5664 112.217 66.5664 111.736C66.5664 107.293 66.5664 102.73 66.5664 98.2869C66.5664 97.4463 66.9267 97.0861 67.7673 97.0861C75.2126 97.0861 82.5377 97.0861 89.983 97.0861C90.8236 97.0861 91.1839 97.4463 91.1839 98.2869C91.1839 102.73 91.1839 107.173 91.1839 111.616C91.1839 112.217 91.3039 112.457 92.0244 112.457C98.6291 112.457 105.234 112.457 111.718 112.457C112.439 112.457 112.559 112.217 112.559 111.496C112.559 99.848 112.559 88.1998 112.559 76.5516C112.559 75.8311 112.319 75.5909 111.598 75.5909C95.627 75.5909 31.2614 75.5909 15.17 75.5909ZM2.68122 78.8332C2.68122 89.7609 2.68122 100.689 2.68122 111.616C2.68122 112.217 2.9214 112.457 3.52183 112.457C6.28378 112.457 9.04569 112.457 11.8076 112.457C12.5282 112.457 12.7683 112.217 12.7683 111.496C12.7683 99.3677 12.7683 87.3592 12.7683 75.2306C12.7683 74.27 13.1286 73.9097 14.0893 73.9097C21.0542 73.9097 28.0191 73.9097 35.1042 73.9097C35.5845 73.9097 35.9448 73.9097 35.9448 73.3093C35.9448 68.9862 35.9448 64.6632 35.9448 60.3401C35.9448 59.9799 35.8247 59.7397 35.4644 59.6196C24.8969 54.9363 14.3294 50.253 3.76194 45.5697C3.04143 45.2094 2.9214 45.3295 2.9214 46.05C2.68123 56.9777 2.68122 67.9055 2.68122 78.8332ZM88.4218 74.0298C93.7056 74.0298 98.9893 74.0298 104.273 74.0298C104.873 74.0298 104.994 73.9097 104.994 73.3093C104.994 69.1063 104.994 64.7833 104.994 60.5803C104.994 60.22 104.753 59.8598 104.393 59.7397C93.7056 55.0564 83.1381 50.253 72.4506 45.5697C71.8501 45.3295 71.8501 45.6897 71.8501 46.05C71.8501 55.1765 71.8501 64.3029 71.8501 73.4294C71.8501 74.0298 72.0903 74.1499 72.5707 74.1499C77.9745 74.0298 83.1381 74.0298 88.4218 74.0298ZM53.8374 74.0298C59.1211 74.0298 64.2848 74.0298 69.5686 74.0298C70.169 74.0298 70.4091 73.9097 70.4091 73.3093C70.4091 68.9862 70.4091 64.9033 70.4091 60.5803C70.4091 60.22 70.1689 59.7397 69.8087 59.6196C59.1211 54.9363 48.5537 50.1329 37.8661 45.4496C37.2657 45.2094 37.3857 45.5697 37.3857 45.9299C37.3857 54.9363 37.3857 64.0627 37.3857 73.0691C37.3857 73.7896 37.6259 73.9097 38.2263 73.9097C43.39 74.0298 48.6737 74.0298 53.8374 74.0298ZM23.0957 10.1446H21.8948C20.0935 10.1446 19.9734 10.1446 19.9734 11.9459C19.7332 19.5112 19.4931 27.0766 19.2529 34.5218C19.1328 39.6855 18.8926 44.7291 18.7726 49.8927C18.7726 50.253 18.8927 50.4931 19.1329 50.6132C21.7747 51.8141 24.4166 53.0149 27.1785 54.2158C27.6588 54.4559 27.7789 54.2158 27.7789 53.8555C27.6588 52.5346 27.6589 51.2136 27.5388 49.8927C27.2987 41.1265 26.9384 32.2402 26.6982 23.474C26.5781 19.151 26.4581 14.948 26.338 10.6249C26.338 10.2647 26.2179 10.0245 25.7375 10.0245C24.7769 10.2647 23.9363 10.1446 23.0957 10.1446ZM53.237 50.0128C53.237 50.3731 53.237 50.6132 53.4771 50.7333L61.763 54.3359C62.1233 54.4559 62.2433 54.3359 62.2433 53.9756C62.2433 52.7748 62.1233 51.5739 62.1233 50.3731L61.2827 23.474C61.1626 19.151 61.0425 14.948 60.9224 10.745C60.9224 10.3848 60.8023 10.2647 60.322 10.2647H55.1584C54.7981 10.2647 54.678 10.3848 54.678 10.745C54.678 11.1053 54.5579 11.4655 54.5579 11.9459C54.3178 17.2296 54.1977 22.3933 54.0776 27.677C53.7173 35.0022 53.4771 42.5675 53.237 50.0128ZM78.815 112.457C82.1774 112.457 85.5398 112.457 88.9022 112.457C89.5026 112.457 89.6227 112.337 89.6227 111.736C89.6227 107.654 89.6227 103.451 89.6227 99.3677C89.6227 98.8874 89.5026 98.6472 88.9022 98.6472H68.848C68.3677 98.6472 68.1275 98.7673 68.1275 99.3677C68.1275 103.451 68.1275 107.654 68.1275 111.736C68.1275 112.337 68.2476 112.457 68.848 112.457C72.2104 112.457 75.4527 112.457 78.815 112.457ZM57.6801 8.58348H60.2019C60.5621 8.58348 60.8023 8.4634 60.8023 7.98306C60.8023 6.30187 60.8023 4.74076 60.8023 3.05958C60.8023 2.69932 60.6822 2.45915 60.2019 2.45915C59.3613 2.45915 58.5207 2.45915 57.6801 2.45915C54.678 2.45915 54.678 2.45915 54.678 5.46127C54.678 8.4634 54.678 8.58348 57.6801 8.58348ZM23.0957 8.58348H25.6174C25.9777 8.58348 26.2178 8.4634 26.2178 7.98306C26.2178 6.30187 26.2178 4.74076 26.2178 3.05958C26.2178 2.69932 26.0978 2.45915 25.6174 2.45915H20.5738C20.2136 2.45915 19.9734 2.57924 19.9734 2.93949C19.9734 4.62068 19.9734 6.30187 19.9734 7.98306C19.9734 8.34331 20.2136 8.58348 20.5738 8.58348H23.0957V8.58348Z" fill="#0FB8C3" fill-opacity="0.4" stroke="#0FB8C3" stroke-opacity="0.4"/>
<path d="M40.3879 90.9619H36.7854C36.305 91.082 35.8247 90.7217 35.8247 90.2414C35.8247 90.1213 35.8247 90.1213 35.8247 90.0012V82.676C35.8247 82.1957 36.0649 81.8354 36.5453 81.7153C36.6653 81.7153 36.6653 81.7153 36.7854 81.7153H44.2307C44.711 81.7153 45.0712 82.0756 45.1913 82.4358V82.5559C45.1913 85.0777 45.1913 87.4794 45.1913 90.0012C45.1913 90.4815 44.8311 90.8418 44.3508 90.8418H44.2307L40.3879 90.9619ZM40.3879 83.2764C39.5473 83.2764 38.7068 83.2764 37.8662 83.2764C37.3858 83.2764 37.2657 83.3965 37.2657 83.8768C37.2657 85.438 37.2657 87.1191 37.2657 88.6802C37.2657 89.1606 37.3858 89.2807 37.8662 89.2807C38.7068 89.2807 39.5473 89.2807 40.3879 89.2807C43.39 89.2807 43.39 89.2807 43.39 86.2785C43.5101 83.2764 43.5101 83.2764 40.3879 83.2764Z" fill="#0FB8C3" fill-opacity="0.4" stroke="#0FB8C3" stroke-opacity="0.4"/>
<path d="M25.0172 90.9617C23.8163 90.9617 22.6155 90.9617 21.4146 90.9617C20.9343 91.0818 20.4539 90.7215 20.4539 90.2412C20.4539 90.1211 20.4539 90.001 20.4539 90.001C20.4539 87.5993 20.4539 85.0775 20.4539 82.6758C20.3339 82.1955 20.6941 81.7152 21.1744 81.7152C21.2945 81.7152 21.4146 81.7152 21.4146 81.7152H28.7398C29.2202 81.5951 29.7005 81.9553 29.7005 82.4357C29.7005 82.5558 29.7005 82.6758 29.7005 82.6758C29.7005 85.1976 29.7005 87.5993 29.7005 90.001C29.7005 90.4814 29.3402 90.8416 28.8599 90.8416H28.7398L25.0172 90.9617ZM25.0172 89.2805H27.539C27.8992 89.2805 28.1394 89.1604 28.1394 88.6801C28.1394 86.9989 28.1394 85.3177 28.1394 83.7566C28.1394 83.3964 28.0193 83.2763 27.539 83.2763C25.8578 83.2763 24.1766 83.2763 22.4954 83.2763C22.1351 83.2763 21.895 83.3963 21.895 83.8767C21.895 85.5579 21.895 87.119 21.895 88.8002C21.895 89.1604 22.0151 89.4006 22.4954 89.4006H25.0172V89.2805Z" fill="#0FB8C3" fill-opacity="0.4" stroke="#0FB8C3" stroke-opacity="0.4"/>
<path d="M40.3882 106.333H36.7856C36.3053 106.453 35.825 106.093 35.7049 105.612C35.7049 105.492 35.7049 105.372 35.7049 105.372V98.1671C35.5848 97.6868 35.9451 97.2064 36.4254 97.2064C36.5455 97.2064 36.6656 97.2064 36.7856 97.2064H44.1109C44.5912 97.0863 45.0715 97.4466 45.1916 97.8068C45.1916 97.9269 45.1916 98.047 45.1916 98.1671C45.1916 100.569 45.1916 102.97 45.1916 105.492C45.1916 106.213 44.8314 106.453 44.1109 106.453C42.7899 106.333 41.589 106.333 40.3882 106.333ZM40.3882 98.6474C39.5476 98.6474 38.707 98.6474 37.8664 98.6474C37.3861 98.6474 37.266 98.7675 37.266 99.2479C37.266 100.929 37.266 102.49 37.266 104.171C37.266 104.532 37.3861 104.772 37.8664 104.772C38.707 104.772 39.5476 104.772 40.3882 104.772C43.3903 104.772 43.3903 104.772 43.3903 101.77C43.3903 98.6474 43.5104 98.6474 40.3882 98.6474Z" fill="#0FB8C3" fill-opacity="0.4" stroke="#0FB8C3" stroke-opacity="0.4"/>
<path d="M25.0176 106.333C23.8167 106.333 22.6159 106.333 21.415 106.333C20.9347 106.453 20.4544 106.212 20.3343 105.732C20.3343 105.612 20.3343 105.492 20.3343 105.372C20.3343 102.97 20.3343 100.568 20.3343 98.0467C20.2142 97.5664 20.5745 97.086 21.0548 97.086C21.1749 97.086 21.2949 97.086 21.415 97.086H28.7403C29.2206 96.9659 29.7009 97.3262 29.7009 97.8065C29.7009 97.9266 29.7009 97.9266 29.7009 98.0467V105.372C29.7009 105.972 29.3407 106.333 28.7403 106.333H25.0176ZM21.8954 101.649C21.8954 102.49 21.8954 103.33 21.8954 104.171C21.8954 104.531 22.0154 104.651 22.3757 104.651C24.0569 104.651 25.7381 104.651 27.4193 104.651C27.7795 104.651 28.0197 104.531 28.0197 104.051C28.0197 102.37 28.0197 100.809 28.0197 99.1275C28.0197 98.7672 27.8996 98.5271 27.4193 98.5271C26.5787 98.5271 25.7381 98.5271 24.8975 98.5271C21.8954 98.6471 21.8954 98.6471 21.8954 101.649Z" fill="#0FB8C3" fill-opacity="0.4" stroke="#0FB8C3" stroke-opacity="0.4"/>
<path d="M75.8129 86.2784C75.8129 87.4792 75.8129 88.8002 75.8129 90.001C75.933 90.4814 75.5728 90.8416 75.0924 90.9617C74.9723 90.9617 74.9723 90.9617 74.8522 90.9617H67.407C66.8065 90.9617 66.4463 90.6015 66.4463 90.001C66.4463 87.5993 66.4463 85.0775 66.4463 82.6758C66.4463 81.9553 66.8065 81.7152 67.407 81.7152H74.7322C75.2125 81.5951 75.6928 81.9553 75.6928 82.4357C75.6928 82.5558 75.6928 82.6758 75.6928 82.7959C75.8129 83.8767 75.8129 85.0775 75.8129 86.2784ZM71.1296 83.2763C68.1275 83.2763 68.1275 83.2763 68.1275 86.2784C68.1275 89.2805 68.1275 89.2805 71.1296 89.2805C74.1318 89.2805 74.1318 89.2805 74.1318 86.2784C74.1318 83.2763 74.1318 83.2763 71.1296 83.2763Z" fill="#0FB8C3" fill-opacity="0.4" stroke="#0FB8C3" stroke-opacity="0.4"/>
<path d="M60.3222 101.65C60.3222 102.851 60.3222 104.172 60.3222 105.372C60.4423 105.853 60.082 106.213 59.6017 106.333C59.4816 106.333 59.4817 106.333 59.3616 106.333H51.9163C51.436 106.333 51.0757 105.973 51.0757 105.613V105.492C51.0757 102.971 51.0757 100.569 51.0757 98.0472C51.0757 97.5669 51.4359 97.2066 51.7962 97.2066H51.9163H59.3616C59.8419 97.0865 60.2022 97.4468 60.3222 97.9271C60.3222 98.0472 60.3222 98.0472 60.3222 98.1673C60.3222 99.2481 60.3222 100.449 60.3222 101.65ZM55.759 104.772C56.4795 104.772 57.3201 104.772 58.0406 104.772C58.641 104.772 58.7612 104.532 58.7612 104.051C58.7612 102.61 58.7612 101.049 58.7612 99.6083C58.7612 98.8878 58.521 98.6476 57.9205 98.7677C57.3201 98.7677 56.4795 98.7677 55.759 98.7677C54.7983 98.7677 53.4774 98.4075 52.877 98.8878C52.2765 99.4882 52.7569 100.809 52.6368 101.77C52.7569 104.772 52.7569 104.772 55.759 104.772Z" fill="#0FB8C3" fill-opacity="0.4" stroke="#0FB8C3" stroke-opacity="0.4"/>
<path d="M60.3222 86.3985C60.3222 87.5993 60.3222 88.8002 60.3222 90.001C60.3222 90.6015 60.0821 90.9617 59.3616 90.9617H52.0363C51.556 91.0818 51.0757 90.7215 51.0757 90.2412C51.0757 90.1211 51.0757 90.1211 51.0757 90.001C51.0757 87.5993 51.0757 85.1976 51.0757 82.7959C51.0757 82.0754 51.436 81.7152 52.1565 81.7152H59.3616C59.8419 81.5951 60.3222 81.9553 60.3222 82.4357C60.3222 82.5558 60.3222 82.6758 60.3222 82.7959C60.3222 83.8767 60.3222 85.0775 60.3222 86.3985ZM55.759 83.2763C54.9184 83.2763 54.0778 83.2763 53.2372 83.2763C52.8769 83.2763 52.6368 83.3964 52.6368 83.7566C52.6368 85.4378 52.6368 87.119 52.6368 88.6801C52.6368 89.0403 52.7569 89.2805 53.1171 89.2805H58.1607C58.521 89.2805 58.7612 89.0403 58.7612 88.6801C58.7612 87.8395 58.7612 86.9989 58.7612 86.2784C58.7612 83.2763 58.7612 83.2763 55.759 83.2763Z" fill="#0FB8C3" fill-opacity="0.4" stroke="#0FB8C3" stroke-opacity="0.4"/>
<path d="M86.5007 90.9617H82.8982C82.2977 90.9617 81.9375 90.7215 81.9375 90.001C81.9375 87.5993 81.9375 85.0775 81.9375 82.6758C81.9375 81.9553 82.2977 81.7152 82.8982 81.7152H90.2233C90.7037 81.5951 91.1841 81.9553 91.1841 82.4357C91.1841 82.5558 91.1841 82.6758 91.1841 82.7959V90.1211C91.1841 90.6015 90.9438 90.9617 90.4635 91.0818C90.3434 91.0818 90.3434 91.0818 90.2233 91.0818H86.5007V90.9617ZM89.6229 86.3985C89.6229 85.4378 89.8631 84.1169 89.3828 83.5164C88.9024 82.916 87.4614 83.2763 86.5007 83.2763C83.4986 83.2763 83.4986 83.2763 83.4986 86.2784C83.4986 89.2805 83.4986 89.4006 86.6208 89.4006C89.743 89.4006 89.6229 89.2805 89.6229 86.3985Z" fill="#0FB8C3" fill-opacity="0.4" stroke="#0FB8C3" stroke-opacity="0.4"/>
<path d="M101.872 106.333H98.2691C97.6687 106.333 97.3084 106.092 97.3084 105.372C97.3084 102.85 97.3084 100.448 97.3084 97.9266C97.1883 97.4462 97.5486 97.086 98.0289 96.9659C98.149 96.9659 98.149 96.9659 98.2691 96.9659H105.594C106.075 96.8458 106.555 97.2061 106.555 97.6864C106.555 97.8065 106.555 97.9266 106.555 97.9266V105.252C106.675 105.732 106.315 106.212 105.834 106.212C105.714 106.212 105.594 106.212 105.474 106.212C104.273 106.333 103.072 106.333 101.872 106.333ZM101.872 104.771C102.712 104.771 103.553 104.771 104.393 104.771C104.754 104.771 104.874 104.651 104.874 104.291C104.874 102.61 104.874 100.929 104.874 99.2475C104.874 98.8873 104.754 98.7672 104.393 98.7672C102.712 98.7672 101.031 98.7672 99.3499 98.7672C98.9896 98.7672 98.7495 98.8873 98.7495 99.3676C98.7495 101.049 98.7495 102.61 98.7495 104.291C98.7495 104.651 98.8696 104.891 99.3499 104.891C100.19 104.771 101.031 104.771 101.872 104.771Z" fill="#0FB8C3" fill-opacity="0.4" stroke="#0FB8C3" stroke-opacity="0.4"/>
<path d="M101.872 90.9617H98.149C97.6687 90.9617 97.3084 90.7215 97.3084 90.2412C97.3084 90.1211 97.3084 90.1211 97.3084 90.001C97.3084 87.5993 97.3084 85.0775 97.3084 82.6758C97.1883 82.1955 97.5486 81.7152 98.0289 81.7152C98.149 81.7152 98.2691 81.7152 98.3892 81.7152H105.594C106.075 81.5951 106.555 81.9553 106.675 82.4357C106.675 82.5558 106.675 82.6758 106.675 82.7959V90.001C106.675 90.7215 106.315 91.0818 105.594 91.0818C104.273 90.9617 103.072 90.9617 101.872 90.9617ZM101.872 89.2805C102.712 89.2805 103.553 89.2805 104.273 89.2805C104.754 89.2805 104.874 89.0403 104.874 88.6801C104.874 87.119 104.874 85.5579 104.874 83.8767C104.874 83.3963 104.634 83.2763 104.153 83.2763C102.472 83.2763 100.911 83.2763 99.2298 83.2763C98.7494 83.2763 98.6293 83.5164 98.6293 83.8767C98.6293 85.4378 98.6293 87.119 98.6293 88.6801C98.6293 89.1604 98.7494 89.2805 99.2298 89.2805C100.311 89.2805 101.031 89.2805 101.872 89.2805Z" fill="#0FB8C3" fill-opacity="0.4" stroke="#0FB8C3" stroke-opacity="0.4"/>
</svg>
