<svg width="110" height="131" viewBox="0 0 110 131" fill="none" xmlns="http://www.w3.org/2000/svg">
<path d="M60.5138 72.2294H60.5135L60.5141 72.2429C60.7393 77.2546 60.9855 83.5724 61.245 90.2287C61.6854 101.529 62.1638 113.805 62.6421 122.321C62.6433 122.731 62.726 123.062 62.9899 123.297C63.2303 123.511 63.5773 123.597 63.9475 123.671L63.9475 123.671L63.957 123.673C64.5824 123.777 65.199 123.862 65.8109 123.947C67.0171 124.115 68.2051 124.28 69.4065 124.58C70.274 124.797 70.9289 125.187 71.3324 125.708C71.7311 126.223 71.9079 126.896 71.7678 127.736L71.7672 127.74C71.6243 128.669 71.2393 129.305 70.7001 129.664C70.1601 130.024 69.4146 130.141 68.4825 129.926L68.4826 129.925L68.4722 129.923C58.2605 127.942 48.1773 127.48 37.9327 130.384C37.0781 130.597 36.3266 130.518 35.7452 130.186C35.1661 129.855 34.7144 129.249 34.5014 128.326C34.2888 127.405 34.4366 126.699 34.8137 126.174C35.1961 125.642 35.8449 125.254 36.7127 125.036C39.2971 124.428 41.8718 123.823 44.4451 123.368C44.9137 123.29 45.3054 123.163 45.567 122.875C45.832 122.584 45.9101 122.188 45.9111 121.713C46.2911 115.098 46.6711 106.113 47.051 97.1126L47.0602 96.8961C47.4372 87.9621 47.8141 79.0313 48.191 72.3984C48.1913 72.3928 48.1915 72.3871 48.1915 72.3814C48.1915 72.2848 48.1954 72.1929 48.1995 72.0955C48.2016 72.0455 48.2038 71.994 48.2056 71.9398C48.2104 71.789 48.2113 71.6249 48.1885 71.4648C48.1653 71.3026 48.1164 71.1338 48.0145 70.9776C47.9112 70.8192 47.7642 70.6901 47.5696 70.5928C47.55 70.583 47.5294 70.5754 47.5082 70.5701C47.2892 70.5154 47.0898 70.5402 46.9164 70.6309C46.7528 70.7164 46.6346 70.8488 46.5467 70.9698C46.4756 71.0675 46.4109 71.1775 46.3566 71.2699C46.3447 71.2901 46.3334 71.3094 46.3225 71.3276C46.2551 71.4408 46.2054 71.5148 46.1591 71.5612C46.147 71.5732 46.1361 71.5863 46.1262 71.6002C39.945 80.3443 31.0437 85.0304 21.3298 88.8249C15.119 91.2486 8.75372 92.9162 2.23167 94.1298C1.8024 94.2011 1.40362 94.1948 1.09034 94.0851C0.791137 93.9804 0.560164 93.7797 0.439699 93.4183C0.437069 93.4104 0.434113 93.4026 0.430837 93.395C0.234002 92.9357 0.280429 92.6223 0.43009 92.3774C0.594171 92.1089 0.911544 91.8741 1.35346 91.6531C1.35905 91.6503 1.36454 91.6473 1.36994 91.6442C15.5087 83.4346 29.6455 75.2261 43.9341 67.1698L43.9342 67.1699L43.9411 67.1657C44.3416 66.9254 44.6543 66.6664 44.8612 66.3217C45.0694 65.9746 45.1509 65.5733 45.1509 65.0842C45.1509 65.0777 45.1507 65.0713 45.1503 65.0648C44.8549 60.4858 47.3576 56.6594 51.787 55.1829C51.8376 55.1661 51.8893 55.151 51.9449 55.1349C51.9986 55.1194 52.0582 55.1024 52.1152 55.0838C52.2244 55.0483 52.3627 54.9956 52.4765 54.8981C52.6043 54.7885 52.6846 54.6374 52.697 54.4475C52.7083 54.274 52.6621 54.0831 52.5788 53.8748C52.5729 53.8601 52.5659 53.846 52.5578 53.8324C46.5319 43.739 46.8223 32.7296 48.3408 21.4926L48.3409 21.4921C49.2499 14.6742 50.9164 8.15956 53.3407 1.79579L53.341 1.79588L53.345 1.78386C53.4954 1.33274 53.6689 0.931397 53.925 0.659387C54.163 0.406485 54.4859 0.250177 54.9995 0.314382C55.2604 0.346993 55.4471 0.425959 55.5846 0.528235C55.7223 0.630603 55.826 0.767637 55.9038 0.938979C56.0649 1.29333 56.105 1.76796 56.105 2.2971V2.39598V2.49485V2.59373V2.69261V2.79148V2.89036V2.98924V3.08812V3.18699V3.28587V3.38475V3.48362V3.5825V3.68138V3.78026V3.87913V3.97801V4.07689V4.17577V4.27464V4.37352V4.4724V4.57128V4.67016V4.76904V4.86792V4.9668V5.06568V5.16455V5.26343V5.36231V5.46119V5.56007V5.65896V5.75784V5.85672V5.9556V6.05448V6.15336V6.25224V6.35113V6.45001V6.54889V6.64778V6.74666V6.84554V6.94443V7.04331V7.1422V7.24108V7.33997V7.43885V7.53774V7.63662V7.73551V7.8344V7.93329V8.03217V8.13106V8.22995V8.32884V8.42773V8.52662V8.62551V8.7244V8.82329V8.92218V9.02108V9.11997V9.21886V9.31776V9.41665V9.51555V9.61444V9.71334V9.81223V9.91113V10.01V10.1089V10.2078V10.3067V10.4056V10.5045V10.6034V10.7023V10.8012V10.9001V10.999V11.0979V11.1968V11.2957V11.3946V11.4936V11.5925V11.6914V11.7903V11.8892V11.9881V12.087V12.1859V12.2848V12.3837V12.4826V12.5816V12.6805V12.7794V12.8783V12.9772V13.0761V13.1751V13.274V13.3729V13.4718V13.5707V13.6697V13.7686V13.8675V13.9664V14.0653V14.1643V14.2632V14.3621V14.4611V14.56V14.6589V14.7578V14.8568V14.9557V15.0546V15.1536V15.2525V15.3514V15.4504V15.5493V15.6483V15.7472V15.8461V15.9451V16.044V16.143V16.2419V16.3408V16.4398V16.5387V16.6377V16.7366V16.8356V16.9345V17.0335V17.1324V17.2314V17.3303V17.4293V17.5283V17.6272V17.7262V17.8251V17.9241V18.0231V18.122V18.221V18.32V18.4189V18.5179V18.6169V18.7158V18.8148V18.9138V19.0127V19.1117V19.2107V19.3097V19.4086V19.5076V19.6066V19.7056V19.8046V19.9036V20.0025V20.1015V20.2005V20.2995V20.3985V20.4975V20.5965V20.6955V20.7945V20.8935V20.9925V21.0915V21.1905V21.2895V21.3885V21.4875V21.5865V21.6855V21.7845V21.8835V21.9825V22.0815V22.1805V22.2795V22.3786V22.4776V22.5766V22.6756V22.7746V22.8737V22.9727V23.0717V23.1707V23.2698V23.3688V23.4678V23.5669V23.6659V23.7649V23.864V23.963V24.062V24.1611V24.2601V24.3592V24.4582V24.5573V24.6563V24.7554V24.8544V24.9535V25.0525V25.1516V25.2507V25.3497V25.4488V25.5478V25.6469V25.746V25.845V25.9441V26.0432V26.1423V26.2413V26.3404V26.4395V26.5386V26.6376V26.7367V26.8358V26.9349V27.034V27.1331V27.2322V27.3313V27.4304V27.5295V27.6286V27.7277V27.8268V27.9259V28.025V28.1241V28.2232V28.3223V28.4214V28.5205V28.6196V28.7188V28.8179V28.917V29.0161V29.1152V29.2144V29.3135V29.4126V29.5118V29.6109V29.71V29.8092V29.9083V30.0075V30.1066V30.2057V30.3049V30.404V30.5032V30.6024V30.7015V30.8007V30.8998V30.999V31.0982V31.1973V31.2965V31.3957V31.4948V31.594V31.6932V31.7923V31.8915V31.9907V32.0899V32.1891V32.2883V32.3875V32.4866V32.5858V32.685V32.7842V32.8834V32.9826V33.0818V33.181V33.2803V33.3795V33.4787V33.5779V33.6771V33.7763V33.8756V33.9748V34.074V34.1732V34.2725V34.3717V34.4709V34.5702V34.6694V34.7686V34.8679V34.9671V35.0664V35.1656V35.2649V35.3641V35.4634V35.5627V35.6619V35.7612V35.8605V35.9597V36.059V36.1583V36.2575V36.3568V36.4561V36.5554V36.6547V36.7539V36.8532V36.9525V37.0518V37.1511V37.2504V37.3497V37.449V37.5483V37.6476V37.747V37.8463V37.9456V38.0449V38.1442V38.2435V38.3429V38.4422V38.5415V38.6409V38.7402V38.8395V38.9389V39.0382V39.1376V39.2369V39.3363V39.4356V39.535V39.6343V39.7337V39.8331V39.9324V40.0318V40.1312V40.2305V40.3299V40.4293V40.5287V40.6281V40.7274V40.8268V40.9262V41.0256V41.125V41.2244V41.3238V41.4232V41.5226V41.622V41.7215V41.8209V41.9203V42.0197V42.1191V42.2186V42.318V42.4174V42.5169V42.6163V42.7157V42.8152V42.9146V43.0141V43.1135V43.213V43.3125V43.4119V43.5114V43.6108V43.7103V43.8098V43.9093V44.0087V44.1082V44.2077V44.3072V44.4067V44.5062V44.6057V44.7052V44.8047V44.9042V45.0037V45.1032V45.2027V45.3022V45.4017V45.5012V45.6008V45.7003V45.7998V45.8994V45.9989V46.0984V46.198V46.2975V46.3971V46.4966V46.5962V46.6957V46.7953V46.8949V46.9944V47.094V47.1936V47.2931V47.3927V47.4923V47.5919V47.6915V47.7911V47.8907V47.9903V48.0899V48.1895V48.2891V48.3887V48.4883V48.5879V48.6875V48.7872V48.8868V48.9864V49.086V49.1857V49.2853V49.385V49.4846V49.5842V49.6839V49.7836V49.8832V49.9829V50.0825V50.1822V50.2819V50.3815V50.4812V50.5809V50.6806V50.7803V50.88V50.9797V51.0794V51.1791V51.2788V51.3785V51.4782V51.5779V51.6776V51.7773V51.8771V51.9768V52.0765V52.1763V52.276V52.3757V52.4755V52.5752V52.675V52.7747V52.8745V52.9743V53.074C56.105 53.6055 56.1387 54.0653 56.3786 54.4492C56.6222 54.839 57.0421 55.0966 57.6679 55.3313C57.6759 55.3343 57.6841 55.337 57.6923 55.3393C61.3587 56.3659 64.0127 59.894 64.1624 63.7217V63.7237C64.1624 63.8699 64.1624 64.0242 64.1755 64.1664C64.1889 64.3111 64.2176 64.4673 64.2891 64.6102C64.3644 64.7609 64.4821 64.8861 64.6513 64.9688C64.8112 65.047 65.0006 65.0793 65.2142 65.0801C76.3645 65.6852 85.2703 71.2597 93.7703 77.9382L93.7705 77.9385C99.3289 82.295 104.293 87.2488 108.812 92.6537C108.714 92.9388 108.707 93.2297 108.706 93.5518C108.311 93.987 107.941 94.179 107.566 94.2223C107.158 94.2693 106.692 94.1478 106.108 93.8571C91.9724 85.6492 77.9882 77.5932 63.8521 69.5371C63.3383 69.2378 62.8485 69.17 62.404 69.2886C61.9676 69.4049 61.6136 69.6905 61.341 70.0259C60.8036 70.6874 60.5138 71.6283 60.5138 72.2294ZM50.9365 120.169C50.9329 120.239 50.954 120.308 50.9961 120.364C51.0311 120.411 51.0512 120.491 51.0155 120.669C50.9985 120.755 50.9721 120.846 50.9408 120.95L50.9298 120.987C50.9026 121.077 50.8724 121.177 50.8492 121.274C50.7998 121.481 50.7548 121.778 50.9192 122.035C51.0858 122.295 51.3993 122.415 51.7995 122.458C52.5902 122.614 53.3745 122.612 54.1321 122.593C54.2427 122.591 54.3526 122.588 54.4618 122.584C55.1143 122.566 55.7443 122.548 56.3751 122.611C56.3851 122.612 56.395 122.613 56.405 122.613C56.9052 122.613 57.2885 122.487 57.5218 122.166C57.7362 121.871 57.7692 121.477 57.7692 121.096C57.7692 121.089 57.769 121.083 57.7685 121.076C57.6176 118.889 57.5041 114.348 57.3904 109.804L57.389 109.749C57.2752 105.196 57.161 100.649 57.0085 98.5109C57.0084 98.5102 57.0083 98.5094 57.0083 98.5087L56.3244 86.6547L55.6408 74.805C55.6396 74.3989 55.5588 74.0376 55.3059 73.7846C55.0511 73.5298 54.6863 73.4497 54.2766 73.4497C53.9208 73.4497 53.6144 73.5399 53.3742 73.7535C53.14 73.9616 53.0048 74.2553 52.9214 74.5891C52.9167 74.6079 52.9138 74.6272 52.9128 74.6467C52.6087 80.6529 52.2666 89.0315 51.9246 97.4081L51.9245 97.4108C51.5824 105.789 51.2404 114.166 50.9365 120.169ZM54.6157 59.4653C54.5924 59.4625 54.5689 59.4625 54.5456 59.4653C53.2203 59.6212 52.0854 60.0152 51.2796 60.759C50.4649 61.5111 50.0239 62.586 50.0239 64.0199C50.0239 65.3702 50.4218 66.5148 51.1895 67.324C51.9591 68.1352 53.0696 68.5767 54.4287 68.5767C55.8511 68.5767 56.9993 68.1808 57.7925 67.4085C58.5868 66.6351 58.9854 65.523 58.9854 64.172C58.9854 62.7468 58.588 61.6378 57.8171 60.8462C57.0502 60.0585 55.9498 59.6222 54.6157 59.4653Z" fill="#0FB8C3" fill-opacity="0.4" stroke="white" stroke-width="0.6" stroke-linejoin="round"/>
<path d="M41.2711 31.5028C41.2625 31.5052 41.254 31.5081 41.2456 31.5113C28.5194 36.4178 20.5291 47.7744 20.6819 60.6781C20.6821 61.7632 20.8366 62.8447 20.9876 63.9014L20.989 63.9113L20.9889 63.9113L20.99 63.9182C21.056 64.3136 20.9868 64.6532 20.8251 64.9031C20.6656 65.1496 20.4003 65.334 20.0205 65.3973C19.625 65.4632 19.2854 65.394 19.0355 65.2323C18.7907 65.0739 18.6072 64.8111 18.5427 64.4354C18.4793 63.8623 18.4428 63.2627 18.4098 62.7204C18.4041 62.6263 18.3985 62.534 18.3928 62.4439C18.3738 62.1399 18.3545 61.8588 18.3301 61.6239C18.3089 61.4208 18.2821 61.2317 18.2414 61.0878C18.2606 46.6397 27.5976 33.7046 40.3805 29.1887C40.8969 29.0419 41.3273 28.985 41.6671 29.0622C41.9806 29.1335 42.2493 29.3261 42.4433 29.7747C42.6399 30.3036 42.5589 30.6432 42.3709 30.8849C42.1634 31.1517 41.7818 31.3568 41.2711 31.5028Z" fill="#0FB8C3" fill-opacity="0.4" stroke="white" stroke-width="0.6" stroke-linejoin="round"/>
<path d="M86.042 63.7584L86.0422 63.7584L86.0432 63.7496C87.1174 54.2352 84.3509 46.0896 77.7525 39.1844L77.7524 39.1843C74.3744 35.6528 70.2333 33.047 65.794 31.2098C65.2769 30.988 64.9269 30.7507 64.7489 30.4837C64.5885 30.2431 64.5401 29.9356 64.7371 29.4761C64.932 29.0211 65.2035 28.8272 65.5 28.7566C65.8176 28.681 66.2083 28.7367 66.6424 28.8809C79.2874 33.5498 88.7784 46.803 88.7897 60.499C88.7133 60.9689 88.6753 61.5458 88.6382 62.1585C88.635 62.2103 88.6319 62.2623 88.6288 62.3146C88.5937 62.8978 88.5565 63.5162 88.488 64.1341C88.4151 64.6406 88.2764 64.9791 88.0794 65.1761C87.8978 65.3577 87.6223 65.462 87.1558 65.3953C86.6898 65.3288 86.394 65.1367 86.2227 64.8798C86.0476 64.6171 85.9729 64.2421 86.042 63.7584Z" fill="#0FB8C3" fill-opacity="0.4" stroke="white" stroke-width="0.6" stroke-linejoin="round"/>
<path d="M41.6329 38.1426L41.633 38.1427L41.6383 38.14C42.0749 37.9217 42.5037 37.8006 42.8525 37.8461C43.0206 37.8681 43.1697 37.9284 43.2994 38.0373C43.4303 38.1473 43.5558 38.319 43.6556 38.5852C43.7582 38.8586 43.7844 39.0685 43.7686 39.2324C43.753 39.3928 43.6958 39.5258 43.6032 39.6468C43.4052 39.9058 43.0531 40.1063 42.5881 40.3389C38.4474 42.3329 35.1735 44.9477 32.8774 48.2472C30.5801 51.5483 29.2728 55.5188 29.0423 60.2049C29.0422 60.2071 29.0422 60.2092 29.0421 60.2114C29.042 60.2142 29.042 60.2169 29.042 60.2196C29.042 60.6125 28.9107 60.9533 28.7046 61.1741C28.5053 61.3876 28.2253 61.503 27.871 61.444C27.8547 61.4413 27.8382 61.4399 27.8217 61.4399C27.2998 61.4399 26.9788 61.2505 26.7753 60.9597C26.5607 60.6532 26.4508 60.1961 26.4494 59.6226C27.2039 49.5595 32.4513 42.5077 41.6329 38.1426Z" fill="#0FB8C3" fill-opacity="0.4" stroke="white" stroke-width="0.6" stroke-linejoin="round"/>
<path d="M77.9886 60.3714C77.9886 60.3667 77.9885 60.3619 77.9882 60.3572C77.7578 55.5187 76.4123 51.4708 74.0374 48.1305C71.6662 44.7954 68.2813 42.183 63.9954 40.1907C63.6701 39.9923 63.4659 39.7444 63.3801 39.4724C63.2939 39.1996 63.314 38.8624 63.5144 38.4617C63.7082 38.074 63.9432 37.9152 64.201 37.861C64.4808 37.8021 64.8339 37.8562 65.2721 38.0016C73.6673 41.3037 80.278 50.7683 80.4291 60.0698C80.4288 60.4982 80.356 60.8484 80.1922 61.1016C80.037 61.3415 79.7775 61.5291 79.3184 61.5947C78.8704 61.6587 78.5496 61.5303 78.3378 61.3185C78.1193 61.1 77.9886 60.7638 77.9886 60.3714Z" fill="#0FB8C3" fill-opacity="0.4" stroke="white" stroke-width="0.6" stroke-linejoin="round"/>
</svg>
