<svg width="130" height="44" viewBox="0 0 130 44" fill="none" xmlns="http://www.w3.org/2000/svg">
<path d="M63.3691 12.0686V14.3133H52.1454V21.4964H62.8453V23.7411H52.1454V31.2236H63.5935V33.4683H49.377V12.0686H63.3691Z" fill="#0FC391"/>
<path d="M71.8923 33.4683H69.0191L78.1027 12.0686H81.1705L90.2991 33.4683H87.2313L84.4628 26.7341H77.3844L78.1476 24.4894H83.535L79.5394 14.7922L71.8923 33.4683Z" fill="#0FC391"/>
<path d="M111.082 32.72C109.236 33.3186 107.241 33.6179 105.096 33.6179C97.6135 33.6179 93.8723 29.9017 93.8723 22.4691C93.8723 15.4357 97.6135 11.9189 105.096 11.9189C107.241 11.9189 109.236 12.2182 111.082 12.8168V15.2112C109.236 14.5128 107.341 14.1637 105.395 14.1637C99.559 14.1637 96.6408 16.9322 96.6408 22.4691C96.6408 28.4052 99.559 31.3732 105.395 31.3732C107.341 31.3732 109.236 31.024 111.082 30.3257V32.72Z" fill="#0FC391"/>
<path d="M63.3691 12.0686V14.3133H52.1454V21.4964H62.8453V23.7411H52.1454V31.2236H63.5935V33.4683H49.377V12.0686H63.3691Z" stroke="#0FC391" stroke-width="0.510799" stroke-linejoin="round"/>
<path d="M71.8923 33.4683H69.0191L78.1027 12.0686H81.1705L90.2991 33.4683H87.2313L84.4628 26.7341H77.3844L78.1476 24.4894H83.535L79.5394 14.7922L71.8923 33.4683Z" stroke="#0FC391" stroke-width="0.510799" stroke-linejoin="round"/>
<path d="M111.082 32.72C109.236 33.3186 107.241 33.6179 105.096 33.6179C97.6135 33.6179 93.8723 29.9017 93.8723 22.4691C93.8723 15.4357 97.6135 11.9189 105.096 11.9189C107.241 11.9189 109.236 12.2182 111.082 12.8168V15.2112C109.236 14.5128 107.341 14.1637 105.395 14.1637C99.559 14.1637 96.6408 16.9322 96.6408 22.4691C96.6408 28.4052 99.559 31.3732 105.395 31.3732C107.341 31.3732 109.236 31.024 111.082 30.3257V32.72Z" stroke="#0FC391" stroke-width="0.510799" stroke-linejoin="round"/>
<path d="M116.624 21.7507C116.624 20.4139 117.198 19.2965 118.345 18.3986C119.492 17.5007 120.924 17.0518 122.64 17.0518C124.326 17.0518 125.718 17.4408 126.815 18.219C127.912 18.9972 128.546 20.0497 128.715 21.3766H126.171C125.992 20.7181 125.603 20.1994 125.004 19.8202C124.376 19.4312 123.583 19.2366 122.625 19.2366C121.657 19.2366 120.849 19.4561 120.201 19.8951C119.542 20.354 119.213 20.9376 119.213 21.646C119.213 22.6935 120.146 23.4467 122.011 23.9056L124.495 24.5042C126.032 24.8734 127.164 25.4021 127.892 26.0905C128.631 26.7988 129 27.7267 129 28.874C129 30.3006 128.381 31.4728 127.144 32.3907C125.927 33.2986 124.391 33.7525 122.535 33.7525C120.739 33.7525 119.268 33.3534 118.12 32.5553C116.973 31.7572 116.33 30.6897 116.19 29.3528H118.839C119.308 30.8393 120.57 31.5826 122.625 31.5826C123.712 31.5826 124.605 31.3481 125.304 30.8792C126.002 30.4103 126.351 29.8068 126.351 29.0685C126.351 27.9711 125.498 27.2129 123.792 26.7938L121.024 26.1204C119.497 25.7513 118.385 25.2225 117.686 24.5342C116.978 23.8358 116.624 22.908 116.624 21.7507Z" fill="#0FC391" stroke="#0FC391" stroke-width="0.510799" stroke-linejoin="round"/>
<path d="M26.628 1.3351C26.3362 0.969795 25.9752 0.665692 25.5657 0.440236C25.1561 0.21478 24.7061 0.0724089 24.2414 0.0212918C23.7767 -0.0298254 23.3065 0.0113176 22.8577 0.142359C22.4089 0.273401 21.9905 0.491762 21.6263 0.784915L1.26948 17.824C0.910132 18.1226 0.613874 18.4898 0.397998 18.9042C0.182121 19.3185 0.0509533 19.7718 0.0121517 20.2374C-0.0266499 20.703 0.0276927 21.1717 0.172006 21.6161C0.316319 22.0605 0.54771 22.4716 0.852674 22.8256L1.26948 23.3258C1.60787 23.7148 2.02912 24.0231 2.50228 24.2279C2.97545 24.4328 3.4885 24.529 4.00373 24.5095L26.3279 24.3928C26.5613 24.3928 26.778 24.6596 26.5113 24.8763L12.3399 36.7803C12.2916 36.7985 12.2399 36.8053 12.1886 36.8002C12.1373 36.795 12.0879 36.778 12.0443 36.7506C12.0007 36.7231 11.964 36.6859 11.9372 36.6419C11.9103 36.5979 11.8941 36.5482 11.8897 36.4969L12.0898 27.4105C12.0898 26.5769 10.7727 26.3435 10.5726 27.1437L7.23815 39.1644C7.07517 39.7321 7.04912 40.3302 7.16215 40.9099C7.27518 41.4895 7.52406 42.0341 7.88837 42.4989C8.18712 42.8575 8.55395 43.1534 8.96768 43.3695C9.38141 43.5856 9.83385 43.7176 10.2989 43.7579C10.7639 43.7982 11.2323 43.746 11.677 43.6043C12.1218 43.4626 12.534 43.2342 12.89 42.9324L32.8967 26.1101C33.5731 25.4722 33.9833 24.6023 34.0451 23.6747C34.1069 22.7471 33.8158 21.8304 33.2302 21.1084L32.7967 20.6082C32.4569 20.2198 32.0358 19.9109 31.5633 19.7035C31.0907 19.496 30.5784 19.3951 30.0625 19.4078H7.87169C7.63828 19.4078 7.42154 19.1244 7.67162 18.9076L21.9764 6.90363C22.1098 6.8036 22.4599 6.90363 22.4266 7.18706L22.2265 16.2734C22.2265 17.107 23.5603 17.3405 23.7437 16.5402L27.0781 4.5195C27.2475 3.98904 27.2949 3.4272 27.217 2.87585C27.139 2.3245 26.9377 1.79784 26.628 1.3351Z" fill="#0FC391"/>
</svg>
