<svg width="35" height="35" viewBox="0 0 35 35" fill="none" xmlns="http://www.w3.org/2000/svg">
<circle cx="17.5" cy="17.5" r="17.5" fill="#121617"/>
<path d="M23.1662 9.08404L19.2495 14.8965C19.1928 14.9809 19.169 15.0831 19.1824 15.1839C19.1959 15.2847 19.2457 15.3771 19.3225 15.4437C19.3994 15.5102 19.4979 15.5464 19.5996 15.5454C19.7012 15.5444 19.799 15.5063 19.8745 15.4382L23.7287 12.084C23.7511 12.0638 23.7791 12.0507 23.809 12.0466C23.8389 12.0425 23.8694 12.0476 23.8964 12.0611C23.9234 12.0746 23.9457 12.0959 23.9604 12.1223C23.9751 12.1487 23.9815 12.179 23.9787 12.209V22.6882C23.9783 22.7194 23.9685 22.7498 23.9507 22.7755C23.9328 22.8011 23.9077 22.8207 23.8785 22.832C23.8494 22.8432 23.8175 22.8454 23.7871 22.8384C23.7567 22.8313 23.7291 22.8152 23.7078 22.7923L12.0412 8.834C11.8575 8.60893 11.6253 8.42836 11.3619 8.30569C11.0985 8.18303 10.8108 8.12148 10.5203 8.12569H10.1037C9.57653 8.13009 9.07252 8.34286 8.70171 8.71758C8.33089 9.09229 8.1234 9.59854 8.12452 10.1257V24.8757C8.12415 25.3121 8.26656 25.7367 8.53001 26.0846C8.79345 26.4326 9.16348 26.6848 9.58365 26.8029C10.0038 26.9209 10.4511 26.8982 10.8572 26.7384C11.2633 26.5785 11.6059 26.2901 11.8328 25.9173L15.7495 20.1049C15.8062 20.0205 15.8301 19.9183 15.8166 19.8175C15.8031 19.7167 15.7533 19.6243 15.6765 19.5577C15.5997 19.4911 15.5011 19.4549 15.3995 19.456C15.2978 19.457 15.2 19.4951 15.1245 19.5632L11.2703 22.8965C11.2479 22.9168 11.22 22.9298 11.19 22.9339C11.1601 22.938 11.1297 22.933 11.1026 22.9194C11.0756 22.9059 11.0533 22.8846 11.0386 22.8582C11.0239 22.8318 11.0176 22.8016 11.0203 22.7715V12.3132C11.0208 12.282 11.0305 12.2516 11.0484 12.2259C11.0662 12.2003 11.0913 12.1806 11.1205 12.1694C11.1496 12.1582 11.1815 12.156 11.2119 12.163C11.2423 12.1701 11.27 12.1861 11.2912 12.209L22.9579 26.1674C23.143 26.3907 23.3756 26.5701 23.6386 26.6926C23.9016 26.8151 24.1885 26.8777 24.4787 26.8757H24.8954C25.4258 26.8757 25.9345 26.665 26.3096 26.2899C26.6846 25.9148 26.8953 25.4061 26.8953 24.8757V10.1257C26.8919 9.68862 26.7464 9.2645 26.4807 8.91737C26.2151 8.57024 25.8438 8.31892 25.4228 8.20132C25.0018 8.08373 24.554 8.10623 24.147 8.26546C23.7399 8.42469 23.3957 8.71202 23.1662 9.08404Z" fill="white"/>
</svg>
